ISO-10303-21;
HEADER;
FILE_DESCRIPTION(('Open CASCADE Model'),'2;1');
FILE_NAME('Open CASCADE Shape Model','2025-08-27T00:52:41',('Author'),(
    'Open CASCADE'),'Open CASCADE STEP processor 7.5','Open CASCADE 7.5'
  ,'Unknown');
FILE_SCHEMA(('AUTOMOTIVE_DESIGN { 1 0 10303 214 1 1 1 1 }'));
ENDSEC;
DATA;
#1 = APPLICATION_PROTOCOL_DEFINITION('international standard',
  'automotive_design',2000,#2);
#2 = APPLICATION_CONTEXT(
  'core data for automotive mechanical design processes');
#3 = SHAPE_DEFINITION_REPRESENTATION(#4,#10);
#4 = PRODUCT_DEFINITION_SHAPE('','',#5);
#5 = PRODUCT_DEFINITION('design','',#6,#9);
#6 = PRODUCT_DEFINITION_FORMATION('','',#7);
#7 = PRODUCT('PCB','PCB','',(#8));
#8 = PRODUCT_CONTEXT('',#2,'mechanical');
#9 = PRODUCT_DEFINITION_CONTEXT('part definition',#2,'design');
#10 = SHAPE_REPRESENTATION('',(#11),#15);
#11 = AXIS2_PLACEMENT_3D('',#12,#13,#14);
#12 = CARTESIAN_POINT('',(0.,0.,0.));
#13 = DIRECTION('',(0.,0.,1.));
#14 = DIRECTION('',(1.,0.,-0.));
#15 = ( GEOMETRIC_REPRESENTATION_CONTEXT(3) 
GLOBAL_UNCERTAINTY_ASSIGNED_CONTEXT((#19)) GLOBAL_UNIT_ASSIGNED_CONTEXT(
(#16,#17,#18)) REPRESENTATION_CONTEXT('Context #1',
  '3D Context with UNIT and UNCERTAINTY') );
#16 = ( LENGTH_UNIT() NAMED_UNIT(*) SI_UNIT(.MILLI.,.METRE.) );
#17 = ( NAMED_UNIT(*) PLANE_ANGLE_UNIT() SI_UNIT($,.RADIAN.) );
#18 = ( NAMED_UNIT(*) SI_UNIT($,.STERADIAN.) SOLID_ANGLE_UNIT() );
#19 = UNCERTAINTY_MEASURE_WITH_UNIT(LENGTH_MEASURE(1.E-07),#16,
  'distance_accuracy_value','confusion accuracy');
#20 = PRODUCT_RELATED_PRODUCT_CATEGORY('part',$,(#7));
#21 = SHAPE_DEFINITION_REPRESENTATION(#22,#28);
#22 = PRODUCT_DEFINITION_SHAPE('','',#23);
#23 = PRODUCT_DEFINITION('design','',#24,#27);
#24 = PRODUCT_DEFINITION_FORMATION('','',#25);
#25 = PRODUCT('Designator1','Designator1','',(#26));
#26 = PRODUCT_CONTEXT('',#2,'mechanical');
#27 = PRODUCT_DEFINITION_CONTEXT('part definition',#2,'design');
#28 = SHAPE_REPRESENTATION('',(#11,#29),#33);
#29 = AXIS2_PLACEMENT_3D('',#30,#31,#32);
#30 = CARTESIAN_POINT('',(0.,0.,0.));
#31 = DIRECTION('',(0.,0.,1.));
#32 = DIRECTION('',(1.,0.,0.));
#33 = ( GEOMETRIC_REPRESENTATION_CONTEXT(3) 
GLOBAL_UNCERTAINTY_ASSIGNED_CONTEXT((#37)) GLOBAL_UNIT_ASSIGNED_CONTEXT(
(#34,#35,#36)) REPRESENTATION_CONTEXT('Context #1',
  '3D Context with UNIT and UNCERTAINTY') );
#34 = ( LENGTH_UNIT() NAMED_UNIT(*) SI_UNIT(.MILLI.,.METRE.) );
#35 = ( NAMED_UNIT(*) PLANE_ANGLE_UNIT() SI_UNIT($,.RADIAN.) );
#36 = ( NAMED_UNIT(*) SI_UNIT($,.STERADIAN.) SOLID_ANGLE_UNIT() );
#37 = UNCERTAINTY_MEASURE_WITH_UNIT(LENGTH_MEASURE(1.E-07),#34,
  'distance_accuracy_value','confusion accuracy');
#38 = PRODUCT_RELATED_PRODUCT_CATEGORY('part',$,(#25));
#39 = SHAPE_DEFINITION_REPRESENTATION(#40,#46);
#40 = PRODUCT_DEFINITION_SHAPE('','',#41);
#41 = PRODUCT_DEFINITION('design','',#42,#45);
#42 = PRODUCT_DEFINITION_FORMATION('','',#43);
#43 = PRODUCT('7932692832','7932692832','',(#44));
#44 = PRODUCT_CONTEXT('',#2,'mechanical');
#45 = PRODUCT_DEFINITION_CONTEXT('part definition',#2,'design');
#46 = SHAPE_REPRESENTATION('',(#11,#47,#51,#55,#59,#63,#67,#71,#75,#79,
    #83,#87,#91,#95,#99,#103,#107,#111,#115,#119,#123,#127,#131,#135,
    #139,#143,#147,#151,#155,#159,#163,#167,#171,#175,#179,#183,#187,
    #191,#195,#199,#203,#207,#211,#215,#219,#223,#227,#231,#235,#239,
    #243,#247,#251,#255,#259,#263,#267,#271,#275,#279,#283,#287,#291,
    #295,#299,#303,#307,#311,#315,#319,#323,#327,#331,#335,#339,#343,
    #347,#351,#355,#359,#363,#367,#371,#375),#379);
#47 = AXIS2_PLACEMENT_3D('',#48,#49,#50);
#48 = CARTESIAN_POINT('',(-4.55,-4.55,0.));
#49 = DIRECTION('',(0.,0.,1.));
#50 = DIRECTION('',(1.,0.,0.));
#51 = AXIS2_PLACEMENT_3D('',#52,#53,#54);
#52 = CARTESIAN_POINT('',(-4.55,-4.55,0.));
#53 = DIRECTION('',(0.,0.,1.));
#54 = DIRECTION('',(1.,0.,0.));
#55 = AXIS2_PLACEMENT_3D('',#56,#57,#58);
#56 = CARTESIAN_POINT('',(-3.15,-3.15,-1.E-03));
#57 = DIRECTION('',(0.,0.,1.));
#58 = DIRECTION('',(1.,0.,0.));
#59 = AXIS2_PLACEMENT_3D('',#60,#61,#62);
#60 = CARTESIAN_POINT('',(-4.55,-3.9,0.));
#61 = DIRECTION('',(0.,0.,1.));
#62 = DIRECTION('',(1.,0.,0.));
#63 = AXIS2_PLACEMENT_3D('',#64,#65,#66);
#64 = CARTESIAN_POINT('',(4.55,3.9,0.));
#65 = DIRECTION('',(0.,0.,1.));
#66 = DIRECTION('',(-1.,1.224646799147E-16,0.));
#67 = AXIS2_PLACEMENT_3D('',#68,#69,#70);
#68 = CARTESIAN_POINT('',(-4.55,-3.5,0.));
#69 = DIRECTION('',(0.,0.,1.));
#70 = DIRECTION('',(1.,0.,0.));
#71 = AXIS2_PLACEMENT_3D('',#72,#73,#74);
#72 = CARTESIAN_POINT('',(4.55,3.5,0.));
#73 = DIRECTION('',(0.,0.,1.));
#74 = DIRECTION('',(-1.,1.224646799147E-16,0.));
#75 = AXIS2_PLACEMENT_3D('',#76,#77,#78);
#76 = CARTESIAN_POINT('',(-4.55,-3.1,0.));
#77 = DIRECTION('',(0.,0.,1.));
#78 = DIRECTION('',(1.,0.,0.));
#79 = AXIS2_PLACEMENT_3D('',#80,#81,#82);
#80 = CARTESIAN_POINT('',(4.55,3.1,0.));
#81 = DIRECTION('',(0.,0.,1.));
#82 = DIRECTION('',(-1.,1.224646799147E-16,0.));
#83 = AXIS2_PLACEMENT_3D('',#84,#85,#86);
#84 = CARTESIAN_POINT('',(-4.55,-2.7,0.));
#85 = DIRECTION('',(0.,0.,1.));
#86 = DIRECTION('',(1.,0.,0.));
#87 = AXIS2_PLACEMENT_3D('',#88,#89,#90);
#88 = CARTESIAN_POINT('',(4.55,2.7,0.));
#89 = DIRECTION('',(0.,0.,1.));
#90 = DIRECTION('',(-1.,1.224646799147E-16,0.));
#91 = AXIS2_PLACEMENT_3D('',#92,#93,#94);
#92 = CARTESIAN_POINT('',(-4.55,-2.3,0.));
#93 = DIRECTION('',(0.,0.,1.));
#94 = DIRECTION('',(1.,0.,0.));
#95 = AXIS2_PLACEMENT_3D('',#96,#97,#98);
#96 = CARTESIAN_POINT('',(4.55,2.3,0.));
#97 = DIRECTION('',(0.,0.,1.));
#98 = DIRECTION('',(-1.,1.224646799147E-16,0.));
#99 = AXIS2_PLACEMENT_3D('',#100,#101,#102);
#100 = CARTESIAN_POINT('',(-4.55,-1.9,0.));
#101 = DIRECTION('',(0.,0.,1.));
#102 = DIRECTION('',(1.,0.,0.));
#103 = AXIS2_PLACEMENT_3D('',#104,#105,#106);
#104 = CARTESIAN_POINT('',(4.55,1.9,0.));
#105 = DIRECTION('',(0.,0.,1.));
#106 = DIRECTION('',(-1.,1.224646799147E-16,0.));
#107 = AXIS2_PLACEMENT_3D('',#108,#109,#110);
#108 = CARTESIAN_POINT('',(-4.55,-1.5,0.));
#109 = DIRECTION('',(0.,0.,1.));
#110 = DIRECTION('',(1.,0.,0.));
#111 = AXIS2_PLACEMENT_3D('',#112,#113,#114);
#112 = CARTESIAN_POINT('',(4.55,1.5,0.));
#113 = DIRECTION('',(0.,0.,1.));
#114 = DIRECTION('',(-1.,1.224646799147E-16,0.));
#115 = AXIS2_PLACEMENT_3D('',#116,#117,#118);
#116 = CARTESIAN_POINT('',(-4.55,-1.1,0.));
#117 = DIRECTION('',(0.,0.,1.));
#118 = DIRECTION('',(1.,0.,0.));
#119 = AXIS2_PLACEMENT_3D('',#120,#121,#122);
#120 = CARTESIAN_POINT('',(4.55,1.1,0.));
#121 = DIRECTION('',(0.,0.,1.));
#122 = DIRECTION('',(-1.,1.224646799147E-16,0.));
#123 = AXIS2_PLACEMENT_3D('',#124,#125,#126);
#124 = CARTESIAN_POINT('',(-4.55,-0.7,0.));
#125 = DIRECTION('',(0.,0.,1.));
#126 = DIRECTION('',(1.,0.,0.));
#127 = AXIS2_PLACEMENT_3D('',#128,#129,#130);
#128 = CARTESIAN_POINT('',(4.55,0.7,0.));
#129 = DIRECTION('',(0.,0.,1.));
#130 = DIRECTION('',(-1.,1.224646799147E-16,0.));
#131 = AXIS2_PLACEMENT_3D('',#132,#133,#134);
#132 = CARTESIAN_POINT('',(-4.55,-0.3,0.));
#133 = DIRECTION('',(0.,0.,1.));
#134 = DIRECTION('',(1.,0.,0.));
#135 = AXIS2_PLACEMENT_3D('',#136,#137,#138);
#136 = CARTESIAN_POINT('',(4.55,0.3,0.));
#137 = DIRECTION('',(0.,0.,1.));
#138 = DIRECTION('',(-1.,1.224646799147E-16,0.));
#139 = AXIS2_PLACEMENT_3D('',#140,#141,#142);
#140 = CARTESIAN_POINT('',(-4.55,0.1,0.));
#141 = DIRECTION('',(0.,0.,1.));
#142 = DIRECTION('',(1.,0.,0.));
#143 = AXIS2_PLACEMENT_3D('',#144,#145,#146);
#144 = CARTESIAN_POINT('',(4.55,-0.1,0.));
#145 = DIRECTION('',(0.,0.,1.));
#146 = DIRECTION('',(-1.,1.224646799147E-16,0.));
#147 = AXIS2_PLACEMENT_3D('',#148,#149,#150);
#148 = CARTESIAN_POINT('',(-4.55,0.5,0.));
#149 = DIRECTION('',(0.,0.,1.));
#150 = DIRECTION('',(1.,0.,0.));
#151 = AXIS2_PLACEMENT_3D('',#152,#153,#154);
#152 = CARTESIAN_POINT('',(4.55,-0.5,0.));
#153 = DIRECTION('',(0.,0.,1.));
#154 = DIRECTION('',(-1.,1.224646799147E-16,0.));
#155 = AXIS2_PLACEMENT_3D('',#156,#157,#158);
#156 = CARTESIAN_POINT('',(-4.55,0.9,0.));
#157 = DIRECTION('',(0.,0.,1.));
#158 = DIRECTION('',(1.,0.,0.));
#159 = AXIS2_PLACEMENT_3D('',#160,#161,#162);
#160 = CARTESIAN_POINT('',(4.55,-0.9,0.));
#161 = DIRECTION('',(0.,0.,1.));
#162 = DIRECTION('',(-1.,1.224646799147E-16,0.));
#163 = AXIS2_PLACEMENT_3D('',#164,#165,#166);
#164 = CARTESIAN_POINT('',(-4.55,1.3,0.));
#165 = DIRECTION('',(0.,0.,1.));
#166 = DIRECTION('',(1.,0.,0.));
#167 = AXIS2_PLACEMENT_3D('',#168,#169,#170);
#168 = CARTESIAN_POINT('',(4.55,-1.3,0.));
#169 = DIRECTION('',(0.,0.,1.));
#170 = DIRECTION('',(-1.,1.224646799147E-16,0.));
#171 = AXIS2_PLACEMENT_3D('',#172,#173,#174);
#172 = CARTESIAN_POINT('',(-4.55,1.7,0.));
#173 = DIRECTION('',(0.,0.,1.));
#174 = DIRECTION('',(1.,0.,0.));
#175 = AXIS2_PLACEMENT_3D('',#176,#177,#178);
#176 = CARTESIAN_POINT('',(4.55,-1.7,0.));
#177 = DIRECTION('',(0.,0.,1.));
#178 = DIRECTION('',(-1.,1.224646799147E-16,0.));
#179 = AXIS2_PLACEMENT_3D('',#180,#181,#182);
#180 = CARTESIAN_POINT('',(-4.55,2.1,0.));
#181 = DIRECTION('',(0.,0.,1.));
#182 = DIRECTION('',(1.,0.,0.));
#183 = AXIS2_PLACEMENT_3D('',#184,#185,#186);
#184 = CARTESIAN_POINT('',(4.55,-2.1,0.));
#185 = DIRECTION('',(0.,0.,1.));
#186 = DIRECTION('',(-1.,1.224646799147E-16,0.));
#187 = AXIS2_PLACEMENT_3D('',#188,#189,#190);
#188 = CARTESIAN_POINT('',(-4.55,2.5,0.));
#189 = DIRECTION('',(0.,0.,1.));
#190 = DIRECTION('',(1.,0.,0.));
#191 = AXIS2_PLACEMENT_3D('',#192,#193,#194);
#192 = CARTESIAN_POINT('',(4.55,-2.5,0.));
#193 = DIRECTION('',(0.,0.,1.));
#194 = DIRECTION('',(-1.,1.224646799147E-16,0.));
#195 = AXIS2_PLACEMENT_3D('',#196,#197,#198);
#196 = CARTESIAN_POINT('',(-4.55,2.9,0.));
#197 = DIRECTION('',(0.,0.,1.));
#198 = DIRECTION('',(1.,0.,0.));
#199 = AXIS2_PLACEMENT_3D('',#200,#201,#202);
#200 = CARTESIAN_POINT('',(4.55,-2.9,0.));
#201 = DIRECTION('',(0.,0.,1.));
#202 = DIRECTION('',(-1.,1.224646799147E-16,0.));
#203 = AXIS2_PLACEMENT_3D('',#204,#205,#206);
#204 = CARTESIAN_POINT('',(-4.55,3.3,0.));
#205 = DIRECTION('',(0.,0.,1.));
#206 = DIRECTION('',(1.,0.,0.));
#207 = AXIS2_PLACEMENT_3D('',#208,#209,#210);
#208 = CARTESIAN_POINT('',(4.55,-3.3,0.));
#209 = DIRECTION('',(0.,0.,1.));
#210 = DIRECTION('',(-1.,1.224646799147E-16,0.));
#211 = AXIS2_PLACEMENT_3D('',#212,#213,#214);
#212 = CARTESIAN_POINT('',(-4.55,3.7,0.));
#213 = DIRECTION('',(0.,0.,1.));
#214 = DIRECTION('',(1.,0.,0.));
#215 = AXIS2_PLACEMENT_3D('',#216,#217,#218);
#216 = CARTESIAN_POINT('',(4.55,-3.7,0.));
#217 = DIRECTION('',(0.,0.,1.));
#218 = DIRECTION('',(-1.,1.224646799147E-16,0.));
#219 = AXIS2_PLACEMENT_3D('',#220,#221,#222);
#220 = CARTESIAN_POINT('',(-3.7,-4.55,0.));
#221 = DIRECTION('',(0.,-0.,1.));
#222 = DIRECTION('',(1.110223024625E-16,1.,0.));
#223 = AXIS2_PLACEMENT_3D('',#224,#225,#226);
#224 = CARTESIAN_POINT('',(3.7,4.55,0.));
#225 = DIRECTION('',(0.,0.,1.));
#226 = DIRECTION('',(-2.334869823773E-16,-1.,0.));
#227 = AXIS2_PLACEMENT_3D('',#228,#229,#230);
#228 = CARTESIAN_POINT('',(-3.3,-4.55,0.));
#229 = DIRECTION('',(0.,-0.,1.));
#230 = DIRECTION('',(1.110223024625E-16,1.,0.));
#231 = AXIS2_PLACEMENT_3D('',#232,#233,#234);
#232 = CARTESIAN_POINT('',(3.3,4.55,0.));
#233 = DIRECTION('',(0.,0.,1.));
#234 = DIRECTION('',(-2.334869823773E-16,-1.,0.));
#235 = AXIS2_PLACEMENT_3D('',#236,#237,#238);
#236 = CARTESIAN_POINT('',(-2.9,-4.55,0.));
#237 = DIRECTION('',(0.,-0.,1.));
#238 = DIRECTION('',(1.110223024625E-16,1.,0.));
#239 = AXIS2_PLACEMENT_3D('',#240,#241,#242);
#240 = CARTESIAN_POINT('',(2.9,4.55,0.));
#241 = DIRECTION('',(0.,0.,1.));
#242 = DIRECTION('',(-2.334869823773E-16,-1.,0.));
#243 = AXIS2_PLACEMENT_3D('',#244,#245,#246);
#244 = CARTESIAN_POINT('',(-2.5,-4.55,0.));
#245 = DIRECTION('',(0.,-0.,1.));
#246 = DIRECTION('',(1.110223024625E-16,1.,0.));
#247 = AXIS2_PLACEMENT_3D('',#248,#249,#250);
#248 = CARTESIAN_POINT('',(2.5,4.55,0.));
#249 = DIRECTION('',(0.,0.,1.));
#250 = DIRECTION('',(-2.334869823773E-16,-1.,0.));
#251 = AXIS2_PLACEMENT_3D('',#252,#253,#254);
#252 = CARTESIAN_POINT('',(-2.1,-4.55,0.));
#253 = DIRECTION('',(0.,-0.,1.));
#254 = DIRECTION('',(1.110223024625E-16,1.,0.));
#255 = AXIS2_PLACEMENT_3D('',#256,#257,#258);
#256 = CARTESIAN_POINT('',(2.1,4.55,0.));
#257 = DIRECTION('',(0.,0.,1.));
#258 = DIRECTION('',(-2.334869823773E-16,-1.,0.));
#259 = AXIS2_PLACEMENT_3D('',#260,#261,#262);
#260 = CARTESIAN_POINT('',(-1.7,-4.55,0.));
#261 = DIRECTION('',(0.,-0.,1.));
#262 = DIRECTION('',(1.110223024625E-16,1.,0.));
#263 = AXIS2_PLACEMENT_3D('',#264,#265,#266);
#264 = CARTESIAN_POINT('',(1.7,4.55,0.));
#265 = DIRECTION('',(0.,0.,1.));
#266 = DIRECTION('',(-2.334869823773E-16,-1.,0.));
#267 = AXIS2_PLACEMENT_3D('',#268,#269,#270);
#268 = CARTESIAN_POINT('',(-1.3,-4.55,0.));
#269 = DIRECTION('',(0.,-0.,1.));
#270 = DIRECTION('',(1.110223024625E-16,1.,0.));
#271 = AXIS2_PLACEMENT_3D('',#272,#273,#274);
#272 = CARTESIAN_POINT('',(1.3,4.55,0.));
#273 = DIRECTION('',(0.,0.,1.));
#274 = DIRECTION('',(-2.334869823773E-16,-1.,0.));
#275 = AXIS2_PLACEMENT_3D('',#276,#277,#278);
#276 = CARTESIAN_POINT('',(-0.9,-4.55,0.));
#277 = DIRECTION('',(0.,-0.,1.));
#278 = DIRECTION('',(1.110223024625E-16,1.,0.));
#279 = AXIS2_PLACEMENT_3D('',#280,#281,#282);
#280 = CARTESIAN_POINT('',(0.9,4.55,0.));
#281 = DIRECTION('',(0.,0.,1.));
#282 = DIRECTION('',(-2.334869823773E-16,-1.,0.));
#283 = AXIS2_PLACEMENT_3D('',#284,#285,#286);
#284 = CARTESIAN_POINT('',(-0.5,-4.55,0.));
#285 = DIRECTION('',(0.,-0.,1.));
#286 = DIRECTION('',(1.110223024625E-16,1.,0.));
#287 = AXIS2_PLACEMENT_3D('',#288,#289,#290);
#288 = CARTESIAN_POINT('',(0.5,4.55,0.));
#289 = DIRECTION('',(0.,0.,1.));
#290 = DIRECTION('',(-2.334869823773E-16,-1.,0.));
#291 = AXIS2_PLACEMENT_3D('',#292,#293,#294);
#292 = CARTESIAN_POINT('',(-0.1,-4.55,0.));
#293 = DIRECTION('',(0.,-0.,1.));
#294 = DIRECTION('',(1.110223024625E-16,1.,0.));
#295 = AXIS2_PLACEMENT_3D('',#296,#297,#298);
#296 = CARTESIAN_POINT('',(0.1,4.55,0.));
#297 = DIRECTION('',(0.,0.,1.));
#298 = DIRECTION('',(-2.334869823773E-16,-1.,0.));
#299 = AXIS2_PLACEMENT_3D('',#300,#301,#302);
#300 = CARTESIAN_POINT('',(0.3,-4.55,0.));
#301 = DIRECTION('',(0.,-0.,1.));
#302 = DIRECTION('',(1.110223024625E-16,1.,0.));
#303 = AXIS2_PLACEMENT_3D('',#304,#305,#306);
#304 = CARTESIAN_POINT('',(-0.3,4.55,0.));
#305 = DIRECTION('',(0.,0.,1.));
#306 = DIRECTION('',(-2.334869823773E-16,-1.,0.));
#307 = AXIS2_PLACEMENT_3D('',#308,#309,#310);
#308 = CARTESIAN_POINT('',(0.7,-4.55,0.));
#309 = DIRECTION('',(0.,-0.,1.));
#310 = DIRECTION('',(1.110223024625E-16,1.,0.));
#311 = AXIS2_PLACEMENT_3D('',#312,#313,#314);
#312 = CARTESIAN_POINT('',(-0.7,4.55,0.));
#313 = DIRECTION('',(0.,0.,1.));
#314 = DIRECTION('',(-2.334869823773E-16,-1.,0.));
#315 = AXIS2_PLACEMENT_3D('',#316,#317,#318);
#316 = CARTESIAN_POINT('',(1.1,-4.55,0.));
#317 = DIRECTION('',(0.,-0.,1.));
#318 = DIRECTION('',(1.110223024625E-16,1.,0.));
#319 = AXIS2_PLACEMENT_3D('',#320,#321,#322);
#320 = CARTESIAN_POINT('',(-1.1,4.55,0.));
#321 = DIRECTION('',(0.,0.,1.));
#322 = DIRECTION('',(-2.334869823773E-16,-1.,0.));
#323 = AXIS2_PLACEMENT_3D('',#324,#325,#326);
#324 = CARTESIAN_POINT('',(1.5,-4.55,0.));
#325 = DIRECTION('',(0.,-0.,1.));
#326 = DIRECTION('',(1.110223024625E-16,1.,0.));
#327 = AXIS2_PLACEMENT_3D('',#328,#329,#330);
#328 = CARTESIAN_POINT('',(-1.5,4.55,0.));
#329 = DIRECTION('',(0.,0.,1.));
#330 = DIRECTION('',(-2.334869823773E-16,-1.,0.));
#331 = AXIS2_PLACEMENT_3D('',#332,#333,#334);
#332 = CARTESIAN_POINT('',(1.9,-4.55,0.));
#333 = DIRECTION('',(0.,-0.,1.));
#334 = DIRECTION('',(1.110223024625E-16,1.,0.));
#335 = AXIS2_PLACEMENT_3D('',#336,#337,#338);
#336 = CARTESIAN_POINT('',(-1.9,4.55,0.));
#337 = DIRECTION('',(0.,0.,1.));
#338 = DIRECTION('',(-2.334869823773E-16,-1.,0.));
#339 = AXIS2_PLACEMENT_3D('',#340,#341,#342);
#340 = CARTESIAN_POINT('',(2.3,-4.55,0.));
#341 = DIRECTION('',(0.,-0.,1.));
#342 = DIRECTION('',(1.110223024625E-16,1.,0.));
#343 = AXIS2_PLACEMENT_3D('',#344,#345,#346);
#344 = CARTESIAN_POINT('',(-2.3,4.55,0.));
#345 = DIRECTION('',(0.,0.,1.));
#346 = DIRECTION('',(-2.334869823773E-16,-1.,0.));
#347 = AXIS2_PLACEMENT_3D('',#348,#349,#350);
#348 = CARTESIAN_POINT('',(2.7,-4.55,0.));
#349 = DIRECTION('',(0.,-0.,1.));
#350 = DIRECTION('',(1.110223024625E-16,1.,0.));
#351 = AXIS2_PLACEMENT_3D('',#352,#353,#354);
#352 = CARTESIAN_POINT('',(-2.7,4.55,0.));
#353 = DIRECTION('',(0.,0.,1.));
#354 = DIRECTION('',(-2.334869823773E-16,-1.,0.));
#355 = AXIS2_PLACEMENT_3D('',#356,#357,#358);
#356 = CARTESIAN_POINT('',(3.1,-4.55,0.));
#357 = DIRECTION('',(0.,-0.,1.));
#358 = DIRECTION('',(1.110223024625E-16,1.,0.));
#359 = AXIS2_PLACEMENT_3D('',#360,#361,#362);
#360 = CARTESIAN_POINT('',(-3.1,4.55,0.));
#361 = DIRECTION('',(0.,0.,1.));
#362 = DIRECTION('',(-2.334869823773E-16,-1.,0.));
#363 = AXIS2_PLACEMENT_3D('',#364,#365,#366);
#364 = CARTESIAN_POINT('',(3.5,-4.55,0.));
#365 = DIRECTION('',(0.,-0.,1.));
#366 = DIRECTION('',(1.110223024625E-16,1.,0.));
#367 = AXIS2_PLACEMENT_3D('',#368,#369,#370);
#368 = CARTESIAN_POINT('',(-3.5,4.55,0.));
#369 = DIRECTION('',(0.,0.,1.));
#370 = DIRECTION('',(-2.334869823773E-16,-1.,0.));
#371 = AXIS2_PLACEMENT_3D('',#372,#373,#374);
#372 = CARTESIAN_POINT('',(3.9,-4.55,0.));
#373 = DIRECTION('',(0.,-0.,1.));
#374 = DIRECTION('',(1.110223024625E-16,1.,0.));
#375 = AXIS2_PLACEMENT_3D('',#376,#377,#378);
#376 = CARTESIAN_POINT('',(-3.9,4.55,0.));
#377 = DIRECTION('',(0.,0.,1.));
#378 = DIRECTION('',(-2.334869823773E-16,-1.,0.));
#379 = ( GEOMETRIC_REPRESENTATION_CONTEXT(3) 
GLOBAL_UNCERTAINTY_ASSIGNED_CONTEXT((#383)) GLOBAL_UNIT_ASSIGNED_CONTEXT
((#380,#381,#382)) REPRESENTATION_CONTEXT('Context #1',
  '3D Context with UNIT and UNCERTAINTY') );
#380 = ( LENGTH_UNIT() NAMED_UNIT(*) SI_UNIT(.MILLI.,.METRE.) );
#381 = ( NAMED_UNIT(*) PLANE_ANGLE_UNIT() SI_UNIT($,.RADIAN.) );
#382 = ( NAMED_UNIT(*) SI_UNIT($,.STERADIAN.) SOLID_ANGLE_UNIT() );
#383 = UNCERTAINTY_MEASURE_WITH_UNIT(LENGTH_MEASURE(1.E-07),#380,
  'distance_accuracy_value','confusion accuracy');
#384 = MANIFOLD_SURFACE_SHAPE_REPRESENTATION('',(#11,#385),#404);
#385 = SHELL_BASED_SURFACE_MODEL('',(#386));
#386 = OPEN_SHELL('',(#387));
#387 = ADVANCED_FACE('',(#388),#399,.T.);
#388 = FACE_BOUND('',#389,.T.);
#389 = EDGE_LOOP('',(#390));
#390 = ORIENTED_EDGE('',*,*,#391,.T.);
#391 = EDGE_CURVE('',#392,#392,#394,.T.);
#392 = VERTEX_POINT('',#393);
#393 = CARTESIAN_POINT('',(2.085416666667,7.583333333333,0.851));
#394 = CIRCLE('',#395,0.56875);
#395 = AXIS2_PLACEMENT_3D('',#396,#397,#398);
#396 = CARTESIAN_POINT('',(1.516666666667,7.583333333333,0.851));
#397 = DIRECTION('',(0.,0.,1.));
#398 = DIRECTION('',(1.,0.,-0.));
#399 = PLANE('',#400);
#400 = AXIS2_PLACEMENT_3D('',#401,#402,#403);
#401 = CARTESIAN_POINT('',(1.516666666667,7.583333333333,0.851));
#402 = DIRECTION('',(5.080616062286E-32,4.064492849829E-31,1.));
#403 = DIRECTION('',(0.,1.,-4.064492849829E-31));
#404 = ( GEOMETRIC_REPRESENTATION_CONTEXT(3) 
GLOBAL_UNCERTAINTY_ASSIGNED_CONTEXT((#408)) GLOBAL_UNIT_ASSIGNED_CONTEXT
((#405,#406,#407)) REPRESENTATION_CONTEXT('Context #1',
  '3D Context with UNIT and UNCERTAINTY') );
#405 = ( LENGTH_UNIT() NAMED_UNIT(*) SI_UNIT(.MILLI.,.METRE.) );
#406 = ( NAMED_UNIT(*) PLANE_ANGLE_UNIT() SI_UNIT($,.RADIAN.) );
#407 = ( NAMED_UNIT(*) SI_UNIT($,.STERADIAN.) SOLID_ANGLE_UNIT() );
#408 = UNCERTAINTY_MEASURE_WITH_UNIT(LENGTH_MEASURE(1.E-07),#405,
  'distance_accuracy_value','confusion accuracy');
#409 = SHAPE_DEFINITION_REPRESENTATION(#410,#384);
#410 = PRODUCT_DEFINITION_SHAPE('','',#411);
#411 = PRODUCT_DEFINITION('design','',#412,#415);
#412 = PRODUCT_DEFINITION_FORMATION('','',#413);
#413 = PRODUCT('Open CASCADE STEP translator 7.5 91.1',
  'Open CASCADE STEP translator 7.5 91.1','',(#414));
#414 = PRODUCT_CONTEXT('',#2,'mechanical');
#415 = PRODUCT_DEFINITION_CONTEXT('part definition',#2,'design');
#416 = CONTEXT_DEPENDENT_SHAPE_REPRESENTATION(#417,#419);
#417 = ( REPRESENTATION_RELATIONSHIP('','',#384,#46) 
REPRESENTATION_RELATIONSHIP_WITH_TRANSFORMATION(#418) 
SHAPE_REPRESENTATION_RELATIONSHIP() );
#418 = ITEM_DEFINED_TRANSFORMATION('','',#11,#47);
#419 = PRODUCT_DEFINITION_SHAPE('Placement','Placement of an item',#420
  );
#420 = NEXT_ASSEMBLY_USAGE_OCCURRENCE('6083','5998','',#41,#411,$);
#421 = PRODUCT_RELATED_PRODUCT_CATEGORY('part',$,(#413));
#422 = SHAPE_DEFINITION_REPRESENTATION(#423,#429);
#423 = PRODUCT_DEFINITION_SHAPE('','',#424);
#424 = PRODUCT_DEFINITION('design','',#425,#428);
#425 = PRODUCT_DEFINITION_FORMATION('','',#426);
#426 = PRODUCT('Body','Body','',(#427));
#427 = PRODUCT_CONTEXT('',#2,'mechanical');
#428 = PRODUCT_DEFINITION_CONTEXT('part definition',#2,'design');
#429 = SHAPE_REPRESENTATION('',(#11,#430),#434);
#430 = AXIS2_PLACEMENT_3D('',#431,#432,#433);
#431 = CARTESIAN_POINT('',(0.,0.,0.));
#432 = DIRECTION('',(0.,0.,1.));
#433 = DIRECTION('',(1.,0.,0.));
#434 = ( GEOMETRIC_REPRESENTATION_CONTEXT(3) 
GLOBAL_UNCERTAINTY_ASSIGNED_CONTEXT((#438)) GLOBAL_UNIT_ASSIGNED_CONTEXT
((#435,#436,#437)) REPRESENTATION_CONTEXT('Context #1',
  '3D Context with UNIT and UNCERTAINTY') );
#435 = ( LENGTH_UNIT() NAMED_UNIT(*) SI_UNIT(.MILLI.,.METRE.) );
#436 = ( NAMED_UNIT(*) PLANE_ANGLE_UNIT() SI_UNIT($,.RADIAN.) );
#437 = ( NAMED_UNIT(*) SI_UNIT($,.STERADIAN.) SOLID_ANGLE_UNIT() );
#438 = UNCERTAINTY_MEASURE_WITH_UNIT(LENGTH_MEASURE(1.E-07),#435,
  'distance_accuracy_value','confusion accuracy');
#439 = ADVANCED_BREP_SHAPE_REPRESENTATION('',(#11,#440),#635);
#440 = MANIFOLD_SOLID_BREP('',#441);
#441 = CLOSED_SHELL('',(#442,#482,#513,#548,#572,#589,#601,#626));
#442 = ADVANCED_FACE('',(#443),#477,.F.);
#443 = FACE_BOUND('',#444,.F.);
#444 = EDGE_LOOP('',(#445,#455,#463,#471));
#445 = ORIENTED_EDGE('',*,*,#446,.F.);
#446 = EDGE_CURVE('',#447,#449,#451,.T.);
#447 = VERTEX_POINT('',#448);
#448 = CARTESIAN_POINT('',(0.,0.,0.));
#449 = VERTEX_POINT('',#450);
#450 = CARTESIAN_POINT('',(0.,0.,0.95));
#451 = LINE('',#452,#453);
#452 = CARTESIAN_POINT('',(0.,0.,0.));
#453 = VECTOR('',#454,1.);
#454 = DIRECTION('',(0.,0.,1.));
#455 = ORIENTED_EDGE('',*,*,#456,.T.);
#456 = EDGE_CURVE('',#447,#457,#459,.T.);
#457 = VERTEX_POINT('',#458);
#458 = CARTESIAN_POINT('',(0.,9.1,0.));
#459 = LINE('',#460,#461);
#460 = CARTESIAN_POINT('',(0.,0.,0.));
#461 = VECTOR('',#462,1.);
#462 = DIRECTION('',(-0.,1.,0.));
#463 = ORIENTED_EDGE('',*,*,#464,.T.);
#464 = EDGE_CURVE('',#457,#465,#467,.T.);
#465 = VERTEX_POINT('',#466);
#466 = CARTESIAN_POINT('',(0.,9.1,0.95));
#467 = LINE('',#468,#469);
#468 = CARTESIAN_POINT('',(0.,9.1,0.));
#469 = VECTOR('',#470,1.);
#470 = DIRECTION('',(0.,0.,1.));
#471 = ORIENTED_EDGE('',*,*,#472,.F.);
#472 = EDGE_CURVE('',#449,#465,#473,.T.);
#473 = LINE('',#474,#475);
#474 = CARTESIAN_POINT('',(0.,0.,0.95));
#475 = VECTOR('',#476,1.);
#476 = DIRECTION('',(-0.,1.,0.));
#477 = PLANE('',#478);
#478 = AXIS2_PLACEMENT_3D('',#479,#480,#481);
#479 = CARTESIAN_POINT('',(0.,0.,0.));
#480 = DIRECTION('',(1.,0.,-0.));
#481 = DIRECTION('',(0.,0.,1.));
#482 = ADVANCED_FACE('',(#483),#508,.F.);
#483 = FACE_BOUND('',#484,.F.);
#484 = EDGE_LOOP('',(#485,#493,#494,#502));
#485 = ORIENTED_EDGE('',*,*,#486,.F.);
#486 = EDGE_CURVE('',#447,#487,#489,.T.);
#487 = VERTEX_POINT('',#488);
#488 = CARTESIAN_POINT('',(9.1,0.,0.));
#489 = LINE('',#490,#491);
#490 = CARTESIAN_POINT('',(0.,0.,0.));
#491 = VECTOR('',#492,1.);
#492 = DIRECTION('',(1.,0.,-0.));
#493 = ORIENTED_EDGE('',*,*,#446,.T.);
#494 = ORIENTED_EDGE('',*,*,#495,.T.);
#495 = EDGE_CURVE('',#449,#496,#498,.T.);
#496 = VERTEX_POINT('',#497);
#497 = CARTESIAN_POINT('',(9.1,0.,0.95));
#498 = LINE('',#499,#500);
#499 = CARTESIAN_POINT('',(0.,0.,0.95));
#500 = VECTOR('',#501,1.);
#501 = DIRECTION('',(1.,0.,-0.));
#502 = ORIENTED_EDGE('',*,*,#503,.F.);
#503 = EDGE_CURVE('',#487,#496,#504,.T.);
#504 = LINE('',#505,#506);
#505 = CARTESIAN_POINT('',(9.1,0.,0.));
#506 = VECTOR('',#507,1.);
#507 = DIRECTION('',(0.,0.,1.));
#508 = PLANE('',#509);
#509 = AXIS2_PLACEMENT_3D('',#510,#511,#512);
#510 = CARTESIAN_POINT('',(0.,0.,0.));
#511 = DIRECTION('',(-0.,1.,0.));
#512 = DIRECTION('',(0.,0.,1.));
#513 = ADVANCED_FACE('',(#514,#532),#543,.T.);
#514 = FACE_BOUND('',#515,.T.);
#515 = EDGE_LOOP('',(#516,#517,#518,#526));
#516 = ORIENTED_EDGE('',*,*,#472,.F.);
#517 = ORIENTED_EDGE('',*,*,#495,.T.);
#518 = ORIENTED_EDGE('',*,*,#519,.T.);
#519 = EDGE_CURVE('',#496,#520,#522,.T.);
#520 = VERTEX_POINT('',#521);
#521 = CARTESIAN_POINT('',(9.1,9.1,0.95));
#522 = LINE('',#523,#524);
#523 = CARTESIAN_POINT('',(9.1,0.,0.95));
#524 = VECTOR('',#525,1.);
#525 = DIRECTION('',(-0.,1.,0.));
#526 = ORIENTED_EDGE('',*,*,#527,.F.);
#527 = EDGE_CURVE('',#465,#520,#528,.T.);
#528 = LINE('',#529,#530);
#529 = CARTESIAN_POINT('',(0.,9.1,0.95));
#530 = VECTOR('',#531,1.);
#531 = DIRECTION('',(1.,0.,-0.));
#532 = FACE_BOUND('',#533,.T.);
#533 = EDGE_LOOP('',(#534));
#534 = ORIENTED_EDGE('',*,*,#535,.F.);
#535 = EDGE_CURVE('',#536,#536,#538,.T.);
#536 = VERTEX_POINT('',#537);
#537 = CARTESIAN_POINT('',(2.085416666667,7.583333333333,0.95));
#538 = CIRCLE('',#539,0.56875);
#539 = AXIS2_PLACEMENT_3D('',#540,#541,#542);
#540 = CARTESIAN_POINT('',(1.516666666667,7.583333333333,0.95));
#541 = DIRECTION('',(0.,0.,1.));
#542 = DIRECTION('',(1.,0.,-0.));
#543 = PLANE('',#544);
#544 = AXIS2_PLACEMENT_3D('',#545,#546,#547);
#545 = CARTESIAN_POINT('',(0.,0.,0.95));
#546 = DIRECTION('',(0.,0.,1.));
#547 = DIRECTION('',(1.,0.,-0.));
#548 = ADVANCED_FACE('',(#549),#567,.T.);
#549 = FACE_BOUND('',#550,.T.);
#550 = EDGE_LOOP('',(#551,#559,#560,#561));
#551 = ORIENTED_EDGE('',*,*,#552,.F.);
#552 = EDGE_CURVE('',#457,#553,#555,.T.);
#553 = VERTEX_POINT('',#554);
#554 = CARTESIAN_POINT('',(9.1,9.1,0.));
#555 = LINE('',#556,#557);
#556 = CARTESIAN_POINT('',(0.,9.1,0.));
#557 = VECTOR('',#558,1.);
#558 = DIRECTION('',(1.,0.,-0.));
#559 = ORIENTED_EDGE('',*,*,#464,.T.);
#560 = ORIENTED_EDGE('',*,*,#527,.T.);
#561 = ORIENTED_EDGE('',*,*,#562,.F.);
#562 = EDGE_CURVE('',#553,#520,#563,.T.);
#563 = LINE('',#564,#565);
#564 = CARTESIAN_POINT('',(9.1,9.1,0.));
#565 = VECTOR('',#566,1.);
#566 = DIRECTION('',(0.,0.,1.));
#567 = PLANE('',#568);
#568 = AXIS2_PLACEMENT_3D('',#569,#570,#571);
#569 = CARTESIAN_POINT('',(0.,9.1,0.));
#570 = DIRECTION('',(-0.,1.,0.));
#571 = DIRECTION('',(0.,0.,1.));
#572 = ADVANCED_FACE('',(#573),#584,.F.);
#573 = FACE_BOUND('',#574,.F.);
#574 = EDGE_LOOP('',(#575,#576,#577,#583));
#575 = ORIENTED_EDGE('',*,*,#456,.F.);
#576 = ORIENTED_EDGE('',*,*,#486,.T.);
#577 = ORIENTED_EDGE('',*,*,#578,.T.);
#578 = EDGE_CURVE('',#487,#553,#579,.T.);
#579 = LINE('',#580,#581);
#580 = CARTESIAN_POINT('',(9.1,0.,0.));
#581 = VECTOR('',#582,1.);
#582 = DIRECTION('',(-0.,1.,0.));
#583 = ORIENTED_EDGE('',*,*,#552,.F.);
#584 = PLANE('',#585);
#585 = AXIS2_PLACEMENT_3D('',#586,#587,#588);
#586 = CARTESIAN_POINT('',(0.,0.,0.));
#587 = DIRECTION('',(0.,0.,1.));
#588 = DIRECTION('',(1.,0.,-0.));
#589 = ADVANCED_FACE('',(#590),#596,.T.);
#590 = FACE_BOUND('',#591,.T.);
#591 = EDGE_LOOP('',(#592,#593,#594,#595));
#592 = ORIENTED_EDGE('',*,*,#503,.F.);
#593 = ORIENTED_EDGE('',*,*,#578,.T.);
#594 = ORIENTED_EDGE('',*,*,#562,.T.);
#595 = ORIENTED_EDGE('',*,*,#519,.F.);
#596 = PLANE('',#597);
#597 = AXIS2_PLACEMENT_3D('',#598,#599,#600);
#598 = CARTESIAN_POINT('',(9.1,0.,0.));
#599 = DIRECTION('',(1.,0.,-0.));
#600 = DIRECTION('',(0.,0.,1.));
#601 = ADVANCED_FACE('',(#602),#621,.F.);
#602 = FACE_BOUND('',#603,.F.);
#603 = EDGE_LOOP('',(#604,#605,#613,#620));
#604 = ORIENTED_EDGE('',*,*,#535,.F.);
#605 = ORIENTED_EDGE('',*,*,#606,.F.);
#606 = EDGE_CURVE('',#607,#536,#609,.T.);
#607 = VERTEX_POINT('',#608);
#608 = CARTESIAN_POINT('',(2.085416666667,7.583333333333,0.85));
#609 = LINE('',#610,#611);
#610 = CARTESIAN_POINT('',(2.085416666667,7.583333333333,0.85));
#611 = VECTOR('',#612,1.);
#612 = DIRECTION('',(0.,0.,1.));
#613 = ORIENTED_EDGE('',*,*,#614,.T.);
#614 = EDGE_CURVE('',#607,#607,#615,.T.);
#615 = CIRCLE('',#616,0.56875);
#616 = AXIS2_PLACEMENT_3D('',#617,#618,#619);
#617 = CARTESIAN_POINT('',(1.516666666667,7.583333333333,0.85));
#618 = DIRECTION('',(0.,0.,1.));
#619 = DIRECTION('',(1.,0.,-0.));
#620 = ORIENTED_EDGE('',*,*,#606,.T.);
#621 = CYLINDRICAL_SURFACE('',#622,0.56875);
#622 = AXIS2_PLACEMENT_3D('',#623,#624,#625);
#623 = CARTESIAN_POINT('',(1.516666666667,7.583333333333,0.85));
#624 = DIRECTION('',(0.,0.,1.));
#625 = DIRECTION('',(1.,0.,-0.));
#626 = ADVANCED_FACE('',(#627),#630,.T.);
#627 = FACE_BOUND('',#628,.F.);
#628 = EDGE_LOOP('',(#629));
#629 = ORIENTED_EDGE('',*,*,#614,.F.);
#630 = PLANE('',#631);
#631 = AXIS2_PLACEMENT_3D('',#632,#633,#634);
#632 = CARTESIAN_POINT('',(1.516666666667,7.583333333333,0.85));
#633 = DIRECTION('',(0.,0.,1.));
#634 = DIRECTION('',(1.,0.,-0.));
#635 = ( GEOMETRIC_REPRESENTATION_CONTEXT(3) 
GLOBAL_UNCERTAINTY_ASSIGNED_CONTEXT((#639)) GLOBAL_UNIT_ASSIGNED_CONTEXT
((#636,#637,#638)) REPRESENTATION_CONTEXT('Context #1',
  '3D Context with UNIT and UNCERTAINTY') );
#636 = ( LENGTH_UNIT() NAMED_UNIT(*) SI_UNIT(.MILLI.,.METRE.) );
#637 = ( NAMED_UNIT(*) PLANE_ANGLE_UNIT() SI_UNIT($,.RADIAN.) );
#638 = ( NAMED_UNIT(*) SI_UNIT($,.STERADIAN.) SOLID_ANGLE_UNIT() );
#639 = UNCERTAINTY_MEASURE_WITH_UNIT(LENGTH_MEASURE(1.E-07),#636,
  'distance_accuracy_value','confusion accuracy');
#640 = SHAPE_DEFINITION_REPRESENTATION(#641,#439);
#641 = PRODUCT_DEFINITION_SHAPE('','',#642);
#642 = PRODUCT_DEFINITION('design','',#643,#646);
#643 = PRODUCT_DEFINITION_FORMATION('','',#644);
#644 = PRODUCT('Open CASCADE STEP translator 7.5 91.2.1',
  'Open CASCADE STEP translator 7.5 91.2.1','',(#645));
#645 = PRODUCT_CONTEXT('',#2,'mechanical');
#646 = PRODUCT_DEFINITION_CONTEXT('part definition',#2,'design');
#647 = CONTEXT_DEPENDENT_SHAPE_REPRESENTATION(#648,#650);
#648 = ( REPRESENTATION_RELATIONSHIP('','',#439,#429) 
REPRESENTATION_RELATIONSHIP_WITH_TRANSFORMATION(#649) 
SHAPE_REPRESENTATION_RELATIONSHIP() );
#649 = ITEM_DEFINED_TRANSFORMATION('','',#11,#430);
#650 = PRODUCT_DEFINITION_SHAPE('Placement','Placement of an item',#651
  );
#651 = NEXT_ASSEMBLY_USAGE_OCCURRENCE('6084','5999','',#424,#642,$);
#652 = PRODUCT_RELATED_PRODUCT_CATEGORY('part',$,(#644));
#653 = CONTEXT_DEPENDENT_SHAPE_REPRESENTATION(#654,#656);
#654 = ( REPRESENTATION_RELATIONSHIP('','',#429,#46) 
REPRESENTATION_RELATIONSHIP_WITH_TRANSFORMATION(#655) 
SHAPE_REPRESENTATION_RELATIONSHIP() );
#655 = ITEM_DEFINED_TRANSFORMATION('','',#11,#51);
#656 = PRODUCT_DEFINITION_SHAPE('Placement','Placement of an item',#657
  );
#657 = NEXT_ASSEMBLY_USAGE_OCCURRENCE('6085','6000','',#41,#424,$);
#658 = PRODUCT_RELATED_PRODUCT_CATEGORY('part',$,(#426));
#659 = ADVANCED_BREP_SHAPE_REPRESENTATION('',(#11,#660),#843);
#660 = MANIFOLD_SOLID_BREP('',#661);
#661 = CLOSED_SHELL('',(#662,#702,#733,#764,#795,#817,#830));
#662 = ADVANCED_FACE('',(#663),#697,.F.);
#663 = FACE_BOUND('',#664,.F.);
#664 = EDGE_LOOP('',(#665,#675,#683,#691));
#665 = ORIENTED_EDGE('',*,*,#666,.T.);
#666 = EDGE_CURVE('',#667,#669,#671,.T.);
#667 = VERTEX_POINT('',#668);
#668 = CARTESIAN_POINT('',(0.,0.,0.));
#669 = VERTEX_POINT('',#670);
#670 = CARTESIAN_POINT('',(0.,0.,1.E-03));
#671 = LINE('',#672,#673);
#672 = CARTESIAN_POINT('',(0.,0.,0.));
#673 = VECTOR('',#674,1.);
#674 = DIRECTION('',(0.,0.,1.));
#675 = ORIENTED_EDGE('',*,*,#676,.T.);
#676 = EDGE_CURVE('',#669,#677,#679,.T.);
#677 = VERTEX_POINT('',#678);
#678 = CARTESIAN_POINT('',(6.3,0.,1.E-03));
#679 = LINE('',#680,#681);
#680 = CARTESIAN_POINT('',(0.,0.,1.E-03));
#681 = VECTOR('',#682,1.);
#682 = DIRECTION('',(1.,0.,0.));
#683 = ORIENTED_EDGE('',*,*,#684,.F.);
#684 = EDGE_CURVE('',#685,#677,#687,.T.);
#685 = VERTEX_POINT('',#686);
#686 = CARTESIAN_POINT('',(6.3,0.,0.));
#687 = LINE('',#688,#689);
#688 = CARTESIAN_POINT('',(6.3,0.,0.));
#689 = VECTOR('',#690,1.);
#690 = DIRECTION('',(0.,0.,1.));
#691 = ORIENTED_EDGE('',*,*,#692,.F.);
#692 = EDGE_CURVE('',#667,#685,#693,.T.);
#693 = LINE('',#694,#695);
#694 = CARTESIAN_POINT('',(0.,0.,0.));
#695 = VECTOR('',#696,1.);
#696 = DIRECTION('',(1.,0.,0.));
#697 = PLANE('',#698);
#698 = AXIS2_PLACEMENT_3D('',#699,#700,#701);
#699 = CARTESIAN_POINT('',(0.,0.,0.));
#700 = DIRECTION('',(0.,1.,0.));
#701 = DIRECTION('',(1.,0.,0.));
#702 = ADVANCED_FACE('',(#703),#728,.F.);
#703 = FACE_BOUND('',#704,.F.);
#704 = EDGE_LOOP('',(#705,#706,#714,#722));
#705 = ORIENTED_EDGE('',*,*,#684,.T.);
#706 = ORIENTED_EDGE('',*,*,#707,.T.);
#707 = EDGE_CURVE('',#677,#708,#710,.T.);
#708 = VERTEX_POINT('',#709);
#709 = CARTESIAN_POINT('',(6.3,6.3,1.E-03));
#710 = LINE('',#711,#712);
#711 = CARTESIAN_POINT('',(6.3,0.,1.E-03));
#712 = VECTOR('',#713,1.);
#713 = DIRECTION('',(0.,1.,0.));
#714 = ORIENTED_EDGE('',*,*,#715,.F.);
#715 = EDGE_CURVE('',#716,#708,#718,.T.);
#716 = VERTEX_POINT('',#717);
#717 = CARTESIAN_POINT('',(6.3,6.3,0.));
#718 = LINE('',#719,#720);
#719 = CARTESIAN_POINT('',(6.3,6.3,0.));
#720 = VECTOR('',#721,1.);
#721 = DIRECTION('',(0.,0.,1.));
#722 = ORIENTED_EDGE('',*,*,#723,.F.);
#723 = EDGE_CURVE('',#685,#716,#724,.T.);
#724 = LINE('',#725,#726);
#725 = CARTESIAN_POINT('',(6.3,0.,0.));
#726 = VECTOR('',#727,1.);
#727 = DIRECTION('',(0.,1.,0.));
#728 = PLANE('',#729);
#729 = AXIS2_PLACEMENT_3D('',#730,#731,#732);
#730 = CARTESIAN_POINT('',(6.3,0.,0.));
#731 = DIRECTION('',(-1.,0.,0.));
#732 = DIRECTION('',(0.,1.,0.));
#733 = ADVANCED_FACE('',(#734),#759,.F.);
#734 = FACE_BOUND('',#735,.F.);
#735 = EDGE_LOOP('',(#736,#737,#745,#753));
#736 = ORIENTED_EDGE('',*,*,#715,.T.);
#737 = ORIENTED_EDGE('',*,*,#738,.T.);
#738 = EDGE_CURVE('',#708,#739,#741,.T.);
#739 = VERTEX_POINT('',#740);
#740 = CARTESIAN_POINT('',(0.35,6.3,1.E-03));
#741 = LINE('',#742,#743);
#742 = CARTESIAN_POINT('',(6.3,6.3,1.E-03));
#743 = VECTOR('',#744,1.);
#744 = DIRECTION('',(-1.,0.,0.));
#745 = ORIENTED_EDGE('',*,*,#746,.F.);
#746 = EDGE_CURVE('',#747,#739,#749,.T.);
#747 = VERTEX_POINT('',#748);
#748 = CARTESIAN_POINT('',(0.35,6.3,0.));
#749 = LINE('',#750,#751);
#750 = CARTESIAN_POINT('',(0.35,6.3,0.));
#751 = VECTOR('',#752,1.);
#752 = DIRECTION('',(0.,0.,1.));
#753 = ORIENTED_EDGE('',*,*,#754,.F.);
#754 = EDGE_CURVE('',#716,#747,#755,.T.);
#755 = LINE('',#756,#757);
#756 = CARTESIAN_POINT('',(6.3,6.3,0.));
#757 = VECTOR('',#758,1.);
#758 = DIRECTION('',(-1.,0.,0.));
#759 = PLANE('',#760);
#760 = AXIS2_PLACEMENT_3D('',#761,#762,#763);
#761 = CARTESIAN_POINT('',(6.3,6.3,0.));
#762 = DIRECTION('',(0.,-1.,0.));
#763 = DIRECTION('',(-1.,0.,0.));
#764 = ADVANCED_FACE('',(#765),#790,.F.);
#765 = FACE_BOUND('',#766,.F.);
#766 = EDGE_LOOP('',(#767,#768,#776,#784));
#767 = ORIENTED_EDGE('',*,*,#746,.T.);
#768 = ORIENTED_EDGE('',*,*,#769,.T.);
#769 = EDGE_CURVE('',#739,#770,#772,.T.);
#770 = VERTEX_POINT('',#771);
#771 = CARTESIAN_POINT('',(0.,5.95,1.E-03));
#772 = LINE('',#773,#774);
#773 = CARTESIAN_POINT('',(0.35,6.3,1.E-03));
#774 = VECTOR('',#775,1.);
#775 = DIRECTION('',(-0.707106781187,-0.707106781187,0.));
#776 = ORIENTED_EDGE('',*,*,#777,.F.);
#777 = EDGE_CURVE('',#778,#770,#780,.T.);
#778 = VERTEX_POINT('',#779);
#779 = CARTESIAN_POINT('',(0.,5.95,0.));
#780 = LINE('',#781,#782);
#781 = CARTESIAN_POINT('',(0.,5.95,0.));
#782 = VECTOR('',#783,1.);
#783 = DIRECTION('',(0.,0.,1.));
#784 = ORIENTED_EDGE('',*,*,#785,.F.);
#785 = EDGE_CURVE('',#747,#778,#786,.T.);
#786 = LINE('',#787,#788);
#787 = CARTESIAN_POINT('',(0.35,6.3,0.));
#788 = VECTOR('',#789,1.);
#789 = DIRECTION('',(-0.707106781187,-0.707106781187,0.));
#790 = PLANE('',#791);
#791 = AXIS2_PLACEMENT_3D('',#792,#793,#794);
#792 = CARTESIAN_POINT('',(0.35,6.3,0.));
#793 = DIRECTION('',(0.707106781187,-0.707106781187,0.));
#794 = DIRECTION('',(-0.707106781187,-0.707106781187,0.));
#795 = ADVANCED_FACE('',(#796),#812,.F.);
#796 = FACE_BOUND('',#797,.F.);
#797 = EDGE_LOOP('',(#798,#799,#805,#806));
#798 = ORIENTED_EDGE('',*,*,#777,.T.);
#799 = ORIENTED_EDGE('',*,*,#800,.T.);
#800 = EDGE_CURVE('',#770,#669,#801,.T.);
#801 = LINE('',#802,#803);
#802 = CARTESIAN_POINT('',(0.,5.95,1.E-03));
#803 = VECTOR('',#804,1.);
#804 = DIRECTION('',(0.,-1.,0.));
#805 = ORIENTED_EDGE('',*,*,#666,.F.);
#806 = ORIENTED_EDGE('',*,*,#807,.F.);
#807 = EDGE_CURVE('',#778,#667,#808,.T.);
#808 = LINE('',#809,#810);
#809 = CARTESIAN_POINT('',(0.,5.95,0.));
#810 = VECTOR('',#811,1.);
#811 = DIRECTION('',(0.,-1.,0.));
#812 = PLANE('',#813);
#813 = AXIS2_PLACEMENT_3D('',#814,#815,#816);
#814 = CARTESIAN_POINT('',(0.,5.95,0.));
#815 = DIRECTION('',(1.,0.,-0.));
#816 = DIRECTION('',(0.,-1.,0.));
#817 = ADVANCED_FACE('',(#818),#825,.F.);
#818 = FACE_BOUND('',#819,.F.);
#819 = EDGE_LOOP('',(#820,#821,#822,#823,#824));
#820 = ORIENTED_EDGE('',*,*,#692,.T.);
#821 = ORIENTED_EDGE('',*,*,#723,.T.);
#822 = ORIENTED_EDGE('',*,*,#754,.T.);
#823 = ORIENTED_EDGE('',*,*,#785,.T.);
#824 = ORIENTED_EDGE('',*,*,#807,.T.);
#825 = PLANE('',#826);
#826 = AXIS2_PLACEMENT_3D('',#827,#828,#829);
#827 = CARTESIAN_POINT('',(3.176853402933,3.123146597067,0.));
#828 = DIRECTION('',(0.,0.,1.));
#829 = DIRECTION('',(1.,0.,-0.));
#830 = ADVANCED_FACE('',(#831),#838,.T.);
#831 = FACE_BOUND('',#832,.T.);
#832 = EDGE_LOOP('',(#833,#834,#835,#836,#837));
#833 = ORIENTED_EDGE('',*,*,#676,.T.);
#834 = ORIENTED_EDGE('',*,*,#707,.T.);
#835 = ORIENTED_EDGE('',*,*,#738,.T.);
#836 = ORIENTED_EDGE('',*,*,#769,.T.);
#837 = ORIENTED_EDGE('',*,*,#800,.T.);
#838 = PLANE('',#839);
#839 = AXIS2_PLACEMENT_3D('',#840,#841,#842);
#840 = CARTESIAN_POINT('',(3.176853402933,3.123146597067,1.E-03));
#841 = DIRECTION('',(0.,0.,1.));
#842 = DIRECTION('',(1.,0.,-0.));
#843 = ( GEOMETRIC_REPRESENTATION_CONTEXT(3) 
GLOBAL_UNCERTAINTY_ASSIGNED_CONTEXT((#847)) GLOBAL_UNIT_ASSIGNED_CONTEXT
((#844,#845,#846)) REPRESENTATION_CONTEXT('Context #1',
  '3D Context with UNIT and UNCERTAINTY') );
#844 = ( LENGTH_UNIT() NAMED_UNIT(*) SI_UNIT(.MILLI.,.METRE.) );
#845 = ( NAMED_UNIT(*) PLANE_ANGLE_UNIT() SI_UNIT($,.RADIAN.) );
#846 = ( NAMED_UNIT(*) SI_UNIT($,.STERADIAN.) SOLID_ANGLE_UNIT() );
#847 = UNCERTAINTY_MEASURE_WITH_UNIT(LENGTH_MEASURE(1.E-07),#844,
  'distance_accuracy_value','confusion accuracy');
#848 = SHAPE_DEFINITION_REPRESENTATION(#849,#659);
#849 = PRODUCT_DEFINITION_SHAPE('','',#850);
#850 = PRODUCT_DEFINITION('design','',#851,#854);
#851 = PRODUCT_DEFINITION_FORMATION('','',#852);
#852 = PRODUCT('Thermal Shape','Thermal Shape','',(#853));
#853 = PRODUCT_CONTEXT('',#2,'mechanical');
#854 = PRODUCT_DEFINITION_CONTEXT('part definition',#2,'design');
#855 = CONTEXT_DEPENDENT_SHAPE_REPRESENTATION(#856,#858);
#856 = ( REPRESENTATION_RELATIONSHIP('','',#659,#46) 
REPRESENTATION_RELATIONSHIP_WITH_TRANSFORMATION(#857) 
SHAPE_REPRESENTATION_RELATIONSHIP() );
#857 = ITEM_DEFINED_TRANSFORMATION('','',#11,#55);
#858 = PRODUCT_DEFINITION_SHAPE('Placement','Placement of an item',#859
  );
#859 = NEXT_ASSEMBLY_USAGE_OCCURRENCE('6086','6001','',#41,#850,$);
#860 = PRODUCT_RELATED_PRODUCT_CATEGORY('part',$,(#852));
#861 = SHAPE_DEFINITION_REPRESENTATION(#862,#868);
#862 = PRODUCT_DEFINITION_SHAPE('','',#863);
#863 = PRODUCT_DEFINITION('design','',#864,#867);
#864 = PRODUCT_DEFINITION_FORMATION('','',#865);
#865 = PRODUCT('Pin Shape','Pin Shape','',(#866));
#866 = PRODUCT_CONTEXT('',#2,'mechanical');
#867 = PRODUCT_DEFINITION_CONTEXT('part definition',#2,'design');
#868 = SHAPE_REPRESENTATION('',(#11,#869),#873);
#869 = AXIS2_PLACEMENT_3D('',#870,#871,#872);
#870 = CARTESIAN_POINT('',(0.,0.,0.));
#871 = DIRECTION('',(0.,0.,1.));
#872 = DIRECTION('',(1.,0.,0.));
#873 = ( GEOMETRIC_REPRESENTATION_CONTEXT(3) 
GLOBAL_UNCERTAINTY_ASSIGNED_CONTEXT((#877)) GLOBAL_UNIT_ASSIGNED_CONTEXT
((#874,#875,#876)) REPRESENTATION_CONTEXT('Context #1',
  '3D Context with UNIT and UNCERTAINTY') );
#874 = ( LENGTH_UNIT() NAMED_UNIT(*) SI_UNIT(.MILLI.,.METRE.) );
#875 = ( NAMED_UNIT(*) PLANE_ANGLE_UNIT() SI_UNIT($,.RADIAN.) );
#876 = ( NAMED_UNIT(*) SI_UNIT($,.STERADIAN.) SOLID_ANGLE_UNIT() );
#877 = UNCERTAINTY_MEASURE_WITH_UNIT(LENGTH_MEASURE(1.E-07),#874,
  'distance_accuracy_value','confusion accuracy');
#878 = ADVANCED_BREP_SHAPE_REPRESENTATION('',(#11,#879),#1221);
#879 = MANIFOLD_SOLID_BREP('',#880);
#880 = CLOSED_SHELL('',(#881,#921,#952,#983,#1014,#1038,#1062,#1086,
    #1110,#1132,#1156,#1180,#1197,#1209));
#881 = ADVANCED_FACE('',(#882),#916,.F.);
#882 = FACE_BOUND('',#883,.F.);
#883 = EDGE_LOOP('',(#884,#894,#902,#910));
#884 = ORIENTED_EDGE('',*,*,#885,.F.);
#885 = EDGE_CURVE('',#886,#888,#890,.T.);
#886 = VERTEX_POINT('',#887);
#887 = CARTESIAN_POINT('',(-1.E-03,0.,0.));
#888 = VERTEX_POINT('',#889);
#889 = CARTESIAN_POINT('',(0.,0.,0.));
#890 = LINE('',#891,#892);
#891 = CARTESIAN_POINT('',(-1.E-03,0.,0.));
#892 = VECTOR('',#893,1.);
#893 = DIRECTION('',(1.,0.,0.));
#894 = ORIENTED_EDGE('',*,*,#895,.T.);
#895 = EDGE_CURVE('',#886,#896,#898,.T.);
#896 = VERTEX_POINT('',#897);
#897 = CARTESIAN_POINT('',(-1.E-03,0.,1.E-03));
#898 = LINE('',#899,#900);
#899 = CARTESIAN_POINT('',(-1.E-03,0.,0.));
#900 = VECTOR('',#901,1.);
#901 = DIRECTION('',(0.,0.,1.));
#902 = ORIENTED_EDGE('',*,*,#903,.T.);
#903 = EDGE_CURVE('',#896,#904,#906,.T.);
#904 = VERTEX_POINT('',#905);
#905 = CARTESIAN_POINT('',(-2.194425197111E-19,0.,1.E-03));
#906 = LINE('',#907,#908);
#907 = CARTESIAN_POINT('',(-1.E-03,0.,1.E-03));
#908 = VECTOR('',#909,1.);
#909 = DIRECTION('',(1.,0.,0.));
#910 = ORIENTED_EDGE('',*,*,#911,.F.);
#911 = EDGE_CURVE('',#888,#904,#912,.T.);
#912 = LINE('',#913,#914);
#913 = CARTESIAN_POINT('',(0.,0.,0.));
#914 = VECTOR('',#915,1.);
#915 = DIRECTION('',(-2.22044604925E-16,0.,1.));
#916 = PLANE('',#917);
#917 = AXIS2_PLACEMENT_3D('',#918,#919,#920);
#918 = CARTESIAN_POINT('',(-1.E-03,0.,0.));
#919 = DIRECTION('',(0.,1.,0.));
#920 = DIRECTION('',(1.,0.,0.));
#921 = ADVANCED_FACE('',(#922),#947,.F.);
#922 = FACE_BOUND('',#923,.F.);
#923 = EDGE_LOOP('',(#924,#932,#933,#941));
#924 = ORIENTED_EDGE('',*,*,#925,.T.);
#925 = EDGE_CURVE('',#926,#886,#928,.T.);
#926 = VERTEX_POINT('',#927);
#927 = CARTESIAN_POINT('',(-1.E-03,0.2,0.));
#928 = LINE('',#929,#930);
#929 = CARTESIAN_POINT('',(-1.E-03,0.2,0.));
#930 = VECTOR('',#931,1.);
#931 = DIRECTION('',(0.,-1.,0.));
#932 = ORIENTED_EDGE('',*,*,#885,.T.);
#933 = ORIENTED_EDGE('',*,*,#934,.F.);
#934 = EDGE_CURVE('',#935,#888,#937,.T.);
#935 = VERTEX_POINT('',#936);
#936 = CARTESIAN_POINT('',(0.,0.2,0.));
#937 = LINE('',#938,#939);
#938 = CARTESIAN_POINT('',(0.,0.2,0.));
#939 = VECTOR('',#940,1.);
#940 = DIRECTION('',(-0.,-1.,0.));
#941 = ORIENTED_EDGE('',*,*,#942,.T.);
#942 = EDGE_CURVE('',#935,#926,#943,.T.);
#943 = LINE('',#944,#945);
#944 = CARTESIAN_POINT('',(0.4,0.2,0.));
#945 = VECTOR('',#946,1.);
#946 = DIRECTION('',(-1.,0.,0.));
#947 = PLANE('',#948);
#948 = AXIS2_PLACEMENT_3D('',#949,#950,#951);
#949 = CARTESIAN_POINT('',(0.1995,0.1,0.));
#950 = DIRECTION('',(0.,0.,1.));
#951 = DIRECTION('',(1.,0.,-0.));
#952 = ADVANCED_FACE('',(#953),#978,.F.);
#953 = FACE_BOUND('',#954,.F.);
#954 = EDGE_LOOP('',(#955,#963,#964,#972));
#955 = ORIENTED_EDGE('',*,*,#956,.F.);
#956 = EDGE_CURVE('',#888,#957,#959,.T.);
#957 = VERTEX_POINT('',#958);
#958 = CARTESIAN_POINT('',(0.4,0.,0.));
#959 = LINE('',#960,#961);
#960 = CARTESIAN_POINT('',(-1.E-03,0.,0.));
#961 = VECTOR('',#962,1.);
#962 = DIRECTION('',(1.,0.,0.));
#963 = ORIENTED_EDGE('',*,*,#911,.T.);
#964 = ORIENTED_EDGE('',*,*,#965,.T.);
#965 = EDGE_CURVE('',#904,#966,#968,.T.);
#966 = VERTEX_POINT('',#967);
#967 = CARTESIAN_POINT('',(0.4,0.,1.E-03));
#968 = LINE('',#969,#970);
#969 = CARTESIAN_POINT('',(-1.E-03,0.,1.E-03));
#970 = VECTOR('',#971,1.);
#971 = DIRECTION('',(1.,0.,0.));
#972 = ORIENTED_EDGE('',*,*,#973,.F.);
#973 = EDGE_CURVE('',#957,#966,#974,.T.);
#974 = LINE('',#975,#976);
#975 = CARTESIAN_POINT('',(0.4,0.,0.));
#976 = VECTOR('',#977,1.);
#977 = DIRECTION('',(0.,0.,1.));
#978 = PLANE('',#979);
#979 = AXIS2_PLACEMENT_3D('',#980,#981,#982);
#980 = CARTESIAN_POINT('',(-1.E-03,0.,0.));
#981 = DIRECTION('',(0.,1.,0.));
#982 = DIRECTION('',(1.,0.,0.));
#983 = ADVANCED_FACE('',(#984),#1009,.F.);
#984 = FACE_BOUND('',#985,.F.);
#985 = EDGE_LOOP('',(#986,#987,#995,#1003));
#986 = ORIENTED_EDGE('',*,*,#903,.F.);
#987 = ORIENTED_EDGE('',*,*,#988,.T.);
#988 = EDGE_CURVE('',#896,#989,#991,.T.);
#989 = VERTEX_POINT('',#990);
#990 = CARTESIAN_POINT('',(-1.E-03,0.,0.2));
#991 = LINE('',#992,#993);
#992 = CARTESIAN_POINT('',(-1.E-03,0.,0.));
#993 = VECTOR('',#994,1.);
#994 = DIRECTION('',(-2.22044604925E-16,0.,1.));
#995 = ORIENTED_EDGE('',*,*,#996,.F.);
#996 = EDGE_CURVE('',#997,#989,#999,.T.);
#997 = VERTEX_POINT('',#998);
#998 = CARTESIAN_POINT('',(-4.440892098501E-17,0.,0.2));
#999 = LINE('',#1000,#1001);
#1000 = CARTESIAN_POINT('',(-4.440892098501E-17,0.,0.2));
#1001 = VECTOR('',#1002,1.);
#1002 = DIRECTION('',(-1.,0.,0.));
#1003 = ORIENTED_EDGE('',*,*,#1004,.F.);
#1004 = EDGE_CURVE('',#904,#997,#1005,.T.);
#1005 = LINE('',#1006,#1007);
#1006 = CARTESIAN_POINT('',(0.,0.,0.));
#1007 = VECTOR('',#1008,1.);
#1008 = DIRECTION('',(-2.22044604925E-16,0.,1.));
#1009 = PLANE('',#1010);
#1010 = AXIS2_PLACEMENT_3D('',#1011,#1012,#1013);
#1011 = CARTESIAN_POINT('',(0.,0.,0.));
#1012 = DIRECTION('',(0.,1.,0.));
#1013 = DIRECTION('',(-2.22044604925E-16,0.,1.));
#1014 = ADVANCED_FACE('',(#1015),#1033,.F.);
#1015 = FACE_BOUND('',#1016,.F.);
#1016 = EDGE_LOOP('',(#1017,#1025,#1031,#1032));
#1017 = ORIENTED_EDGE('',*,*,#1018,.T.);
#1018 = EDGE_CURVE('',#926,#1019,#1021,.T.);
#1019 = VERTEX_POINT('',#1020);
#1020 = CARTESIAN_POINT('',(-1.E-03,0.2,1.E-03));
#1021 = LINE('',#1022,#1023);
#1022 = CARTESIAN_POINT('',(-1.E-03,0.2,0.));
#1023 = VECTOR('',#1024,1.);
#1024 = DIRECTION('',(0.,0.,1.));
#1025 = ORIENTED_EDGE('',*,*,#1026,.T.);
#1026 = EDGE_CURVE('',#1019,#896,#1027,.T.);
#1027 = LINE('',#1028,#1029);
#1028 = CARTESIAN_POINT('',(-1.E-03,0.2,1.E-03));
#1029 = VECTOR('',#1030,1.);
#1030 = DIRECTION('',(0.,-1.,0.));
#1031 = ORIENTED_EDGE('',*,*,#895,.F.);
#1032 = ORIENTED_EDGE('',*,*,#925,.F.);
#1033 = PLANE('',#1034);
#1034 = AXIS2_PLACEMENT_3D('',#1035,#1036,#1037);
#1035 = CARTESIAN_POINT('',(-1.E-03,0.2,0.));
#1036 = DIRECTION('',(1.,0.,-0.));
#1037 = DIRECTION('',(0.,-1.,0.));
#1038 = ADVANCED_FACE('',(#1039),#1057,.F.);
#1039 = FACE_BOUND('',#1040,.F.);
#1040 = EDGE_LOOP('',(#1041,#1042,#1050,#1056));
#1041 = ORIENTED_EDGE('',*,*,#942,.F.);
#1042 = ORIENTED_EDGE('',*,*,#1043,.F.);
#1043 = EDGE_CURVE('',#1044,#935,#1046,.T.);
#1044 = VERTEX_POINT('',#1045);
#1045 = CARTESIAN_POINT('',(-1.110223024625E-19,0.2,1.E-03));
#1046 = LINE('',#1047,#1048);
#1047 = CARTESIAN_POINT('',(-4.440892098501E-17,0.2,0.2));
#1048 = VECTOR('',#1049,1.);
#1049 = DIRECTION('',(2.22044604925E-16,0.,-1.));
#1050 = ORIENTED_EDGE('',*,*,#1051,.T.);
#1051 = EDGE_CURVE('',#1044,#1019,#1052,.T.);
#1052 = LINE('',#1053,#1054);
#1053 = CARTESIAN_POINT('',(0.4,0.2,1.E-03));
#1054 = VECTOR('',#1055,1.);
#1055 = DIRECTION('',(-1.,0.,0.));
#1056 = ORIENTED_EDGE('',*,*,#1018,.F.);
#1057 = PLANE('',#1058);
#1058 = AXIS2_PLACEMENT_3D('',#1059,#1060,#1061);
#1059 = CARTESIAN_POINT('',(0.4,0.2,0.));
#1060 = DIRECTION('',(0.,-1.,0.));
#1061 = DIRECTION('',(-1.,0.,0.));
#1062 = ADVANCED_FACE('',(#1063),#1081,.F.);
#1063 = FACE_BOUND('',#1064,.F.);
#1064 = EDGE_LOOP('',(#1065,#1066,#1067,#1075));
#1065 = ORIENTED_EDGE('',*,*,#934,.T.);
#1066 = ORIENTED_EDGE('',*,*,#956,.T.);
#1067 = ORIENTED_EDGE('',*,*,#1068,.T.);
#1068 = EDGE_CURVE('',#957,#1069,#1071,.T.);
#1069 = VERTEX_POINT('',#1070);
#1070 = CARTESIAN_POINT('',(0.4,0.2,0.));
#1071 = LINE('',#1072,#1073);
#1072 = CARTESIAN_POINT('',(0.4,0.,0.));
#1073 = VECTOR('',#1074,1.);
#1074 = DIRECTION('',(0.,1.,0.));
#1075 = ORIENTED_EDGE('',*,*,#1076,.T.);
#1076 = EDGE_CURVE('',#1069,#935,#1077,.T.);
#1077 = LINE('',#1078,#1079);
#1078 = CARTESIAN_POINT('',(0.4,0.2,0.));
#1079 = VECTOR('',#1080,1.);
#1080 = DIRECTION('',(-1.,0.,0.));
#1081 = PLANE('',#1082);
#1082 = AXIS2_PLACEMENT_3D('',#1083,#1084,#1085);
#1083 = CARTESIAN_POINT('',(0.1995,0.1,0.));
#1084 = DIRECTION('',(0.,0.,1.));
#1085 = DIRECTION('',(1.,0.,-0.));
#1086 = ADVANCED_FACE('',(#1087),#1105,.F.);
#1087 = FACE_BOUND('',#1088,.F.);
#1088 = EDGE_LOOP('',(#1089,#1090,#1098,#1104));
#1089 = ORIENTED_EDGE('',*,*,#973,.T.);
#1090 = ORIENTED_EDGE('',*,*,#1091,.T.);
#1091 = EDGE_CURVE('',#966,#1092,#1094,.T.);
#1092 = VERTEX_POINT('',#1093);
#1093 = CARTESIAN_POINT('',(0.4,0.2,1.E-03));
#1094 = LINE('',#1095,#1096);
#1095 = CARTESIAN_POINT('',(0.4,0.,1.E-03));
#1096 = VECTOR('',#1097,1.);
#1097 = DIRECTION('',(0.,1.,0.));
#1098 = ORIENTED_EDGE('',*,*,#1099,.F.);
#1099 = EDGE_CURVE('',#1069,#1092,#1100,.T.);
#1100 = LINE('',#1101,#1102);
#1101 = CARTESIAN_POINT('',(0.4,0.2,0.));
#1102 = VECTOR('',#1103,1.);
#1103 = DIRECTION('',(0.,0.,1.));
#1104 = ORIENTED_EDGE('',*,*,#1068,.F.);
#1105 = PLANE('',#1106);
#1106 = AXIS2_PLACEMENT_3D('',#1107,#1108,#1109);
#1107 = CARTESIAN_POINT('',(0.4,0.,0.));
#1108 = DIRECTION('',(-1.,0.,0.));
#1109 = DIRECTION('',(0.,1.,0.));
#1110 = ADVANCED_FACE('',(#1111),#1127,.T.);
#1111 = FACE_BOUND('',#1112,.T.);
#1112 = EDGE_LOOP('',(#1113,#1119,#1120,#1121));
#1113 = ORIENTED_EDGE('',*,*,#1114,.T.);
#1114 = EDGE_CURVE('',#1044,#904,#1115,.T.);
#1115 = LINE('',#1116,#1117);
#1116 = CARTESIAN_POINT('',(-1.110223024625E-19,0.1,1.E-03));
#1117 = VECTOR('',#1118,1.);
#1118 = DIRECTION('',(-0.,-1.,0.));
#1119 = ORIENTED_EDGE('',*,*,#965,.T.);
#1120 = ORIENTED_EDGE('',*,*,#1091,.T.);
#1121 = ORIENTED_EDGE('',*,*,#1122,.T.);
#1122 = EDGE_CURVE('',#1092,#1044,#1123,.T.);
#1123 = LINE('',#1124,#1125);
#1124 = CARTESIAN_POINT('',(0.4,0.2,1.E-03));
#1125 = VECTOR('',#1126,1.);
#1126 = DIRECTION('',(-1.,0.,0.));
#1127 = PLANE('',#1128);
#1128 = AXIS2_PLACEMENT_3D('',#1129,#1130,#1131);
#1129 = CARTESIAN_POINT('',(0.1995,0.1,1.E-03));
#1130 = DIRECTION('',(0.,0.,1.));
#1131 = DIRECTION('',(1.,0.,-0.));
#1132 = ADVANCED_FACE('',(#1133),#1151,.F.);
#1133 = FACE_BOUND('',#1134,.F.);
#1134 = EDGE_LOOP('',(#1135,#1136,#1137,#1145));
#1135 = ORIENTED_EDGE('',*,*,#1114,.T.);
#1136 = ORIENTED_EDGE('',*,*,#1004,.T.);
#1137 = ORIENTED_EDGE('',*,*,#1138,.T.);
#1138 = EDGE_CURVE('',#997,#1139,#1141,.T.);
#1139 = VERTEX_POINT('',#1140);
#1140 = CARTESIAN_POINT('',(-4.440892098501E-17,0.2,0.2));
#1141 = LINE('',#1142,#1143);
#1142 = CARTESIAN_POINT('',(-4.440892098501E-17,0.,0.2));
#1143 = VECTOR('',#1144,1.);
#1144 = DIRECTION('',(0.,1.,0.));
#1145 = ORIENTED_EDGE('',*,*,#1146,.T.);
#1146 = EDGE_CURVE('',#1139,#1044,#1147,.T.);
#1147 = LINE('',#1148,#1149);
#1148 = CARTESIAN_POINT('',(-4.440892098501E-17,0.2,0.2));
#1149 = VECTOR('',#1150,1.);
#1150 = DIRECTION('',(2.22044604925E-16,0.,-1.));
#1151 = PLANE('',#1152);
#1152 = AXIS2_PLACEMENT_3D('',#1153,#1154,#1155);
#1153 = CARTESIAN_POINT('',(-2.22044604925E-17,0.1,0.1));
#1154 = DIRECTION('',(-1.,0.,-2.22044604925E-16));
#1155 = DIRECTION('',(-2.22044604925E-16,0.,1.));
#1156 = ADVANCED_FACE('',(#1157),#1175,.F.);
#1157 = FACE_BOUND('',#1158,.F.);
#1158 = EDGE_LOOP('',(#1159,#1160,#1168,#1174));
#1159 = ORIENTED_EDGE('',*,*,#996,.T.);
#1160 = ORIENTED_EDGE('',*,*,#1161,.T.);
#1161 = EDGE_CURVE('',#989,#1162,#1164,.T.);
#1162 = VERTEX_POINT('',#1163);
#1163 = CARTESIAN_POINT('',(-1.E-03,0.2,0.2));
#1164 = LINE('',#1165,#1166);
#1165 = CARTESIAN_POINT('',(-1.E-03,0.,0.2));
#1166 = VECTOR('',#1167,1.);
#1167 = DIRECTION('',(0.,1.,0.));
#1168 = ORIENTED_EDGE('',*,*,#1169,.F.);
#1169 = EDGE_CURVE('',#1139,#1162,#1170,.T.);
#1170 = LINE('',#1171,#1172);
#1171 = CARTESIAN_POINT('',(-4.440892098501E-17,0.2,0.2));
#1172 = VECTOR('',#1173,1.);
#1173 = DIRECTION('',(-1.,0.,0.));
#1174 = ORIENTED_EDGE('',*,*,#1138,.F.);
#1175 = PLANE('',#1176);
#1176 = AXIS2_PLACEMENT_3D('',#1177,#1178,#1179);
#1177 = CARTESIAN_POINT('',(-4.440892098501E-17,0.,0.2));
#1178 = DIRECTION('',(0.,0.,-1.));
#1179 = DIRECTION('',(0.,1.,0.));
#1180 = ADVANCED_FACE('',(#1181),#1192,.T.);
#1181 = FACE_BOUND('',#1182,.T.);
#1182 = EDGE_LOOP('',(#1183,#1184,#1185,#1186));
#1183 = ORIENTED_EDGE('',*,*,#1026,.T.);
#1184 = ORIENTED_EDGE('',*,*,#988,.T.);
#1185 = ORIENTED_EDGE('',*,*,#1161,.T.);
#1186 = ORIENTED_EDGE('',*,*,#1187,.T.);
#1187 = EDGE_CURVE('',#1162,#1019,#1188,.T.);
#1188 = LINE('',#1189,#1190);
#1189 = CARTESIAN_POINT('',(-1.E-03,0.2,0.2));
#1190 = VECTOR('',#1191,1.);
#1191 = DIRECTION('',(2.22044604925E-16,0.,-1.));
#1192 = PLANE('',#1193);
#1193 = AXIS2_PLACEMENT_3D('',#1194,#1195,#1196);
#1194 = CARTESIAN_POINT('',(-1.E-03,0.1,0.1));
#1195 = DIRECTION('',(-1.,0.,-2.22044604925E-16));
#1196 = DIRECTION('',(-2.22044604925E-16,0.,1.));
#1197 = ADVANCED_FACE('',(#1198),#1204,.F.);
#1198 = FACE_BOUND('',#1199,.F.);
#1199 = EDGE_LOOP('',(#1200,#1201,#1202,#1203));
#1200 = ORIENTED_EDGE('',*,*,#1146,.F.);
#1201 = ORIENTED_EDGE('',*,*,#1169,.T.);
#1202 = ORIENTED_EDGE('',*,*,#1187,.T.);
#1203 = ORIENTED_EDGE('',*,*,#1051,.F.);
#1204 = PLANE('',#1205);
#1205 = AXIS2_PLACEMENT_3D('',#1206,#1207,#1208);
#1206 = CARTESIAN_POINT('',(-4.440892098501E-17,0.2,0.2));
#1207 = DIRECTION('',(-0.,-1.,-0.));
#1208 = DIRECTION('',(2.22044604925E-16,0.,-1.));
#1209 = ADVANCED_FACE('',(#1210),#1216,.F.);
#1210 = FACE_BOUND('',#1211,.F.);
#1211 = EDGE_LOOP('',(#1212,#1213,#1214,#1215));
#1212 = ORIENTED_EDGE('',*,*,#1076,.F.);
#1213 = ORIENTED_EDGE('',*,*,#1099,.T.);
#1214 = ORIENTED_EDGE('',*,*,#1122,.T.);
#1215 = ORIENTED_EDGE('',*,*,#1043,.T.);
#1216 = PLANE('',#1217);
#1217 = AXIS2_PLACEMENT_3D('',#1218,#1219,#1220);
#1218 = CARTESIAN_POINT('',(0.4,0.2,0.));
#1219 = DIRECTION('',(0.,-1.,0.));
#1220 = DIRECTION('',(-1.,0.,0.));
#1221 = ( GEOMETRIC_REPRESENTATION_CONTEXT(3) 
GLOBAL_UNCERTAINTY_ASSIGNED_CONTEXT((#1225)) 
GLOBAL_UNIT_ASSIGNED_CONTEXT((#1222,#1223,#1224)) REPRESENTATION_CONTEXT
('Context #1','3D Context with UNIT and UNCERTAINTY') );
#1222 = ( LENGTH_UNIT() NAMED_UNIT(*) SI_UNIT(.MILLI.,.METRE.) );
#1223 = ( NAMED_UNIT(*) PLANE_ANGLE_UNIT() SI_UNIT($,.RADIAN.) );
#1224 = ( NAMED_UNIT(*) SI_UNIT($,.STERADIAN.) SOLID_ANGLE_UNIT() );
#1225 = UNCERTAINTY_MEASURE_WITH_UNIT(LENGTH_MEASURE(1.E-07),#1222,
  'distance_accuracy_value','confusion accuracy');
#1226 = SHAPE_DEFINITION_REPRESENTATION(#1227,#878);
#1227 = PRODUCT_DEFINITION_SHAPE('','',#1228);
#1228 = PRODUCT_DEFINITION('design','',#1229,#1232);
#1229 = PRODUCT_DEFINITION_FORMATION('','',#1230);
#1230 = PRODUCT('Open CASCADE STEP translator 7.5 91.4.1',
  'Open CASCADE STEP translator 7.5 91.4.1','',(#1231));
#1231 = PRODUCT_CONTEXT('',#2,'mechanical');
#1232 = PRODUCT_DEFINITION_CONTEXT('part definition',#2,'design');
#1233 = CONTEXT_DEPENDENT_SHAPE_REPRESENTATION(#1234,#1236);
#1234 = ( REPRESENTATION_RELATIONSHIP('','',#878,#868) 
REPRESENTATION_RELATIONSHIP_WITH_TRANSFORMATION(#1235) 
SHAPE_REPRESENTATION_RELATIONSHIP() );
#1235 = ITEM_DEFINED_TRANSFORMATION('','',#11,#869);
#1236 = PRODUCT_DEFINITION_SHAPE('Placement','Placement of an item',
  #1237);
#1237 = NEXT_ASSEMBLY_USAGE_OCCURRENCE('6087','6002','',#863,#1228,$);
#1238 = PRODUCT_RELATED_PRODUCT_CATEGORY('part',$,(#1230));
#1239 = CONTEXT_DEPENDENT_SHAPE_REPRESENTATION(#1240,#1242);
#1240 = ( REPRESENTATION_RELATIONSHIP('','',#868,#46) 
REPRESENTATION_RELATIONSHIP_WITH_TRANSFORMATION(#1241) 
SHAPE_REPRESENTATION_RELATIONSHIP() );
#1241 = ITEM_DEFINED_TRANSFORMATION('','',#11,#59);
#1242 = PRODUCT_DEFINITION_SHAPE('Placement','Placement of an item',
  #1243);
#1243 = NEXT_ASSEMBLY_USAGE_OCCURRENCE('6088','6003','',#41,#863,$);
#1244 = PRODUCT_RELATED_PRODUCT_CATEGORY('part',$,(#865));
#1245 = CONTEXT_DEPENDENT_SHAPE_REPRESENTATION(#1246,#1248);
#1246 = ( REPRESENTATION_RELATIONSHIP('','',#868,#46) 
REPRESENTATION_RELATIONSHIP_WITH_TRANSFORMATION(#1247) 
SHAPE_REPRESENTATION_RELATIONSHIP() );
#1247 = ITEM_DEFINED_TRANSFORMATION('','',#11,#63);
#1248 = PRODUCT_DEFINITION_SHAPE('Placement','Placement of an item',
  #1249);
#1249 = NEXT_ASSEMBLY_USAGE_OCCURRENCE('6089','6004','',#41,#863,$);
#1250 = CONTEXT_DEPENDENT_SHAPE_REPRESENTATION(#1251,#1253);
#1251 = ( REPRESENTATION_RELATIONSHIP('','',#868,#46) 
REPRESENTATION_RELATIONSHIP_WITH_TRANSFORMATION(#1252) 
SHAPE_REPRESENTATION_RELATIONSHIP() );
#1252 = ITEM_DEFINED_TRANSFORMATION('','',#11,#67);
#1253 = PRODUCT_DEFINITION_SHAPE('Placement','Placement of an item',
  #1254);
#1254 = NEXT_ASSEMBLY_USAGE_OCCURRENCE('6090','6005','',#41,#863,$);
#1255 = CONTEXT_DEPENDENT_SHAPE_REPRESENTATION(#1256,#1258);
#1256 = ( REPRESENTATION_RELATIONSHIP('','',#868,#46) 
REPRESENTATION_RELATIONSHIP_WITH_TRANSFORMATION(#1257) 
SHAPE_REPRESENTATION_RELATIONSHIP() );
#1257 = ITEM_DEFINED_TRANSFORMATION('','',#11,#71);
#1258 = PRODUCT_DEFINITION_SHAPE('Placement','Placement of an item',
  #1259);
#1259 = NEXT_ASSEMBLY_USAGE_OCCURRENCE('6091','6006','',#41,#863,$);
#1260 = CONTEXT_DEPENDENT_SHAPE_REPRESENTATION(#1261,#1263);
#1261 = ( REPRESENTATION_RELATIONSHIP('','',#868,#46) 
REPRESENTATION_RELATIONSHIP_WITH_TRANSFORMATION(#1262) 
SHAPE_REPRESENTATION_RELATIONSHIP() );
#1262 = ITEM_DEFINED_TRANSFORMATION('','',#11,#75);
#1263 = PRODUCT_DEFINITION_SHAPE('Placement','Placement of an item',
  #1264);
#1264 = NEXT_ASSEMBLY_USAGE_OCCURRENCE('6092','6007','',#41,#863,$);
#1265 = CONTEXT_DEPENDENT_SHAPE_REPRESENTATION(#1266,#1268);
#1266 = ( REPRESENTATION_RELATIONSHIP('','',#868,#46) 
REPRESENTATION_RELATIONSHIP_WITH_TRANSFORMATION(#1267) 
SHAPE_REPRESENTATION_RELATIONSHIP() );
#1267 = ITEM_DEFINED_TRANSFORMATION('','',#11,#79);
#1268 = PRODUCT_DEFINITION_SHAPE('Placement','Placement of an item',
  #1269);
#1269 = NEXT_ASSEMBLY_USAGE_OCCURRENCE('6093','6008','',#41,#863,$);
#1270 = CONTEXT_DEPENDENT_SHAPE_REPRESENTATION(#1271,#1273);
#1271 = ( REPRESENTATION_RELATIONSHIP('','',#868,#46) 
REPRESENTATION_RELATIONSHIP_WITH_TRANSFORMATION(#1272) 
SHAPE_REPRESENTATION_RELATIONSHIP() );
#1272 = ITEM_DEFINED_TRANSFORMATION('','',#11,#83);
#1273 = PRODUCT_DEFINITION_SHAPE('Placement','Placement of an item',
  #1274);
#1274 = NEXT_ASSEMBLY_USAGE_OCCURRENCE('6094','6009','',#41,#863,$);
#1275 = CONTEXT_DEPENDENT_SHAPE_REPRESENTATION(#1276,#1278);
#1276 = ( REPRESENTATION_RELATIONSHIP('','',#868,#46) 
REPRESENTATION_RELATIONSHIP_WITH_TRANSFORMATION(#1277) 
SHAPE_REPRESENTATION_RELATIONSHIP() );
#1277 = ITEM_DEFINED_TRANSFORMATION('','',#11,#87);
#1278 = PRODUCT_DEFINITION_SHAPE('Placement','Placement of an item',
  #1279);
#1279 = NEXT_ASSEMBLY_USAGE_OCCURRENCE('6095','6010','',#41,#863,$);
#1280 = CONTEXT_DEPENDENT_SHAPE_REPRESENTATION(#1281,#1283);
#1281 = ( REPRESENTATION_RELATIONSHIP('','',#868,#46) 
REPRESENTATION_RELATIONSHIP_WITH_TRANSFORMATION(#1282) 
SHAPE_REPRESENTATION_RELATIONSHIP() );
#1282 = ITEM_DEFINED_TRANSFORMATION('','',#11,#91);
#1283 = PRODUCT_DEFINITION_SHAPE('Placement','Placement of an item',
  #1284);
#1284 = NEXT_ASSEMBLY_USAGE_OCCURRENCE('6096','6011','',#41,#863,$);
#1285 = CONTEXT_DEPENDENT_SHAPE_REPRESENTATION(#1286,#1288);
#1286 = ( REPRESENTATION_RELATIONSHIP('','',#868,#46) 
REPRESENTATION_RELATIONSHIP_WITH_TRANSFORMATION(#1287) 
SHAPE_REPRESENTATION_RELATIONSHIP() );
#1287 = ITEM_DEFINED_TRANSFORMATION('','',#11,#95);
#1288 = PRODUCT_DEFINITION_SHAPE('Placement','Placement of an item',
  #1289);
#1289 = NEXT_ASSEMBLY_USAGE_OCCURRENCE('6097','6012','',#41,#863,$);
#1290 = CONTEXT_DEPENDENT_SHAPE_REPRESENTATION(#1291,#1293);
#1291 = ( REPRESENTATION_RELATIONSHIP('','',#868,#46) 
REPRESENTATION_RELATIONSHIP_WITH_TRANSFORMATION(#1292) 
SHAPE_REPRESENTATION_RELATIONSHIP() );
#1292 = ITEM_DEFINED_TRANSFORMATION('','',#11,#99);
#1293 = PRODUCT_DEFINITION_SHAPE('Placement','Placement of an item',
  #1294);
#1294 = NEXT_ASSEMBLY_USAGE_OCCURRENCE('6098','6013','',#41,#863,$);
#1295 = CONTEXT_DEPENDENT_SHAPE_REPRESENTATION(#1296,#1298);
#1296 = ( REPRESENTATION_RELATIONSHIP('','',#868,#46) 
REPRESENTATION_RELATIONSHIP_WITH_TRANSFORMATION(#1297) 
SHAPE_REPRESENTATION_RELATIONSHIP() );
#1297 = ITEM_DEFINED_TRANSFORMATION('','',#11,#103);
#1298 = PRODUCT_DEFINITION_SHAPE('Placement','Placement of an item',
  #1299);
#1299 = NEXT_ASSEMBLY_USAGE_OCCURRENCE('6099','6014','',#41,#863,$);
#1300 = CONTEXT_DEPENDENT_SHAPE_REPRESENTATION(#1301,#1303);
#1301 = ( REPRESENTATION_RELATIONSHIP('','',#868,#46) 
REPRESENTATION_RELATIONSHIP_WITH_TRANSFORMATION(#1302) 
SHAPE_REPRESENTATION_RELATIONSHIP() );
#1302 = ITEM_DEFINED_TRANSFORMATION('','',#11,#107);
#1303 = PRODUCT_DEFINITION_SHAPE('Placement','Placement of an item',
  #1304);
#1304 = NEXT_ASSEMBLY_USAGE_OCCURRENCE('6100','6015','',#41,#863,$);
#1305 = CONTEXT_DEPENDENT_SHAPE_REPRESENTATION(#1306,#1308);
#1306 = ( REPRESENTATION_RELATIONSHIP('','',#868,#46) 
REPRESENTATION_RELATIONSHIP_WITH_TRANSFORMATION(#1307) 
SHAPE_REPRESENTATION_RELATIONSHIP() );
#1307 = ITEM_DEFINED_TRANSFORMATION('','',#11,#111);
#1308 = PRODUCT_DEFINITION_SHAPE('Placement','Placement of an item',
  #1309);
#1309 = NEXT_ASSEMBLY_USAGE_OCCURRENCE('6101','6016','',#41,#863,$);
#1310 = CONTEXT_DEPENDENT_SHAPE_REPRESENTATION(#1311,#1313);
#1311 = ( REPRESENTATION_RELATIONSHIP('','',#868,#46) 
REPRESENTATION_RELATIONSHIP_WITH_TRANSFORMATION(#1312) 
SHAPE_REPRESENTATION_RELATIONSHIP() );
#1312 = ITEM_DEFINED_TRANSFORMATION('','',#11,#115);
#1313 = PRODUCT_DEFINITION_SHAPE('Placement','Placement of an item',
  #1314);
#1314 = NEXT_ASSEMBLY_USAGE_OCCURRENCE('6102','6017','',#41,#863,$);
#1315 = CONTEXT_DEPENDENT_SHAPE_REPRESENTATION(#1316,#1318);
#1316 = ( REPRESENTATION_RELATIONSHIP('','',#868,#46) 
REPRESENTATION_RELATIONSHIP_WITH_TRANSFORMATION(#1317) 
SHAPE_REPRESENTATION_RELATIONSHIP() );
#1317 = ITEM_DEFINED_TRANSFORMATION('','',#11,#119);
#1318 = PRODUCT_DEFINITION_SHAPE('Placement','Placement of an item',
  #1319);
#1319 = NEXT_ASSEMBLY_USAGE_OCCURRENCE('6103','6018','',#41,#863,$);
#1320 = CONTEXT_DEPENDENT_SHAPE_REPRESENTATION(#1321,#1323);
#1321 = ( REPRESENTATION_RELATIONSHIP('','',#868,#46) 
REPRESENTATION_RELATIONSHIP_WITH_TRANSFORMATION(#1322) 
SHAPE_REPRESENTATION_RELATIONSHIP() );
#1322 = ITEM_DEFINED_TRANSFORMATION('','',#11,#123);
#1323 = PRODUCT_DEFINITION_SHAPE('Placement','Placement of an item',
  #1324);
#1324 = NEXT_ASSEMBLY_USAGE_OCCURRENCE('6104','6019','',#41,#863,$);
#1325 = CONTEXT_DEPENDENT_SHAPE_REPRESENTATION(#1326,#1328);
#1326 = ( REPRESENTATION_RELATIONSHIP('','',#868,#46) 
REPRESENTATION_RELATIONSHIP_WITH_TRANSFORMATION(#1327) 
SHAPE_REPRESENTATION_RELATIONSHIP() );
#1327 = ITEM_DEFINED_TRANSFORMATION('','',#11,#127);
#1328 = PRODUCT_DEFINITION_SHAPE('Placement','Placement of an item',
  #1329);
#1329 = NEXT_ASSEMBLY_USAGE_OCCURRENCE('6105','6020','',#41,#863,$);
#1330 = CONTEXT_DEPENDENT_SHAPE_REPRESENTATION(#1331,#1333);
#1331 = ( REPRESENTATION_RELATIONSHIP('','',#868,#46) 
REPRESENTATION_RELATIONSHIP_WITH_TRANSFORMATION(#1332) 
SHAPE_REPRESENTATION_RELATIONSHIP() );
#1332 = ITEM_DEFINED_TRANSFORMATION('','',#11,#131);
#1333 = PRODUCT_DEFINITION_SHAPE('Placement','Placement of an item',
  #1334);
#1334 = NEXT_ASSEMBLY_USAGE_OCCURRENCE('6106','6021','',#41,#863,$);
#1335 = CONTEXT_DEPENDENT_SHAPE_REPRESENTATION(#1336,#1338);
#1336 = ( REPRESENTATION_RELATIONSHIP('','',#868,#46) 
REPRESENTATION_RELATIONSHIP_WITH_TRANSFORMATION(#1337) 
SHAPE_REPRESENTATION_RELATIONSHIP() );
#1337 = ITEM_DEFINED_TRANSFORMATION('','',#11,#135);
#1338 = PRODUCT_DEFINITION_SHAPE('Placement','Placement of an item',
  #1339);
#1339 = NEXT_ASSEMBLY_USAGE_OCCURRENCE('6107','6022','',#41,#863,$);
#1340 = CONTEXT_DEPENDENT_SHAPE_REPRESENTATION(#1341,#1343);
#1341 = ( REPRESENTATION_RELATIONSHIP('','',#868,#46) 
REPRESENTATION_RELATIONSHIP_WITH_TRANSFORMATION(#1342) 
SHAPE_REPRESENTATION_RELATIONSHIP() );
#1342 = ITEM_DEFINED_TRANSFORMATION('','',#11,#139);
#1343 = PRODUCT_DEFINITION_SHAPE('Placement','Placement of an item',
  #1344);
#1344 = NEXT_ASSEMBLY_USAGE_OCCURRENCE('6108','6023','',#41,#863,$);
#1345 = CONTEXT_DEPENDENT_SHAPE_REPRESENTATION(#1346,#1348);
#1346 = ( REPRESENTATION_RELATIONSHIP('','',#868,#46) 
REPRESENTATION_RELATIONSHIP_WITH_TRANSFORMATION(#1347) 
SHAPE_REPRESENTATION_RELATIONSHIP() );
#1347 = ITEM_DEFINED_TRANSFORMATION('','',#11,#143);
#1348 = PRODUCT_DEFINITION_SHAPE('Placement','Placement of an item',
  #1349);
#1349 = NEXT_ASSEMBLY_USAGE_OCCURRENCE('6109','6024','',#41,#863,$);
#1350 = CONTEXT_DEPENDENT_SHAPE_REPRESENTATION(#1351,#1353);
#1351 = ( REPRESENTATION_RELATIONSHIP('','',#868,#46) 
REPRESENTATION_RELATIONSHIP_WITH_TRANSFORMATION(#1352) 
SHAPE_REPRESENTATION_RELATIONSHIP() );
#1352 = ITEM_DEFINED_TRANSFORMATION('','',#11,#147);
#1353 = PRODUCT_DEFINITION_SHAPE('Placement','Placement of an item',
  #1354);
#1354 = NEXT_ASSEMBLY_USAGE_OCCURRENCE('6110','6025','',#41,#863,$);
#1355 = CONTEXT_DEPENDENT_SHAPE_REPRESENTATION(#1356,#1358);
#1356 = ( REPRESENTATION_RELATIONSHIP('','',#868,#46) 
REPRESENTATION_RELATIONSHIP_WITH_TRANSFORMATION(#1357) 
SHAPE_REPRESENTATION_RELATIONSHIP() );
#1357 = ITEM_DEFINED_TRANSFORMATION('','',#11,#151);
#1358 = PRODUCT_DEFINITION_SHAPE('Placement','Placement of an item',
  #1359);
#1359 = NEXT_ASSEMBLY_USAGE_OCCURRENCE('6111','6026','',#41,#863,$);
#1360 = CONTEXT_DEPENDENT_SHAPE_REPRESENTATION(#1361,#1363);
#1361 = ( REPRESENTATION_RELATIONSHIP('','',#868,#46) 
REPRESENTATION_RELATIONSHIP_WITH_TRANSFORMATION(#1362) 
SHAPE_REPRESENTATION_RELATIONSHIP() );
#1362 = ITEM_DEFINED_TRANSFORMATION('','',#11,#155);
#1363 = PRODUCT_DEFINITION_SHAPE('Placement','Placement of an item',
  #1364);
#1364 = NEXT_ASSEMBLY_USAGE_OCCURRENCE('6112','6027','',#41,#863,$);
#1365 = CONTEXT_DEPENDENT_SHAPE_REPRESENTATION(#1366,#1368);
#1366 = ( REPRESENTATION_RELATIONSHIP('','',#868,#46) 
REPRESENTATION_RELATIONSHIP_WITH_TRANSFORMATION(#1367) 
SHAPE_REPRESENTATION_RELATIONSHIP() );
#1367 = ITEM_DEFINED_TRANSFORMATION('','',#11,#159);
#1368 = PRODUCT_DEFINITION_SHAPE('Placement','Placement of an item',
  #1369);
#1369 = NEXT_ASSEMBLY_USAGE_OCCURRENCE('6113','6028','',#41,#863,$);
#1370 = CONTEXT_DEPENDENT_SHAPE_REPRESENTATION(#1371,#1373);
#1371 = ( REPRESENTATION_RELATIONSHIP('','',#868,#46) 
REPRESENTATION_RELATIONSHIP_WITH_TRANSFORMATION(#1372) 
SHAPE_REPRESENTATION_RELATIONSHIP() );
#1372 = ITEM_DEFINED_TRANSFORMATION('','',#11,#163);
#1373 = PRODUCT_DEFINITION_SHAPE('Placement','Placement of an item',
  #1374);
#1374 = NEXT_ASSEMBLY_USAGE_OCCURRENCE('6114','6029','',#41,#863,$);
#1375 = CONTEXT_DEPENDENT_SHAPE_REPRESENTATION(#1376,#1378);
#1376 = ( REPRESENTATION_RELATIONSHIP('','',#868,#46) 
REPRESENTATION_RELATIONSHIP_WITH_TRANSFORMATION(#1377) 
SHAPE_REPRESENTATION_RELATIONSHIP() );
#1377 = ITEM_DEFINED_TRANSFORMATION('','',#11,#167);
#1378 = PRODUCT_DEFINITION_SHAPE('Placement','Placement of an item',
  #1379);
#1379 = NEXT_ASSEMBLY_USAGE_OCCURRENCE('6115','6030','',#41,#863,$);
#1380 = CONTEXT_DEPENDENT_SHAPE_REPRESENTATION(#1381,#1383);
#1381 = ( REPRESENTATION_RELATIONSHIP('','',#868,#46) 
REPRESENTATION_RELATIONSHIP_WITH_TRANSFORMATION(#1382) 
SHAPE_REPRESENTATION_RELATIONSHIP() );
#1382 = ITEM_DEFINED_TRANSFORMATION('','',#11,#171);
#1383 = PRODUCT_DEFINITION_SHAPE('Placement','Placement of an item',
  #1384);
#1384 = NEXT_ASSEMBLY_USAGE_OCCURRENCE('6116','6031','',#41,#863,$);
#1385 = CONTEXT_DEPENDENT_SHAPE_REPRESENTATION(#1386,#1388);
#1386 = ( REPRESENTATION_RELATIONSHIP('','',#868,#46) 
REPRESENTATION_RELATIONSHIP_WITH_TRANSFORMATION(#1387) 
SHAPE_REPRESENTATION_RELATIONSHIP() );
#1387 = ITEM_DEFINED_TRANSFORMATION('','',#11,#175);
#1388 = PRODUCT_DEFINITION_SHAPE('Placement','Placement of an item',
  #1389);
#1389 = NEXT_ASSEMBLY_USAGE_OCCURRENCE('6117','6032','',#41,#863,$);
#1390 = CONTEXT_DEPENDENT_SHAPE_REPRESENTATION(#1391,#1393);
#1391 = ( REPRESENTATION_RELATIONSHIP('','',#868,#46) 
REPRESENTATION_RELATIONSHIP_WITH_TRANSFORMATION(#1392) 
SHAPE_REPRESENTATION_RELATIONSHIP() );
#1392 = ITEM_DEFINED_TRANSFORMATION('','',#11,#179);
#1393 = PRODUCT_DEFINITION_SHAPE('Placement','Placement of an item',
  #1394);
#1394 = NEXT_ASSEMBLY_USAGE_OCCURRENCE('6118','6033','',#41,#863,$);
#1395 = CONTEXT_DEPENDENT_SHAPE_REPRESENTATION(#1396,#1398);
#1396 = ( REPRESENTATION_RELATIONSHIP('','',#868,#46) 
REPRESENTATION_RELATIONSHIP_WITH_TRANSFORMATION(#1397) 
SHAPE_REPRESENTATION_RELATIONSHIP() );
#1397 = ITEM_DEFINED_TRANSFORMATION('','',#11,#183);
#1398 = PRODUCT_DEFINITION_SHAPE('Placement','Placement of an item',
  #1399);
#1399 = NEXT_ASSEMBLY_USAGE_OCCURRENCE('6119','6034','',#41,#863,$);
#1400 = CONTEXT_DEPENDENT_SHAPE_REPRESENTATION(#1401,#1403);
#1401 = ( REPRESENTATION_RELATIONSHIP('','',#868,#46) 
REPRESENTATION_RELATIONSHIP_WITH_TRANSFORMATION(#1402) 
SHAPE_REPRESENTATION_RELATIONSHIP() );
#1402 = ITEM_DEFINED_TRANSFORMATION('','',#11,#187);
#1403 = PRODUCT_DEFINITION_SHAPE('Placement','Placement of an item',
  #1404);
#1404 = NEXT_ASSEMBLY_USAGE_OCCURRENCE('6120','6035','',#41,#863,$);
#1405 = CONTEXT_DEPENDENT_SHAPE_REPRESENTATION(#1406,#1408);
#1406 = ( REPRESENTATION_RELATIONSHIP('','',#868,#46) 
REPRESENTATION_RELATIONSHIP_WITH_TRANSFORMATION(#1407) 
SHAPE_REPRESENTATION_RELATIONSHIP() );
#1407 = ITEM_DEFINED_TRANSFORMATION('','',#11,#191);
#1408 = PRODUCT_DEFINITION_SHAPE('Placement','Placement of an item',
  #1409);
#1409 = NEXT_ASSEMBLY_USAGE_OCCURRENCE('6121','6036','',#41,#863,$);
#1410 = CONTEXT_DEPENDENT_SHAPE_REPRESENTATION(#1411,#1413);
#1411 = ( REPRESENTATION_RELATIONSHIP('','',#868,#46) 
REPRESENTATION_RELATIONSHIP_WITH_TRANSFORMATION(#1412) 
SHAPE_REPRESENTATION_RELATIONSHIP() );
#1412 = ITEM_DEFINED_TRANSFORMATION('','',#11,#195);
#1413 = PRODUCT_DEFINITION_SHAPE('Placement','Placement of an item',
  #1414);
#1414 = NEXT_ASSEMBLY_USAGE_OCCURRENCE('6122','6037','',#41,#863,$);
#1415 = CONTEXT_DEPENDENT_SHAPE_REPRESENTATION(#1416,#1418);
#1416 = ( REPRESENTATION_RELATIONSHIP('','',#868,#46) 
REPRESENTATION_RELATIONSHIP_WITH_TRANSFORMATION(#1417) 
SHAPE_REPRESENTATION_RELATIONSHIP() );
#1417 = ITEM_DEFINED_TRANSFORMATION('','',#11,#199);
#1418 = PRODUCT_DEFINITION_SHAPE('Placement','Placement of an item',
  #1419);
#1419 = NEXT_ASSEMBLY_USAGE_OCCURRENCE('6123','6038','',#41,#863,$);
#1420 = CONTEXT_DEPENDENT_SHAPE_REPRESENTATION(#1421,#1423);
#1421 = ( REPRESENTATION_RELATIONSHIP('','',#868,#46) 
REPRESENTATION_RELATIONSHIP_WITH_TRANSFORMATION(#1422) 
SHAPE_REPRESENTATION_RELATIONSHIP() );
#1422 = ITEM_DEFINED_TRANSFORMATION('','',#11,#203);
#1423 = PRODUCT_DEFINITION_SHAPE('Placement','Placement of an item',
  #1424);
#1424 = NEXT_ASSEMBLY_USAGE_OCCURRENCE('6124','6039','',#41,#863,$);
#1425 = CONTEXT_DEPENDENT_SHAPE_REPRESENTATION(#1426,#1428);
#1426 = ( REPRESENTATION_RELATIONSHIP('','',#868,#46) 
REPRESENTATION_RELATIONSHIP_WITH_TRANSFORMATION(#1427) 
SHAPE_REPRESENTATION_RELATIONSHIP() );
#1427 = ITEM_DEFINED_TRANSFORMATION('','',#11,#207);
#1428 = PRODUCT_DEFINITION_SHAPE('Placement','Placement of an item',
  #1429);
#1429 = NEXT_ASSEMBLY_USAGE_OCCURRENCE('6125','6040','',#41,#863,$);
#1430 = CONTEXT_DEPENDENT_SHAPE_REPRESENTATION(#1431,#1433);
#1431 = ( REPRESENTATION_RELATIONSHIP('','',#868,#46) 
REPRESENTATION_RELATIONSHIP_WITH_TRANSFORMATION(#1432) 
SHAPE_REPRESENTATION_RELATIONSHIP() );
#1432 = ITEM_DEFINED_TRANSFORMATION('','',#11,#211);
#1433 = PRODUCT_DEFINITION_SHAPE('Placement','Placement of an item',
  #1434);
#1434 = NEXT_ASSEMBLY_USAGE_OCCURRENCE('6126','6041','',#41,#863,$);
#1435 = CONTEXT_DEPENDENT_SHAPE_REPRESENTATION(#1436,#1438);
#1436 = ( REPRESENTATION_RELATIONSHIP('','',#868,#46) 
REPRESENTATION_RELATIONSHIP_WITH_TRANSFORMATION(#1437) 
SHAPE_REPRESENTATION_RELATIONSHIP() );
#1437 = ITEM_DEFINED_TRANSFORMATION('','',#11,#215);
#1438 = PRODUCT_DEFINITION_SHAPE('Placement','Placement of an item',
  #1439);
#1439 = NEXT_ASSEMBLY_USAGE_OCCURRENCE('6127','6042','',#41,#863,$);
#1440 = CONTEXT_DEPENDENT_SHAPE_REPRESENTATION(#1441,#1443);
#1441 = ( REPRESENTATION_RELATIONSHIP('','',#868,#46) 
REPRESENTATION_RELATIONSHIP_WITH_TRANSFORMATION(#1442) 
SHAPE_REPRESENTATION_RELATIONSHIP() );
#1442 = ITEM_DEFINED_TRANSFORMATION('','',#11,#219);
#1443 = PRODUCT_DEFINITION_SHAPE('Placement','Placement of an item',
  #1444);
#1444 = NEXT_ASSEMBLY_USAGE_OCCURRENCE('6128','6043','',#41,#863,$);
#1445 = CONTEXT_DEPENDENT_SHAPE_REPRESENTATION(#1446,#1448);
#1446 = ( REPRESENTATION_RELATIONSHIP('','',#868,#46) 
REPRESENTATION_RELATIONSHIP_WITH_TRANSFORMATION(#1447) 
SHAPE_REPRESENTATION_RELATIONSHIP() );
#1447 = ITEM_DEFINED_TRANSFORMATION('','',#11,#223);
#1448 = PRODUCT_DEFINITION_SHAPE('Placement','Placement of an item',
  #1449);
#1449 = NEXT_ASSEMBLY_USAGE_OCCURRENCE('6129','6044','',#41,#863,$);
#1450 = CONTEXT_DEPENDENT_SHAPE_REPRESENTATION(#1451,#1453);
#1451 = ( REPRESENTATION_RELATIONSHIP('','',#868,#46) 
REPRESENTATION_RELATIONSHIP_WITH_TRANSFORMATION(#1452) 
SHAPE_REPRESENTATION_RELATIONSHIP() );
#1452 = ITEM_DEFINED_TRANSFORMATION('','',#11,#227);
#1453 = PRODUCT_DEFINITION_SHAPE('Placement','Placement of an item',
  #1454);
#1454 = NEXT_ASSEMBLY_USAGE_OCCURRENCE('6130','6045','',#41,#863,$);
#1455 = CONTEXT_DEPENDENT_SHAPE_REPRESENTATION(#1456,#1458);
#1456 = ( REPRESENTATION_RELATIONSHIP('','',#868,#46) 
REPRESENTATION_RELATIONSHIP_WITH_TRANSFORMATION(#1457) 
SHAPE_REPRESENTATION_RELATIONSHIP() );
#1457 = ITEM_DEFINED_TRANSFORMATION('','',#11,#231);
#1458 = PRODUCT_DEFINITION_SHAPE('Placement','Placement of an item',
  #1459);
#1459 = NEXT_ASSEMBLY_USAGE_OCCURRENCE('6131','6046','',#41,#863,$);
#1460 = CONTEXT_DEPENDENT_SHAPE_REPRESENTATION(#1461,#1463);
#1461 = ( REPRESENTATION_RELATIONSHIP('','',#868,#46) 
REPRESENTATION_RELATIONSHIP_WITH_TRANSFORMATION(#1462) 
SHAPE_REPRESENTATION_RELATIONSHIP() );
#1462 = ITEM_DEFINED_TRANSFORMATION('','',#11,#235);
#1463 = PRODUCT_DEFINITION_SHAPE('Placement','Placement of an item',
  #1464);
#1464 = NEXT_ASSEMBLY_USAGE_OCCURRENCE('6132','6047','',#41,#863,$);
#1465 = CONTEXT_DEPENDENT_SHAPE_REPRESENTATION(#1466,#1468);
#1466 = ( REPRESENTATION_RELATIONSHIP('','',#868,#46) 
REPRESENTATION_RELATIONSHIP_WITH_TRANSFORMATION(#1467) 
SHAPE_REPRESENTATION_RELATIONSHIP() );
#1467 = ITEM_DEFINED_TRANSFORMATION('','',#11,#239);
#1468 = PRODUCT_DEFINITION_SHAPE('Placement','Placement of an item',
  #1469);
#1469 = NEXT_ASSEMBLY_USAGE_OCCURRENCE('6133','6048','',#41,#863,$);
#1470 = CONTEXT_DEPENDENT_SHAPE_REPRESENTATION(#1471,#1473);
#1471 = ( REPRESENTATION_RELATIONSHIP('','',#868,#46) 
REPRESENTATION_RELATIONSHIP_WITH_TRANSFORMATION(#1472) 
SHAPE_REPRESENTATION_RELATIONSHIP() );
#1472 = ITEM_DEFINED_TRANSFORMATION('','',#11,#243);
#1473 = PRODUCT_DEFINITION_SHAPE('Placement','Placement of an item',
  #1474);
#1474 = NEXT_ASSEMBLY_USAGE_OCCURRENCE('6134','6049','',#41,#863,$);
#1475 = CONTEXT_DEPENDENT_SHAPE_REPRESENTATION(#1476,#1478);
#1476 = ( REPRESENTATION_RELATIONSHIP('','',#868,#46) 
REPRESENTATION_RELATIONSHIP_WITH_TRANSFORMATION(#1477) 
SHAPE_REPRESENTATION_RELATIONSHIP() );
#1477 = ITEM_DEFINED_TRANSFORMATION('','',#11,#247);
#1478 = PRODUCT_DEFINITION_SHAPE('Placement','Placement of an item',
  #1479);
#1479 = NEXT_ASSEMBLY_USAGE_OCCURRENCE('6135','6050','',#41,#863,$);
#1480 = CONTEXT_DEPENDENT_SHAPE_REPRESENTATION(#1481,#1483);
#1481 = ( REPRESENTATION_RELATIONSHIP('','',#868,#46) 
REPRESENTATION_RELATIONSHIP_WITH_TRANSFORMATION(#1482) 
SHAPE_REPRESENTATION_RELATIONSHIP() );
#1482 = ITEM_DEFINED_TRANSFORMATION('','',#11,#251);
#1483 = PRODUCT_DEFINITION_SHAPE('Placement','Placement of an item',
  #1484);
#1484 = NEXT_ASSEMBLY_USAGE_OCCURRENCE('6136','6051','',#41,#863,$);
#1485 = CONTEXT_DEPENDENT_SHAPE_REPRESENTATION(#1486,#1488);
#1486 = ( REPRESENTATION_RELATIONSHIP('','',#868,#46) 
REPRESENTATION_RELATIONSHIP_WITH_TRANSFORMATION(#1487) 
SHAPE_REPRESENTATION_RELATIONSHIP() );
#1487 = ITEM_DEFINED_TRANSFORMATION('','',#11,#255);
#1488 = PRODUCT_DEFINITION_SHAPE('Placement','Placement of an item',
  #1489);
#1489 = NEXT_ASSEMBLY_USAGE_OCCURRENCE('6137','6052','',#41,#863,$);
#1490 = CONTEXT_DEPENDENT_SHAPE_REPRESENTATION(#1491,#1493);
#1491 = ( REPRESENTATION_RELATIONSHIP('','',#868,#46) 
REPRESENTATION_RELATIONSHIP_WITH_TRANSFORMATION(#1492) 
SHAPE_REPRESENTATION_RELATIONSHIP() );
#1492 = ITEM_DEFINED_TRANSFORMATION('','',#11,#259);
#1493 = PRODUCT_DEFINITION_SHAPE('Placement','Placement of an item',
  #1494);
#1494 = NEXT_ASSEMBLY_USAGE_OCCURRENCE('6138','6053','',#41,#863,$);
#1495 = CONTEXT_DEPENDENT_SHAPE_REPRESENTATION(#1496,#1498);
#1496 = ( REPRESENTATION_RELATIONSHIP('','',#868,#46) 
REPRESENTATION_RELATIONSHIP_WITH_TRANSFORMATION(#1497) 
SHAPE_REPRESENTATION_RELATIONSHIP() );
#1497 = ITEM_DEFINED_TRANSFORMATION('','',#11,#263);
#1498 = PRODUCT_DEFINITION_SHAPE('Placement','Placement of an item',
  #1499);
#1499 = NEXT_ASSEMBLY_USAGE_OCCURRENCE('6139','6054','',#41,#863,$);
#1500 = CONTEXT_DEPENDENT_SHAPE_REPRESENTATION(#1501,#1503);
#1501 = ( REPRESENTATION_RELATIONSHIP('','',#868,#46) 
REPRESENTATION_RELATIONSHIP_WITH_TRANSFORMATION(#1502) 
SHAPE_REPRESENTATION_RELATIONSHIP() );
#1502 = ITEM_DEFINED_TRANSFORMATION('','',#11,#267);
#1503 = PRODUCT_DEFINITION_SHAPE('Placement','Placement of an item',
  #1504);
#1504 = NEXT_ASSEMBLY_USAGE_OCCURRENCE('6140','6055','',#41,#863,$);
#1505 = CONTEXT_DEPENDENT_SHAPE_REPRESENTATION(#1506,#1508);
#1506 = ( REPRESENTATION_RELATIONSHIP('','',#868,#46) 
REPRESENTATION_RELATIONSHIP_WITH_TRANSFORMATION(#1507) 
SHAPE_REPRESENTATION_RELATIONSHIP() );
#1507 = ITEM_DEFINED_TRANSFORMATION('','',#11,#271);
#1508 = PRODUCT_DEFINITION_SHAPE('Placement','Placement of an item',
  #1509);
#1509 = NEXT_ASSEMBLY_USAGE_OCCURRENCE('6141','6056','',#41,#863,$);
#1510 = CONTEXT_DEPENDENT_SHAPE_REPRESENTATION(#1511,#1513);
#1511 = ( REPRESENTATION_RELATIONSHIP('','',#868,#46) 
REPRESENTATION_RELATIONSHIP_WITH_TRANSFORMATION(#1512) 
SHAPE_REPRESENTATION_RELATIONSHIP() );
#1512 = ITEM_DEFINED_TRANSFORMATION('','',#11,#275);
#1513 = PRODUCT_DEFINITION_SHAPE('Placement','Placement of an item',
  #1514);
#1514 = NEXT_ASSEMBLY_USAGE_OCCURRENCE('6142','6057','',#41,#863,$);
#1515 = CONTEXT_DEPENDENT_SHAPE_REPRESENTATION(#1516,#1518);
#1516 = ( REPRESENTATION_RELATIONSHIP('','',#868,#46) 
REPRESENTATION_RELATIONSHIP_WITH_TRANSFORMATION(#1517) 
SHAPE_REPRESENTATION_RELATIONSHIP() );
#1517 = ITEM_DEFINED_TRANSFORMATION('','',#11,#279);
#1518 = PRODUCT_DEFINITION_SHAPE('Placement','Placement of an item',
  #1519);
#1519 = NEXT_ASSEMBLY_USAGE_OCCURRENCE('6143','6058','',#41,#863,$);
#1520 = CONTEXT_DEPENDENT_SHAPE_REPRESENTATION(#1521,#1523);
#1521 = ( REPRESENTATION_RELATIONSHIP('','',#868,#46) 
REPRESENTATION_RELATIONSHIP_WITH_TRANSFORMATION(#1522) 
SHAPE_REPRESENTATION_RELATIONSHIP() );
#1522 = ITEM_DEFINED_TRANSFORMATION('','',#11,#283);
#1523 = PRODUCT_DEFINITION_SHAPE('Placement','Placement of an item',
  #1524);
#1524 = NEXT_ASSEMBLY_USAGE_OCCURRENCE('6144','6059','',#41,#863,$);
#1525 = CONTEXT_DEPENDENT_SHAPE_REPRESENTATION(#1526,#1528);
#1526 = ( REPRESENTATION_RELATIONSHIP('','',#868,#46) 
REPRESENTATION_RELATIONSHIP_WITH_TRANSFORMATION(#1527) 
SHAPE_REPRESENTATION_RELATIONSHIP() );
#1527 = ITEM_DEFINED_TRANSFORMATION('','',#11,#287);
#1528 = PRODUCT_DEFINITION_SHAPE('Placement','Placement of an item',
  #1529);
#1529 = NEXT_ASSEMBLY_USAGE_OCCURRENCE('6145','6060','',#41,#863,$);
#1530 = CONTEXT_DEPENDENT_SHAPE_REPRESENTATION(#1531,#1533);
#1531 = ( REPRESENTATION_RELATIONSHIP('','',#868,#46) 
REPRESENTATION_RELATIONSHIP_WITH_TRANSFORMATION(#1532) 
SHAPE_REPRESENTATION_RELATIONSHIP() );
#1532 = ITEM_DEFINED_TRANSFORMATION('','',#11,#291);
#1533 = PRODUCT_DEFINITION_SHAPE('Placement','Placement of an item',
  #1534);
#1534 = NEXT_ASSEMBLY_USAGE_OCCURRENCE('6146','6061','',#41,#863,$);
#1535 = CONTEXT_DEPENDENT_SHAPE_REPRESENTATION(#1536,#1538);
#1536 = ( REPRESENTATION_RELATIONSHIP('','',#868,#46) 
REPRESENTATION_RELATIONSHIP_WITH_TRANSFORMATION(#1537) 
SHAPE_REPRESENTATION_RELATIONSHIP() );
#1537 = ITEM_DEFINED_TRANSFORMATION('','',#11,#295);
#1538 = PRODUCT_DEFINITION_SHAPE('Placement','Placement of an item',
  #1539);
#1539 = NEXT_ASSEMBLY_USAGE_OCCURRENCE('6147','6062','',#41,#863,$);
#1540 = CONTEXT_DEPENDENT_SHAPE_REPRESENTATION(#1541,#1543);
#1541 = ( REPRESENTATION_RELATIONSHIP('','',#868,#46) 
REPRESENTATION_RELATIONSHIP_WITH_TRANSFORMATION(#1542) 
SHAPE_REPRESENTATION_RELATIONSHIP() );
#1542 = ITEM_DEFINED_TRANSFORMATION('','',#11,#299);
#1543 = PRODUCT_DEFINITION_SHAPE('Placement','Placement of an item',
  #1544);
#1544 = NEXT_ASSEMBLY_USAGE_OCCURRENCE('6148','6063','',#41,#863,$);
#1545 = CONTEXT_DEPENDENT_SHAPE_REPRESENTATION(#1546,#1548);
#1546 = ( REPRESENTATION_RELATIONSHIP('','',#868,#46) 
REPRESENTATION_RELATIONSHIP_WITH_TRANSFORMATION(#1547) 
SHAPE_REPRESENTATION_RELATIONSHIP() );
#1547 = ITEM_DEFINED_TRANSFORMATION('','',#11,#303);
#1548 = PRODUCT_DEFINITION_SHAPE('Placement','Placement of an item',
  #1549);
#1549 = NEXT_ASSEMBLY_USAGE_OCCURRENCE('6149','6064','',#41,#863,$);
#1550 = CONTEXT_DEPENDENT_SHAPE_REPRESENTATION(#1551,#1553);
#1551 = ( REPRESENTATION_RELATIONSHIP('','',#868,#46) 
REPRESENTATION_RELATIONSHIP_WITH_TRANSFORMATION(#1552) 
SHAPE_REPRESENTATION_RELATIONSHIP() );
#1552 = ITEM_DEFINED_TRANSFORMATION('','',#11,#307);
#1553 = PRODUCT_DEFINITION_SHAPE('Placement','Placement of an item',
  #1554);
#1554 = NEXT_ASSEMBLY_USAGE_OCCURRENCE('6150','6065','',#41,#863,$);
#1555 = CONTEXT_DEPENDENT_SHAPE_REPRESENTATION(#1556,#1558);
#1556 = ( REPRESENTATION_RELATIONSHIP('','',#868,#46) 
REPRESENTATION_RELATIONSHIP_WITH_TRANSFORMATION(#1557) 
SHAPE_REPRESENTATION_RELATIONSHIP() );
#1557 = ITEM_DEFINED_TRANSFORMATION('','',#11,#311);
#1558 = PRODUCT_DEFINITION_SHAPE('Placement','Placement of an item',
  #1559);
#1559 = NEXT_ASSEMBLY_USAGE_OCCURRENCE('6151','6066','',#41,#863,$);
#1560 = CONTEXT_DEPENDENT_SHAPE_REPRESENTATION(#1561,#1563);
#1561 = ( REPRESENTATION_RELATIONSHIP('','',#868,#46) 
REPRESENTATION_RELATIONSHIP_WITH_TRANSFORMATION(#1562) 
SHAPE_REPRESENTATION_RELATIONSHIP() );
#1562 = ITEM_DEFINED_TRANSFORMATION('','',#11,#315);
#1563 = PRODUCT_DEFINITION_SHAPE('Placement','Placement of an item',
  #1564);
#1564 = NEXT_ASSEMBLY_USAGE_OCCURRENCE('6152','6067','',#41,#863,$);
#1565 = CONTEXT_DEPENDENT_SHAPE_REPRESENTATION(#1566,#1568);
#1566 = ( REPRESENTATION_RELATIONSHIP('','',#868,#46) 
REPRESENTATION_RELATIONSHIP_WITH_TRANSFORMATION(#1567) 
SHAPE_REPRESENTATION_RELATIONSHIP() );
#1567 = ITEM_DEFINED_TRANSFORMATION('','',#11,#319);
#1568 = PRODUCT_DEFINITION_SHAPE('Placement','Placement of an item',
  #1569);
#1569 = NEXT_ASSEMBLY_USAGE_OCCURRENCE('6153','6068','',#41,#863,$);
#1570 = CONTEXT_DEPENDENT_SHAPE_REPRESENTATION(#1571,#1573);
#1571 = ( REPRESENTATION_RELATIONSHIP('','',#868,#46) 
REPRESENTATION_RELATIONSHIP_WITH_TRANSFORMATION(#1572) 
SHAPE_REPRESENTATION_RELATIONSHIP() );
#1572 = ITEM_DEFINED_TRANSFORMATION('','',#11,#323);
#1573 = PRODUCT_DEFINITION_SHAPE('Placement','Placement of an item',
  #1574);
#1574 = NEXT_ASSEMBLY_USAGE_OCCURRENCE('6154','6069','',#41,#863,$);
#1575 = CONTEXT_DEPENDENT_SHAPE_REPRESENTATION(#1576,#1578);
#1576 = ( REPRESENTATION_RELATIONSHIP('','',#868,#46) 
REPRESENTATION_RELATIONSHIP_WITH_TRANSFORMATION(#1577) 
SHAPE_REPRESENTATION_RELATIONSHIP() );
#1577 = ITEM_DEFINED_TRANSFORMATION('','',#11,#327);
#1578 = PRODUCT_DEFINITION_SHAPE('Placement','Placement of an item',
  #1579);
#1579 = NEXT_ASSEMBLY_USAGE_OCCURRENCE('6155','6070','',#41,#863,$);
#1580 = CONTEXT_DEPENDENT_SHAPE_REPRESENTATION(#1581,#1583);
#1581 = ( REPRESENTATION_RELATIONSHIP('','',#868,#46) 
REPRESENTATION_RELATIONSHIP_WITH_TRANSFORMATION(#1582) 
SHAPE_REPRESENTATION_RELATIONSHIP() );
#1582 = ITEM_DEFINED_TRANSFORMATION('','',#11,#331);
#1583 = PRODUCT_DEFINITION_SHAPE('Placement','Placement of an item',
  #1584);
#1584 = NEXT_ASSEMBLY_USAGE_OCCURRENCE('6156','6071','',#41,#863,$);
#1585 = CONTEXT_DEPENDENT_SHAPE_REPRESENTATION(#1586,#1588);
#1586 = ( REPRESENTATION_RELATIONSHIP('','',#868,#46) 
REPRESENTATION_RELATIONSHIP_WITH_TRANSFORMATION(#1587) 
SHAPE_REPRESENTATION_RELATIONSHIP() );
#1587 = ITEM_DEFINED_TRANSFORMATION('','',#11,#335);
#1588 = PRODUCT_DEFINITION_SHAPE('Placement','Placement of an item',
  #1589);
#1589 = NEXT_ASSEMBLY_USAGE_OCCURRENCE('6157','6072','',#41,#863,$);
#1590 = CONTEXT_DEPENDENT_SHAPE_REPRESENTATION(#1591,#1593);
#1591 = ( REPRESENTATION_RELATIONSHIP('','',#868,#46) 
REPRESENTATION_RELATIONSHIP_WITH_TRANSFORMATION(#1592) 
SHAPE_REPRESENTATION_RELATIONSHIP() );
#1592 = ITEM_DEFINED_TRANSFORMATION('','',#11,#339);
#1593 = PRODUCT_DEFINITION_SHAPE('Placement','Placement of an item',
  #1594);
#1594 = NEXT_ASSEMBLY_USAGE_OCCURRENCE('6158','6073','',#41,#863,$);
#1595 = CONTEXT_DEPENDENT_SHAPE_REPRESENTATION(#1596,#1598);
#1596 = ( REPRESENTATION_RELATIONSHIP('','',#868,#46) 
REPRESENTATION_RELATIONSHIP_WITH_TRANSFORMATION(#1597) 
SHAPE_REPRESENTATION_RELATIONSHIP() );
#1597 = ITEM_DEFINED_TRANSFORMATION('','',#11,#343);
#1598 = PRODUCT_DEFINITION_SHAPE('Placement','Placement of an item',
  #1599);
#1599 = NEXT_ASSEMBLY_USAGE_OCCURRENCE('6159','6074','',#41,#863,$);
#1600 = CONTEXT_DEPENDENT_SHAPE_REPRESENTATION(#1601,#1603);
#1601 = ( REPRESENTATION_RELATIONSHIP('','',#868,#46) 
REPRESENTATION_RELATIONSHIP_WITH_TRANSFORMATION(#1602) 
SHAPE_REPRESENTATION_RELATIONSHIP() );
#1602 = ITEM_DEFINED_TRANSFORMATION('','',#11,#347);
#1603 = PRODUCT_DEFINITION_SHAPE('Placement','Placement of an item',
  #1604);
#1604 = NEXT_ASSEMBLY_USAGE_OCCURRENCE('6160','6075','',#41,#863,$);
#1605 = CONTEXT_DEPENDENT_SHAPE_REPRESENTATION(#1606,#1608);
#1606 = ( REPRESENTATION_RELATIONSHIP('','',#868,#46) 
REPRESENTATION_RELATIONSHIP_WITH_TRANSFORMATION(#1607) 
SHAPE_REPRESENTATION_RELATIONSHIP() );
#1607 = ITEM_DEFINED_TRANSFORMATION('','',#11,#351);
#1608 = PRODUCT_DEFINITION_SHAPE('Placement','Placement of an item',
  #1609);
#1609 = NEXT_ASSEMBLY_USAGE_OCCURRENCE('6161','6076','',#41,#863,$);
#1610 = CONTEXT_DEPENDENT_SHAPE_REPRESENTATION(#1611,#1613);
#1611 = ( REPRESENTATION_RELATIONSHIP('','',#868,#46) 
REPRESENTATION_RELATIONSHIP_WITH_TRANSFORMATION(#1612) 
SHAPE_REPRESENTATION_RELATIONSHIP() );
#1612 = ITEM_DEFINED_TRANSFORMATION('','',#11,#355);
#1613 = PRODUCT_DEFINITION_SHAPE('Placement','Placement of an item',
  #1614);
#1614 = NEXT_ASSEMBLY_USAGE_OCCURRENCE('6162','6077','',#41,#863,$);
#1615 = CONTEXT_DEPENDENT_SHAPE_REPRESENTATION(#1616,#1618);
#1616 = ( REPRESENTATION_RELATIONSHIP('','',#868,#46) 
REPRESENTATION_RELATIONSHIP_WITH_TRANSFORMATION(#1617) 
SHAPE_REPRESENTATION_RELATIONSHIP() );
#1617 = ITEM_DEFINED_TRANSFORMATION('','',#11,#359);
#1618 = PRODUCT_DEFINITION_SHAPE('Placement','Placement of an item',
  #1619);
#1619 = NEXT_ASSEMBLY_USAGE_OCCURRENCE('6163','6078','',#41,#863,$);
#1620 = CONTEXT_DEPENDENT_SHAPE_REPRESENTATION(#1621,#1623);
#1621 = ( REPRESENTATION_RELATIONSHIP('','',#868,#46) 
REPRESENTATION_RELATIONSHIP_WITH_TRANSFORMATION(#1622) 
SHAPE_REPRESENTATION_RELATIONSHIP() );
#1622 = ITEM_DEFINED_TRANSFORMATION('','',#11,#363);
#1623 = PRODUCT_DEFINITION_SHAPE('Placement','Placement of an item',
  #1624);
#1624 = NEXT_ASSEMBLY_USAGE_OCCURRENCE('6164','6079','',#41,#863,$);
#1625 = CONTEXT_DEPENDENT_SHAPE_REPRESENTATION(#1626,#1628);
#1626 = ( REPRESENTATION_RELATIONSHIP('','',#868,#46) 
REPRESENTATION_RELATIONSHIP_WITH_TRANSFORMATION(#1627) 
SHAPE_REPRESENTATION_RELATIONSHIP() );
#1627 = ITEM_DEFINED_TRANSFORMATION('','',#11,#367);
#1628 = PRODUCT_DEFINITION_SHAPE('Placement','Placement of an item',
  #1629);
#1629 = NEXT_ASSEMBLY_USAGE_OCCURRENCE('6165','6080','',#41,#863,$);
#1630 = CONTEXT_DEPENDENT_SHAPE_REPRESENTATION(#1631,#1633);
#1631 = ( REPRESENTATION_RELATIONSHIP('','',#868,#46) 
REPRESENTATION_RELATIONSHIP_WITH_TRANSFORMATION(#1632) 
SHAPE_REPRESENTATION_RELATIONSHIP() );
#1632 = ITEM_DEFINED_TRANSFORMATION('','',#11,#371);
#1633 = PRODUCT_DEFINITION_SHAPE('Placement','Placement of an item',
  #1634);
#1634 = NEXT_ASSEMBLY_USAGE_OCCURRENCE('6166','6081','',#41,#863,$);
#1635 = CONTEXT_DEPENDENT_SHAPE_REPRESENTATION(#1636,#1638);
#1636 = ( REPRESENTATION_RELATIONSHIP('','',#868,#46) 
REPRESENTATION_RELATIONSHIP_WITH_TRANSFORMATION(#1637) 
SHAPE_REPRESENTATION_RELATIONSHIP() );
#1637 = ITEM_DEFINED_TRANSFORMATION('','',#11,#375);
#1638 = PRODUCT_DEFINITION_SHAPE('Placement','Placement of an item',
  #1639);
#1639 = NEXT_ASSEMBLY_USAGE_OCCURRENCE('6167','6082','',#41,#863,$);
#1640 = CONTEXT_DEPENDENT_SHAPE_REPRESENTATION(#1641,#1643);
#1641 = ( REPRESENTATION_RELATIONSHIP('','',#46,#28) 
REPRESENTATION_RELATIONSHIP_WITH_TRANSFORMATION(#1642) 
SHAPE_REPRESENTATION_RELATIONSHIP() );
#1642 = ITEM_DEFINED_TRANSFORMATION('','',#11,#29);
#1643 = PRODUCT_DEFINITION_SHAPE('Placement','Placement of an item',
  #1644);
#1644 = NEXT_ASSEMBLY_USAGE_OCCURRENCE('6168','','',#23,#41,$);
#1645 = PRODUCT_RELATED_PRODUCT_CATEGORY('part',$,(#43));
#1646 = MECHANICAL_DESIGN_GEOMETRIC_PRESENTATION_REPRESENTATION('',(
    #1647),#635);
#1647 = STYLED_ITEM('color',(#1648),#440);
#1648 = PRESENTATION_STYLE_ASSIGNMENT((#1649,#1655));
#1649 = SURFACE_STYLE_USAGE(.BOTH.,#1650);
#1650 = SURFACE_SIDE_STYLE('',(#1651));
#1651 = SURFACE_STYLE_FILL_AREA(#1652);
#1652 = FILL_AREA_STYLE('',(#1653));
#1653 = FILL_AREA_STYLE_COLOUR('',#1654);
#1654 = COLOUR_RGB('',0.199999998682,0.199999998682,0.199999998682);
#1655 = CURVE_STYLE('',#1656,POSITIVE_LENGTH_MEASURE(0.1),#1654);
#1656 = DRAUGHTING_PRE_DEFINED_CURVE_FONT('continuous');
#1657 = MECHANICAL_DESIGN_GEOMETRIC_PRESENTATION_REPRESENTATION('',(
    #1658),#1221);
#1658 = STYLED_ITEM('color',(#1659),#879);
#1659 = PRESENTATION_STYLE_ASSIGNMENT((#1660,#1666));
#1660 = SURFACE_STYLE_USAGE(.BOTH.,#1661);
#1661 = SURFACE_SIDE_STYLE('',(#1662));
#1662 = SURFACE_STYLE_FILL_AREA(#1663);
#1663 = FILL_AREA_STYLE('',(#1664));
#1664 = FILL_AREA_STYLE_COLOUR('',#1665);
#1665 = COLOUR_RGB('',0.800000010877,0.800000010877,0.800000010877);
#1666 = CURVE_STYLE('',#1667,POSITIVE_LENGTH_MEASURE(0.1),#1665);
#1667 = DRAUGHTING_PRE_DEFINED_CURVE_FONT('continuous');
#1668 = MECHANICAL_DESIGN_GEOMETRIC_PRESENTATION_REPRESENTATION('',(
    #1669),#843);
#1669 = STYLED_ITEM('color',(#1670),#660);
#1670 = PRESENTATION_STYLE_ASSIGNMENT((#1671,#1676));
#1671 = SURFACE_STYLE_USAGE(.BOTH.,#1672);
#1672 = SURFACE_SIDE_STYLE('',(#1673));
#1673 = SURFACE_STYLE_FILL_AREA(#1674);
#1674 = FILL_AREA_STYLE('',(#1675));
#1675 = FILL_AREA_STYLE_COLOUR('',#1665);
#1676 = CURVE_STYLE('',#1677,POSITIVE_LENGTH_MEASURE(0.1),#1665);
#1677 = DRAUGHTING_PRE_DEFINED_CURVE_FONT('continuous');
#1678 = MECHANICAL_DESIGN_GEOMETRIC_PRESENTATION_REPRESENTATION('',(
    #1679),#404);
#1679 = STYLED_ITEM('color',(#1680),#387);
#1680 = PRESENTATION_STYLE_ASSIGNMENT((#1681,#1687));
#1681 = SURFACE_STYLE_USAGE(.BOTH.,#1682);
#1682 = SURFACE_SIDE_STYLE('',(#1683));
#1683 = SURFACE_STYLE_FILL_AREA(#1684);
#1684 = FILL_AREA_STYLE('',(#1685));
#1685 = FILL_AREA_STYLE_COLOUR('',#1686);
#1686 = DRAUGHTING_PRE_DEFINED_COLOUR('white');
#1687 = CURVE_STYLE('',#1688,POSITIVE_LENGTH_MEASURE(0.1),#1686);
#1688 = DRAUGHTING_PRE_DEFINED_CURVE_FONT('continuous');
ENDSEC;
END-ISO-10303-21;
