ISO-10303-21;
HEADER;
/* Generated by software containing ST-Developer
 * from STEP Tools, Inc. (www.steptools.com) 
 */

FILE_DESCRIPTION(
/* description */ (''),
/* implementation_level */ '2;1');

FILE_NAME(
/* name */ 'Aluminum Electrolytic Capacitors-8x10.5.step',
/* time_stamp */ '2025-09-08T22:57:52+08:00',
/* author */ (''),
/* organization */ (''),
/* preprocessor_version */ 'ST-DEVELOPER v20.1',
/* originating_system */ 'Autodesk Translation Framework v14.10.0.0',
/* authorisation */ '');

FILE_SCHEMA (('AUTOMOTIVE_DESIGN { 1 0 10303 214 3 1 1 }'));
ENDSEC;

DATA;
#10=MECHANICAL_DESIGN_GEOMETRIC_PRESENTATION_REPRESENTATION('',(#1148,#1149,
#1150,#1151,#1152,#1153,#1154,#1155,#1156,#1157,#1158,#1159,#1160,#1161,
#1162,#1163,#1164,#1165,#1166,#1167,#1168,#1169,#1170,#1171,#1172,#1173,
#1174,#1175,#1176,#1177,#1178,#1179,#1180,#1181,#1182,#1183,#1184,#1185,
#1186,#1187,#1188,#1189,#1190,#1191,#1192,#1193,#1194,#1195,#1196,#1197,
#1198,#1199,#1200,#1201,#1202,#1203,#1204,#1205,#1206,#1207,#1208,#1209,
#1210,#1211,#1212,#1213,#1214),#2089);
#11=ITEM_DEFINED_TRANSFORMATION($,$,#1295,#1395);
#12=(
REPRESENTATION_RELATIONSHIP($,$,#2100,#2099)
REPRESENTATION_RELATIONSHIP_WITH_TRANSFORMATION(#11)
SHAPE_REPRESENTATION_RELATIONSHIP()
);
#13=CONTEXT_DEPENDENT_SHAPE_REPRESENTATION(#12,#2098);
#14=NEXT_ASSEMBLY_USAGE_OCCURRENCE(
'CAP-SMD_BD8.1-L8.3-W8.3-LS9.3-FD~CAP-SMD_BD8.1-L8.3-W8.3-LS9.3-FD~six
Z:1',
'CAP-SMD_BD8.1-L8.3-W8.3-LS9.3-FD~CAP-SMD_BD8.1-L8.3-W8.3-LS9.3-FD~six
Z:1',
'CAP-SMD_BD8.1-L8.3-W8.3-LS9.3-FD~CAP-SMD_BD8.1-L8.3-W8.3-LS9.3-FD~six
Z:1',#2102,#2103,
'CAP-SMD_BD8.1-L8.3-W8.3-LS9.3-FD~CAP-SMD_BD8.1-L8.3-W8.3-LS9.3-FD~six
Z:1');
#15=SHAPE_REPRESENTATION_RELATIONSHIP('SRR','None',#2100,#16);
#16=ADVANCED_BREP_SHAPE_REPRESENTATION('',(#17),#2088);
#17=MANIFOLD_SOLID_BREP('\X2\5B9E4F53\X0\1',#1281);
#18=FACE_BOUND('',#450,.T.);
#19=FACE_BOUND('',#451,.T.);
#20=FACE_BOUND('',#452,.T.);
#21=FACE_BOUND('',#453,.T.);
#22=FACE_BOUND('',#455,.T.);
#23=PLANE('',#1330);
#24=PLANE('',#1331);
#25=PLANE('',#1332);
#26=PLANE('',#1339);
#27=PLANE('',#1340);
#28=PLANE('',#1341);
#29=PLANE('',#1342);
#30=PLANE('',#1343);
#31=PLANE('',#1344);
#32=PLANE('',#1345);
#33=PLANE('',#1347);
#34=PLANE('',#1353);
#35=PLANE('',#1354);
#36=PLANE('',#1355);
#37=PLANE('',#1356);
#38=PLANE('',#1357);
#39=PLANE('',#1358);
#40=PLANE('',#1359);
#41=PLANE('',#1360);
#42=PLANE('',#1361);
#43=PLANE('',#1362);
#44=PLANE('',#1363);
#45=PLANE('',#1364);
#46=PLANE('',#1365);
#47=PLANE('',#1366);
#48=PLANE('',#1367);
#49=PLANE('',#1368);
#50=PLANE('',#1369);
#51=PLANE('',#1370);
#52=PLANE('',#1371);
#53=PLANE('',#1372);
#54=PLANE('',#1373);
#55=PLANE('',#1374);
#56=PLANE('',#1375);
#57=PLANE('',#1376);
#58=PLANE('',#1377);
#59=PLANE('',#1378);
#60=PLANE('',#1379);
#61=PLANE('',#1380);
#62=PLANE('',#1381);
#63=PLANE('',#1382);
#64=PLANE('',#1385);
#65=PLANE('',#1386);
#66=PLANE('',#1387);
#67=PLANE('',#1388);
#68=PLANE('',#1389);
#69=PLANE('',#1390);
#70=PLANE('',#1391);
#71=PLANE('',#1392);
#72=PLANE('',#1393);
#73=PLANE('',#1394);
#74=LINE('',#1752,#210);
#75=LINE('',#1758,#211);
#76=LINE('',#1764,#212);
#77=LINE('',#1770,#213);
#78=LINE('',#1793,#214);
#79=LINE('',#1797,#215);
#80=LINE('',#1801,#216);
#81=LINE('',#1803,#217);
#82=LINE('',#1805,#218);
#83=LINE('',#1807,#219);
#84=LINE('',#1809,#220);
#85=LINE('',#1811,#221);
#86=LINE('',#1813,#222);
#87=LINE('',#1814,#223);
#88=LINE('',#1818,#224);
#89=LINE('',#1820,#225);
#90=LINE('',#1822,#226);
#91=LINE('',#1824,#227);
#92=LINE('',#1826,#228);
#93=LINE('',#1828,#229);
#94=LINE('',#1830,#230);
#95=LINE('',#1832,#231);
#96=LINE('',#1834,#232);
#97=LINE('',#1835,#233);
#98=LINE('',#1839,#234);
#99=LINE('',#1841,#235);
#100=LINE('',#1843,#236);
#101=LINE('',#1845,#237);
#102=LINE('',#1847,#238);
#103=LINE('',#1849,#239);
#104=LINE('',#1851,#240);
#105=LINE('',#1853,#241);
#106=LINE('',#1855,#242);
#107=LINE('',#1856,#243);
#108=LINE('',#1860,#244);
#109=LINE('',#1864,#245);
#110=LINE('',#1869,#246);
#111=LINE('',#1873,#247);
#112=LINE('',#1878,#248);
#113=LINE('',#1880,#249);
#114=LINE('',#1882,#250);
#115=LINE('',#1884,#251);
#116=LINE('',#1886,#252);
#117=LINE('',#1888,#253);
#118=LINE('',#1890,#254);
#119=LINE('',#1891,#255);
#120=LINE('',#1894,#256);
#121=LINE('',#1896,#257);
#122=LINE('',#1898,#258);
#123=LINE('',#1900,#259);
#124=LINE('',#1902,#260);
#125=LINE('',#1904,#261);
#126=LINE('',#1906,#262);
#127=LINE('',#1908,#263);
#128=LINE('',#1910,#264);
#129=LINE('',#1912,#265);
#130=LINE('',#1913,#266);
#131=LINE('',#1914,#267);
#132=LINE('',#1916,#268);
#133=LINE('',#1917,#269);
#134=LINE('',#1919,#270);
#135=LINE('',#1920,#271);
#136=LINE('',#1922,#272);
#137=LINE('',#1923,#273);
#138=LINE('',#1925,#274);
#139=LINE('',#1926,#275);
#140=LINE('',#1931,#276);
#141=LINE('',#1933,#277);
#142=LINE('',#1934,#278);
#143=LINE('',#1937,#279);
#144=LINE('',#1941,#280);
#145=LINE('',#1942,#281);
#146=LINE('',#1947,#282);
#147=LINE('',#1948,#283);
#148=LINE('',#1951,#284);
#149=LINE('',#1954,#285);
#150=LINE('',#1957,#286);
#151=LINE('',#1958,#287);
#152=LINE('',#1959,#288);
#153=LINE('',#1961,#289);
#154=LINE('',#1962,#290);
#155=LINE('',#1964,#291);
#156=LINE('',#1966,#292);
#157=LINE('',#1967,#293);
#158=LINE('',#1970,#294);
#159=LINE('',#1972,#295);
#160=LINE('',#1974,#296);
#161=LINE('',#1976,#297);
#162=LINE('',#1977,#298);
#163=LINE('',#1978,#299);
#164=LINE('',#1980,#300);
#165=LINE('',#1982,#301);
#166=LINE('',#1984,#302);
#167=LINE('',#1986,#303);
#168=LINE('',#1987,#304);
#169=LINE('',#1988,#305);
#170=LINE('',#1990,#306);
#171=LINE('',#1991,#307);
#172=LINE('',#1992,#308);
#173=LINE('',#1993,#309);
#174=LINE('',#1999,#310);
#175=LINE('',#2001,#311);
#176=LINE('',#2003,#312);
#177=LINE('',#2007,#313);
#178=LINE('',#2008,#314);
#179=LINE('',#2010,#315);
#180=LINE('',#2011,#316);
#181=LINE('',#2014,#317);
#182=LINE('',#2015,#318);
#183=LINE('',#2017,#319);
#184=LINE('',#2018,#320);
#185=LINE('',#2022,#321);
#186=LINE('',#2024,#322);
#187=LINE('',#2025,#323);
#188=LINE('',#2028,#324);
#189=LINE('',#2030,#325);
#190=LINE('',#2031,#326);
#191=LINE('',#2034,#327);
#192=LINE('',#2035,#328);
#193=LINE('',#2038,#329);
#194=LINE('',#2039,#330);
#195=LINE('',#2041,#331);
#196=LINE('',#2045,#332);
#197=LINE('',#2047,#333);
#198=LINE('',#2048,#334);
#199=LINE('',#2051,#335);
#200=LINE('',#2053,#336);
#201=LINE('',#2054,#337);
#202=LINE('',#2057,#338);
#203=LINE('',#2058,#339);
#204=LINE('',#2061,#340);
#205=LINE('',#2062,#341);
#206=LINE('',#2064,#342);
#207=LINE('',#2068,#343);
#208=LINE('',#2070,#344);
#209=LINE('',#2073,#345);
#210=VECTOR('',#1416,0.299999993106);
#211=VECTOR('',#1423,0.299999993106);
#212=VECTOR('',#1430,0.299999993106);
#213=VECTOR('',#1437,0.299999993106);
#214=VECTOR('',#1468,3.99999990808);
#215=VECTOR('',#1473,3.99999990808);
#216=VECTOR('',#1476,1.);
#217=VECTOR('',#1477,1.);
#218=VECTOR('',#1478,1.);
#219=VECTOR('',#1479,1.);
#220=VECTOR('',#1480,1.);
#221=VECTOR('',#1481,1.);
#222=VECTOR('',#1482,1.);
#223=VECTOR('',#1483,1.);
#224=VECTOR('',#1486,1.);
#225=VECTOR('',#1487,1.);
#226=VECTOR('',#1488,1.00000000000064);
#227=VECTOR('',#1489,1.);
#228=VECTOR('',#1490,1.);
#229=VECTOR('',#1491,1.);
#230=VECTOR('',#1492,1.00000000000064);
#231=VECTOR('',#1493,1.);
#232=VECTOR('',#1494,1.);
#233=VECTOR('',#1495,1.);
#234=VECTOR('',#1498,1.);
#235=VECTOR('',#1499,1.);
#236=VECTOR('',#1500,1.);
#237=VECTOR('',#1501,1.);
#238=VECTOR('',#1502,1.);
#239=VECTOR('',#1503,1.00000000000064);
#240=VECTOR('',#1504,1.);
#241=VECTOR('',#1505,1.);
#242=VECTOR('',#1506,1.);
#243=VECTOR('',#1507,1.00000000000064);
#244=VECTOR('',#1510,1.);
#245=VECTOR('',#1513,1.);
#246=VECTOR('',#1518,1.);
#247=VECTOR('',#1521,1.);
#248=VECTOR('',#1526,1.);
#249=VECTOR('',#1527,1.);
#250=VECTOR('',#1528,1.);
#251=VECTOR('',#1529,1.);
#252=VECTOR('',#1530,1.);
#253=VECTOR('',#1531,1.);
#254=VECTOR('',#1532,1.);
#255=VECTOR('',#1533,1.);
#256=VECTOR('',#1536,1.);
#257=VECTOR('',#1537,1.);
#258=VECTOR('',#1538,1.);
#259=VECTOR('',#1539,1.);
#260=VECTOR('',#1540,1.);
#261=VECTOR('',#1541,1.);
#262=VECTOR('',#1542,1.);
#263=VECTOR('',#1543,1.);
#264=VECTOR('',#1544,1.);
#265=VECTOR('',#1545,1.);
#266=VECTOR('',#1546,1.);
#267=VECTOR('',#1547,1.);
#268=VECTOR('',#1550,1.);
#269=VECTOR('',#1551,1.);
#270=VECTOR('',#1554,1.);
#271=VECTOR('',#1555,1.);
#272=VECTOR('',#1558,1.);
#273=VECTOR('',#1559,1.);
#274=VECTOR('',#1562,1.);
#275=VECTOR('',#1563,1.);
#276=VECTOR('',#1568,1.);
#277=VECTOR('',#1569,1.);
#278=VECTOR('',#1570,1.);
#279=VECTOR('',#1573,1.);
#280=VECTOR('',#1576,1.);
#281=VECTOR('',#1577,1.);
#282=VECTOR('',#1582,1.);
#283=VECTOR('',#1583,1.);
#284=VECTOR('',#1586,1.);
#285=VECTOR('',#1589,1.);
#286=VECTOR('',#1592,1.);
#287=VECTOR('',#1593,1.);
#288=VECTOR('',#1594,1.);
#289=VECTOR('',#1595,1.);
#290=VECTOR('',#1596,1.);
#291=VECTOR('',#1597,1.);
#292=VECTOR('',#1598,1.);
#293=VECTOR('',#1599,1.);
#294=VECTOR('',#1602,1.00000000000064);
#295=VECTOR('',#1603,1.);
#296=VECTOR('',#1604,1.);
#297=VECTOR('',#1605,1.);
#298=VECTOR('',#1606,1.00000000000064);
#299=VECTOR('',#1607,1.00000000000064);
#300=VECTOR('',#1608,1.00000000000064);
#301=VECTOR('',#1609,1.);
#302=VECTOR('',#1610,1.);
#303=VECTOR('',#1611,1.);
#304=VECTOR('',#1612,1.00000000000064);
#305=VECTOR('',#1613,1.00000000000064);
#306=VECTOR('',#1616,1.);
#307=VECTOR('',#1617,1.);
#308=VECTOR('',#1618,1.);
#309=VECTOR('',#1619,1.);
#310=VECTOR('',#1630,1.00000000000064);
#311=VECTOR('',#1633,1.00000000000064);
#312=VECTOR('',#1636,1.);
#313=VECTOR('',#1643,1.);
#314=VECTOR('',#1644,1.);
#315=VECTOR('',#1647,1.);
#316=VECTOR('',#1648,1.);
#317=VECTOR('',#1653,1.);
#318=VECTOR('',#1654,1.);
#319=VECTOR('',#1657,1.);
#320=VECTOR('',#1658,1.);
#321=VECTOR('',#1663,1.);
#322=VECTOR('',#1664,1.);
#323=VECTOR('',#1665,1.);
#324=VECTOR('',#1668,1.);
#325=VECTOR('',#1669,1.);
#326=VECTOR('',#1670,1.);
#327=VECTOR('',#1673,1.);
#328=VECTOR('',#1674,1.);
#329=VECTOR('',#1677,1.);
#330=VECTOR('',#1678,1.);
#331=VECTOR('',#1681,1.);
#332=VECTOR('',#1686,1.);
#333=VECTOR('',#1687,1.);
#334=VECTOR('',#1688,1.);
#335=VECTOR('',#1691,1.);
#336=VECTOR('',#1692,1.);
#337=VECTOR('',#1693,1.);
#338=VECTOR('',#1696,1.);
#339=VECTOR('',#1697,1.);
#340=VECTOR('',#1700,1.);
#341=VECTOR('',#1701,1.);
#342=VECTOR('',#1704,1.);
#343=VECTOR('',#1709,1.);
#344=VECTOR('',#1710,1.);
#345=VECTOR('',#1715,1.);
#346=CYLINDRICAL_SURFACE('',#1302,0.299999993106);
#347=CYLINDRICAL_SURFACE('',#1305,0.299999993106);
#348=CYLINDRICAL_SURFACE('',#1308,0.299999993106);
#349=CYLINDRICAL_SURFACE('',#1311,0.299999993106);
#350=CYLINDRICAL_SURFACE('',#1327,3.99999990808);
#351=CYLINDRICAL_SURFACE('',#1328,3.99999990808);
#352=CYLINDRICAL_SURFACE('',#1333,4.049999906931);
#353=CYLINDRICAL_SURFACE('',#1336,4.049999906931);
#354=CYLINDRICAL_SURFACE('',#1349,4.049999906931);
#355=CYLINDRICAL_SURFACE('',#1351,4.049999906931);
#356=CYLINDRICAL_SURFACE('',#1383,3.49999991957);
#357=FACE_OUTER_BOUND('',#423,.T.);
#358=FACE_OUTER_BOUND('',#424,.T.);
#359=FACE_OUTER_BOUND('',#425,.T.);
#360=FACE_OUTER_BOUND('',#426,.T.);
#361=FACE_OUTER_BOUND('',#427,.T.);
#362=FACE_OUTER_BOUND('',#428,.T.);
#363=FACE_OUTER_BOUND('',#429,.T.);
#364=FACE_OUTER_BOUND('',#430,.T.);
#365=FACE_OUTER_BOUND('',#431,.T.);
#366=FACE_OUTER_BOUND('',#432,.T.);
#367=FACE_OUTER_BOUND('',#433,.T.);
#368=FACE_OUTER_BOUND('',#434,.T.);
#369=FACE_OUTER_BOUND('',#435,.T.);
#370=FACE_OUTER_BOUND('',#436,.T.);
#371=FACE_OUTER_BOUND('',#437,.T.);
#372=FACE_OUTER_BOUND('',#438,.T.);
#373=FACE_OUTER_BOUND('',#439,.T.);
#374=FACE_OUTER_BOUND('',#440,.T.);
#375=FACE_OUTER_BOUND('',#441,.T.);
#376=FACE_OUTER_BOUND('',#442,.T.);
#377=FACE_OUTER_BOUND('',#443,.T.);
#378=FACE_OUTER_BOUND('',#444,.T.);
#379=FACE_OUTER_BOUND('',#445,.T.);
#380=FACE_OUTER_BOUND('',#446,.T.);
#381=FACE_OUTER_BOUND('',#447,.T.);
#382=FACE_OUTER_BOUND('',#448,.T.);
#383=FACE_OUTER_BOUND('',#449,.T.);
#384=FACE_OUTER_BOUND('',#454,.T.);
#385=FACE_OUTER_BOUND('',#456,.T.);
#386=FACE_OUTER_BOUND('',#457,.T.);
#387=FACE_OUTER_BOUND('',#458,.T.);
#388=FACE_OUTER_BOUND('',#459,.T.);
#389=FACE_OUTER_BOUND('',#460,.T.);
#390=FACE_OUTER_BOUND('',#461,.T.);
#391=FACE_OUTER_BOUND('',#462,.T.);
#392=FACE_OUTER_BOUND('',#463,.T.);
#393=FACE_OUTER_BOUND('',#464,.T.);
#394=FACE_OUTER_BOUND('',#465,.T.);
#395=FACE_OUTER_BOUND('',#466,.T.);
#396=FACE_OUTER_BOUND('',#467,.T.);
#397=FACE_OUTER_BOUND('',#468,.T.);
#398=FACE_OUTER_BOUND('',#469,.T.);
#399=FACE_OUTER_BOUND('',#470,.T.);
#400=FACE_OUTER_BOUND('',#471,.T.);
#401=FACE_OUTER_BOUND('',#472,.T.);
#402=FACE_OUTER_BOUND('',#473,.T.);
#403=FACE_OUTER_BOUND('',#474,.T.);
#404=FACE_OUTER_BOUND('',#475,.T.);
#405=FACE_OUTER_BOUND('',#476,.T.);
#406=FACE_OUTER_BOUND('',#477,.T.);
#407=FACE_OUTER_BOUND('',#478,.T.);
#408=FACE_OUTER_BOUND('',#479,.T.);
#409=FACE_OUTER_BOUND('',#480,.T.);
#410=FACE_OUTER_BOUND('',#481,.T.);
#411=FACE_OUTER_BOUND('',#482,.T.);
#412=FACE_OUTER_BOUND('',#483,.T.);
#413=FACE_OUTER_BOUND('',#484,.T.);
#414=FACE_OUTER_BOUND('',#485,.T.);
#415=FACE_OUTER_BOUND('',#486,.T.);
#416=FACE_OUTER_BOUND('',#487,.T.);
#417=FACE_OUTER_BOUND('',#488,.T.);
#418=FACE_OUTER_BOUND('',#489,.T.);
#419=FACE_OUTER_BOUND('',#490,.T.);
#420=FACE_OUTER_BOUND('',#491,.T.);
#421=FACE_OUTER_BOUND('',#492,.T.);
#422=FACE_OUTER_BOUND('',#493,.T.);
#423=EDGE_LOOP('',(#806,#807,#808,#809,#810,#811));
#424=EDGE_LOOP('',(#812,#813,#814,#815));
#425=EDGE_LOOP('',(#816,#817,#818,#819));
#426=EDGE_LOOP('',(#820,#821,#822,#823));
#427=EDGE_LOOP('',(#824,#825,#826,#827));
#428=EDGE_LOOP('',(#828,#829,#830,#831,#832));
#429=EDGE_LOOP('',(#833,#834,#835,#836,#837));
#430=EDGE_LOOP('',(#838,#839,#840,#841,#842,#843,#844));
#431=EDGE_LOOP('',(#845,#846,#847,#848,#849));
#432=EDGE_LOOP('',(#850,#851,#852,#853));
#433=EDGE_LOOP('',(#854,#855,#856,#857,#858,#859,#860,#861));
#434=EDGE_LOOP('',(#862,#863,#864,#865,#866,#867,#868,#869,#870,#871));
#435=EDGE_LOOP('',(#872,#873,#874,#875,#876,#877,#878,#879,#880,#881));
#436=EDGE_LOOP('',(#882,#883,#884,#885));
#437=EDGE_LOOP('',(#886,#887,#888,#889));
#438=EDGE_LOOP('',(#890,#891,#892,#893,#894,#895,#896,#897));
#439=EDGE_LOOP('',(#898,#899,#900,#901,#902,#903,#904,#905,#906,#907,#908,
#909,#910,#911));
#440=EDGE_LOOP('',(#912,#913,#914,#915));
#441=EDGE_LOOP('',(#916,#917,#918,#919));
#442=EDGE_LOOP('',(#920,#921,#922,#923));
#443=EDGE_LOOP('',(#924,#925,#926,#927));
#444=EDGE_LOOP('',(#928,#929,#930,#931,#932));
#445=EDGE_LOOP('',(#933,#934,#935,#936,#937));
#446=EDGE_LOOP('',(#938,#939,#940,#941));
#447=EDGE_LOOP('',(#942,#943,#944,#945));
#448=EDGE_LOOP('',(#946,#947,#948,#949,#950,#951,#952,#953,#954,#955,#956,
#957,#958,#959));
#449=EDGE_LOOP('',(#960,#961,#962,#963,#964,#965,#966,#967,#968,#969,#970,
#971,#972,#973,#974,#975,#976,#977));
#450=EDGE_LOOP('',(#978));
#451=EDGE_LOOP('',(#979));
#452=EDGE_LOOP('',(#980));
#453=EDGE_LOOP('',(#981));
#454=EDGE_LOOP('',(#982,#983,#984,#985,#986,#987,#988,#989,#990,#991,#992,
#993,#994,#995,#996,#997));
#455=EDGE_LOOP('',(#998));
#456=EDGE_LOOP('',(#999,#1000,#1001,#1002));
#457=EDGE_LOOP('',(#1003,#1004,#1005,#1006));
#458=EDGE_LOOP('',(#1007,#1008,#1009,#1010));
#459=EDGE_LOOP('',(#1011,#1012,#1013,#1014));
#460=EDGE_LOOP('',(#1015,#1016,#1017,#1018,#1019,#1020));
#461=EDGE_LOOP('',(#1021,#1022,#1023,#1024,#1025,#1026));
#462=EDGE_LOOP('',(#1027,#1028));
#463=EDGE_LOOP('',(#1029,#1030,#1031,#1032));
#464=EDGE_LOOP('',(#1033,#1034,#1035,#1036));
#465=EDGE_LOOP('',(#1037,#1038,#1039,#1040));
#466=EDGE_LOOP('',(#1041,#1042,#1043,#1044));
#467=EDGE_LOOP('',(#1045,#1046,#1047,#1048));
#468=EDGE_LOOP('',(#1049,#1050,#1051,#1052));
#469=EDGE_LOOP('',(#1053,#1054,#1055,#1056));
#470=EDGE_LOOP('',(#1057,#1058,#1059,#1060));
#471=EDGE_LOOP('',(#1061,#1062,#1063,#1064));
#472=EDGE_LOOP('',(#1065,#1066,#1067,#1068));
#473=EDGE_LOOP('',(#1069,#1070,#1071,#1072,#1073));
#474=EDGE_LOOP('',(#1074,#1075,#1076,#1077));
#475=EDGE_LOOP('',(#1078,#1079,#1080,#1081,#1082));
#476=EDGE_LOOP('',(#1083,#1084,#1085,#1086));
#477=EDGE_LOOP('',(#1087,#1088,#1089,#1090));
#478=EDGE_LOOP('',(#1091,#1092,#1093,#1094));
#479=EDGE_LOOP('',(#1095,#1096,#1097,#1098,#1099));
#480=EDGE_LOOP('',(#1100,#1101,#1102,#1103));
#481=EDGE_LOOP('',(#1104,#1105,#1106,#1107,#1108));
#482=EDGE_LOOP('',(#1109,#1110,#1111,#1112));
#483=EDGE_LOOP('',(#1113,#1114,#1115,#1116,#1117));
#484=EDGE_LOOP('',(#1118,#1119,#1120,#1121));
#485=EDGE_LOOP('',(#1122,#1123));
#486=EDGE_LOOP('',(#1124,#1125,#1126,#1127));
#487=EDGE_LOOP('',(#1128,#1129,#1130,#1131));
#488=EDGE_LOOP('',(#1132,#1133,#1134,#1135));
#489=EDGE_LOOP('',(#1136,#1137,#1138,#1139));
#490=EDGE_LOOP('',(#1140));
#491=EDGE_LOOP('',(#1141));
#492=EDGE_LOOP('',(#1142));
#493=EDGE_LOOP('',(#1143));
#494=CIRCLE('',#1297,3.849782613882);
#495=CIRCLE('',#1298,0.531938678597);
#496=CIRCLE('',#1299,3.849782613882);
#497=CIRCLE('',#1300,3.849782613882);
#498=CIRCLE('',#1301,3.849782613882);
#499=CIRCLE('',#1303,0.299999993106);
#500=CIRCLE('',#1304,0.299999993106);
#501=CIRCLE('',#1306,0.299999993106);
#502=CIRCLE('',#1307,0.299999993106);
#503=CIRCLE('',#1309,0.299999993106);
#504=CIRCLE('',#1310,0.299999993106);
#505=CIRCLE('',#1312,0.299999993106);
#506=CIRCLE('',#1313,0.299999993106);
#507=CIRCLE('',#1315,0.49999998851);
#508=CIRCLE('',#1316,3.99999990808);
#509=CIRCLE('',#1318,3.99999990808);
#510=CIRCLE('',#1319,0.49999998851);
#511=CIRCLE('',#1321,3.49999991957);
#512=CIRCLE('',#1322,3.49999991957);
#513=CIRCLE('',#1323,3.49999991957);
#514=CIRCLE('',#1324,0.49999998851);
#515=CIRCLE('',#1325,3.99999990808);
#516=CIRCLE('',#1326,3.99999990808);
#517=CIRCLE('',#1329,3.99999990808);
#518=CIRCLE('',#1334,4.049999906931);
#519=CIRCLE('',#1335,4.049999906931);
#520=CIRCLE('',#1337,4.049999906931);
#521=CIRCLE('',#1338,4.049999906931);
#522=CIRCLE('',#1346,4.049999906931);
#523=CIRCLE('',#1348,4.049999906931);
#524=CIRCLE('',#1350,4.049999906931);
#525=CIRCLE('',#1352,4.049999906931);
#526=CIRCLE('',#1384,3.49999991957);
#527=VERTEX_POINT('',#1739);
#528=VERTEX_POINT('',#1740);
#529=VERTEX_POINT('',#1742);
#530=VERTEX_POINT('',#1744);
#531=VERTEX_POINT('',#1749);
#532=VERTEX_POINT('',#1751);
#533=VERTEX_POINT('',#1755);
#534=VERTEX_POINT('',#1757);
#535=VERTEX_POINT('',#1761);
#536=VERTEX_POINT('',#1763);
#537=VERTEX_POINT('',#1767);
#538=VERTEX_POINT('',#1769);
#539=VERTEX_POINT('',#1773);
#540=VERTEX_POINT('',#1777);
#541=VERTEX_POINT('',#1781);
#542=VERTEX_POINT('',#1782);
#543=VERTEX_POINT('',#1784);
#544=VERTEX_POINT('',#1787);
#545=VERTEX_POINT('',#1789);
#546=VERTEX_POINT('',#1795);
#547=VERTEX_POINT('',#1799);
#548=VERTEX_POINT('',#1800);
#549=VERTEX_POINT('',#1802);
#550=VERTEX_POINT('',#1804);
#551=VERTEX_POINT('',#1806);
#552=VERTEX_POINT('',#1808);
#553=VERTEX_POINT('',#1810);
#554=VERTEX_POINT('',#1812);
#555=VERTEX_POINT('',#1816);
#556=VERTEX_POINT('',#1817);
#557=VERTEX_POINT('',#1819);
#558=VERTEX_POINT('',#1821);
#559=VERTEX_POINT('',#1823);
#560=VERTEX_POINT('',#1825);
#561=VERTEX_POINT('',#1827);
#562=VERTEX_POINT('',#1829);
#563=VERTEX_POINT('',#1831);
#564=VERTEX_POINT('',#1833);
#565=VERTEX_POINT('',#1837);
#566=VERTEX_POINT('',#1838);
#567=VERTEX_POINT('',#1840);
#568=VERTEX_POINT('',#1842);
#569=VERTEX_POINT('',#1844);
#570=VERTEX_POINT('',#1846);
#571=VERTEX_POINT('',#1848);
#572=VERTEX_POINT('',#1850);
#573=VERTEX_POINT('',#1852);
#574=VERTEX_POINT('',#1854);
#575=VERTEX_POINT('',#1858);
#576=VERTEX_POINT('',#1859);
#577=VERTEX_POINT('',#1861);
#578=VERTEX_POINT('',#1863);
#579=VERTEX_POINT('',#1867);
#580=VERTEX_POINT('',#1868);
#581=VERTEX_POINT('',#1870);
#582=VERTEX_POINT('',#1872);
#583=VERTEX_POINT('',#1876);
#584=VERTEX_POINT('',#1877);
#585=VERTEX_POINT('',#1879);
#586=VERTEX_POINT('',#1881);
#587=VERTEX_POINT('',#1883);
#588=VERTEX_POINT('',#1885);
#589=VERTEX_POINT('',#1887);
#590=VERTEX_POINT('',#1889);
#591=VERTEX_POINT('',#1893);
#592=VERTEX_POINT('',#1895);
#593=VERTEX_POINT('',#1897);
#594=VERTEX_POINT('',#1899);
#595=VERTEX_POINT('',#1901);
#596=VERTEX_POINT('',#1903);
#597=VERTEX_POINT('',#1905);
#598=VERTEX_POINT('',#1907);
#599=VERTEX_POINT('',#1909);
#600=VERTEX_POINT('',#1911);
#601=VERTEX_POINT('',#1928);
#602=VERTEX_POINT('',#1929);
#603=VERTEX_POINT('',#1932);
#604=VERTEX_POINT('',#1936);
#605=VERTEX_POINT('',#1938);
#606=VERTEX_POINT('',#1940);
#607=VERTEX_POINT('',#1944);
#608=VERTEX_POINT('',#1945);
#609=VERTEX_POINT('',#1950);
#610=VERTEX_POINT('',#1952);
#611=VERTEX_POINT('',#1956);
#612=VERTEX_POINT('',#1960);
#613=VERTEX_POINT('',#1963);
#614=VERTEX_POINT('',#1965);
#615=VERTEX_POINT('',#1969);
#616=VERTEX_POINT('',#1971);
#617=VERTEX_POINT('',#1973);
#618=VERTEX_POINT('',#1975);
#619=VERTEX_POINT('',#1979);
#620=VERTEX_POINT('',#1981);
#621=VERTEX_POINT('',#1983);
#622=VERTEX_POINT('',#1985);
#623=VERTEX_POINT('',#2021);
#624=VERTEX_POINT('',#2023);
#625=VERTEX_POINT('',#2027);
#626=VERTEX_POINT('',#2029);
#627=VERTEX_POINT('',#2033);
#628=VERTEX_POINT('',#2037);
#629=VERTEX_POINT('',#2044);
#630=VERTEX_POINT('',#2046);
#631=VERTEX_POINT('',#2050);
#632=VERTEX_POINT('',#2052);
#633=VERTEX_POINT('',#2056);
#634=VERTEX_POINT('',#2060);
#635=VERTEX_POINT('',#2067);
#636=VERTEX_POINT('',#2069);
#637=EDGE_CURVE('',#527,#528,#494,.T.);
#638=EDGE_CURVE('',#528,#529,#495,.T.);
#639=EDGE_CURVE('',#529,#530,#496,.T.);
#640=EDGE_CURVE('',#530,#529,#497,.T.);
#641=EDGE_CURVE('',#528,#527,#498,.T.);
#642=EDGE_CURVE('',#531,#531,#499,.T.);
#643=EDGE_CURVE('',#531,#532,#74,.T.);
#644=EDGE_CURVE('',#532,#532,#500,.T.);
#645=EDGE_CURVE('',#533,#533,#501,.T.);
#646=EDGE_CURVE('',#533,#534,#75,.T.);
#647=EDGE_CURVE('',#534,#534,#502,.T.);
#648=EDGE_CURVE('',#535,#535,#503,.T.);
#649=EDGE_CURVE('',#535,#536,#76,.T.);
#650=EDGE_CURVE('',#536,#536,#504,.T.);
#651=EDGE_CURVE('',#537,#537,#505,.T.);
#652=EDGE_CURVE('',#537,#538,#77,.T.);
#653=EDGE_CURVE('',#538,#538,#506,.T.);
#654=EDGE_CURVE('',#527,#539,#507,.T.);
#655=EDGE_CURVE('',#539,#539,#508,.T.);
#656=EDGE_CURVE('',#540,#540,#509,.T.);
#657=EDGE_CURVE('',#540,#530,#510,.T.);
#658=EDGE_CURVE('',#541,#542,#511,.T.);
#659=EDGE_CURVE('',#543,#541,#512,.T.);
#660=EDGE_CURVE('',#542,#543,#513,.T.);
#661=EDGE_CURVE('',#542,#544,#514,.T.);
#662=EDGE_CURVE('',#545,#544,#515,.T.);
#663=EDGE_CURVE('',#544,#545,#516,.T.);
#664=EDGE_CURVE('',#539,#545,#78,.T.);
#665=EDGE_CURVE('',#546,#546,#517,.T.);
#666=EDGE_CURVE('',#546,#540,#79,.T.);
#667=EDGE_CURVE('',#547,#548,#80,.T.);
#668=EDGE_CURVE('',#547,#549,#81,.T.);
#669=EDGE_CURVE('',#549,#550,#82,.T.);
#670=EDGE_CURVE('',#551,#550,#83,.T.);
#671=EDGE_CURVE('',#552,#551,#84,.T.);
#672=EDGE_CURVE('',#553,#552,#85,.T.);
#673=EDGE_CURVE('',#554,#553,#86,.T.);
#674=EDGE_CURVE('',#548,#554,#87,.T.);
#675=EDGE_CURVE('',#555,#556,#88,.T.);
#676=EDGE_CURVE('',#557,#555,#89,.T.);
#677=EDGE_CURVE('',#557,#558,#90,.T.);
#678=EDGE_CURVE('',#558,#559,#91,.T.);
#679=EDGE_CURVE('',#559,#560,#92,.T.);
#680=EDGE_CURVE('',#560,#561,#93,.T.);
#681=EDGE_CURVE('',#561,#562,#94,.T.);
#682=EDGE_CURVE('',#563,#562,#95,.T.);
#683=EDGE_CURVE('',#564,#563,#96,.T.);
#684=EDGE_CURVE('',#556,#564,#97,.T.);
#685=EDGE_CURVE('',#565,#566,#98,.T.);
#686=EDGE_CURVE('',#567,#566,#99,.T.);
#687=EDGE_CURVE('',#568,#567,#100,.T.);
#688=EDGE_CURVE('',#568,#569,#101,.T.);
#689=EDGE_CURVE('',#569,#570,#102,.T.);
#690=EDGE_CURVE('',#570,#571,#103,.T.);
#691=EDGE_CURVE('',#571,#572,#104,.T.);
#692=EDGE_CURVE('',#572,#573,#105,.T.);
#693=EDGE_CURVE('',#573,#574,#106,.T.);
#694=EDGE_CURVE('',#574,#565,#107,.T.);
#695=EDGE_CURVE('',#575,#576,#108,.T.);
#696=EDGE_CURVE('',#577,#575,#518,.T.);
#697=EDGE_CURVE('',#578,#577,#109,.T.);
#698=EDGE_CURVE('',#576,#578,#519,.T.);
#699=EDGE_CURVE('',#579,#580,#110,.T.);
#700=EDGE_CURVE('',#581,#579,#520,.T.);
#701=EDGE_CURVE('',#582,#581,#111,.T.);
#702=EDGE_CURVE('',#580,#582,#521,.T.);
#703=EDGE_CURVE('',#583,#584,#112,.T.);
#704=EDGE_CURVE('',#584,#585,#113,.T.);
#705=EDGE_CURVE('',#586,#585,#114,.T.);
#706=EDGE_CURVE('',#587,#586,#115,.T.);
#707=EDGE_CURVE('',#588,#587,#116,.T.);
#708=EDGE_CURVE('',#589,#588,#117,.T.);
#709=EDGE_CURVE('',#590,#589,#118,.T.);
#710=EDGE_CURVE('',#590,#583,#119,.T.);
#711=EDGE_CURVE('',#562,#591,#120,.T.);
#712=EDGE_CURVE('',#591,#592,#121,.T.);
#713=EDGE_CURVE('',#592,#593,#122,.T.);
#714=EDGE_CURVE('',#594,#593,#123,.T.);
#715=EDGE_CURVE('',#594,#595,#124,.T.);
#716=EDGE_CURVE('',#596,#595,#125,.T.);
#717=EDGE_CURVE('',#597,#596,#126,.T.);
#718=EDGE_CURVE('',#598,#597,#127,.T.);
#719=EDGE_CURVE('',#598,#599,#128,.T.);
#720=EDGE_CURVE('',#599,#600,#129,.T.);
#721=EDGE_CURVE('',#600,#557,#130,.T.);
#722=EDGE_CURVE('',#555,#563,#131,.T.);
#723=EDGE_CURVE('',#597,#581,#132,.T.);
#724=EDGE_CURVE('',#582,#596,#133,.T.);
#725=EDGE_CURVE('',#575,#594,#134,.T.);
#726=EDGE_CURVE('',#595,#576,#135,.T.);
#727=EDGE_CURVE('',#579,#586,#136,.T.);
#728=EDGE_CURVE('',#587,#580,#137,.T.);
#729=EDGE_CURVE('',#548,#577,#138,.T.);
#730=EDGE_CURVE('',#578,#554,#139,.T.);
#731=EDGE_CURVE('',#601,#602,#522,.T.);
#732=EDGE_CURVE('',#552,#601,#140,.T.);
#733=EDGE_CURVE('',#551,#603,#141,.T.);
#734=EDGE_CURVE('',#603,#602,#142,.T.);
#735=EDGE_CURVE('',#604,#589,#143,.T.);
#736=EDGE_CURVE('',#605,#604,#523,.T.);
#737=EDGE_CURVE('',#605,#606,#144,.T.);
#738=EDGE_CURVE('',#606,#590,#145,.T.);
#739=EDGE_CURVE('',#607,#608,#524,.T.);
#740=EDGE_CURVE('',#601,#607,#146,.T.);
#741=EDGE_CURVE('',#608,#602,#147,.T.);
#742=EDGE_CURVE('',#609,#604,#148,.T.);
#743=EDGE_CURVE('',#610,#609,#525,.T.);
#744=EDGE_CURVE('',#605,#610,#149,.T.);
#745=EDGE_CURVE('',#550,#611,#150,.T.);
#746=EDGE_CURVE('',#611,#570,#151,.T.);
#747=EDGE_CURVE('',#566,#569,#152,.T.);
#748=EDGE_CURVE('',#565,#612,#153,.T.);
#749=EDGE_CURVE('',#612,#583,#154,.T.);
#750=EDGE_CURVE('',#606,#613,#155,.T.);
#751=EDGE_CURVE('',#614,#613,#156,.T.);
#752=EDGE_CURVE('',#603,#614,#157,.T.);
#753=EDGE_CURVE('',#591,#615,#158,.T.);
#754=EDGE_CURVE('',#616,#615,#159,.T.);
#755=EDGE_CURVE('',#617,#616,#160,.T.);
#756=EDGE_CURVE('',#617,#618,#161,.T.);
#757=EDGE_CURVE('',#618,#600,#162,.T.);
#758=EDGE_CURVE('',#599,#584,#163,.T.);
#759=EDGE_CURVE('',#612,#619,#164,.T.);
#760=EDGE_CURVE('',#620,#619,#165,.T.);
#761=EDGE_CURVE('',#621,#620,#166,.T.);
#762=EDGE_CURVE('',#621,#622,#167,.T.);
#763=EDGE_CURVE('',#622,#611,#168,.T.);
#764=EDGE_CURVE('',#549,#592,#169,.T.);
#765=EDGE_CURVE('',#609,#588,#170,.T.);
#766=EDGE_CURVE('',#553,#607,#171,.T.);
#767=EDGE_CURVE('',#608,#614,#172,.T.);
#768=EDGE_CURVE('',#613,#610,#173,.T.);
#769=EDGE_CURVE('',#593,#547,#174,.T.);
#770=EDGE_CURVE('',#585,#598,#175,.T.);
#771=EDGE_CURVE('',#543,#541,#176,.T.);
#772=EDGE_CURVE('',#615,#561,#177,.T.);
#773=EDGE_CURVE('',#560,#616,#178,.T.);
#774=EDGE_CURVE('',#558,#618,#179,.T.);
#775=EDGE_CURVE('',#559,#617,#180,.T.);
#776=EDGE_CURVE('',#571,#622,#181,.T.);
#777=EDGE_CURVE('',#572,#621,#182,.T.);
#778=EDGE_CURVE('',#619,#574,#183,.T.);
#779=EDGE_CURVE('',#573,#620,#184,.T.);
#780=EDGE_CURVE('',#566,#623,#185,.T.);
#781=EDGE_CURVE('',#624,#569,#186,.T.);
#782=EDGE_CURVE('',#623,#624,#187,.T.);
#783=EDGE_CURVE('',#625,#567,#188,.T.);
#784=EDGE_CURVE('',#626,#625,#189,.T.);
#785=EDGE_CURVE('',#626,#568,#190,.T.);
#786=EDGE_CURVE('',#627,#623,#191,.T.);
#787=EDGE_CURVE('',#625,#627,#192,.T.);
#788=EDGE_CURVE('',#628,#624,#193,.T.);
#789=EDGE_CURVE('',#627,#628,#194,.T.);
#790=EDGE_CURVE('',#628,#626,#195,.T.);
#791=EDGE_CURVE('',#629,#555,#196,.T.);
#792=EDGE_CURVE('',#630,#629,#197,.T.);
#793=EDGE_CURVE('',#563,#630,#198,.T.);
#794=EDGE_CURVE('',#631,#629,#199,.T.);
#795=EDGE_CURVE('',#632,#631,#200,.T.);
#796=EDGE_CURVE('',#632,#630,#201,.T.);
#797=EDGE_CURVE('',#633,#556,#202,.T.);
#798=EDGE_CURVE('',#631,#633,#203,.T.);
#799=EDGE_CURVE('',#634,#564,#204,.T.);
#800=EDGE_CURVE('',#633,#634,#205,.T.);
#801=EDGE_CURVE('',#634,#632,#206,.T.);
#802=EDGE_CURVE('',#635,#541,#207,.T.);
#803=EDGE_CURVE('',#636,#543,#208,.T.);
#804=EDGE_CURVE('',#635,#636,#526,.T.);
#805=EDGE_CURVE('',#636,#635,#209,.T.);
#806=ORIENTED_EDGE('',*,*,#637,.T.);
#807=ORIENTED_EDGE('',*,*,#638,.T.);
#808=ORIENTED_EDGE('',*,*,#639,.T.);
#809=ORIENTED_EDGE('',*,*,#640,.T.);
#810=ORIENTED_EDGE('',*,*,#638,.F.);
#811=ORIENTED_EDGE('',*,*,#641,.T.);
#812=ORIENTED_EDGE('',*,*,#642,.T.);
#813=ORIENTED_EDGE('',*,*,#643,.T.);
#814=ORIENTED_EDGE('',*,*,#644,.F.);
#815=ORIENTED_EDGE('',*,*,#643,.F.);
#816=ORIENTED_EDGE('',*,*,#645,.T.);
#817=ORIENTED_EDGE('',*,*,#646,.T.);
#818=ORIENTED_EDGE('',*,*,#647,.F.);
#819=ORIENTED_EDGE('',*,*,#646,.F.);
#820=ORIENTED_EDGE('',*,*,#648,.T.);
#821=ORIENTED_EDGE('',*,*,#649,.T.);
#822=ORIENTED_EDGE('',*,*,#650,.F.);
#823=ORIENTED_EDGE('',*,*,#649,.F.);
#824=ORIENTED_EDGE('',*,*,#651,.T.);
#825=ORIENTED_EDGE('',*,*,#652,.T.);
#826=ORIENTED_EDGE('',*,*,#653,.F.);
#827=ORIENTED_EDGE('',*,*,#652,.F.);
#828=ORIENTED_EDGE('',*,*,#637,.F.);
#829=ORIENTED_EDGE('',*,*,#654,.T.);
#830=ORIENTED_EDGE('',*,*,#655,.F.);
#831=ORIENTED_EDGE('',*,*,#654,.F.);
#832=ORIENTED_EDGE('',*,*,#641,.F.);
#833=ORIENTED_EDGE('',*,*,#656,.F.);
#834=ORIENTED_EDGE('',*,*,#657,.T.);
#835=ORIENTED_EDGE('',*,*,#639,.F.);
#836=ORIENTED_EDGE('',*,*,#640,.F.);
#837=ORIENTED_EDGE('',*,*,#657,.F.);
#838=ORIENTED_EDGE('',*,*,#658,.F.);
#839=ORIENTED_EDGE('',*,*,#659,.F.);
#840=ORIENTED_EDGE('',*,*,#660,.F.);
#841=ORIENTED_EDGE('',*,*,#661,.T.);
#842=ORIENTED_EDGE('',*,*,#662,.F.);
#843=ORIENTED_EDGE('',*,*,#663,.F.);
#844=ORIENTED_EDGE('',*,*,#661,.F.);
#845=ORIENTED_EDGE('',*,*,#655,.T.);
#846=ORIENTED_EDGE('',*,*,#664,.T.);
#847=ORIENTED_EDGE('',*,*,#662,.T.);
#848=ORIENTED_EDGE('',*,*,#663,.T.);
#849=ORIENTED_EDGE('',*,*,#664,.F.);
#850=ORIENTED_EDGE('',*,*,#665,.T.);
#851=ORIENTED_EDGE('',*,*,#666,.T.);
#852=ORIENTED_EDGE('',*,*,#656,.T.);
#853=ORIENTED_EDGE('',*,*,#666,.F.);
#854=ORIENTED_EDGE('',*,*,#667,.F.);
#855=ORIENTED_EDGE('',*,*,#668,.T.);
#856=ORIENTED_EDGE('',*,*,#669,.T.);
#857=ORIENTED_EDGE('',*,*,#670,.F.);
#858=ORIENTED_EDGE('',*,*,#671,.F.);
#859=ORIENTED_EDGE('',*,*,#672,.F.);
#860=ORIENTED_EDGE('',*,*,#673,.F.);
#861=ORIENTED_EDGE('',*,*,#674,.F.);
#862=ORIENTED_EDGE('',*,*,#675,.F.);
#863=ORIENTED_EDGE('',*,*,#676,.F.);
#864=ORIENTED_EDGE('',*,*,#677,.T.);
#865=ORIENTED_EDGE('',*,*,#678,.T.);
#866=ORIENTED_EDGE('',*,*,#679,.T.);
#867=ORIENTED_EDGE('',*,*,#680,.T.);
#868=ORIENTED_EDGE('',*,*,#681,.T.);
#869=ORIENTED_EDGE('',*,*,#682,.F.);
#870=ORIENTED_EDGE('',*,*,#683,.F.);
#871=ORIENTED_EDGE('',*,*,#684,.F.);
#872=ORIENTED_EDGE('',*,*,#685,.T.);
#873=ORIENTED_EDGE('',*,*,#686,.F.);
#874=ORIENTED_EDGE('',*,*,#687,.F.);
#875=ORIENTED_EDGE('',*,*,#688,.T.);
#876=ORIENTED_EDGE('',*,*,#689,.T.);
#877=ORIENTED_EDGE('',*,*,#690,.T.);
#878=ORIENTED_EDGE('',*,*,#691,.T.);
#879=ORIENTED_EDGE('',*,*,#692,.T.);
#880=ORIENTED_EDGE('',*,*,#693,.T.);
#881=ORIENTED_EDGE('',*,*,#694,.T.);
#882=ORIENTED_EDGE('',*,*,#695,.F.);
#883=ORIENTED_EDGE('',*,*,#696,.F.);
#884=ORIENTED_EDGE('',*,*,#697,.F.);
#885=ORIENTED_EDGE('',*,*,#698,.F.);
#886=ORIENTED_EDGE('',*,*,#699,.F.);
#887=ORIENTED_EDGE('',*,*,#700,.F.);
#888=ORIENTED_EDGE('',*,*,#701,.F.);
#889=ORIENTED_EDGE('',*,*,#702,.F.);
#890=ORIENTED_EDGE('',*,*,#703,.T.);
#891=ORIENTED_EDGE('',*,*,#704,.T.);
#892=ORIENTED_EDGE('',*,*,#705,.F.);
#893=ORIENTED_EDGE('',*,*,#706,.F.);
#894=ORIENTED_EDGE('',*,*,#707,.F.);
#895=ORIENTED_EDGE('',*,*,#708,.F.);
#896=ORIENTED_EDGE('',*,*,#709,.F.);
#897=ORIENTED_EDGE('',*,*,#710,.T.);
#898=ORIENTED_EDGE('',*,*,#682,.T.);
#899=ORIENTED_EDGE('',*,*,#711,.T.);
#900=ORIENTED_EDGE('',*,*,#712,.T.);
#901=ORIENTED_EDGE('',*,*,#713,.T.);
#902=ORIENTED_EDGE('',*,*,#714,.F.);
#903=ORIENTED_EDGE('',*,*,#715,.T.);
#904=ORIENTED_EDGE('',*,*,#716,.F.);
#905=ORIENTED_EDGE('',*,*,#717,.F.);
#906=ORIENTED_EDGE('',*,*,#718,.F.);
#907=ORIENTED_EDGE('',*,*,#719,.T.);
#908=ORIENTED_EDGE('',*,*,#720,.T.);
#909=ORIENTED_EDGE('',*,*,#721,.T.);
#910=ORIENTED_EDGE('',*,*,#676,.T.);
#911=ORIENTED_EDGE('',*,*,#722,.T.);
#912=ORIENTED_EDGE('',*,*,#701,.T.);
#913=ORIENTED_EDGE('',*,*,#723,.F.);
#914=ORIENTED_EDGE('',*,*,#717,.T.);
#915=ORIENTED_EDGE('',*,*,#724,.F.);
#916=ORIENTED_EDGE('',*,*,#715,.F.);
#917=ORIENTED_EDGE('',*,*,#725,.F.);
#918=ORIENTED_EDGE('',*,*,#695,.T.);
#919=ORIENTED_EDGE('',*,*,#726,.F.);
#920=ORIENTED_EDGE('',*,*,#706,.T.);
#921=ORIENTED_EDGE('',*,*,#727,.F.);
#922=ORIENTED_EDGE('',*,*,#699,.T.);
#923=ORIENTED_EDGE('',*,*,#728,.F.);
#924=ORIENTED_EDGE('',*,*,#697,.T.);
#925=ORIENTED_EDGE('',*,*,#729,.F.);
#926=ORIENTED_EDGE('',*,*,#674,.T.);
#927=ORIENTED_EDGE('',*,*,#730,.F.);
#928=ORIENTED_EDGE('',*,*,#731,.F.);
#929=ORIENTED_EDGE('',*,*,#732,.F.);
#930=ORIENTED_EDGE('',*,*,#671,.T.);
#931=ORIENTED_EDGE('',*,*,#733,.T.);
#932=ORIENTED_EDGE('',*,*,#734,.T.);
#933=ORIENTED_EDGE('',*,*,#709,.T.);
#934=ORIENTED_EDGE('',*,*,#735,.F.);
#935=ORIENTED_EDGE('',*,*,#736,.F.);
#936=ORIENTED_EDGE('',*,*,#737,.T.);
#937=ORIENTED_EDGE('',*,*,#738,.T.);
#938=ORIENTED_EDGE('',*,*,#739,.F.);
#939=ORIENTED_EDGE('',*,*,#740,.F.);
#940=ORIENTED_EDGE('',*,*,#731,.T.);
#941=ORIENTED_EDGE('',*,*,#741,.F.);
#942=ORIENTED_EDGE('',*,*,#736,.T.);
#943=ORIENTED_EDGE('',*,*,#742,.F.);
#944=ORIENTED_EDGE('',*,*,#743,.F.);
#945=ORIENTED_EDGE('',*,*,#744,.F.);
#946=ORIENTED_EDGE('',*,*,#745,.T.);
#947=ORIENTED_EDGE('',*,*,#746,.T.);
#948=ORIENTED_EDGE('',*,*,#689,.F.);
#949=ORIENTED_EDGE('',*,*,#747,.F.);
#950=ORIENTED_EDGE('',*,*,#685,.F.);
#951=ORIENTED_EDGE('',*,*,#748,.T.);
#952=ORIENTED_EDGE('',*,*,#749,.T.);
#953=ORIENTED_EDGE('',*,*,#710,.F.);
#954=ORIENTED_EDGE('',*,*,#738,.F.);
#955=ORIENTED_EDGE('',*,*,#750,.T.);
#956=ORIENTED_EDGE('',*,*,#751,.F.);
#957=ORIENTED_EDGE('',*,*,#752,.F.);
#958=ORIENTED_EDGE('',*,*,#733,.F.);
#959=ORIENTED_EDGE('',*,*,#670,.T.);
#960=ORIENTED_EDGE('',*,*,#712,.F.);
#961=ORIENTED_EDGE('',*,*,#753,.T.);
#962=ORIENTED_EDGE('',*,*,#754,.F.);
#963=ORIENTED_EDGE('',*,*,#755,.F.);
#964=ORIENTED_EDGE('',*,*,#756,.T.);
#965=ORIENTED_EDGE('',*,*,#757,.T.);
#966=ORIENTED_EDGE('',*,*,#720,.F.);
#967=ORIENTED_EDGE('',*,*,#758,.T.);
#968=ORIENTED_EDGE('',*,*,#703,.F.);
#969=ORIENTED_EDGE('',*,*,#749,.F.);
#970=ORIENTED_EDGE('',*,*,#759,.T.);
#971=ORIENTED_EDGE('',*,*,#760,.F.);
#972=ORIENTED_EDGE('',*,*,#761,.F.);
#973=ORIENTED_EDGE('',*,*,#762,.T.);
#974=ORIENTED_EDGE('',*,*,#763,.T.);
#975=ORIENTED_EDGE('',*,*,#745,.F.);
#976=ORIENTED_EDGE('',*,*,#669,.F.);
#977=ORIENTED_EDGE('',*,*,#764,.T.);
#978=ORIENTED_EDGE('',*,*,#642,.F.);
#979=ORIENTED_EDGE('',*,*,#645,.F.);
#980=ORIENTED_EDGE('',*,*,#648,.F.);
#981=ORIENTED_EDGE('',*,*,#651,.F.);
#982=ORIENTED_EDGE('',*,*,#743,.T.);
#983=ORIENTED_EDGE('',*,*,#765,.T.);
#984=ORIENTED_EDGE('',*,*,#707,.T.);
#985=ORIENTED_EDGE('',*,*,#728,.T.);
#986=ORIENTED_EDGE('',*,*,#702,.T.);
#987=ORIENTED_EDGE('',*,*,#724,.T.);
#988=ORIENTED_EDGE('',*,*,#716,.T.);
#989=ORIENTED_EDGE('',*,*,#726,.T.);
#990=ORIENTED_EDGE('',*,*,#698,.T.);
#991=ORIENTED_EDGE('',*,*,#730,.T.);
#992=ORIENTED_EDGE('',*,*,#673,.T.);
#993=ORIENTED_EDGE('',*,*,#766,.T.);
#994=ORIENTED_EDGE('',*,*,#739,.T.);
#995=ORIENTED_EDGE('',*,*,#767,.T.);
#996=ORIENTED_EDGE('',*,*,#751,.T.);
#997=ORIENTED_EDGE('',*,*,#768,.T.);
#998=ORIENTED_EDGE('',*,*,#665,.F.);
#999=ORIENTED_EDGE('',*,*,#744,.T.);
#1000=ORIENTED_EDGE('',*,*,#768,.F.);
#1001=ORIENTED_EDGE('',*,*,#750,.F.);
#1002=ORIENTED_EDGE('',*,*,#737,.F.);
#1003=ORIENTED_EDGE('',*,*,#752,.T.);
#1004=ORIENTED_EDGE('',*,*,#767,.F.);
#1005=ORIENTED_EDGE('',*,*,#741,.T.);
#1006=ORIENTED_EDGE('',*,*,#734,.F.);
#1007=ORIENTED_EDGE('',*,*,#742,.T.);
#1008=ORIENTED_EDGE('',*,*,#735,.T.);
#1009=ORIENTED_EDGE('',*,*,#708,.T.);
#1010=ORIENTED_EDGE('',*,*,#765,.F.);
#1011=ORIENTED_EDGE('',*,*,#740,.T.);
#1012=ORIENTED_EDGE('',*,*,#766,.F.);
#1013=ORIENTED_EDGE('',*,*,#672,.T.);
#1014=ORIENTED_EDGE('',*,*,#732,.T.);
#1015=ORIENTED_EDGE('',*,*,#714,.T.);
#1016=ORIENTED_EDGE('',*,*,#769,.T.);
#1017=ORIENTED_EDGE('',*,*,#667,.T.);
#1018=ORIENTED_EDGE('',*,*,#729,.T.);
#1019=ORIENTED_EDGE('',*,*,#696,.T.);
#1020=ORIENTED_EDGE('',*,*,#725,.T.);
#1021=ORIENTED_EDGE('',*,*,#705,.T.);
#1022=ORIENTED_EDGE('',*,*,#770,.T.);
#1023=ORIENTED_EDGE('',*,*,#718,.T.);
#1024=ORIENTED_EDGE('',*,*,#723,.T.);
#1025=ORIENTED_EDGE('',*,*,#700,.T.);
#1026=ORIENTED_EDGE('',*,*,#727,.T.);
#1027=ORIENTED_EDGE('',*,*,#771,.F.);
#1028=ORIENTED_EDGE('',*,*,#659,.T.);
#1029=ORIENTED_EDGE('',*,*,#769,.F.);
#1030=ORIENTED_EDGE('',*,*,#713,.F.);
#1031=ORIENTED_EDGE('',*,*,#764,.F.);
#1032=ORIENTED_EDGE('',*,*,#668,.F.);
#1033=ORIENTED_EDGE('',*,*,#770,.F.);
#1034=ORIENTED_EDGE('',*,*,#704,.F.);
#1035=ORIENTED_EDGE('',*,*,#758,.F.);
#1036=ORIENTED_EDGE('',*,*,#719,.F.);
#1037=ORIENTED_EDGE('',*,*,#754,.T.);
#1038=ORIENTED_EDGE('',*,*,#772,.T.);
#1039=ORIENTED_EDGE('',*,*,#680,.F.);
#1040=ORIENTED_EDGE('',*,*,#773,.T.);
#1041=ORIENTED_EDGE('',*,*,#678,.F.);
#1042=ORIENTED_EDGE('',*,*,#774,.T.);
#1043=ORIENTED_EDGE('',*,*,#756,.F.);
#1044=ORIENTED_EDGE('',*,*,#775,.F.);
#1045=ORIENTED_EDGE('',*,*,#755,.T.);
#1046=ORIENTED_EDGE('',*,*,#773,.F.);
#1047=ORIENTED_EDGE('',*,*,#679,.F.);
#1048=ORIENTED_EDGE('',*,*,#775,.T.);
#1049=ORIENTED_EDGE('',*,*,#691,.F.);
#1050=ORIENTED_EDGE('',*,*,#776,.T.);
#1051=ORIENTED_EDGE('',*,*,#762,.F.);
#1052=ORIENTED_EDGE('',*,*,#777,.F.);
#1053=ORIENTED_EDGE('',*,*,#760,.T.);
#1054=ORIENTED_EDGE('',*,*,#778,.T.);
#1055=ORIENTED_EDGE('',*,*,#693,.F.);
#1056=ORIENTED_EDGE('',*,*,#779,.T.);
#1057=ORIENTED_EDGE('',*,*,#761,.T.);
#1058=ORIENTED_EDGE('',*,*,#779,.F.);
#1059=ORIENTED_EDGE('',*,*,#692,.F.);
#1060=ORIENTED_EDGE('',*,*,#777,.T.);
#1061=ORIENTED_EDGE('',*,*,#780,.F.);
#1062=ORIENTED_EDGE('',*,*,#747,.T.);
#1063=ORIENTED_EDGE('',*,*,#781,.F.);
#1064=ORIENTED_EDGE('',*,*,#782,.F.);
#1065=ORIENTED_EDGE('',*,*,#687,.T.);
#1066=ORIENTED_EDGE('',*,*,#783,.F.);
#1067=ORIENTED_EDGE('',*,*,#784,.F.);
#1068=ORIENTED_EDGE('',*,*,#785,.T.);
#1069=ORIENTED_EDGE('',*,*,#686,.T.);
#1070=ORIENTED_EDGE('',*,*,#780,.T.);
#1071=ORIENTED_EDGE('',*,*,#786,.F.);
#1072=ORIENTED_EDGE('',*,*,#787,.F.);
#1073=ORIENTED_EDGE('',*,*,#783,.T.);
#1074=ORIENTED_EDGE('',*,*,#782,.T.);
#1075=ORIENTED_EDGE('',*,*,#788,.F.);
#1076=ORIENTED_EDGE('',*,*,#789,.F.);
#1077=ORIENTED_EDGE('',*,*,#786,.T.);
#1078=ORIENTED_EDGE('',*,*,#781,.T.);
#1079=ORIENTED_EDGE('',*,*,#688,.F.);
#1080=ORIENTED_EDGE('',*,*,#785,.F.);
#1081=ORIENTED_EDGE('',*,*,#790,.F.);
#1082=ORIENTED_EDGE('',*,*,#788,.T.);
#1083=ORIENTED_EDGE('',*,*,#784,.T.);
#1084=ORIENTED_EDGE('',*,*,#787,.T.);
#1085=ORIENTED_EDGE('',*,*,#789,.T.);
#1086=ORIENTED_EDGE('',*,*,#790,.T.);
#1087=ORIENTED_EDGE('',*,*,#722,.F.);
#1088=ORIENTED_EDGE('',*,*,#791,.F.);
#1089=ORIENTED_EDGE('',*,*,#792,.F.);
#1090=ORIENTED_EDGE('',*,*,#793,.F.);
#1091=ORIENTED_EDGE('',*,*,#792,.T.);
#1092=ORIENTED_EDGE('',*,*,#794,.F.);
#1093=ORIENTED_EDGE('',*,*,#795,.F.);
#1094=ORIENTED_EDGE('',*,*,#796,.T.);
#1095=ORIENTED_EDGE('',*,*,#791,.T.);
#1096=ORIENTED_EDGE('',*,*,#675,.T.);
#1097=ORIENTED_EDGE('',*,*,#797,.F.);
#1098=ORIENTED_EDGE('',*,*,#798,.F.);
#1099=ORIENTED_EDGE('',*,*,#794,.T.);
#1100=ORIENTED_EDGE('',*,*,#684,.T.);
#1101=ORIENTED_EDGE('',*,*,#799,.F.);
#1102=ORIENTED_EDGE('',*,*,#800,.F.);
#1103=ORIENTED_EDGE('',*,*,#797,.T.);
#1104=ORIENTED_EDGE('',*,*,#683,.T.);
#1105=ORIENTED_EDGE('',*,*,#793,.T.);
#1106=ORIENTED_EDGE('',*,*,#796,.F.);
#1107=ORIENTED_EDGE('',*,*,#801,.F.);
#1108=ORIENTED_EDGE('',*,*,#799,.T.);
#1109=ORIENTED_EDGE('',*,*,#795,.T.);
#1110=ORIENTED_EDGE('',*,*,#798,.T.);
#1111=ORIENTED_EDGE('',*,*,#800,.T.);
#1112=ORIENTED_EDGE('',*,*,#801,.T.);
#1113=ORIENTED_EDGE('',*,*,#802,.T.);
#1114=ORIENTED_EDGE('',*,*,#658,.T.);
#1115=ORIENTED_EDGE('',*,*,#660,.T.);
#1116=ORIENTED_EDGE('',*,*,#803,.F.);
#1117=ORIENTED_EDGE('',*,*,#804,.F.);
#1118=ORIENTED_EDGE('',*,*,#771,.T.);
#1119=ORIENTED_EDGE('',*,*,#802,.F.);
#1120=ORIENTED_EDGE('',*,*,#805,.F.);
#1121=ORIENTED_EDGE('',*,*,#803,.T.);
#1122=ORIENTED_EDGE('',*,*,#804,.T.);
#1123=ORIENTED_EDGE('',*,*,#805,.T.);
#1124=ORIENTED_EDGE('',*,*,#681,.F.);
#1125=ORIENTED_EDGE('',*,*,#772,.F.);
#1126=ORIENTED_EDGE('',*,*,#753,.F.);
#1127=ORIENTED_EDGE('',*,*,#711,.F.);
#1128=ORIENTED_EDGE('',*,*,#757,.F.);
#1129=ORIENTED_EDGE('',*,*,#774,.F.);
#1130=ORIENTED_EDGE('',*,*,#677,.F.);
#1131=ORIENTED_EDGE('',*,*,#721,.F.);
#1132=ORIENTED_EDGE('',*,*,#763,.F.);
#1133=ORIENTED_EDGE('',*,*,#776,.F.);
#1134=ORIENTED_EDGE('',*,*,#690,.F.);
#1135=ORIENTED_EDGE('',*,*,#746,.F.);
#1136=ORIENTED_EDGE('',*,*,#694,.F.);
#1137=ORIENTED_EDGE('',*,*,#778,.F.);
#1138=ORIENTED_EDGE('',*,*,#759,.F.);
#1139=ORIENTED_EDGE('',*,*,#748,.F.);
#1140=ORIENTED_EDGE('',*,*,#653,.T.);
#1141=ORIENTED_EDGE('',*,*,#650,.T.);
#1142=ORIENTED_EDGE('',*,*,#647,.T.);
#1143=ORIENTED_EDGE('',*,*,#644,.T.);
#1144=TOROIDAL_SURFACE('',#1296,4.221908510849,0.531938678597);
#1145=TOROIDAL_SURFACE('',#1314,3.499999919571,0.49999998851);
#1146=TOROIDAL_SURFACE('',#1317,3.499999919571,0.49999998851);
#1147=TOROIDAL_SURFACE('',#1320,3.49999991957,0.49999998851);
#1148=STYLED_ITEM('',(#2115),#1215);
#1149=STYLED_ITEM('',(#2116),#1216);
#1150=STYLED_ITEM('',(#2116),#1217);
#1151=STYLED_ITEM('',(#2116),#1218);
#1152=STYLED_ITEM('',(#2116),#1219);
#1153=STYLED_ITEM('',(#2115),#1220);
#1154=STYLED_ITEM('',(#2115),#1221);
#1155=STYLED_ITEM('',(#2115),#1222);
#1156=STYLED_ITEM('',(#2115),#1223);
#1157=STYLED_ITEM('',(#2115),#1224);
#1158=STYLED_ITEM('',(#2116),#1225);
#1159=STYLED_ITEM('',(#2116),#1226);
#1160=STYLED_ITEM('',(#2116),#1227);
#1161=STYLED_ITEM('',(#2116),#1228);
#1162=STYLED_ITEM('',(#2116),#1229);
#1163=STYLED_ITEM('',(#2116),#1230);
#1164=STYLED_ITEM('',(#2116),#1231);
#1165=STYLED_ITEM('',(#2116),#1232);
#1166=STYLED_ITEM('',(#2116),#1233);
#1167=STYLED_ITEM('',(#2116),#1234);
#1168=STYLED_ITEM('',(#2116),#1235);
#1169=STYLED_ITEM('',(#2116),#1236);
#1170=STYLED_ITEM('',(#2116),#1237);
#1171=STYLED_ITEM('',(#2116),#1238);
#1172=STYLED_ITEM('',(#2116),#1239);
#1173=STYLED_ITEM('',(#2116),#1240);
#1174=STYLED_ITEM('',(#2116),#1241);
#1175=STYLED_ITEM('',(#2116),#1242);
#1176=STYLED_ITEM('',(#2116),#1243);
#1177=STYLED_ITEM('',(#2116),#1244);
#1178=STYLED_ITEM('',(#2116),#1245);
#1179=STYLED_ITEM('',(#2116),#1246);
#1180=STYLED_ITEM('',(#2116),#1247);
#1181=STYLED_ITEM('',(#2116),#1248);
#1182=STYLED_ITEM('',(#2115),#1249);
#1183=STYLED_ITEM('',(#2116),#1250);
#1184=STYLED_ITEM('',(#2116),#1251);
#1185=STYLED_ITEM('',(#2116),#1252);
#1186=STYLED_ITEM('',(#2116),#1253);
#1187=STYLED_ITEM('',(#2116),#1254);
#1188=STYLED_ITEM('',(#2116),#1255);
#1189=STYLED_ITEM('',(#2116),#1256);
#1190=STYLED_ITEM('',(#2116),#1257);
#1191=STYLED_ITEM('',(#2115),#1258);
#1192=STYLED_ITEM('',(#2115),#1259);
#1193=STYLED_ITEM('',(#2115),#1260);
#1194=STYLED_ITEM('',(#2115),#1261);
#1195=STYLED_ITEM('',(#2115),#1262);
#1196=STYLED_ITEM('',(#2115),#1263);
#1197=STYLED_ITEM('',(#2115),#1264);
#1198=STYLED_ITEM('',(#2115),#1265);
#1199=STYLED_ITEM('',(#2115),#1266);
#1200=STYLED_ITEM('',(#2115),#1267);
#1201=STYLED_ITEM('',(#2115),#1268);
#1202=STYLED_ITEM('',(#2115),#1269);
#1203=STYLED_ITEM('',(#2116),#1270);
#1204=STYLED_ITEM('',(#2116),#1271);
#1205=STYLED_ITEM('',(#2116),#1272);
#1206=STYLED_ITEM('',(#2116),#1273);
#1207=STYLED_ITEM('',(#2116),#1274);
#1208=STYLED_ITEM('',(#2116),#1275);
#1209=STYLED_ITEM('',(#2116),#1276);
#1210=STYLED_ITEM('',(#2116),#1277);
#1211=STYLED_ITEM('',(#2116),#1278);
#1212=STYLED_ITEM('',(#2116),#1279);
#1213=STYLED_ITEM('',(#2116),#1280);
#1214=STYLED_ITEM('',(#2114),#17);
#1215=ADVANCED_FACE('',(#357),#1144,.F.);
#1216=ADVANCED_FACE('',(#358),#346,.T.);
#1217=ADVANCED_FACE('',(#359),#347,.T.);
#1218=ADVANCED_FACE('',(#360),#348,.T.);
#1219=ADVANCED_FACE('',(#361),#349,.T.);
#1220=ADVANCED_FACE('',(#362),#1145,.T.);
#1221=ADVANCED_FACE('',(#363),#1146,.T.);
#1222=ADVANCED_FACE('',(#364),#1147,.T.);
#1223=ADVANCED_FACE('',(#365),#350,.T.);
#1224=ADVANCED_FACE('',(#366),#351,.T.);
#1225=ADVANCED_FACE('',(#367),#23,.F.);
#1226=ADVANCED_FACE('',(#368),#24,.F.);
#1227=ADVANCED_FACE('',(#369),#25,.T.);
#1228=ADVANCED_FACE('',(#370),#352,.F.);
#1229=ADVANCED_FACE('',(#371),#353,.F.);
#1230=ADVANCED_FACE('',(#372),#26,.F.);
#1231=ADVANCED_FACE('',(#373),#27,.F.);
#1232=ADVANCED_FACE('',(#374),#28,.T.);
#1233=ADVANCED_FACE('',(#375),#29,.T.);
#1234=ADVANCED_FACE('',(#376),#30,.T.);
#1235=ADVANCED_FACE('',(#377),#31,.T.);
#1236=ADVANCED_FACE('',(#378),#32,.T.);
#1237=ADVANCED_FACE('',(#379),#33,.T.);
#1238=ADVANCED_FACE('',(#380),#354,.F.);
#1239=ADVANCED_FACE('',(#381),#355,.F.);
#1240=ADVANCED_FACE('',(#382),#34,.F.);
#1241=ADVANCED_FACE('',(#383,#18,#19,#20,#21),#35,.F.);
#1242=ADVANCED_FACE('',(#384,#22),#36,.T.);
#1243=ADVANCED_FACE('',(#385),#37,.T.);
#1244=ADVANCED_FACE('',(#386),#38,.T.);
#1245=ADVANCED_FACE('',(#387),#39,.T.);
#1246=ADVANCED_FACE('',(#388),#40,.T.);
#1247=ADVANCED_FACE('',(#389),#41,.T.);
#1248=ADVANCED_FACE('',(#390),#42,.T.);
#1249=ADVANCED_FACE('',(#391),#43,.T.);
#1250=ADVANCED_FACE('',(#392),#44,.F.);
#1251=ADVANCED_FACE('',(#393),#45,.F.);
#1252=ADVANCED_FACE('',(#394),#46,.F.);
#1253=ADVANCED_FACE('',(#395),#47,.F.);
#1254=ADVANCED_FACE('',(#396),#48,.F.);
#1255=ADVANCED_FACE('',(#397),#49,.F.);
#1256=ADVANCED_FACE('',(#398),#50,.F.);
#1257=ADVANCED_FACE('',(#399),#51,.F.);
#1258=ADVANCED_FACE('',(#400),#52,.F.);
#1259=ADVANCED_FACE('',(#401),#53,.F.);
#1260=ADVANCED_FACE('',(#402),#54,.F.);
#1261=ADVANCED_FACE('',(#403),#55,.F.);
#1262=ADVANCED_FACE('',(#404),#56,.F.);
#1263=ADVANCED_FACE('',(#405),#57,.T.);
#1264=ADVANCED_FACE('',(#406),#58,.T.);
#1265=ADVANCED_FACE('',(#407),#59,.F.);
#1266=ADVANCED_FACE('',(#408),#60,.F.);
#1267=ADVANCED_FACE('',(#409),#61,.F.);
#1268=ADVANCED_FACE('',(#410),#62,.F.);
#1269=ADVANCED_FACE('',(#411),#63,.F.);
#1270=ADVANCED_FACE('',(#412),#356,.F.);
#1271=ADVANCED_FACE('',(#413),#64,.F.);
#1272=ADVANCED_FACE('',(#414),#65,.T.);
#1273=ADVANCED_FACE('',(#415),#66,.F.);
#1274=ADVANCED_FACE('',(#416),#67,.F.);
#1275=ADVANCED_FACE('',(#417),#68,.F.);
#1276=ADVANCED_FACE('',(#418),#69,.F.);
#1277=ADVANCED_FACE('',(#419),#70,.T.);
#1278=ADVANCED_FACE('',(#420),#71,.F.);
#1279=ADVANCED_FACE('',(#421),#72,.T.);
#1280=ADVANCED_FACE('',(#422),#73,.F.);
#1281=CLOSED_SHELL('',(#1215,#1216,#1217,#1218,#1219,#1220,#1221,#1222,
#1223,#1224,#1225,#1226,#1227,#1228,#1229,#1230,#1231,#1232,#1233,#1234,
#1235,#1236,#1237,#1238,#1239,#1240,#1241,#1242,#1243,#1244,#1245,#1246,
#1247,#1248,#1249,#1250,#1251,#1252,#1253,#1254,#1255,#1256,#1257,#1258,
#1259,#1260,#1261,#1262,#1263,#1264,#1265,#1266,#1267,#1268,#1269,#1270,
#1271,#1272,#1273,#1274,#1275,#1276,#1277,#1278,#1279,#1280));
#1282=DERIVED_UNIT_ELEMENT(#1284,1.);
#1283=DERIVED_UNIT_ELEMENT(#2091,-3.);
#1284=(
MASS_UNIT()
NAMED_UNIT(*)
SI_UNIT(.KILO.,.GRAM.)
);
#1285=DERIVED_UNIT((#1282,#1283));
#1286=MEASURE_REPRESENTATION_ITEM('density measure',
POSITIVE_RATIO_MEASURE(7850.),#1285);
#1287=PROPERTY_DEFINITION_REPRESENTATION(#1292,#1289);
#1288=PROPERTY_DEFINITION_REPRESENTATION(#1293,#1290);
#1289=REPRESENTATION('material name',(#1291),#2088);
#1290=REPRESENTATION('density',(#1286),#2088);
#1291=DESCRIPTIVE_REPRESENTATION_ITEM('\X2\94A2\X0\','\X2\94A2\X0\');
#1292=PROPERTY_DEFINITION('material property','material name',#2103);
#1293=PROPERTY_DEFINITION('material property','density of part',#2103);
#1294=AXIS2_PLACEMENT_3D('',#1736,#1396,#1397);
#1295=AXIS2_PLACEMENT_3D('',#1737,#1398,#1399);
#1296=AXIS2_PLACEMENT_3D('',#1738,#1400,#1401);
#1297=AXIS2_PLACEMENT_3D('',#1741,#1402,#1403);
#1298=AXIS2_PLACEMENT_3D('',#1743,#1404,#1405);
#1299=AXIS2_PLACEMENT_3D('',#1745,#1406,#1407);
#1300=AXIS2_PLACEMENT_3D('',#1746,#1408,#1409);
#1301=AXIS2_PLACEMENT_3D('',#1747,#1410,#1411);
#1302=AXIS2_PLACEMENT_3D('',#1748,#1412,#1413);
#1303=AXIS2_PLACEMENT_3D('',#1750,#1414,#1415);
#1304=AXIS2_PLACEMENT_3D('',#1753,#1417,#1418);
#1305=AXIS2_PLACEMENT_3D('',#1754,#1419,#1420);
#1306=AXIS2_PLACEMENT_3D('',#1756,#1421,#1422);
#1307=AXIS2_PLACEMENT_3D('',#1759,#1424,#1425);
#1308=AXIS2_PLACEMENT_3D('',#1760,#1426,#1427);
#1309=AXIS2_PLACEMENT_3D('',#1762,#1428,#1429);
#1310=AXIS2_PLACEMENT_3D('',#1765,#1431,#1432);
#1311=AXIS2_PLACEMENT_3D('',#1766,#1433,#1434);
#1312=AXIS2_PLACEMENT_3D('',#1768,#1435,#1436);
#1313=AXIS2_PLACEMENT_3D('',#1771,#1438,#1439);
#1314=AXIS2_PLACEMENT_3D('',#1772,#1440,#1441);
#1315=AXIS2_PLACEMENT_3D('',#1774,#1442,#1443);
#1316=AXIS2_PLACEMENT_3D('',#1775,#1444,#1445);
#1317=AXIS2_PLACEMENT_3D('',#1776,#1446,#1447);
#1318=AXIS2_PLACEMENT_3D('',#1778,#1448,#1449);
#1319=AXIS2_PLACEMENT_3D('',#1779,#1450,#1451);
#1320=AXIS2_PLACEMENT_3D('',#1780,#1452,#1453);
#1321=AXIS2_PLACEMENT_3D('',#1783,#1454,#1455);
#1322=AXIS2_PLACEMENT_3D('',#1785,#1456,#1457);
#1323=AXIS2_PLACEMENT_3D('',#1786,#1458,#1459);
#1324=AXIS2_PLACEMENT_3D('',#1788,#1460,#1461);
#1325=AXIS2_PLACEMENT_3D('',#1790,#1462,#1463);
#1326=AXIS2_PLACEMENT_3D('',#1791,#1464,#1465);
#1327=AXIS2_PLACEMENT_3D('',#1792,#1466,#1467);
#1328=AXIS2_PLACEMENT_3D('',#1794,#1469,#1470);
#1329=AXIS2_PLACEMENT_3D('',#1796,#1471,#1472);
#1330=AXIS2_PLACEMENT_3D('',#1798,#1474,#1475);
#1331=AXIS2_PLACEMENT_3D('',#1815,#1484,#1485);
#1332=AXIS2_PLACEMENT_3D('',#1836,#1496,#1497);
#1333=AXIS2_PLACEMENT_3D('',#1857,#1508,#1509);
#1334=AXIS2_PLACEMENT_3D('',#1862,#1511,#1512);
#1335=AXIS2_PLACEMENT_3D('',#1865,#1514,#1515);
#1336=AXIS2_PLACEMENT_3D('',#1866,#1516,#1517);
#1337=AXIS2_PLACEMENT_3D('',#1871,#1519,#1520);
#1338=AXIS2_PLACEMENT_3D('',#1874,#1522,#1523);
#1339=AXIS2_PLACEMENT_3D('',#1875,#1524,#1525);
#1340=AXIS2_PLACEMENT_3D('',#1892,#1534,#1535);
#1341=AXIS2_PLACEMENT_3D('',#1915,#1548,#1549);
#1342=AXIS2_PLACEMENT_3D('',#1918,#1552,#1553);
#1343=AXIS2_PLACEMENT_3D('',#1921,#1556,#1557);
#1344=AXIS2_PLACEMENT_3D('',#1924,#1560,#1561);
#1345=AXIS2_PLACEMENT_3D('',#1927,#1564,#1565);
#1346=AXIS2_PLACEMENT_3D('',#1930,#1566,#1567);
#1347=AXIS2_PLACEMENT_3D('',#1935,#1571,#1572);
#1348=AXIS2_PLACEMENT_3D('',#1939,#1574,#1575);
#1349=AXIS2_PLACEMENT_3D('',#1943,#1578,#1579);
#1350=AXIS2_PLACEMENT_3D('',#1946,#1580,#1581);
#1351=AXIS2_PLACEMENT_3D('',#1949,#1584,#1585);
#1352=AXIS2_PLACEMENT_3D('',#1953,#1587,#1588);
#1353=AXIS2_PLACEMENT_3D('',#1955,#1590,#1591);
#1354=AXIS2_PLACEMENT_3D('',#1968,#1600,#1601);
#1355=AXIS2_PLACEMENT_3D('',#1989,#1614,#1615);
#1356=AXIS2_PLACEMENT_3D('',#1994,#1620,#1621);
#1357=AXIS2_PLACEMENT_3D('',#1995,#1622,#1623);
#1358=AXIS2_PLACEMENT_3D('',#1996,#1624,#1625);
#1359=AXIS2_PLACEMENT_3D('',#1997,#1626,#1627);
#1360=AXIS2_PLACEMENT_3D('',#1998,#1628,#1629);
#1361=AXIS2_PLACEMENT_3D('',#2000,#1631,#1632);
#1362=AXIS2_PLACEMENT_3D('',#2002,#1634,#1635);
#1363=AXIS2_PLACEMENT_3D('',#2004,#1637,#1638);
#1364=AXIS2_PLACEMENT_3D('',#2005,#1639,#1640);
#1365=AXIS2_PLACEMENT_3D('',#2006,#1641,#1642);
#1366=AXIS2_PLACEMENT_3D('',#2009,#1645,#1646);
#1367=AXIS2_PLACEMENT_3D('',#2012,#1649,#1650);
#1368=AXIS2_PLACEMENT_3D('',#2013,#1651,#1652);
#1369=AXIS2_PLACEMENT_3D('',#2016,#1655,#1656);
#1370=AXIS2_PLACEMENT_3D('',#2019,#1659,#1660);
#1371=AXIS2_PLACEMENT_3D('',#2020,#1661,#1662);
#1372=AXIS2_PLACEMENT_3D('',#2026,#1666,#1667);
#1373=AXIS2_PLACEMENT_3D('',#2032,#1671,#1672);
#1374=AXIS2_PLACEMENT_3D('',#2036,#1675,#1676);
#1375=AXIS2_PLACEMENT_3D('',#2040,#1679,#1680);
#1376=AXIS2_PLACEMENT_3D('',#2042,#1682,#1683);
#1377=AXIS2_PLACEMENT_3D('',#2043,#1684,#1685);
#1378=AXIS2_PLACEMENT_3D('',#2049,#1689,#1690);
#1379=AXIS2_PLACEMENT_3D('',#2055,#1694,#1695);
#1380=AXIS2_PLACEMENT_3D('',#2059,#1698,#1699);
#1381=AXIS2_PLACEMENT_3D('',#2063,#1702,#1703);
#1382=AXIS2_PLACEMENT_3D('',#2065,#1705,#1706);
#1383=AXIS2_PLACEMENT_3D('',#2066,#1707,#1708);
#1384=AXIS2_PLACEMENT_3D('',#2071,#1711,#1712);
#1385=AXIS2_PLACEMENT_3D('',#2072,#1713,#1714);
#1386=AXIS2_PLACEMENT_3D('',#2074,#1716,#1717);
#1387=AXIS2_PLACEMENT_3D('',#2075,#1718,#1719);
#1388=AXIS2_PLACEMENT_3D('',#2076,#1720,#1721);
#1389=AXIS2_PLACEMENT_3D('',#2077,#1722,#1723);
#1390=AXIS2_PLACEMENT_3D('',#2078,#1724,#1725);
#1391=AXIS2_PLACEMENT_3D('',#2079,#1726,#1727);
#1392=AXIS2_PLACEMENT_3D('',#2080,#1728,#1729);
#1393=AXIS2_PLACEMENT_3D('',#2081,#1730,#1731);
#1394=AXIS2_PLACEMENT_3D('',#2082,#1732,#1733);
#1395=AXIS2_PLACEMENT_3D('',#2083,#1734,#1735);
#1396=DIRECTION('axis',(0.,0.,1.));
#1397=DIRECTION('refdir',(1.,0.,0.));
#1398=DIRECTION('axis',(0.,0.,1.));
#1399=DIRECTION('refdir',(1.,0.,0.));
#1400=DIRECTION('center_axis',(0.,0.,1.));
#1401=DIRECTION('ref_axis',(-1.,1.224646799147E-16,0.));
#1402=DIRECTION('center_axis',(0.,0.,-1.));
#1403=DIRECTION('ref_axis',(1.,-1.224646799147E-16,0.));
#1404=DIRECTION('center_axis',(3.53261774119284E-29,-1.,0.));
#1405=DIRECTION('ref_axis',(1.,3.53261774119284E-29,0.));
#1406=DIRECTION('center_axis',(0.,0.,1.));
#1407=DIRECTION('ref_axis',(-1.,1.224646799147E-16,0.));
#1408=DIRECTION('center_axis',(0.,0.,1.));
#1409=DIRECTION('ref_axis',(-1.,1.224646799147E-16,0.));
#1410=DIRECTION('center_axis',(0.,0.,-1.));
#1411=DIRECTION('ref_axis',(1.,-1.224646799147E-16,0.));
#1412=DIRECTION('center_axis',(0.,0.,1.));
#1413=DIRECTION('ref_axis',(-1.,1.224646799147E-16,0.));
#1414=DIRECTION('center_axis',(0.,0.,-1.));
#1415=DIRECTION('ref_axis',(-1.,1.224646799147E-16,0.));
#1416=DIRECTION('',(0.,0.,-1.));
#1417=DIRECTION('center_axis',(0.,0.,-1.));
#1418=DIRECTION('ref_axis',(-1.,1.224646799147E-16,0.));
#1419=DIRECTION('center_axis',(0.,0.,1.));
#1420=DIRECTION('ref_axis',(-1.,1.224646799147E-16,0.));
#1421=DIRECTION('center_axis',(0.,0.,-1.));
#1422=DIRECTION('ref_axis',(-1.,1.224646799147E-16,0.));
#1423=DIRECTION('',(0.,0.,-1.));
#1424=DIRECTION('center_axis',(0.,0.,-1.));
#1425=DIRECTION('ref_axis',(1.,-1.224646799147E-16,0.));
#1426=DIRECTION('center_axis',(0.,0.,1.));
#1427=DIRECTION('ref_axis',(-1.,1.224646799147E-16,0.));
#1428=DIRECTION('center_axis',(0.,0.,-1.));
#1429=DIRECTION('ref_axis',(-1.,1.224646799147E-16,0.));
#1430=DIRECTION('',(0.,0.,-1.));
#1431=DIRECTION('center_axis',(0.,0.,-1.));
#1432=DIRECTION('ref_axis',(-1.,1.224646799147E-16,0.));
#1433=DIRECTION('center_axis',(0.,0.,1.));
#1434=DIRECTION('ref_axis',(-1.,1.224646799147E-16,0.));
#1435=DIRECTION('center_axis',(0.,0.,-1.));
#1436=DIRECTION('ref_axis',(-1.,1.224646799147E-16,0.));
#1437=DIRECTION('',(0.,0.,-1.));
#1438=DIRECTION('center_axis',(0.,0.,-1.));
#1439=DIRECTION('ref_axis',(1.,-1.224646799147E-16,0.));
#1440=DIRECTION('center_axis',(0.,0.,-1.));
#1441=DIRECTION('ref_axis',(1.,-1.224646799147E-16,0.));
#1442=DIRECTION('center_axis',(2.44929359829435E-16,1.,0.));
#1443=DIRECTION('ref_axis',(-1.,2.44929359829435E-16,0.));
#1444=DIRECTION('center_axis',(0.,0.,1.));
#1445=DIRECTION('ref_axis',(1.,-1.224646799147E-16,0.));
#1446=DIRECTION('center_axis',(0.,0.,-1.));
#1447=DIRECTION('ref_axis',(1.,-1.224646799147E-16,0.));
#1448=DIRECTION('center_axis',(0.,0.,-1.));
#1449=DIRECTION('ref_axis',(1.,-1.224646799147E-16,0.));
#1450=DIRECTION('center_axis',(2.44929359829435E-16,1.,0.));
#1451=DIRECTION('ref_axis',(-1.,2.44929359829435E-16,0.));
#1452=DIRECTION('center_axis',(0.,0.,1.));
#1453=DIRECTION('ref_axis',(-1.,1.224646799147E-16,0.));
#1454=DIRECTION('center_axis',(0.,0.,1.));
#1455=DIRECTION('ref_axis',(-1.,1.224646799147E-16,0.));
#1456=DIRECTION('center_axis',(0.,0.,1.));
#1457=DIRECTION('ref_axis',(-1.,1.224646799147E-16,0.));
#1458=DIRECTION('center_axis',(0.,0.,1.));
#1459=DIRECTION('ref_axis',(-1.,1.224646799147E-16,0.));
#1460=DIRECTION('center_axis',(-3.53261774119284E-29,1.,0.));
#1461=DIRECTION('ref_axis',(1.,3.53261774119284E-29,0.));
#1462=DIRECTION('center_axis',(0.,0.,-1.));
#1463=DIRECTION('ref_axis',(-1.,1.224646799147E-16,0.));
#1464=DIRECTION('center_axis',(0.,0.,-1.));
#1465=DIRECTION('ref_axis',(-1.,1.224646799147E-16,0.));
#1466=DIRECTION('center_axis',(0.,0.,-1.));
#1467=DIRECTION('ref_axis',(1.,-1.224646799147E-16,0.));
#1468=DIRECTION('',(0.,0.,1.));
#1469=DIRECTION('center_axis',(0.,0.,-1.));
#1470=DIRECTION('ref_axis',(1.,-1.224646799147E-16,0.));
#1471=DIRECTION('center_axis',(0.,0.,1.));
#1472=DIRECTION('ref_axis',(-1.,1.224646799147E-16,0.));
#1473=DIRECTION('',(0.,0.,1.));
#1474=DIRECTION('center_axis',(1.224646799147E-16,1.,0.));
#1475=DIRECTION('ref_axis',(0.,0.,-1.));
#1476=DIRECTION('',(1.,-1.224646799147E-16,0.));
#1477=DIRECTION('',(0.,0.,-1.));
#1478=DIRECTION('',(1.,-1.224646799147E-16,0.));
#1479=DIRECTION('',(0.,0.,-1.));
#1480=DIRECTION('',(1.,-1.224646799147E-16,0.));
#1481=DIRECTION('',(0.,0.,1.));
#1482=DIRECTION('',(1.,-1.224646799147E-16,0.));
#1483=DIRECTION('',(0.,0.,-1.));
#1484=DIRECTION('center_axis',(0.,0.,1.));
#1485=DIRECTION('ref_axis',(-1.,1.224646799147E-16,0.));
#1486=DIRECTION('',(1.,-2.429315879687E-16,0.));
#1487=DIRECTION('',(8.653814851621E-17,-1.,0.));
#1488=DIRECTION('',(0.707106781186548,-0.707106781186548,0.));
#1489=DIRECTION('',(1.,-1.224646799147E-16,0.));
#1490=DIRECTION('',(-1.224646799147E-16,-1.,0.));
#1491=DIRECTION('',(-1.,1.224646799147E-16,0.));
#1492=DIRECTION('',(-0.707106781186548,-0.707106781186548,0.));
#1493=DIRECTION('',(8.653814851621E-17,-1.,0.));
#1494=DIRECTION('',(-1.,2.429315879687E-16,0.));
#1495=DIRECTION('',(4.43356543138E-17,-1.,0.));
#1496=DIRECTION('center_axis',(0.,0.,-1.));
#1497=DIRECTION('ref_axis',(1.,-1.224646799147E-16,0.));
#1498=DIRECTION('',(8.653814851621E-17,-1.,0.));
#1499=DIRECTION('',(1.,-2.429315879687E-16,0.));
#1500=DIRECTION('',(6.228656826004E-16,1.,0.));
#1501=DIRECTION('',(1.,-2.429315879687E-16,0.));
#1502=DIRECTION('',(8.653814851621E-17,-1.,0.));
#1503=DIRECTION('',(-0.707106781186548,0.707106781186548,0.));
#1504=DIRECTION('',(-1.,1.224646799147E-16,0.));
#1505=DIRECTION('',(1.224646799147E-16,1.,0.));
#1506=DIRECTION('',(1.,-1.224646799147E-16,0.));
#1507=DIRECTION('',(0.707106781186548,0.707106781186548,0.));
#1508=DIRECTION('center_axis',(0.,0.,1.));
#1509=DIRECTION('ref_axis',(-1.,1.224646799147E-16,0.));
#1510=DIRECTION('',(0.,0.,-1.));
#1511=DIRECTION('center_axis',(0.,0.,-1.));
#1512=DIRECTION('ref_axis',(-1.,1.224646799147E-16,0.));
#1513=DIRECTION('',(0.,0.,1.));
#1514=DIRECTION('center_axis',(0.,0.,1.));
#1515=DIRECTION('ref_axis',(-1.,1.224646799147E-16,0.));
#1516=DIRECTION('center_axis',(0.,0.,1.));
#1517=DIRECTION('ref_axis',(-1.,1.224646799147E-16,0.));
#1518=DIRECTION('',(0.,0.,-1.));
#1519=DIRECTION('center_axis',(0.,0.,-1.));
#1520=DIRECTION('ref_axis',(-1.,1.224646799147E-16,0.));
#1521=DIRECTION('',(0.,0.,1.));
#1522=DIRECTION('center_axis',(0.,0.,1.));
#1523=DIRECTION('ref_axis',(-1.,1.224646799147E-16,0.));
#1524=DIRECTION('center_axis',(-1.224646799147E-16,-1.,0.));
#1525=DIRECTION('ref_axis',(0.,0.,1.));
#1526=DIRECTION('',(-1.,1.224646799147E-16,0.));
#1527=DIRECTION('',(0.,0.,1.));
#1528=DIRECTION('',(-1.,1.224646799147E-16,0.));
#1529=DIRECTION('',(0.,0.,1.));
#1530=DIRECTION('',(-1.,1.224646799147E-16,0.));
#1531=DIRECTION('',(0.,0.,-1.));
#1532=DIRECTION('',(-1.,1.224646799147E-16,0.));
#1533=DIRECTION('',(0.,0.,-1.));
#1534=DIRECTION('center_axis',(1.,8.653814851621E-17,0.));
#1535=DIRECTION('ref_axis',(-8.653814851621E-17,1.,0.));
#1536=DIRECTION('',(0.,0.,-1.));
#1537=DIRECTION('',(8.653814851621E-17,-1.,0.));
#1538=DIRECTION('',(0.,0.,1.));
#1539=DIRECTION('',(-1.224646799147E-16,-1.,0.));
#1540=DIRECTION('',(0.,0.,-1.));
#1541=DIRECTION('',(-1.224646799147E-16,-1.,0.));
#1542=DIRECTION('',(0.,0.,-1.));
#1543=DIRECTION('',(4.282411854747E-16,-1.,0.));
#1544=DIRECTION('',(0.,0.,-1.));
#1545=DIRECTION('',(8.653814851621E-17,-1.,0.));
#1546=DIRECTION('',(0.,0.,1.));
#1547=DIRECTION('',(8.653814851621E-17,-1.,0.));
#1548=DIRECTION('center_axis',(-1.224646799147E-16,-1.,0.));
#1549=DIRECTION('ref_axis',(0.,0.,1.));
#1550=DIRECTION('',(1.,4.687700656231E-15,0.));
#1551=DIRECTION('',(-1.,1.224646799147E-16,0.));
#1552=DIRECTION('center_axis',(1.224646799147E-16,1.,0.));
#1553=DIRECTION('ref_axis',(0.,0.,-1.));
#1554=DIRECTION('',(-1.,1.224646799147E-16,0.));
#1555=DIRECTION('',(1.,-1.224646799147E-16,0.));
#1556=DIRECTION('center_axis',(1.,6.033355342806E-18,0.));
#1557=DIRECTION('ref_axis',(-6.033355342806E-18,1.,0.));
#1558=DIRECTION('',(-4.687700656231E-15,1.,0.));
#1559=DIRECTION('',(6.033355342806E-18,-1.,0.));
#1560=DIRECTION('center_axis',(1.,6.033355342806E-18,0.));
#1561=DIRECTION('ref_axis',(-6.033355342806E-18,1.,0.));
#1562=DIRECTION('',(1.224646799147E-16,1.,0.));
#1563=DIRECTION('',(6.033355342806E-18,-1.,0.));
#1564=DIRECTION('center_axis',(0.,0.,1.));
#1565=DIRECTION('ref_axis',(-1.,1.224646799147E-16,0.));
#1566=DIRECTION('center_axis',(0.,0.,1.));
#1567=DIRECTION('ref_axis',(-1.,1.224646799147E-16,0.));
#1568=DIRECTION('',(-6.033355342806E-18,1.,0.));
#1569=DIRECTION('',(-8.653814851621E-17,1.,0.));
#1570=DIRECTION('',(-1.,1.224646799147E-16,0.));
#1571=DIRECTION('center_axis',(0.,0.,1.));
#1572=DIRECTION('ref_axis',(-1.,1.224646799147E-16,0.));
#1573=DIRECTION('',(-6.033355342806E-18,1.,0.));
#1574=DIRECTION('center_axis',(0.,0.,1.));
#1575=DIRECTION('ref_axis',(-1.,1.224646799147E-16,0.));
#1576=DIRECTION('',(1.,-1.224646799147E-16,0.));
#1577=DIRECTION('',(-8.653814851621E-17,1.,0.));
#1578=DIRECTION('center_axis',(0.,0.,1.));
#1579=DIRECTION('ref_axis',(-1.,1.224646799147E-16,0.));
#1580=DIRECTION('center_axis',(0.,0.,1.));
#1581=DIRECTION('ref_axis',(-1.,1.224646799147E-16,0.));
#1582=DIRECTION('',(0.,0.,-1.));
#1583=DIRECTION('',(0.,0.,1.));
#1584=DIRECTION('center_axis',(0.,0.,1.));
#1585=DIRECTION('ref_axis',(-1.,1.224646799147E-16,0.));
#1586=DIRECTION('',(0.,0.,1.));
#1587=DIRECTION('center_axis',(0.,0.,1.));
#1588=DIRECTION('ref_axis',(-1.,1.224646799147E-16,0.));
#1589=DIRECTION('',(0.,0.,-1.));
#1590=DIRECTION('center_axis',(-1.,-8.653814851621E-17,0.));
#1591=DIRECTION('ref_axis',(8.653814851621E-17,-1.,0.));
#1592=DIRECTION('',(-8.653814851621E-17,1.,0.));
#1593=DIRECTION('',(0.,0.,1.));
#1594=DIRECTION('',(8.653814851621E-17,-1.,0.));
#1595=DIRECTION('',(0.,0.,-1.));
#1596=DIRECTION('',(-8.653814851621E-17,1.,0.));
#1597=DIRECTION('',(0.,0.,-1.));
#1598=DIRECTION('',(1.224646799147E-16,1.,0.));
#1599=DIRECTION('',(0.,0.,-1.));
#1600=DIRECTION('center_axis',(0.,0.,1.));
#1601=DIRECTION('ref_axis',(-1.,1.224646799147E-16,0.));
#1602=DIRECTION('',(0.707106781186548,0.707106781186548,0.));
#1603=DIRECTION('',(-1.,1.224646799147E-16,0.));
#1604=DIRECTION('',(-1.224646799147E-16,-1.,0.));
#1605=DIRECTION('',(-1.,1.224646799147E-16,0.));
#1606=DIRECTION('',(-0.707106781186548,0.707106781186548,0.));
#1607=DIRECTION('',(0.707106781186548,0.707106781186548,0.));
#1608=DIRECTION('',(-0.707106781186548,-0.707106781186548,0.));
#1609=DIRECTION('',(1.,-1.224646799147E-16,0.));
#1610=DIRECTION('',(1.224646799147E-16,1.,0.));
#1611=DIRECTION('',(1.,-1.224646799147E-16,0.));
#1612=DIRECTION('',(0.707106781186548,-0.707106781186548,0.));
#1613=DIRECTION('',(-0.707106781186548,0.707106781186548,0.));
#1614=DIRECTION('center_axis',(0.,0.,1.));
#1615=DIRECTION('ref_axis',(-1.,1.224646799147E-16,0.));
#1616=DIRECTION('',(-6.033355342806E-18,1.,0.));
#1617=DIRECTION('',(-6.033355342806E-18,1.,0.));
#1618=DIRECTION('',(1.,-1.224646799147E-16,0.));
#1619=DIRECTION('',(-1.,1.224646799147E-16,0.));
#1620=DIRECTION('center_axis',(-1.224646799147E-16,-1.,0.));
#1621=DIRECTION('ref_axis',(0.,0.,1.));
#1622=DIRECTION('center_axis',(1.224646799147E-16,1.,0.));
#1623=DIRECTION('ref_axis',(0.,0.,-1.));
#1624=DIRECTION('center_axis',(-1.,-6.033355342806E-18,0.));
#1625=DIRECTION('ref_axis',(6.033355342806E-18,-1.,0.));
#1626=DIRECTION('center_axis',(-1.,-6.033355342806E-18,0.));
#1627=DIRECTION('ref_axis',(6.033355342806E-18,-1.,0.));
#1628=DIRECTION('center_axis',(0.,0.,1.));
#1629=DIRECTION('ref_axis',(-1.,1.224646799147E-16,0.));
#1630=DIRECTION('',(0.707106781186548,-0.707106781186548,0.));
#1631=DIRECTION('center_axis',(0.,0.,1.));
#1632=DIRECTION('ref_axis',(-1.,1.224646799147E-16,0.));
#1633=DIRECTION('',(-0.707106781186548,-0.707106781186548,0.));
#1634=DIRECTION('center_axis',(0.,0.,1.));
#1635=DIRECTION('ref_axis',(-1.,1.224646799147E-16,0.));
#1636=DIRECTION('',(-1.224646799147E-16,-1.,0.));
#1637=DIRECTION('center_axis',(0.707106781186548,0.707106781186548,0.));
#1638=DIRECTION('ref_axis',(0.,0.,-1.));
#1639=DIRECTION('center_axis',(0.707106781186548,-0.707106781186548,0.));
#1640=DIRECTION('ref_axis',(0.,0.,-1.));
#1641=DIRECTION('center_axis',(-1.224646799147E-16,-1.,0.));
#1642=DIRECTION('ref_axis',(0.,0.,1.));
#1643=DIRECTION('',(0.,0.,1.));
#1644=DIRECTION('',(0.,0.,-1.));
#1645=DIRECTION('center_axis',(1.224646799147E-16,1.,0.));
#1646=DIRECTION('ref_axis',(0.,0.,-1.));
#1647=DIRECTION('',(0.,0.,-1.));
#1648=DIRECTION('',(0.,0.,-1.));
#1649=DIRECTION('center_axis',(1.,-1.224646799147E-16,0.));
#1650=DIRECTION('ref_axis',(0.,0.,1.));
#1651=DIRECTION('center_axis',(-1.224646799147E-16,-1.,0.));
#1652=DIRECTION('ref_axis',(0.,0.,1.));
#1653=DIRECTION('',(0.,0.,-1.));
#1654=DIRECTION('',(0.,0.,-1.));
#1655=DIRECTION('center_axis',(1.224646799147E-16,1.,0.));
#1656=DIRECTION('ref_axis',(0.,0.,-1.));
#1657=DIRECTION('',(0.,0.,1.));
#1658=DIRECTION('',(0.,0.,-1.));
#1659=DIRECTION('center_axis',(-1.,1.224646799147E-16,0.));
#1660=DIRECTION('ref_axis',(0.,0.,-1.));
#1661=DIRECTION('center_axis',(0.,0.,-1.));
#1662=DIRECTION('ref_axis',(1.,-1.224646799147E-16,0.));
#1663=DIRECTION('',(1.,-2.429315879687E-16,0.));
#1664=DIRECTION('',(-1.,2.429315879687E-16,0.));
#1665=DIRECTION('',(-1.456867353743E-15,-1.,0.));
#1666=DIRECTION('center_axis',(1.,-6.228656826004E-16,0.));
#1667=DIRECTION('ref_axis',(6.228656826004E-16,1.,0.));
#1668=DIRECTION('',(0.,0.,1.));
#1669=DIRECTION('',(6.228656826004E-16,1.,0.));
#1670=DIRECTION('',(0.,0.,1.));
#1671=DIRECTION('center_axis',(-2.429315879687E-16,-1.,0.));
#1672=DIRECTION('ref_axis',(1.,-2.429315879687E-16,0.));
#1673=DIRECTION('',(0.,0.,1.));
#1674=DIRECTION('',(1.,-2.429315879687E-16,0.));
#1675=DIRECTION('center_axis',(-1.,1.456867353743E-15,0.));
#1676=DIRECTION('ref_axis',(-1.456867353743E-15,-1.,0.));
#1677=DIRECTION('',(0.,0.,1.));
#1678=DIRECTION('',(-1.456867353743E-15,-1.,0.));
#1679=DIRECTION('center_axis',(2.429315879687E-16,1.,0.));
#1680=DIRECTION('ref_axis',(-1.,2.429315879687E-16,0.));
#1681=DIRECTION('',(-1.,2.429315879687E-16,0.));
#1682=DIRECTION('center_axis',(0.,0.,-1.));
#1683=DIRECTION('ref_axis',(1.,-1.224646799147E-16,0.));
#1684=DIRECTION('center_axis',(0.,0.,1.));
#1685=DIRECTION('ref_axis',(-1.,1.224646799147E-16,0.));
#1686=DIRECTION('',(1.,-2.429315879687E-16,0.));
#1687=DIRECTION('',(-1.211937993914E-15,1.,0.));
#1688=DIRECTION('',(-1.,2.429315879687E-16,0.));
#1689=DIRECTION('center_axis',(1.,1.211937993914E-15,0.));
#1690=DIRECTION('ref_axis',(-1.211937993914E-15,1.,0.));
#1691=DIRECTION('',(0.,0.,1.));
#1692=DIRECTION('',(-1.211937993914E-15,1.,0.));
#1693=DIRECTION('',(0.,0.,1.));
#1694=DIRECTION('center_axis',(-2.429315879687E-16,-1.,0.));
#1695=DIRECTION('ref_axis',(1.,-2.429315879687E-16,0.));
#1696=DIRECTION('',(0.,0.,1.));
#1697=DIRECTION('',(1.,-2.429315879687E-16,0.));
#1698=DIRECTION('center_axis',(-1.,-4.43356543138E-17,0.));
#1699=DIRECTION('ref_axis',(4.43356543138E-17,-1.,0.));
#1700=DIRECTION('',(0.,0.,1.));
#1701=DIRECTION('',(4.43356543138E-17,-1.,0.));
#1702=DIRECTION('center_axis',(2.429315879687E-16,1.,0.));
#1703=DIRECTION('ref_axis',(-1.,2.429315879687E-16,0.));
#1704=DIRECTION('',(-1.,2.429315879687E-16,0.));
#1705=DIRECTION('center_axis',(0.,0.,1.));
#1706=DIRECTION('ref_axis',(-1.,1.224646799147E-16,0.));
#1707=DIRECTION('center_axis',(0.,0.,1.));
#1708=DIRECTION('ref_axis',(1.,-2.44929359829435E-16,0.));
#1709=DIRECTION('',(0.,0.,1.));
#1710=DIRECTION('',(0.,0.,1.));
#1711=DIRECTION('center_axis',(0.,0.,1.));
#1712=DIRECTION('ref_axis',(-1.,1.224646799147E-16,0.));
#1713=DIRECTION('center_axis',(-1.,1.224646799147E-16,0.));
#1714=DIRECTION('ref_axis',(0.,0.,-1.));
#1715=DIRECTION('',(-1.224646799147E-16,-1.,0.));
#1716=DIRECTION('center_axis',(0.,0.,1.));
#1717=DIRECTION('ref_axis',(-1.,1.224646799147E-16,0.));
#1718=DIRECTION('center_axis',(0.707106781186548,-0.707106781186548,0.));
#1719=DIRECTION('ref_axis',(0.,0.,-1.));
#1720=DIRECTION('center_axis',(0.707106781186548,0.707106781186548,0.));
#1721=DIRECTION('ref_axis',(0.,0.,1.));
#1722=DIRECTION('center_axis',(-0.707106781186548,-0.707106781186548,0.));
#1723=DIRECTION('ref_axis',(0.,0.,1.));
#1724=DIRECTION('center_axis',(-0.707106781186548,0.707106781186548,0.));
#1725=DIRECTION('ref_axis',(0.,0.,-1.));
#1726=DIRECTION('center_axis',(0.,0.,-1.));
#1727=DIRECTION('ref_axis',(1.,-1.224646799147E-16,0.));
#1728=DIRECTION('center_axis',(0.,0.,1.));
#1729=DIRECTION('ref_axis',(-1.,1.224646799147E-16,0.));
#1730=DIRECTION('center_axis',(0.,0.,-1.));
#1731=DIRECTION('ref_axis',(1.,-1.224646799147E-16,0.));
#1732=DIRECTION('center_axis',(0.,0.,1.));
#1733=DIRECTION('ref_axis',(-1.,1.224646799147E-16,0.));
#1734=DIRECTION('',(0.,0.,1.));
#1735=DIRECTION('',(1.,0.,0.));
#1736=CARTESIAN_POINT('',(0.,0.,0.));
#1737=CARTESIAN_POINT('',(0.,0.,0.));
#1738=CARTESIAN_POINT('Origin',(0.,0.,2.285109380723));
#1739=CARTESIAN_POINT('',(-3.849782613882,9.42924791100608E-16,2.665216042851));
#1740=CARTESIAN_POINT('',(3.849782613882,1.35998103615353E-28,2.665216042851));
#1741=CARTESIAN_POINT('Origin',(0.,0.,2.665216042851));
#1742=CARTESIAN_POINT('',(3.849782613882,1.35998103615353E-28,1.905002718594));
#1743=CARTESIAN_POINT('Origin',(4.221908510849,1.49143889071182E-28,2.285109380723));
#1744=CARTESIAN_POINT('',(-3.849782613882,9.42924791100608E-16,1.905002718594));
#1745=CARTESIAN_POINT('Origin',(0.,0.,1.905002718594));
#1746=CARTESIAN_POINT('Origin',(0.,0.,1.905002718594));
#1747=CARTESIAN_POINT('Origin',(0.,0.,2.665216042851));
#1748=CARTESIAN_POINT('Origin',(1.99999995404,1.99999995404,0.03999999982585));
#1749=CARTESIAN_POINT('',(2.299999947146,1.99999995404,0.04999999959605));
#1750=CARTESIAN_POINT('Origin',(1.99999995404,1.99999995404,0.04999999959605));
#1751=CARTESIAN_POINT('',(2.299999947146,1.99999995404,0.03999999982585));
#1752=CARTESIAN_POINT('',(2.299999947146,1.99999995404,0.03999999982585));
#1753=CARTESIAN_POINT('Origin',(1.99999995404,1.99999995404,0.03999999982585));
#1754=CARTESIAN_POINT('Origin',(-1.99999995404,1.99999995404,0.03999999982585));
#1755=CARTESIAN_POINT('',(-1.699999960934,1.99999995404,0.04999999959605));
#1756=CARTESIAN_POINT('Origin',(-1.99999995404,1.99999995404,0.04999999959605));
#1757=CARTESIAN_POINT('',(-1.699999960934,1.99999995404,0.03999999982585));
#1758=CARTESIAN_POINT('',(-1.699999960934,1.99999995404,0.03999999982585));
#1759=CARTESIAN_POINT('Origin',(-1.99999995404,1.99999995404,0.03999999982585));
#1760=CARTESIAN_POINT('Origin',(-1.99999995404,-1.99999995404,0.03999999982585));
#1761=CARTESIAN_POINT('',(-1.699999960934,-1.99999995404,0.04999999959605));
#1762=CARTESIAN_POINT('Origin',(-1.99999995404,-1.99999995404,0.04999999959605));
#1763=CARTESIAN_POINT('',(-1.699999960934,-1.99999995404,0.03999999982585));
#1764=CARTESIAN_POINT('',(-1.699999960934,-1.99999995404,0.03999999982585));
#1765=CARTESIAN_POINT('Origin',(-1.99999995404,-1.99999995404,0.03999999982585));
#1766=CARTESIAN_POINT('Origin',(1.99999995404,-1.99999995404,0.03999999982585));
#1767=CARTESIAN_POINT('',(2.299999947146,-1.99999995404,0.04999999959605));
#1768=CARTESIAN_POINT('Origin',(1.99999995404,-1.99999995404,0.04999999959605));
#1769=CARTESIAN_POINT('',(2.299999947146,-1.99999995404,0.03999999982585));
#1770=CARTESIAN_POINT('',(2.299999947146,-1.99999995404,0.03999999982585));
#1771=CARTESIAN_POINT('Origin',(1.99999995404,-1.99999995404,0.03999999982585));
#1772=CARTESIAN_POINT('Origin',(0.,0.,3.022500320803));
#1773=CARTESIAN_POINT('',(-3.99999990808,9.79717416803835E-16,3.022500320803));
#1774=CARTESIAN_POINT('Origin',(-3.499999919571,8.572527397036E-16,3.022500320803));
#1775=CARTESIAN_POINT('Origin',(0.,0.,3.022500320803));
#1776=CARTESIAN_POINT('Origin',(0.,0.,1.547718440642));
#1777=CARTESIAN_POINT('',(-3.99999990808,9.79717416803835E-16,1.547718440642));
#1778=CARTESIAN_POINT('Origin',(0.,0.,1.547718440642));
#1779=CARTESIAN_POINT('Origin',(-3.499999919571,8.572527397036E-16,1.547718440642));
#1780=CARTESIAN_POINT('Origin',(0.,0.,9.349999785881));
#1781=CARTESIAN_POINT('',(1.163079546803,-3.301097606069,9.849999774391));
#1782=CARTESIAN_POINT('',(3.49999991957,1.23641618100465E-28,9.849999774391));
#1783=CARTESIAN_POINT('Origin',(0.,0.,9.849999774391));
#1784=CARTESIAN_POINT('',(1.163079546803,3.301097606069,9.849999774391));
#1785=CARTESIAN_POINT('Origin',(0.,0.,9.849999774391));
#1786=CARTESIAN_POINT('Origin',(0.,0.,9.849999774391));
#1787=CARTESIAN_POINT('',(3.99999990808,1.41304706400532E-28,9.349999785881));
#1788=CARTESIAN_POINT('Origin',(3.49999991957,1.23641618100465E-28,9.349999785881));
#1789=CARTESIAN_POINT('',(-3.99999990808,9.860761088661E-32,9.349999785881));
#1790=CARTESIAN_POINT('Origin',(0.,0.,9.349999785881));
#1791=CARTESIAN_POINT('Origin',(0.,0.,9.349999785881));
#1792=CARTESIAN_POINT('Origin',(0.,0.,30.963707788181));
#1793=CARTESIAN_POINT('',(-3.99999990808,9.79717416803835E-16,30.963707788181));
#1794=CARTESIAN_POINT('Origin',(0.,0.,30.963707788181));
#1795=CARTESIAN_POINT('',(-3.99999990808,9.79717416803835E-16,1.049999976616));
#1796=CARTESIAN_POINT('Origin',(0.,0.,1.049999976616));
#1797=CARTESIAN_POINT('',(-3.99999990808,9.79717416803835E-16,30.963707788181));
#1798=CARTESIAN_POINT('Origin',(4.149999904633,-4.149999904633,2.049999953636));
#1799=CARTESIAN_POINT('',(-2.649999939103,-4.149999904633,1.549999965126));
#1800=CARTESIAN_POINT('',(-0.99999997702,-4.149999904633,1.549999965126));
#1801=CARTESIAN_POINT('',(-4.149999904633,-4.149999904633,1.549999965126));
#1802=CARTESIAN_POINT('',(-2.649999939103,-4.149999904633,0.04999999959605));
#1803=CARTESIAN_POINT('',(-2.649999939103,-4.149999904633,2.049999953636));
#1804=CARTESIAN_POINT('',(4.149999904633,-4.149999904633,0.04999999959605));
#1805=CARTESIAN_POINT('',(4.149999904633,-4.149999904633,0.04999999959605));
#1806=CARTESIAN_POINT('',(4.149999904633,-4.149999904633,2.049999953636));
#1807=CARTESIAN_POINT('',(4.149999904633,-4.149999904633,2.049999953636));
#1808=CARTESIAN_POINT('',(0.99999997702,-4.149999904633,2.049999953636));
#1809=CARTESIAN_POINT('',(4.149999904633,-4.149999904633,2.049999953636));
#1810=CARTESIAN_POINT('',(0.99999997702,-4.149999904633,1.049999976616));
#1811=CARTESIAN_POINT('',(0.99999997702,-4.149999904633,2.049999953636));
#1812=CARTESIAN_POINT('',(-0.99999997702,-4.149999904633,1.049999976616));
#1813=CARTESIAN_POINT('',(4.149999904633,-4.149999904633,1.049999976616));
#1814=CARTESIAN_POINT('',(-0.99999997702,-4.149999904633,2.049999953636));
#1815=CARTESIAN_POINT('Origin',(0.,0.,0.349999992702));
#1816=CARTESIAN_POINT('',(-4.149999904633,0.324999992531,0.349999992702));
#1817=CARTESIAN_POINT('',(-0.899999979318,0.324999992531,0.349999992702));
#1818=CARTESIAN_POINT('',(7.895276427548E-17,0.324999992531,0.349999992702));
#1819=CARTESIAN_POINT('',(-4.149999904633,0.699999983914,0.349999992702));
#1820=CARTESIAN_POINT('',(-4.149999904633,-4.149999904633,0.349999992702));
#1821=CARTESIAN_POINT('',(-3.849999911527,0.399999990808,0.349999992702));
#1822=CARTESIAN_POINT('',(-1.724999960359,-1.724999960359,0.349999992702));
#1823=CARTESIAN_POINT('',(-0.799999981616,0.399999990808,0.349999992702));
#1824=CARTESIAN_POINT('',(-7.499999827649,0.399999990808,0.349999992702));
#1825=CARTESIAN_POINT('',(-0.799999981616,-0.399999990808,0.349999992702));
#1826=CARTESIAN_POINT('',(-0.799999981616,0.399999990808,0.349999992702));
#1827=CARTESIAN_POINT('',(-3.849999911527,-0.399999990808,0.349999992702));
#1828=CARTESIAN_POINT('',(-7.499999827649,-0.399999990808,0.349999992702));
#1829=CARTESIAN_POINT('',(-4.149999904633,-0.699999983914,0.349999992702));
#1830=CARTESIAN_POINT('',(-1.724999960359,1.724999960359,0.349999992702));
#1831=CARTESIAN_POINT('',(-4.149999904633,-0.324999992531,0.349999992702));
#1832=CARTESIAN_POINT('',(-4.149999904633,-4.149999904633,0.349999992702));
#1833=CARTESIAN_POINT('',(-0.899999979318,-0.324999992531,0.349999992702));
#1834=CARTESIAN_POINT('',(-4.49999989659,-0.324999992531,0.349999992702));
#1835=CARTESIAN_POINT('',(-0.899999979318,0.324999992531,0.349999992702));
#1836=CARTESIAN_POINT('Origin',(0.,0.,0.349999992702));
#1837=CARTESIAN_POINT('',(4.149999904633,0.699999983914,0.349999992702));
#1838=CARTESIAN_POINT('',(4.149999904633,0.324999992531,0.349999992702));
#1839=CARTESIAN_POINT('',(4.149999904633,-4.149999904633,0.349999992702));
#1840=CARTESIAN_POINT('',(0.899999979318,0.324999992531,0.349999992702));
#1841=CARTESIAN_POINT('',(4.49999989659,0.324999992531,0.349999992702));
#1842=CARTESIAN_POINT('',(0.899999979318,-0.324999992531,0.349999992702));
#1843=CARTESIAN_POINT('',(0.899999979318,0.324999992531,0.349999992702));
#1844=CARTESIAN_POINT('',(4.149999904633,-0.324999992531,0.349999992702));
#1845=CARTESIAN_POINT('',(-7.895276427548E-17,-0.324999992531,0.349999992702));
#1846=CARTESIAN_POINT('',(4.149999904633,-0.699999983914,0.349999992702));
#1847=CARTESIAN_POINT('',(4.149999904633,-4.149999904633,0.349999992702));
#1848=CARTESIAN_POINT('',(3.849999911527,-0.399999990808,0.349999992702));
#1849=CARTESIAN_POINT('',(4.149999904633,-0.699999983914,0.349999992702));
#1850=CARTESIAN_POINT('',(0.799999981616,-0.399999990808,0.349999992702));
#1851=CARTESIAN_POINT('',(7.499999827649,-0.399999990808,0.349999992702));
#1852=CARTESIAN_POINT('',(0.799999981616,0.399999990808,0.349999992702));
#1853=CARTESIAN_POINT('',(0.799999981616,0.399999990808,0.349999992702));
#1854=CARTESIAN_POINT('',(3.849999911527,0.399999990808,0.349999992702));
#1855=CARTESIAN_POINT('',(7.499999827649,0.399999990808,0.349999992702));
#1856=CARTESIAN_POINT('',(4.149999904633,0.699999983914,0.349999992702));
#1857=CARTESIAN_POINT('Origin',(0.,0.,1.049999976616));
#1858=CARTESIAN_POINT('',(-3.92460180045,-0.99999997702,1.549999965126));
#1859=CARTESIAN_POINT('',(-3.92460180045,-0.99999997702,1.049999976616));
#1860=CARTESIAN_POINT('',(-3.92460180045,-0.99999997702,1.049999976616));
#1861=CARTESIAN_POINT('',(-0.99999997702,-3.92460180045,1.549999965126));
#1862=CARTESIAN_POINT('Origin',(0.,0.,1.549999965126));
#1863=CARTESIAN_POINT('',(-0.99999997702,-3.92460180045,1.049999976616));
#1864=CARTESIAN_POINT('',(-0.99999997702,-3.92460180045,1.049999976616));
#1865=CARTESIAN_POINT('Origin',(0.,0.,1.049999976616));
#1866=CARTESIAN_POINT('Origin',(0.,0.,1.049999976616));
#1867=CARTESIAN_POINT('',(-0.99999997702,3.92460180045,1.549999965126));
#1868=CARTESIAN_POINT('',(-0.99999997702,3.92460180045,1.049999976616));
#1869=CARTESIAN_POINT('',(-0.99999997702,3.92460180045,1.049999976616));
#1870=CARTESIAN_POINT('',(-3.92460180045,0.99999997702,1.549999965126));
#1871=CARTESIAN_POINT('Origin',(0.,0.,1.549999965126));
#1872=CARTESIAN_POINT('',(-3.92460180045,0.99999997702,1.049999976616));
#1873=CARTESIAN_POINT('',(-3.92460180045,0.99999997702,1.049999976616));
#1874=CARTESIAN_POINT('Origin',(0.,0.,1.049999976616));
#1875=CARTESIAN_POINT('Origin',(4.149999904633,4.149999904633,2.049999953636));
#1876=CARTESIAN_POINT('',(4.149999904633,4.149999904633,0.04999999959605));
#1877=CARTESIAN_POINT('',(-2.649999939103,4.149999904633,0.04999999959605));
#1878=CARTESIAN_POINT('',(4.149999904633,4.149999904633,0.04999999959605));
#1879=CARTESIAN_POINT('',(-2.649999939103,4.149999904633,1.549999965126));
#1880=CARTESIAN_POINT('',(-2.649999939103,4.149999904633,2.049999953636));
#1881=CARTESIAN_POINT('',(-0.99999997702,4.149999904633,1.549999965126));
#1882=CARTESIAN_POINT('',(-0.99999997702,4.149999904633,1.549999965126));
#1883=CARTESIAN_POINT('',(-0.99999997702,4.149999904633,1.049999976616));
#1884=CARTESIAN_POINT('',(-0.99999997702,4.149999904633,2.049999953636));
#1885=CARTESIAN_POINT('',(0.99999997702,4.149999904633,1.049999976616));
#1886=CARTESIAN_POINT('',(4.149999904633,4.149999904633,1.049999976616));
#1887=CARTESIAN_POINT('',(0.99999997702,4.149999904633,2.049999953636));
#1888=CARTESIAN_POINT('',(0.99999997702,4.149999904633,2.049999953636));
#1889=CARTESIAN_POINT('',(4.149999904633,4.149999904633,2.049999953636));
#1890=CARTESIAN_POINT('',(4.149999904633,4.149999904633,2.049999953636));
#1891=CARTESIAN_POINT('',(4.149999904633,4.149999904633,2.049999953636));
#1892=CARTESIAN_POINT('Origin',(-4.149999904633,-4.149999904633,2.049999953636));
#1893=CARTESIAN_POINT('',(-4.149999904633,-0.699999983914,0.04999999959605));
#1894=CARTESIAN_POINT('',(-4.149999904633,-0.699999983914,2.049999953636));
#1895=CARTESIAN_POINT('',(-4.149999904633,-2.649999939103,0.04999999959605));
#1896=CARTESIAN_POINT('',(-4.149999904633,-4.149999904633,0.04999999959605));
#1897=CARTESIAN_POINT('',(-4.149999904633,-2.649999939103,1.549999965126));
#1898=CARTESIAN_POINT('',(-4.149999904633,-2.649999939103,2.049999953636));
#1899=CARTESIAN_POINT('',(-4.149999904633,-0.99999997702,1.549999965126));
#1900=CARTESIAN_POINT('',(-4.149999904633,-0.99999997702,1.549999965126));
#1901=CARTESIAN_POINT('',(-4.149999904633,-0.99999997702,1.049999976616));
#1902=CARTESIAN_POINT('',(-4.149999904633,-0.99999997702,3.049999930656));
#1903=CARTESIAN_POINT('',(-4.149999904633,0.99999997702,1.049999976616));
#1904=CARTESIAN_POINT('',(-4.149999904633,-0.99999997702,1.049999976616));
#1905=CARTESIAN_POINT('',(-4.149999904633,0.99999997702,1.549999965126));
#1906=CARTESIAN_POINT('',(-4.149999904633,0.99999997702,3.049999930656));
#1907=CARTESIAN_POINT('',(-4.149999904633,2.649999939103,1.549999965126));
#1908=CARTESIAN_POINT('',(-4.149999904633,4.149999904633,1.549999965126));
#1909=CARTESIAN_POINT('',(-4.149999904633,2.649999939103,0.04999999959605));
#1910=CARTESIAN_POINT('',(-4.149999904633,2.649999939103,2.049999953636));
#1911=CARTESIAN_POINT('',(-4.149999904633,0.699999983914,0.04999999959605));
#1912=CARTESIAN_POINT('',(-4.149999904633,-4.149999904633,0.04999999959605));
#1913=CARTESIAN_POINT('',(-4.149999904633,0.699999983914,2.049999953636));
#1914=CARTESIAN_POINT('',(-4.149999904633,-4.149999904633,0.349999992702));
#1915=CARTESIAN_POINT('Origin',(4.149999904633,0.99999997702,3.049999930656));
#1916=CARTESIAN_POINT('',(-4.149999904633,0.99999997702,1.549999965126));
#1917=CARTESIAN_POINT('',(4.149999904633,0.99999997702,1.049999976616));
#1918=CARTESIAN_POINT('Origin',(4.149999904633,-0.99999997702,3.049999930656));
#1919=CARTESIAN_POINT('',(-3.92460180045,-0.99999997702,1.549999965126));
#1920=CARTESIAN_POINT('',(4.149999904633,-0.99999997702,1.049999976616));
#1921=CARTESIAN_POINT('Origin',(-0.99999997702,-6.749999844884,2.049999953636));
#1922=CARTESIAN_POINT('',(-0.99999997702,3.92460180045,1.549999965126));
#1923=CARTESIAN_POINT('',(-0.99999997702,-6.749999844884,1.049999976616));
#1924=CARTESIAN_POINT('Origin',(-0.99999997702,-6.749999844884,2.049999953636));
#1925=CARTESIAN_POINT('',(-0.99999997702,-4.149999904633,1.549999965126));
#1926=CARTESIAN_POINT('',(-0.99999997702,-6.749999844884,1.049999976616));
#1927=CARTESIAN_POINT('Origin',(0.,0.,2.049999953636));
#1928=CARTESIAN_POINT('',(0.99999997702,-3.92460180045,2.049999953636));
#1929=CARTESIAN_POINT('',(3.92460180045,-0.99999997702,2.049999953636));
#1930=CARTESIAN_POINT('Origin',(0.,0.,2.049999953636));
#1931=CARTESIAN_POINT('',(0.99999997702,-6.749999844884,2.049999953636));
#1932=CARTESIAN_POINT('',(4.149999904633,-0.99999997702,2.049999953636));
#1933=CARTESIAN_POINT('',(4.149999904633,-4.149999904633,2.049999953636));
#1934=CARTESIAN_POINT('',(-1.224646771005E-16,-0.99999997702,2.049999953636));
#1935=CARTESIAN_POINT('Origin',(0.,0.,2.049999953636));
#1936=CARTESIAN_POINT('',(0.99999997702,3.92460180045,2.049999953636));
#1937=CARTESIAN_POINT('',(0.99999997702,-6.749999844884,2.049999953636));
#1938=CARTESIAN_POINT('',(3.92460180045,0.99999997702,2.049999953636));
#1939=CARTESIAN_POINT('Origin',(0.,0.,2.049999953636));
#1940=CARTESIAN_POINT('',(4.149999904633,0.99999997702,2.049999953636));
#1941=CARTESIAN_POINT('',(1.224646771005E-16,0.99999997702,2.049999953636));
#1942=CARTESIAN_POINT('',(4.149999904633,-4.149999904633,2.049999953636));
#1943=CARTESIAN_POINT('Origin',(0.,0.,1.049999976616));
#1944=CARTESIAN_POINT('',(0.99999997702,-3.92460180045,1.049999976616));
#1945=CARTESIAN_POINT('',(3.92460180045,-0.99999997702,1.049999976616));
#1946=CARTESIAN_POINT('Origin',(0.,0.,1.049999976616));
#1947=CARTESIAN_POINT('',(0.99999997702,-3.92460180045,1.049999976616));
#1948=CARTESIAN_POINT('',(3.92460180045,-0.99999997702,1.049999976616));
#1949=CARTESIAN_POINT('Origin',(0.,0.,1.049999976616));
#1950=CARTESIAN_POINT('',(0.99999997702,3.92460180045,1.049999976616));
#1951=CARTESIAN_POINT('',(0.99999997702,3.92460180045,1.049999976616));
#1952=CARTESIAN_POINT('',(3.92460180045,0.99999997702,1.049999976616));
#1953=CARTESIAN_POINT('Origin',(0.,0.,1.049999976616));
#1954=CARTESIAN_POINT('',(3.92460180045,0.99999997702,1.049999976616));
#1955=CARTESIAN_POINT('Origin',(4.149999904633,-4.149999904633,2.049999953636));
#1956=CARTESIAN_POINT('',(4.149999904633,-0.699999983914,0.04999999959605));
#1957=CARTESIAN_POINT('',(4.149999904633,-4.149999904633,0.04999999959605));
#1958=CARTESIAN_POINT('',(4.149999904633,-0.699999983914,2.049999953636));
#1959=CARTESIAN_POINT('',(4.149999904633,-4.149999904633,0.349999992702));
#1960=CARTESIAN_POINT('',(4.149999904633,0.699999983914,0.04999999959605));
#1961=CARTESIAN_POINT('',(4.149999904633,0.699999983914,2.049999953636));
#1962=CARTESIAN_POINT('',(4.149999904633,-4.149999904633,0.04999999959605));
#1963=CARTESIAN_POINT('',(4.149999904633,0.99999997702,1.049999976616));
#1964=CARTESIAN_POINT('',(4.149999904633,0.99999997702,3.049999930656));
#1965=CARTESIAN_POINT('',(4.149999904633,-0.99999997702,1.049999976616));
#1966=CARTESIAN_POINT('',(4.149999904633,-0.99999997702,1.049999976616));
#1967=CARTESIAN_POINT('',(4.149999904633,-0.99999997702,3.049999930656));
#1968=CARTESIAN_POINT('Origin',(0.,0.,0.04999999959605));
#1969=CARTESIAN_POINT('',(-3.849999911527,-0.399999990808,0.04999999959605));
#1970=CARTESIAN_POINT('',(-4.149999904633,-0.699999983914,0.04999999959605));
#1971=CARTESIAN_POINT('',(-0.799999981616,-0.399999990808,0.04999999959605));
#1972=CARTESIAN_POINT('',(-7.499999827649,-0.399999990808,0.04999999959605));
#1973=CARTESIAN_POINT('',(-0.799999981616,0.399999990808,0.04999999959605));
#1974=CARTESIAN_POINT('',(-0.799999981616,0.399999990808,0.04999999959605));
#1975=CARTESIAN_POINT('',(-3.849999911527,0.399999990808,0.04999999959605));
#1976=CARTESIAN_POINT('',(4.898587084019E-17,0.399999990808,0.04999999959605));
#1977=CARTESIAN_POINT('',(-4.149999904633,0.699999983914,0.04999999959605));
#1978=CARTESIAN_POINT('',(-4.149999904633,2.649999939103,0.04999999959605));
#1979=CARTESIAN_POINT('',(3.849999911527,0.399999990808,0.04999999959605));
#1980=CARTESIAN_POINT('',(4.149999904633,0.699999983914,0.04999999959605));
#1981=CARTESIAN_POINT('',(0.799999981616,0.399999990808,0.04999999959605));
#1982=CARTESIAN_POINT('',(7.499999827649,0.399999990808,0.04999999959605));
#1983=CARTESIAN_POINT('',(0.799999981616,-0.399999990808,0.04999999959605));
#1984=CARTESIAN_POINT('',(0.799999981616,0.399999990808,0.04999999959605));
#1985=CARTESIAN_POINT('',(3.849999911527,-0.399999990808,0.04999999959605));
#1986=CARTESIAN_POINT('',(-4.898587084019E-17,-0.399999990808,0.04999999959605));
#1987=CARTESIAN_POINT('',(4.149999904633,-0.699999983914,0.04999999959605));
#1988=CARTESIAN_POINT('',(-2.649999939103,-4.149999904633,0.04999999959605));
#1989=CARTESIAN_POINT('Origin',(0.,0.,1.049999976616));
#1990=CARTESIAN_POINT('',(0.99999997702,-6.749999844884,1.049999976616));
#1991=CARTESIAN_POINT('',(0.99999997702,-6.749999844884,1.049999976616));
#1992=CARTESIAN_POINT('',(4.149999904633,-0.99999997702,1.049999976616));
#1993=CARTESIAN_POINT('',(4.149999904633,0.99999997702,1.049999976616));
#1994=CARTESIAN_POINT('Origin',(4.149999904633,0.99999997702,3.049999930656));
#1995=CARTESIAN_POINT('Origin',(4.149999904633,-0.99999997702,3.049999930656));
#1996=CARTESIAN_POINT('Origin',(0.99999997702,-6.749999844884,2.049999953636));
#1997=CARTESIAN_POINT('Origin',(0.99999997702,-6.749999844884,2.049999953636));
#1998=CARTESIAN_POINT('Origin',(0.,0.,1.549999965126));
#1999=CARTESIAN_POINT('',(-3.399999921868,-3.399999921868,1.549999965126));
#2000=CARTESIAN_POINT('Origin',(0.,0.,1.549999965126));
#2001=CARTESIAN_POINT('',(-3.399999921868,3.399999921868,1.549999965126));
#2002=CARTESIAN_POINT('Origin',(0.,0.,9.849999774391));
#2003=CARTESIAN_POINT('',(1.163079546803,-3.301097606069,9.849999774391));
#2004=CARTESIAN_POINT('Origin',(-2.649999939103,-4.149999904633,2.049999953636));
#2005=CARTESIAN_POINT('Origin',(-4.149999904633,2.649999939103,2.049999953636));
#2006=CARTESIAN_POINT('Origin',(-7.499999827649,-0.399999990808,0.349999992702));
#2007=CARTESIAN_POINT('',(-3.849999911527,-0.399999990808,0.349999992702));
#2008=CARTESIAN_POINT('',(-0.799999981616,-0.399999990808,0.349999992702));
#2009=CARTESIAN_POINT('Origin',(-7.499999827649,0.399999990808,0.349999992702));
#2010=CARTESIAN_POINT('',(-3.849999911527,0.399999990808,0.349999992702));
#2011=CARTESIAN_POINT('',(-0.799999981616,0.399999990808,0.349999992702));
#2012=CARTESIAN_POINT('Origin',(-0.799999981616,0.399999990808,0.349999992702));
#2013=CARTESIAN_POINT('Origin',(7.499999827649,-0.399999990808,0.349999992702));
#2014=CARTESIAN_POINT('',(3.849999911527,-0.399999990808,0.349999992702));
#2015=CARTESIAN_POINT('',(0.799999981616,-0.399999990808,0.349999992702));
#2016=CARTESIAN_POINT('Origin',(7.499999827649,0.399999990808,0.349999992702));
#2017=CARTESIAN_POINT('',(3.849999911527,0.399999990808,0.349999992702));
#2018=CARTESIAN_POINT('',(0.799999981616,0.399999990808,0.349999992702));
#2019=CARTESIAN_POINT('Origin',(0.799999981616,0.399999990808,0.349999992702));
#2020=CARTESIAN_POINT('Origin',(0.,0.,0.349999992702));
#2021=CARTESIAN_POINT('',(4.49999989659,0.324999992531,0.349999992702));
#2022=CARTESIAN_POINT('',(4.49999989659,0.324999992531,0.349999992702));
#2023=CARTESIAN_POINT('',(4.49999989659,-0.324999992531,0.349999992702));
#2024=CARTESIAN_POINT('',(4.49999989659,-0.324999992531,0.349999992702));
#2025=CARTESIAN_POINT('',(4.49999989659,0.324999992531,0.349999992702));
#2026=CARTESIAN_POINT('Origin',(0.899999979318,0.324999992531,7.450580222224E-10));
#2027=CARTESIAN_POINT('',(0.899999979318,0.324999992531,7.450580222224E-10));
#2028=CARTESIAN_POINT('',(0.899999979318,0.324999992531,7.450580222224E-10));
#2029=CARTESIAN_POINT('',(0.899999979318,-0.324999992531,7.450580222224E-10));
#2030=CARTESIAN_POINT('',(0.899999979318,0.324999992531,7.450580222224E-10));
#2031=CARTESIAN_POINT('',(0.899999979318,-0.324999992531,7.450580222224E-10));
#2032=CARTESIAN_POINT('Origin',(4.49999989659,0.324999992531,7.450580222224E-10));
#2033=CARTESIAN_POINT('',(4.49999989659,0.324999992531,7.450580222224E-10));
#2034=CARTESIAN_POINT('',(4.49999989659,0.324999992531,7.450580222224E-10));
#2035=CARTESIAN_POINT('',(4.49999989659,0.324999992531,7.450580222224E-10));
#2036=CARTESIAN_POINT('Origin',(4.49999989659,0.324999992531,7.450580222224E-10));
#2037=CARTESIAN_POINT('',(4.49999989659,-0.324999992531,7.450580222224E-10));
#2038=CARTESIAN_POINT('',(4.49999989659,-0.324999992531,7.450580222224E-10));
#2039=CARTESIAN_POINT('',(4.49999989659,0.324999992531,7.450580222224E-10));
#2040=CARTESIAN_POINT('Origin',(4.49999989659,-0.324999992531,7.450580222224E-10));
#2041=CARTESIAN_POINT('',(4.49999989659,-0.324999992531,7.450580222224E-10));
#2042=CARTESIAN_POINT('Origin',(0.,0.,7.450580222224E-10));
#2043=CARTESIAN_POINT('Origin',(0.,0.,0.349999992702));
#2044=CARTESIAN_POINT('',(-4.49999989659,0.324999992531,0.349999992702));
#2045=CARTESIAN_POINT('',(-4.49999989659,0.324999992531,0.349999992702));
#2046=CARTESIAN_POINT('',(-4.49999989659,-0.324999992531,0.349999992702));
#2047=CARTESIAN_POINT('',(-4.49999989659,0.324999992531,0.349999992702));
#2048=CARTESIAN_POINT('',(-4.49999989659,-0.324999992531,0.349999992702));
#2049=CARTESIAN_POINT('Origin',(-4.49999989659,0.324999992531,7.450580222224E-10));
#2050=CARTESIAN_POINT('',(-4.49999989659,0.324999992531,7.450580222224E-10));
#2051=CARTESIAN_POINT('',(-4.49999989659,0.324999992531,7.450580222224E-10));
#2052=CARTESIAN_POINT('',(-4.49999989659,-0.324999992531,7.450580222224E-10));
#2053=CARTESIAN_POINT('',(-4.49999989659,0.324999992531,7.450580222224E-10));
#2054=CARTESIAN_POINT('',(-4.49999989659,-0.324999992531,7.450580222224E-10));
#2055=CARTESIAN_POINT('Origin',(-4.49999989659,0.324999992531,7.450580222224E-10));
#2056=CARTESIAN_POINT('',(-0.899999979318,0.324999992531,7.450580222224E-10));
#2057=CARTESIAN_POINT('',(-0.899999979318,0.324999992531,7.450580222224E-10));
#2058=CARTESIAN_POINT('',(-4.49999989659,0.324999992531,7.450580222224E-10));
#2059=CARTESIAN_POINT('Origin',(-0.899999979318,0.324999992531,7.450580222224E-10));
#2060=CARTESIAN_POINT('',(-0.899999979318,-0.324999992531,7.450580222224E-10));
#2061=CARTESIAN_POINT('',(-0.899999979318,-0.324999992531,7.450580222224E-10));
#2062=CARTESIAN_POINT('',(-0.899999979318,0.324999992531,7.450580222224E-10));
#2063=CARTESIAN_POINT('Origin',(-4.49999989659,-0.324999992531,7.450580222224E-10));
#2064=CARTESIAN_POINT('',(-4.49999989659,-0.324999992531,7.450580222224E-10));
#2065=CARTESIAN_POINT('Origin',(0.,0.,7.450580222224E-10));
#2066=CARTESIAN_POINT('Origin',(0.,0.,9.848999774414));
#2067=CARTESIAN_POINT('',(1.163079546803,-3.301097606069,9.848999774414));
#2068=CARTESIAN_POINT('',(1.163079546803,-3.301097606069,9.848999774414));
#2069=CARTESIAN_POINT('',(1.163079546803,3.301097606069,9.848999774414));
#2070=CARTESIAN_POINT('',(1.163079546803,3.301097606069,9.848999774414));
#2071=CARTESIAN_POINT('Origin',(0.,0.,9.848999774414));
#2072=CARTESIAN_POINT('Origin',(1.163079546803,-3.301097606069,9.848999774414));
#2073=CARTESIAN_POINT('',(1.163079546803,-3.301097606069,9.848999774414));
#2074=CARTESIAN_POINT('Origin',(0.,0.,9.848999774414));
#2075=CARTESIAN_POINT('Origin',(-4.149999904633,-0.699999983914,2.049999953636));
#2076=CARTESIAN_POINT('Origin',(-4.149999904633,0.699999983914,2.049999953636));
#2077=CARTESIAN_POINT('Origin',(4.149999904633,-0.699999983914,2.049999953636));
#2078=CARTESIAN_POINT('Origin',(4.149999904633,0.699999983914,2.049999953636));
#2079=CARTESIAN_POINT('Origin',(1.99999995404,-1.99999995404,0.03999999982585));
#2080=CARTESIAN_POINT('Origin',(-1.99999995404,-1.99999995404,0.03999999982585));
#2081=CARTESIAN_POINT('Origin',(-1.99999995404,1.99999995404,0.03999999982585));
#2082=CARTESIAN_POINT('Origin',(1.99999995404,1.99999995404,0.03999999982585));
#2083=CARTESIAN_POINT('',(0.,0.,0.));
#2084=UNCERTAINTY_MEASURE_WITH_UNIT(LENGTH_MEASURE(0.01),#2090,
'DISTANCE_ACCURACY_VALUE',
'Maximum model space distance between geometric entities at asserted c
onnectivities');
#2085=UNCERTAINTY_MEASURE_WITH_UNIT(LENGTH_MEASURE(0.01),#2090,
'DISTANCE_ACCURACY_VALUE',
'Maximum model space distance between geometric entities at asserted c
onnectivities');
#2086=UNCERTAINTY_MEASURE_WITH_UNIT(LENGTH_MEASURE(0.01),#2090,
'DISTANCE_ACCURACY_VALUE',
'Maximum model space distance between geometric entities at asserted c
onnectivities');
#2087=(
GEOMETRIC_REPRESENTATION_CONTEXT(3)
GLOBAL_UNCERTAINTY_ASSIGNED_CONTEXT((#2084))
GLOBAL_UNIT_ASSIGNED_CONTEXT((#2090,#2092,#2093))
REPRESENTATION_CONTEXT('','3D')
);
#2088=(
GEOMETRIC_REPRESENTATION_CONTEXT(3)
GLOBAL_UNCERTAINTY_ASSIGNED_CONTEXT((#2085))
GLOBAL_UNIT_ASSIGNED_CONTEXT((#2090,#2092,#2093))
REPRESENTATION_CONTEXT('','3D')
);
#2089=(
GEOMETRIC_REPRESENTATION_CONTEXT(3)
GLOBAL_UNCERTAINTY_ASSIGNED_CONTEXT((#2086))
GLOBAL_UNIT_ASSIGNED_CONTEXT((#2090,#2092,#2093))
REPRESENTATION_CONTEXT('','3D')
);
#2090=(
LENGTH_UNIT()
NAMED_UNIT(*)
SI_UNIT(.MILLI.,.METRE.)
);
#2091=(
LENGTH_UNIT()
NAMED_UNIT(*)
SI_UNIT($,.METRE.)
);
#2092=(
NAMED_UNIT(*)
PLANE_ANGLE_UNIT()
SI_UNIT($,.RADIAN.)
);
#2093=(
NAMED_UNIT(*)
SI_UNIT($,.STERADIAN.)
SOLID_ANGLE_UNIT()
);
#2094=SHAPE_DEFINITION_REPRESENTATION(#2096,#2099);
#2095=SHAPE_DEFINITION_REPRESENTATION(#2097,#2100);
#2096=PRODUCT_DEFINITION_SHAPE('',$,#2102);
#2097=PRODUCT_DEFINITION_SHAPE('',$,#2103);
#2098=PRODUCT_DEFINITION_SHAPE($,$,#14);
#2099=SHAPE_REPRESENTATION('',(#1294,#1395),#2087);
#2100=SHAPE_REPRESENTATION('',(#1295),#2088);
#2101=PRODUCT_DEFINITION_CONTEXT('part definition',#2109,'design');
#2102=PRODUCT_DEFINITION('2025-09-08-22-53-27-454','(\X2\672A4FDD5B58\X0\)',
#2104,#2101);
#2103=PRODUCT_DEFINITION('2025-09-08-22-53-27-454_1',
'CAP-SMD_BD8.1-L8.3-W8.3-LS9.3-FD~CAP-SMD_BD8.1-L8.3-W8.3-LS9.3-FD~six
Z',#2105,#2101);
#2104=PRODUCT_DEFINITION_FORMATION('',$,#2111);
#2105=PRODUCT_DEFINITION_FORMATION('',$,#2112);
#2106=PRODUCT_RELATED_PRODUCT_CATEGORY('(\X2\672A4FDD5B58\X0\)',
'(\X2\672A4FDD5B58\X0\)',(#2111));
#2107=PRODUCT_RELATED_PRODUCT_CATEGORY(
'CAP-SMD_BD8.1-L8.3-W8.3-LS9.3-FD~CAP-SMD_BD8.1-L8.3-W8.3-LS9.3-FD~six
Z',
'CAP-SMD_BD8.1-L8.3-W8.3-LS9.3-FD~CAP-SMD_BD8.1-L8.3-W8.3-LS9.3-FD~six
Z',(#2112));
#2108=APPLICATION_PROTOCOL_DEFINITION('international standard',
'automotive_design',2009,#2109);
#2109=APPLICATION_CONTEXT(
'Core Data for Automotive Mechanical Design Process');
#2110=PRODUCT_CONTEXT('part definition',#2109,'mechanical');
#2111=PRODUCT('2025-09-08-22-53-27-454','(\X2\672A4FDD5B58\X0\)',$,(#2110));
#2112=PRODUCT('2025-09-08-22-53-27-454_1',
'CAP-SMD_BD8.1-L8.3-W8.3-LS9.3-FD~CAP-SMD_BD8.1-L8.3-W8.3-LS9.3-FD~six
Z',$,(#2110));
#2113=PRESENTATION_STYLE_ASSIGNMENT((#2117));
#2114=PRESENTATION_STYLE_ASSIGNMENT((#2118));
#2115=PRESENTATION_STYLE_ASSIGNMENT((#2119));
#2116=PRESENTATION_STYLE_ASSIGNMENT((#2120));
#2117=SURFACE_STYLE_USAGE(.BOTH.,#2121);
#2118=SURFACE_STYLE_USAGE(.BOTH.,#2122);
#2119=SURFACE_STYLE_USAGE(.BOTH.,#2123);
#2120=SURFACE_STYLE_USAGE(.BOTH.,#2124);
#2121=SURFACE_SIDE_STYLE('',(#2125));
#2122=SURFACE_SIDE_STYLE('',(#2126));
#2123=SURFACE_SIDE_STYLE('',(#2127));
#2124=SURFACE_SIDE_STYLE('',(#2128));
#2125=SURFACE_STYLE_FILL_AREA(#2129);
#2126=SURFACE_STYLE_FILL_AREA(#2130);
#2127=SURFACE_STYLE_FILL_AREA(#2131);
#2128=SURFACE_STYLE_FILL_AREA(#2132);
#2129=FILL_AREA_STYLE('\X2\94A2\X0\ - \X2\7F0E5149\X0\',(#2133));
#2130=FILL_AREA_STYLE('Opaque(128,64,64)',(#2134));
#2131=FILL_AREA_STYLE('Opaque(255,255,255)',(#2135));
#2132=FILL_AREA_STYLE('Opaque(64,64,64)',(#2136));
#2133=FILL_AREA_STYLE_COLOUR('\X2\94A2\X0\ - \X2\7F0E5149\X0\',#2137);
#2134=FILL_AREA_STYLE_COLOUR('Opaque(128,64,64)',#2138);
#2135=FILL_AREA_STYLE_COLOUR('Opaque(255,255,255)',#2139);
#2136=FILL_AREA_STYLE_COLOUR('Opaque(64,64,64)',#2140);
#2137=COLOUR_RGB('\X2\94A2\X0\ - \X2\7F0E5149\X0\',0.627450980392157,0.627450980392157,
0.627450980392157);
#2138=COLOUR_RGB('Opaque(128,64,64)',0.501960784313725,0.250980392156863,
0.250980392156863);
#2139=COLOUR_RGB('Opaque(255,255,255)',1.,1.,1.);
#2140=COLOUR_RGB('Opaque(64,64,64)',0.250980392156863,0.250980392156863,
0.250980392156863);
ENDSEC;
END-ISO-10303-21;
