ISO-10303-21;
HEADER;
/* Generated by software containing ST-Developer
 * from STEP Tools, Inc. (www.steptools.com) 
 */

FILE_DESCRIPTION(
/* description */ (''),
/* implementation_level */ '2;1');

FILE_NAME(
/* name */ 'Aluminum Electrolytic Capacitors-6.3x5.8.step',
/* time_stamp */ '2025-09-08T22:48:49+08:00',
/* author */ (''),
/* organization */ (''),
/* preprocessor_version */ 'ST-DEVELOPER v20.1',
/* originating_system */ 'Autodesk Translation Framework v14.10.0.0',
/* authorisation */ '');

FILE_SCHEMA (('AUTOMOTIVE_DESIGN { 1 0 10303 214 3 1 1 }'));
ENDSEC;

DATA;
#10=MECHANICAL_DESIGN_GEOMETRIC_PRESENTATION_REPRESENTATION('',(#972,#973,
#974,#975,#976,#977,#978,#979,#980,#981,#982,#983,#984,#985,#986,#987,#988,
#989,#990,#991,#992,#993,#994,#995,#996,#997,#998,#999,#1000,#1001,#1002,
#1003,#1004,#1005,#1006,#1007,#1008,#1009,#1010,#1011,#1012,#1013,#1014,
#1015,#1016,#1017,#1018,#1019,#1020,#1021,#1022,#1023,#1024,#1025,#1026),
#1751);
#11=SHAPE_REPRESENTATION_RELATIONSHIP('SRR','None',#1758,#12);
#12=ADVANCED_BREP_SHAPE_REPRESENTATION('',(#13),#1750);
#13=MANIFOLD_SOLID_BREP('\X2\5B9E4F53\X0\1',#1081);
#14=FACE_BOUND('',#382,.T.);
#15=PLANE('',#1117);
#16=PLANE('',#1118);
#17=PLANE('',#1125);
#18=PLANE('',#1126);
#19=PLANE('',#1127);
#20=PLANE('',#1128);
#21=PLANE('',#1129);
#22=PLANE('',#1130);
#23=PLANE('',#1131);
#24=PLANE('',#1133);
#25=PLANE('',#1139);
#26=PLANE('',#1140);
#27=PLANE('',#1141);
#28=PLANE('',#1142);
#29=PLANE('',#1143);
#30=PLANE('',#1144);
#31=PLANE('',#1145);
#32=PLANE('',#1146);
#33=PLANE('',#1147);
#34=PLANE('',#1148);
#35=PLANE('',#1149);
#36=PLANE('',#1150);
#37=PLANE('',#1151);
#38=PLANE('',#1152);
#39=PLANE('',#1153);
#40=PLANE('',#1154);
#41=PLANE('',#1155);
#42=PLANE('',#1156);
#43=PLANE('',#1157);
#44=PLANE('',#1158);
#45=PLANE('',#1159);
#46=PLANE('',#1160);
#47=PLANE('',#1161);
#48=PLANE('',#1162);
#49=PLANE('',#1163);
#50=PLANE('',#1164);
#51=PLANE('',#1165);
#52=PLANE('',#1166);
#53=PLANE('',#1167);
#54=PLANE('',#1168);
#55=PLANE('',#1171);
#56=PLANE('',#1172);
#57=PLANE('',#1173);
#58=LINE('',#1486,#178);
#59=LINE('',#1490,#179);
#60=LINE('',#1494,#180);
#61=LINE('',#1496,#181);
#62=LINE('',#1498,#182);
#63=LINE('',#1500,#183);
#64=LINE('',#1502,#184);
#65=LINE('',#1504,#185);
#66=LINE('',#1506,#186);
#67=LINE('',#1507,#187);
#68=LINE('',#1511,#188);
#69=LINE('',#1513,#189);
#70=LINE('',#1515,#190);
#71=LINE('',#1517,#191);
#72=LINE('',#1519,#192);
#73=LINE('',#1521,#193);
#74=LINE('',#1523,#194);
#75=LINE('',#1524,#195);
#76=LINE('',#1528,#196);
#77=LINE('',#1532,#197);
#78=LINE('',#1537,#198);
#79=LINE('',#1541,#199);
#80=LINE('',#1546,#200);
#81=LINE('',#1548,#201);
#82=LINE('',#1550,#202);
#83=LINE('',#1552,#203);
#84=LINE('',#1554,#204);
#85=LINE('',#1556,#205);
#86=LINE('',#1558,#206);
#87=LINE('',#1559,#207);
#88=LINE('',#1561,#208);
#89=LINE('',#1563,#209);
#90=LINE('',#1565,#210);
#91=LINE('',#1567,#211);
#92=LINE('',#1569,#212);
#93=LINE('',#1571,#213);
#94=LINE('',#1573,#214);
#95=LINE('',#1575,#215);
#96=LINE('',#1577,#216);
#97=LINE('',#1579,#217);
#98=LINE('',#1581,#218);
#99=LINE('',#1582,#219);
#100=LINE('',#1584,#220);
#101=LINE('',#1585,#221);
#102=LINE('',#1587,#222);
#103=LINE('',#1588,#223);
#104=LINE('',#1590,#224);
#105=LINE('',#1591,#225);
#106=LINE('',#1594,#226);
#107=LINE('',#1596,#227);
#108=LINE('',#1597,#228);
#109=LINE('',#1603,#229);
#110=LINE('',#1605,#230);
#111=LINE('',#1607,#231);
#112=LINE('',#1608,#232);
#113=LINE('',#1611,#233);
#114=LINE('',#1615,#234);
#115=LINE('',#1616,#235);
#116=LINE('',#1621,#236);
#117=LINE('',#1622,#237);
#118=LINE('',#1625,#238);
#119=LINE('',#1628,#239);
#120=LINE('',#1632,#240);
#121=LINE('',#1633,#241);
#122=LINE('',#1634,#242);
#123=LINE('',#1636,#243);
#124=LINE('',#1637,#244);
#125=LINE('',#1639,#245);
#126=LINE('',#1641,#246);
#127=LINE('',#1642,#247);
#128=LINE('',#1643,#248);
#129=LINE('',#1647,#249);
#130=LINE('',#1648,#250);
#131=LINE('',#1650,#251);
#132=LINE('',#1651,#252);
#133=LINE('',#1653,#253);
#134=LINE('',#1655,#254);
#135=LINE('',#1656,#255);
#136=LINE('',#1657,#256);
#137=LINE('',#1658,#257);
#138=LINE('',#1660,#258);
#139=LINE('',#1662,#259);
#140=LINE('',#1663,#260);
#141=LINE('',#1664,#261);
#142=LINE('',#1665,#262);
#143=LINE('',#1670,#263);
#144=LINE('',#1673,#264);
#145=LINE('',#1674,#265);
#146=LINE('',#1676,#266);
#147=LINE('',#1678,#267);
#148=LINE('',#1680,#268);
#149=LINE('',#1683,#269);
#150=LINE('',#1685,#270);
#151=LINE('',#1688,#271);
#152=LINE('',#1690,#272);
#153=LINE('',#1694,#273);
#154=LINE('',#1696,#274);
#155=LINE('',#1697,#275);
#156=LINE('',#1700,#276);
#157=LINE('',#1702,#277);
#158=LINE('',#1703,#278);
#159=LINE('',#1706,#279);
#160=LINE('',#1707,#280);
#161=LINE('',#1710,#281);
#162=LINE('',#1711,#282);
#163=LINE('',#1713,#283);
#164=LINE('',#1717,#284);
#165=LINE('',#1719,#285);
#166=LINE('',#1720,#286);
#167=LINE('',#1723,#287);
#168=LINE('',#1725,#288);
#169=LINE('',#1726,#289);
#170=LINE('',#1729,#290);
#171=LINE('',#1730,#291);
#172=LINE('',#1733,#292);
#173=LINE('',#1734,#293);
#174=LINE('',#1736,#294);
#175=LINE('',#1740,#295);
#176=LINE('',#1742,#296);
#177=LINE('',#1745,#297);
#178=VECTOR('',#1216,3.149999917697);
#179=VECTOR('',#1221,3.149999917697);
#180=VECTOR('',#1224,1.);
#181=VECTOR('',#1225,1.);
#182=VECTOR('',#1226,1.);
#183=VECTOR('',#1227,1.);
#184=VECTOR('',#1228,1.);
#185=VECTOR('',#1229,1.);
#186=VECTOR('',#1230,1.);
#187=VECTOR('',#1231,1.);
#188=VECTOR('',#1234,1.);
#189=VECTOR('',#1235,1.);
#190=VECTOR('',#1236,1.);
#191=VECTOR('',#1237,1.);
#192=VECTOR('',#1238,1.);
#193=VECTOR('',#1239,1.);
#194=VECTOR('',#1240,1.);
#195=VECTOR('',#1241,1.);
#196=VECTOR('',#1244,1.);
#197=VECTOR('',#1247,1.);
#198=VECTOR('',#1252,1.);
#199=VECTOR('',#1255,1.);
#200=VECTOR('',#1260,1.);
#201=VECTOR('',#1261,1.);
#202=VECTOR('',#1262,1.);
#203=VECTOR('',#1263,1.);
#204=VECTOR('',#1264,1.);
#205=VECTOR('',#1265,1.);
#206=VECTOR('',#1266,1.);
#207=VECTOR('',#1267,1.);
#208=VECTOR('',#1270,1.);
#209=VECTOR('',#1271,1.);
#210=VECTOR('',#1272,1.);
#211=VECTOR('',#1273,1.);
#212=VECTOR('',#1274,1.);
#213=VECTOR('',#1275,1.);
#214=VECTOR('',#1276,1.);
#215=VECTOR('',#1277,1.);
#216=VECTOR('',#1278,1.);
#217=VECTOR('',#1279,1.);
#218=VECTOR('',#1280,1.);
#219=VECTOR('',#1281,1.);
#220=VECTOR('',#1284,1.);
#221=VECTOR('',#1285,1.);
#222=VECTOR('',#1288,1.);
#223=VECTOR('',#1289,1.);
#224=VECTOR('',#1292,1.);
#225=VECTOR('',#1293,1.);
#226=VECTOR('',#1296,1.);
#227=VECTOR('',#1297,1.);
#228=VECTOR('',#1298,1.);
#229=VECTOR('',#1303,1.);
#230=VECTOR('',#1304,1.);
#231=VECTOR('',#1305,1.);
#232=VECTOR('',#1306,1.);
#233=VECTOR('',#1309,1.);
#234=VECTOR('',#1312,1.);
#235=VECTOR('',#1313,1.);
#236=VECTOR('',#1318,1.);
#237=VECTOR('',#1319,1.);
#238=VECTOR('',#1322,1.);
#239=VECTOR('',#1325,1.);
#240=VECTOR('',#1328,1.);
#241=VECTOR('',#1329,1.);
#242=VECTOR('',#1330,1.);
#243=VECTOR('',#1331,1.);
#244=VECTOR('',#1332,1.);
#245=VECTOR('',#1333,1.);
#246=VECTOR('',#1334,1.);
#247=VECTOR('',#1335,1.);
#248=VECTOR('',#1336,1.);
#249=VECTOR('',#1339,1.);
#250=VECTOR('',#1340,1.);
#251=VECTOR('',#1341,1.);
#252=VECTOR('',#1342,1.00000000000064);
#253=VECTOR('',#1343,1.);
#254=VECTOR('',#1344,1.);
#255=VECTOR('',#1345,1.);
#256=VECTOR('',#1346,1.00000000000064);
#257=VECTOR('',#1347,1.);
#258=VECTOR('',#1350,1.);
#259=VECTOR('',#1351,1.);
#260=VECTOR('',#1352,1.);
#261=VECTOR('',#1353,1.);
#262=VECTOR('',#1354,1.);
#263=VECTOR('',#1363,1.);
#264=VECTOR('',#1366,1.00000000000064);
#265=VECTOR('',#1367,1.);
#266=VECTOR('',#1370,1.00000000000064);
#267=VECTOR('',#1373,1.);
#268=VECTOR('',#1376,1.);
#269=VECTOR('',#1381,1.);
#270=VECTOR('',#1384,1.);
#271=VECTOR('',#1389,1.);
#272=VECTOR('',#1392,1.);
#273=VECTOR('',#1397,1.);
#274=VECTOR('',#1398,1.);
#275=VECTOR('',#1399,1.);
#276=VECTOR('',#1402,1.);
#277=VECTOR('',#1403,1.);
#278=VECTOR('',#1404,1.);
#279=VECTOR('',#1407,1.);
#280=VECTOR('',#1408,1.);
#281=VECTOR('',#1411,1.);
#282=VECTOR('',#1412,1.);
#283=VECTOR('',#1415,1.);
#284=VECTOR('',#1420,1.);
#285=VECTOR('',#1421,1.);
#286=VECTOR('',#1422,1.);
#287=VECTOR('',#1425,1.);
#288=VECTOR('',#1426,1.);
#289=VECTOR('',#1427,1.);
#290=VECTOR('',#1430,1.);
#291=VECTOR('',#1431,1.);
#292=VECTOR('',#1434,1.);
#293=VECTOR('',#1435,1.);
#294=VECTOR('',#1438,1.);
#295=VECTOR('',#1443,1.);
#296=VECTOR('',#1444,1.);
#297=VECTOR('',#1449,1.);
#298=CYLINDRICAL_SURFACE('',#1114,3.149999917697);
#299=CYLINDRICAL_SURFACE('',#1115,3.149999917697);
#300=CYLINDRICAL_SURFACE('',#1119,3.249999915084);
#301=CYLINDRICAL_SURFACE('',#1122,3.249999915084);
#302=CYLINDRICAL_SURFACE('',#1135,3.249999915084);
#303=CYLINDRICAL_SURFACE('',#1137,3.249999915084);
#304=CYLINDRICAL_SURFACE('',#1169,2.949999922922);
#305=FACE_OUTER_BOUND('',#359,.T.);
#306=FACE_OUTER_BOUND('',#360,.T.);
#307=FACE_OUTER_BOUND('',#361,.T.);
#308=FACE_OUTER_BOUND('',#362,.T.);
#309=FACE_OUTER_BOUND('',#363,.T.);
#310=FACE_OUTER_BOUND('',#364,.T.);
#311=FACE_OUTER_BOUND('',#365,.T.);
#312=FACE_OUTER_BOUND('',#366,.T.);
#313=FACE_OUTER_BOUND('',#367,.T.);
#314=FACE_OUTER_BOUND('',#368,.T.);
#315=FACE_OUTER_BOUND('',#369,.T.);
#316=FACE_OUTER_BOUND('',#370,.T.);
#317=FACE_OUTER_BOUND('',#371,.T.);
#318=FACE_OUTER_BOUND('',#372,.T.);
#319=FACE_OUTER_BOUND('',#373,.T.);
#320=FACE_OUTER_BOUND('',#374,.T.);
#321=FACE_OUTER_BOUND('',#375,.T.);
#322=FACE_OUTER_BOUND('',#376,.T.);
#323=FACE_OUTER_BOUND('',#377,.T.);
#324=FACE_OUTER_BOUND('',#378,.T.);
#325=FACE_OUTER_BOUND('',#379,.T.);
#326=FACE_OUTER_BOUND('',#380,.T.);
#327=FACE_OUTER_BOUND('',#381,.T.);
#328=FACE_OUTER_BOUND('',#383,.T.);
#329=FACE_OUTER_BOUND('',#384,.T.);
#330=FACE_OUTER_BOUND('',#385,.T.);
#331=FACE_OUTER_BOUND('',#386,.T.);
#332=FACE_OUTER_BOUND('',#387,.T.);
#333=FACE_OUTER_BOUND('',#388,.T.);
#334=FACE_OUTER_BOUND('',#389,.T.);
#335=FACE_OUTER_BOUND('',#390,.T.);
#336=FACE_OUTER_BOUND('',#391,.T.);
#337=FACE_OUTER_BOUND('',#392,.T.);
#338=FACE_OUTER_BOUND('',#393,.T.);
#339=FACE_OUTER_BOUND('',#394,.T.);
#340=FACE_OUTER_BOUND('',#395,.T.);
#341=FACE_OUTER_BOUND('',#396,.T.);
#342=FACE_OUTER_BOUND('',#397,.T.);
#343=FACE_OUTER_BOUND('',#398,.T.);
#344=FACE_OUTER_BOUND('',#399,.T.);
#345=FACE_OUTER_BOUND('',#400,.T.);
#346=FACE_OUTER_BOUND('',#401,.T.);
#347=FACE_OUTER_BOUND('',#402,.T.);
#348=FACE_OUTER_BOUND('',#403,.T.);
#349=FACE_OUTER_BOUND('',#404,.T.);
#350=FACE_OUTER_BOUND('',#405,.T.);
#351=FACE_OUTER_BOUND('',#406,.T.);
#352=FACE_OUTER_BOUND('',#407,.T.);
#353=FACE_OUTER_BOUND('',#408,.T.);
#354=FACE_OUTER_BOUND('',#409,.T.);
#355=FACE_OUTER_BOUND('',#410,.T.);
#356=FACE_OUTER_BOUND('',#411,.T.);
#357=FACE_OUTER_BOUND('',#412,.T.);
#358=FACE_OUTER_BOUND('',#413,.T.);
#359=EDGE_LOOP('',(#678,#679,#680,#681,#682,#683));
#360=EDGE_LOOP('',(#684,#685,#686,#687,#688,#689,#690));
#361=EDGE_LOOP('',(#691,#692,#693,#694,#695));
#362=EDGE_LOOP('',(#696,#697,#698,#699,#700));
#363=EDGE_LOOP('',(#701,#702,#703,#704,#705));
#364=EDGE_LOOP('',(#706,#707,#708,#709));
#365=EDGE_LOOP('',(#710,#711,#712,#713,#714,#715,#716,#717));
#366=EDGE_LOOP('',(#718,#719,#720,#721,#722,#723,#724,#725));
#367=EDGE_LOOP('',(#726,#727,#728,#729));
#368=EDGE_LOOP('',(#730,#731,#732,#733));
#369=EDGE_LOOP('',(#734,#735,#736,#737,#738,#739,#740,#741));
#370=EDGE_LOOP('',(#742,#743,#744,#745,#746,#747,#748,#749,#750,#751,#752,
#753,#754,#755));
#371=EDGE_LOOP('',(#756,#757,#758,#759));
#372=EDGE_LOOP('',(#760,#761,#762,#763));
#373=EDGE_LOOP('',(#764,#765,#766,#767));
#374=EDGE_LOOP('',(#768,#769,#770,#771));
#375=EDGE_LOOP('',(#772,#773,#774,#775,#776));
#376=EDGE_LOOP('',(#777,#778,#779,#780,#781));
#377=EDGE_LOOP('',(#782,#783,#784,#785));
#378=EDGE_LOOP('',(#786,#787,#788,#789));
#379=EDGE_LOOP('',(#790,#791,#792,#793,#794,#795,#796,#797,#798,#799,#800,
#801,#802,#803));
#380=EDGE_LOOP('',(#804,#805,#806,#807,#808,#809,#810,#811,#812,#813,#814,
#815,#816,#817));
#381=EDGE_LOOP('',(#818,#819,#820,#821,#822,#823,#824,#825,#826,#827,#828,
#829,#830,#831,#832,#833));
#382=EDGE_LOOP('',(#834));
#383=EDGE_LOOP('',(#835,#836,#837,#838));
#384=EDGE_LOOP('',(#839,#840,#841,#842));
#385=EDGE_LOOP('',(#843,#844,#845,#846));
#386=EDGE_LOOP('',(#847,#848,#849,#850));
#387=EDGE_LOOP('',(#851,#852,#853,#854,#855,#856));
#388=EDGE_LOOP('',(#857,#858,#859,#860,#861,#862));
#389=EDGE_LOOP('',(#863,#864));
#390=EDGE_LOOP('',(#865,#866,#867,#868));
#391=EDGE_LOOP('',(#869,#870,#871,#872));
#392=EDGE_LOOP('',(#873,#874,#875,#876));
#393=EDGE_LOOP('',(#877,#878,#879,#880));
#394=EDGE_LOOP('',(#881,#882,#883,#884));
#395=EDGE_LOOP('',(#885,#886,#887,#888));
#396=EDGE_LOOP('',(#889,#890,#891,#892));
#397=EDGE_LOOP('',(#893,#894,#895,#896));
#398=EDGE_LOOP('',(#897,#898,#899,#900));
#399=EDGE_LOOP('',(#901,#902,#903,#904,#905));
#400=EDGE_LOOP('',(#906,#907,#908,#909));
#401=EDGE_LOOP('',(#910,#911,#912,#913,#914));
#402=EDGE_LOOP('',(#915,#916,#917,#918));
#403=EDGE_LOOP('',(#919,#920,#921,#922));
#404=EDGE_LOOP('',(#923,#924,#925,#926));
#405=EDGE_LOOP('',(#927,#928,#929,#930,#931));
#406=EDGE_LOOP('',(#932,#933,#934,#935));
#407=EDGE_LOOP('',(#936,#937,#938,#939,#940));
#408=EDGE_LOOP('',(#941,#942,#943,#944));
#409=EDGE_LOOP('',(#945,#946,#947,#948));
#410=EDGE_LOOP('',(#949,#950,#951,#952,#953));
#411=EDGE_LOOP('',(#954,#955,#956,#957));
#412=EDGE_LOOP('',(#958,#959));
#413=EDGE_LOOP('',(#960,#961,#962,#963,#964,#965,#966,#967));
#414=CIRCLE('',#1096,3.096459289278);
#415=CIRCLE('',#1097,0.332903357113);
#416=CIRCLE('',#1098,3.096459289278);
#417=CIRCLE('',#1099,3.096459289278);
#418=CIRCLE('',#1100,3.096459289278);
#419=CIRCLE('',#1102,2.949999922922);
#420=CIRCLE('',#1103,2.949999922922);
#421=CIRCLE('',#1104,2.949999922922);
#422=CIRCLE('',#1105,0.199999994774);
#423=CIRCLE('',#1106,3.149999917697);
#424=CIRCLE('',#1107,3.149999917697);
#425=CIRCLE('',#1109,3.149999917697);
#426=CIRCLE('',#1110,0.199999994774);
#427=CIRCLE('',#1112,0.199999994774);
#428=CIRCLE('',#1113,3.149999917697);
#429=CIRCLE('',#1116,3.149999917697);
#430=CIRCLE('',#1120,3.249999915084);
#431=CIRCLE('',#1121,3.249999915084);
#432=CIRCLE('',#1123,3.249999915084);
#433=CIRCLE('',#1124,3.249999915084);
#434=CIRCLE('',#1132,3.249999915084);
#435=CIRCLE('',#1134,3.249999915084);
#436=CIRCLE('',#1136,3.249999915084);
#437=CIRCLE('',#1138,3.249999915084);
#438=CIRCLE('',#1170,2.949999922922);
#439=VERTEX_POINT('',#1456);
#440=VERTEX_POINT('',#1457);
#441=VERTEX_POINT('',#1459);
#442=VERTEX_POINT('',#1461);
#443=VERTEX_POINT('',#1466);
#444=VERTEX_POINT('',#1467);
#445=VERTEX_POINT('',#1469);
#446=VERTEX_POINT('',#1472);
#447=VERTEX_POINT('',#1474);
#448=VERTEX_POINT('',#1478);
#449=VERTEX_POINT('',#1482);
#450=VERTEX_POINT('',#1488);
#451=VERTEX_POINT('',#1492);
#452=VERTEX_POINT('',#1493);
#453=VERTEX_POINT('',#1495);
#454=VERTEX_POINT('',#1497);
#455=VERTEX_POINT('',#1499);
#456=VERTEX_POINT('',#1501);
#457=VERTEX_POINT('',#1503);
#458=VERTEX_POINT('',#1505);
#459=VERTEX_POINT('',#1509);
#460=VERTEX_POINT('',#1510);
#461=VERTEX_POINT('',#1512);
#462=VERTEX_POINT('',#1514);
#463=VERTEX_POINT('',#1516);
#464=VERTEX_POINT('',#1518);
#465=VERTEX_POINT('',#1520);
#466=VERTEX_POINT('',#1522);
#467=VERTEX_POINT('',#1526);
#468=VERTEX_POINT('',#1527);
#469=VERTEX_POINT('',#1529);
#470=VERTEX_POINT('',#1531);
#471=VERTEX_POINT('',#1535);
#472=VERTEX_POINT('',#1536);
#473=VERTEX_POINT('',#1538);
#474=VERTEX_POINT('',#1540);
#475=VERTEX_POINT('',#1544);
#476=VERTEX_POINT('',#1545);
#477=VERTEX_POINT('',#1547);
#478=VERTEX_POINT('',#1549);
#479=VERTEX_POINT('',#1551);
#480=VERTEX_POINT('',#1553);
#481=VERTEX_POINT('',#1555);
#482=VERTEX_POINT('',#1557);
#483=VERTEX_POINT('',#1562);
#484=VERTEX_POINT('',#1564);
#485=VERTEX_POINT('',#1566);
#486=VERTEX_POINT('',#1568);
#487=VERTEX_POINT('',#1570);
#488=VERTEX_POINT('',#1572);
#489=VERTEX_POINT('',#1574);
#490=VERTEX_POINT('',#1576);
#491=VERTEX_POINT('',#1578);
#492=VERTEX_POINT('',#1580);
#493=VERTEX_POINT('',#1593);
#494=VERTEX_POINT('',#1595);
#495=VERTEX_POINT('',#1599);
#496=VERTEX_POINT('',#1600);
#497=VERTEX_POINT('',#1602);
#498=VERTEX_POINT('',#1604);
#499=VERTEX_POINT('',#1606);
#500=VERTEX_POINT('',#1610);
#501=VERTEX_POINT('',#1612);
#502=VERTEX_POINT('',#1614);
#503=VERTEX_POINT('',#1618);
#504=VERTEX_POINT('',#1619);
#505=VERTEX_POINT('',#1624);
#506=VERTEX_POINT('',#1626);
#507=VERTEX_POINT('',#1630);
#508=VERTEX_POINT('',#1631);
#509=VERTEX_POINT('',#1635);
#510=VERTEX_POINT('',#1638);
#511=VERTEX_POINT('',#1640);
#512=VERTEX_POINT('',#1645);
#513=VERTEX_POINT('',#1646);
#514=VERTEX_POINT('',#1649);
#515=VERTEX_POINT('',#1652);
#516=VERTEX_POINT('',#1654);
#517=VERTEX_POINT('',#1661);
#518=VERTEX_POINT('',#1672);
#519=VERTEX_POINT('',#1693);
#520=VERTEX_POINT('',#1695);
#521=VERTEX_POINT('',#1699);
#522=VERTEX_POINT('',#1701);
#523=VERTEX_POINT('',#1705);
#524=VERTEX_POINT('',#1709);
#525=VERTEX_POINT('',#1716);
#526=VERTEX_POINT('',#1718);
#527=VERTEX_POINT('',#1722);
#528=VERTEX_POINT('',#1724);
#529=VERTEX_POINT('',#1728);
#530=VERTEX_POINT('',#1732);
#531=VERTEX_POINT('',#1739);
#532=VERTEX_POINT('',#1741);
#533=EDGE_CURVE('',#439,#440,#414,.T.);
#534=EDGE_CURVE('',#440,#441,#415,.T.);
#535=EDGE_CURVE('',#441,#442,#416,.T.);
#536=EDGE_CURVE('',#442,#441,#417,.T.);
#537=EDGE_CURVE('',#440,#439,#418,.T.);
#538=EDGE_CURVE('',#443,#444,#419,.T.);
#539=EDGE_CURVE('',#445,#443,#420,.T.);
#540=EDGE_CURVE('',#444,#445,#421,.T.);
#541=EDGE_CURVE('',#444,#446,#422,.T.);
#542=EDGE_CURVE('',#447,#446,#423,.T.);
#543=EDGE_CURVE('',#446,#447,#424,.T.);
#544=EDGE_CURVE('',#448,#448,#425,.T.);
#545=EDGE_CURVE('',#448,#442,#426,.T.);
#546=EDGE_CURVE('',#439,#449,#427,.T.);
#547=EDGE_CURVE('',#449,#449,#428,.T.);
#548=EDGE_CURVE('',#449,#447,#58,.T.);
#549=EDGE_CURVE('',#450,#450,#429,.T.);
#550=EDGE_CURVE('',#450,#448,#59,.T.);
#551=EDGE_CURVE('',#451,#452,#60,.T.);
#552=EDGE_CURVE('',#453,#451,#61,.T.);
#553=EDGE_CURVE('',#454,#453,#62,.T.);
#554=EDGE_CURVE('',#455,#454,#63,.T.);
#555=EDGE_CURVE('',#455,#456,#64,.T.);
#556=EDGE_CURVE('',#456,#457,#65,.T.);
#557=EDGE_CURVE('',#457,#458,#66,.T.);
#558=EDGE_CURVE('',#452,#458,#67,.T.);
#559=EDGE_CURVE('',#459,#460,#68,.T.);
#560=EDGE_CURVE('',#459,#461,#69,.T.);
#561=EDGE_CURVE('',#461,#462,#70,.T.);
#562=EDGE_CURVE('',#462,#463,#71,.T.);
#563=EDGE_CURVE('',#463,#464,#72,.T.);
#564=EDGE_CURVE('',#464,#465,#73,.T.);
#565=EDGE_CURVE('',#465,#466,#74,.T.);
#566=EDGE_CURVE('',#460,#466,#75,.T.);
#567=EDGE_CURVE('',#467,#468,#76,.T.);
#568=EDGE_CURVE('',#469,#467,#430,.T.);
#569=EDGE_CURVE('',#470,#469,#77,.T.);
#570=EDGE_CURVE('',#468,#470,#431,.T.);
#571=EDGE_CURVE('',#471,#472,#78,.T.);
#572=EDGE_CURVE('',#473,#471,#432,.T.);
#573=EDGE_CURVE('',#474,#473,#79,.T.);
#574=EDGE_CURVE('',#472,#474,#433,.T.);
#575=EDGE_CURVE('',#475,#476,#80,.T.);
#576=EDGE_CURVE('',#476,#477,#81,.T.);
#577=EDGE_CURVE('',#478,#477,#82,.T.);
#578=EDGE_CURVE('',#479,#478,#83,.T.);
#579=EDGE_CURVE('',#480,#479,#84,.T.);
#580=EDGE_CURVE('',#481,#480,#85,.T.);
#581=EDGE_CURVE('',#482,#481,#86,.T.);
#582=EDGE_CURVE('',#482,#475,#87,.T.);
#583=EDGE_CURVE('',#454,#452,#88,.T.);
#584=EDGE_CURVE('',#458,#483,#89,.T.);
#585=EDGE_CURVE('',#483,#484,#90,.T.);
#586=EDGE_CURVE('',#484,#485,#91,.T.);
#587=EDGE_CURVE('',#486,#485,#92,.T.);
#588=EDGE_CURVE('',#486,#487,#93,.T.);
#589=EDGE_CURVE('',#488,#487,#94,.T.);
#590=EDGE_CURVE('',#489,#488,#95,.T.);
#591=EDGE_CURVE('',#490,#489,#96,.T.);
#592=EDGE_CURVE('',#490,#491,#97,.T.);
#593=EDGE_CURVE('',#491,#492,#98,.T.);
#594=EDGE_CURVE('',#492,#455,#99,.T.);
#595=EDGE_CURVE('',#489,#473,#100,.T.);
#596=EDGE_CURVE('',#474,#488,#101,.T.);
#597=EDGE_CURVE('',#467,#486,#102,.T.);
#598=EDGE_CURVE('',#487,#468,#103,.T.);
#599=EDGE_CURVE('',#471,#478,#104,.T.);
#600=EDGE_CURVE('',#479,#472,#105,.T.);
#601=EDGE_CURVE('',#493,#469,#106,.T.);
#602=EDGE_CURVE('',#493,#494,#107,.T.);
#603=EDGE_CURVE('',#470,#494,#108,.T.);
#604=EDGE_CURVE('',#495,#496,#434,.T.);
#605=EDGE_CURVE('',#497,#495,#109,.T.);
#606=EDGE_CURVE('',#497,#498,#110,.T.);
#607=EDGE_CURVE('',#498,#499,#111,.T.);
#608=EDGE_CURVE('',#499,#496,#112,.T.);
#609=EDGE_CURVE('',#500,#481,#113,.T.);
#610=EDGE_CURVE('',#501,#500,#435,.T.);
#611=EDGE_CURVE('',#501,#502,#114,.T.);
#612=EDGE_CURVE('',#502,#482,#115,.T.);
#613=EDGE_CURVE('',#503,#504,#436,.T.);
#614=EDGE_CURVE('',#495,#503,#116,.T.);
#615=EDGE_CURVE('',#504,#496,#117,.T.);
#616=EDGE_CURVE('',#505,#500,#118,.T.);
#617=EDGE_CURVE('',#506,#505,#437,.T.);
#618=EDGE_CURVE('',#501,#506,#119,.T.);
#619=EDGE_CURVE('',#507,#508,#120,.T.);
#620=EDGE_CURVE('',#508,#462,#121,.T.);
#621=EDGE_CURVE('',#466,#461,#122,.T.);
#622=EDGE_CURVE('',#465,#509,#123,.T.);
#623=EDGE_CURVE('',#509,#475,#124,.T.);
#624=EDGE_CURVE('',#502,#510,#125,.T.);
#625=EDGE_CURVE('',#511,#510,#126,.T.);
#626=EDGE_CURVE('',#499,#511,#127,.T.);
#627=EDGE_CURVE('',#498,#507,#128,.T.);
#628=EDGE_CURVE('',#512,#513,#129,.T.);
#629=EDGE_CURVE('',#512,#508,#130,.T.);
#630=EDGE_CURVE('',#514,#507,#131,.T.);
#631=EDGE_CURVE('',#514,#484,#132,.T.);
#632=EDGE_CURVE('',#515,#483,#133,.T.);
#633=EDGE_CURVE('',#516,#515,#134,.T.);
#634=EDGE_CURVE('',#516,#492,#135,.T.);
#635=EDGE_CURVE('',#491,#476,#136,.T.);
#636=EDGE_CURVE('',#513,#509,#137,.T.);
#637=EDGE_CURVE('',#505,#480,#138,.T.);
#638=EDGE_CURVE('',#494,#517,#139,.T.);
#639=EDGE_CURVE('',#517,#503,#140,.T.);
#640=EDGE_CURVE('',#504,#511,#141,.T.);
#641=EDGE_CURVE('',#510,#506,#142,.T.);
#642=EDGE_CURVE('',#517,#497,#143,.T.);
#643=EDGE_CURVE('',#485,#518,#144,.T.);
#644=EDGE_CURVE('',#518,#493,#145,.T.);
#645=EDGE_CURVE('',#477,#490,#146,.T.);
#646=EDGE_CURVE('',#445,#443,#147,.T.);
#647=EDGE_CURVE('',#518,#514,#148,.T.);
#648=EDGE_CURVE('',#457,#515,#149,.T.);
#649=EDGE_CURVE('',#456,#516,#150,.T.);
#650=EDGE_CURVE('',#463,#512,#151,.T.);
#651=EDGE_CURVE('',#464,#513,#152,.T.);
#652=EDGE_CURVE('',#466,#519,#153,.T.);
#653=EDGE_CURVE('',#520,#461,#154,.T.);
#654=EDGE_CURVE('',#519,#520,#155,.T.);
#655=EDGE_CURVE('',#521,#459,#156,.T.);
#656=EDGE_CURVE('',#521,#522,#157,.T.);
#657=EDGE_CURVE('',#522,#520,#158,.T.);
#658=EDGE_CURVE('',#522,#523,#159,.T.);
#659=EDGE_CURVE('',#523,#519,#160,.T.);
#660=EDGE_CURVE('',#523,#524,#161,.T.);
#661=EDGE_CURVE('',#524,#460,#162,.T.);
#662=EDGE_CURVE('',#524,#521,#163,.T.);
#663=EDGE_CURVE('',#525,#454,#164,.T.);
#664=EDGE_CURVE('',#526,#525,#165,.T.);
#665=EDGE_CURVE('',#452,#526,#166,.T.);
#666=EDGE_CURVE('',#527,#526,#167,.T.);
#667=EDGE_CURVE('',#527,#528,#168,.T.);
#668=EDGE_CURVE('',#528,#451,#169,.T.);
#669=EDGE_CURVE('',#528,#529,#170,.T.);
#670=EDGE_CURVE('',#529,#453,#171,.T.);
#671=EDGE_CURVE('',#529,#530,#172,.T.);
#672=EDGE_CURVE('',#530,#525,#173,.T.);
#673=EDGE_CURVE('',#530,#527,#174,.T.);
#674=EDGE_CURVE('',#531,#443,#175,.T.);
#675=EDGE_CURVE('',#532,#445,#176,.T.);
#676=EDGE_CURVE('',#531,#532,#438,.T.);
#677=EDGE_CURVE('',#532,#531,#177,.T.);
#678=ORIENTED_EDGE('',*,*,#533,.T.);
#679=ORIENTED_EDGE('',*,*,#534,.T.);
#680=ORIENTED_EDGE('',*,*,#535,.T.);
#681=ORIENTED_EDGE('',*,*,#536,.T.);
#682=ORIENTED_EDGE('',*,*,#534,.F.);
#683=ORIENTED_EDGE('',*,*,#537,.T.);
#684=ORIENTED_EDGE('',*,*,#538,.F.);
#685=ORIENTED_EDGE('',*,*,#539,.F.);
#686=ORIENTED_EDGE('',*,*,#540,.F.);
#687=ORIENTED_EDGE('',*,*,#541,.T.);
#688=ORIENTED_EDGE('',*,*,#542,.F.);
#689=ORIENTED_EDGE('',*,*,#543,.F.);
#690=ORIENTED_EDGE('',*,*,#541,.F.);
#691=ORIENTED_EDGE('',*,*,#544,.F.);
#692=ORIENTED_EDGE('',*,*,#545,.T.);
#693=ORIENTED_EDGE('',*,*,#535,.F.);
#694=ORIENTED_EDGE('',*,*,#536,.F.);
#695=ORIENTED_EDGE('',*,*,#545,.F.);
#696=ORIENTED_EDGE('',*,*,#533,.F.);
#697=ORIENTED_EDGE('',*,*,#546,.T.);
#698=ORIENTED_EDGE('',*,*,#547,.F.);
#699=ORIENTED_EDGE('',*,*,#546,.F.);
#700=ORIENTED_EDGE('',*,*,#537,.F.);
#701=ORIENTED_EDGE('',*,*,#547,.T.);
#702=ORIENTED_EDGE('',*,*,#548,.T.);
#703=ORIENTED_EDGE('',*,*,#542,.T.);
#704=ORIENTED_EDGE('',*,*,#543,.T.);
#705=ORIENTED_EDGE('',*,*,#548,.F.);
#706=ORIENTED_EDGE('',*,*,#549,.T.);
#707=ORIENTED_EDGE('',*,*,#550,.T.);
#708=ORIENTED_EDGE('',*,*,#544,.T.);
#709=ORIENTED_EDGE('',*,*,#550,.F.);
#710=ORIENTED_EDGE('',*,*,#551,.F.);
#711=ORIENTED_EDGE('',*,*,#552,.F.);
#712=ORIENTED_EDGE('',*,*,#553,.F.);
#713=ORIENTED_EDGE('',*,*,#554,.F.);
#714=ORIENTED_EDGE('',*,*,#555,.T.);
#715=ORIENTED_EDGE('',*,*,#556,.T.);
#716=ORIENTED_EDGE('',*,*,#557,.T.);
#717=ORIENTED_EDGE('',*,*,#558,.F.);
#718=ORIENTED_EDGE('',*,*,#559,.F.);
#719=ORIENTED_EDGE('',*,*,#560,.T.);
#720=ORIENTED_EDGE('',*,*,#561,.T.);
#721=ORIENTED_EDGE('',*,*,#562,.T.);
#722=ORIENTED_EDGE('',*,*,#563,.T.);
#723=ORIENTED_EDGE('',*,*,#564,.T.);
#724=ORIENTED_EDGE('',*,*,#565,.T.);
#725=ORIENTED_EDGE('',*,*,#566,.F.);
#726=ORIENTED_EDGE('',*,*,#567,.F.);
#727=ORIENTED_EDGE('',*,*,#568,.F.);
#728=ORIENTED_EDGE('',*,*,#569,.F.);
#729=ORIENTED_EDGE('',*,*,#570,.F.);
#730=ORIENTED_EDGE('',*,*,#571,.F.);
#731=ORIENTED_EDGE('',*,*,#572,.F.);
#732=ORIENTED_EDGE('',*,*,#573,.F.);
#733=ORIENTED_EDGE('',*,*,#574,.F.);
#734=ORIENTED_EDGE('',*,*,#575,.T.);
#735=ORIENTED_EDGE('',*,*,#576,.T.);
#736=ORIENTED_EDGE('',*,*,#577,.F.);
#737=ORIENTED_EDGE('',*,*,#578,.F.);
#738=ORIENTED_EDGE('',*,*,#579,.F.);
#739=ORIENTED_EDGE('',*,*,#580,.F.);
#740=ORIENTED_EDGE('',*,*,#581,.F.);
#741=ORIENTED_EDGE('',*,*,#582,.T.);
#742=ORIENTED_EDGE('',*,*,#554,.T.);
#743=ORIENTED_EDGE('',*,*,#583,.T.);
#744=ORIENTED_EDGE('',*,*,#558,.T.);
#745=ORIENTED_EDGE('',*,*,#584,.T.);
#746=ORIENTED_EDGE('',*,*,#585,.T.);
#747=ORIENTED_EDGE('',*,*,#586,.T.);
#748=ORIENTED_EDGE('',*,*,#587,.F.);
#749=ORIENTED_EDGE('',*,*,#588,.T.);
#750=ORIENTED_EDGE('',*,*,#589,.F.);
#751=ORIENTED_EDGE('',*,*,#590,.F.);
#752=ORIENTED_EDGE('',*,*,#591,.F.);
#753=ORIENTED_EDGE('',*,*,#592,.T.);
#754=ORIENTED_EDGE('',*,*,#593,.T.);
#755=ORIENTED_EDGE('',*,*,#594,.T.);
#756=ORIENTED_EDGE('',*,*,#573,.T.);
#757=ORIENTED_EDGE('',*,*,#595,.F.);
#758=ORIENTED_EDGE('',*,*,#590,.T.);
#759=ORIENTED_EDGE('',*,*,#596,.F.);
#760=ORIENTED_EDGE('',*,*,#588,.F.);
#761=ORIENTED_EDGE('',*,*,#597,.F.);
#762=ORIENTED_EDGE('',*,*,#567,.T.);
#763=ORIENTED_EDGE('',*,*,#598,.F.);
#764=ORIENTED_EDGE('',*,*,#578,.T.);
#765=ORIENTED_EDGE('',*,*,#599,.F.);
#766=ORIENTED_EDGE('',*,*,#571,.T.);
#767=ORIENTED_EDGE('',*,*,#600,.F.);
#768=ORIENTED_EDGE('',*,*,#569,.T.);
#769=ORIENTED_EDGE('',*,*,#601,.F.);
#770=ORIENTED_EDGE('',*,*,#602,.T.);
#771=ORIENTED_EDGE('',*,*,#603,.F.);
#772=ORIENTED_EDGE('',*,*,#604,.F.);
#773=ORIENTED_EDGE('',*,*,#605,.F.);
#774=ORIENTED_EDGE('',*,*,#606,.T.);
#775=ORIENTED_EDGE('',*,*,#607,.T.);
#776=ORIENTED_EDGE('',*,*,#608,.T.);
#777=ORIENTED_EDGE('',*,*,#581,.T.);
#778=ORIENTED_EDGE('',*,*,#609,.F.);
#779=ORIENTED_EDGE('',*,*,#610,.F.);
#780=ORIENTED_EDGE('',*,*,#611,.T.);
#781=ORIENTED_EDGE('',*,*,#612,.T.);
#782=ORIENTED_EDGE('',*,*,#613,.F.);
#783=ORIENTED_EDGE('',*,*,#614,.F.);
#784=ORIENTED_EDGE('',*,*,#604,.T.);
#785=ORIENTED_EDGE('',*,*,#615,.F.);
#786=ORIENTED_EDGE('',*,*,#610,.T.);
#787=ORIENTED_EDGE('',*,*,#616,.F.);
#788=ORIENTED_EDGE('',*,*,#617,.F.);
#789=ORIENTED_EDGE('',*,*,#618,.F.);
#790=ORIENTED_EDGE('',*,*,#619,.T.);
#791=ORIENTED_EDGE('',*,*,#620,.T.);
#792=ORIENTED_EDGE('',*,*,#561,.F.);
#793=ORIENTED_EDGE('',*,*,#621,.F.);
#794=ORIENTED_EDGE('',*,*,#565,.F.);
#795=ORIENTED_EDGE('',*,*,#622,.T.);
#796=ORIENTED_EDGE('',*,*,#623,.T.);
#797=ORIENTED_EDGE('',*,*,#582,.F.);
#798=ORIENTED_EDGE('',*,*,#612,.F.);
#799=ORIENTED_EDGE('',*,*,#624,.T.);
#800=ORIENTED_EDGE('',*,*,#625,.F.);
#801=ORIENTED_EDGE('',*,*,#626,.F.);
#802=ORIENTED_EDGE('',*,*,#607,.F.);
#803=ORIENTED_EDGE('',*,*,#627,.T.);
#804=ORIENTED_EDGE('',*,*,#628,.F.);
#805=ORIENTED_EDGE('',*,*,#629,.T.);
#806=ORIENTED_EDGE('',*,*,#619,.F.);
#807=ORIENTED_EDGE('',*,*,#630,.F.);
#808=ORIENTED_EDGE('',*,*,#631,.T.);
#809=ORIENTED_EDGE('',*,*,#585,.F.);
#810=ORIENTED_EDGE('',*,*,#632,.F.);
#811=ORIENTED_EDGE('',*,*,#633,.F.);
#812=ORIENTED_EDGE('',*,*,#634,.T.);
#813=ORIENTED_EDGE('',*,*,#593,.F.);
#814=ORIENTED_EDGE('',*,*,#635,.T.);
#815=ORIENTED_EDGE('',*,*,#575,.F.);
#816=ORIENTED_EDGE('',*,*,#623,.F.);
#817=ORIENTED_EDGE('',*,*,#636,.F.);
#818=ORIENTED_EDGE('',*,*,#617,.T.);
#819=ORIENTED_EDGE('',*,*,#637,.T.);
#820=ORIENTED_EDGE('',*,*,#579,.T.);
#821=ORIENTED_EDGE('',*,*,#600,.T.);
#822=ORIENTED_EDGE('',*,*,#574,.T.);
#823=ORIENTED_EDGE('',*,*,#596,.T.);
#824=ORIENTED_EDGE('',*,*,#589,.T.);
#825=ORIENTED_EDGE('',*,*,#598,.T.);
#826=ORIENTED_EDGE('',*,*,#570,.T.);
#827=ORIENTED_EDGE('',*,*,#603,.T.);
#828=ORIENTED_EDGE('',*,*,#638,.T.);
#829=ORIENTED_EDGE('',*,*,#639,.T.);
#830=ORIENTED_EDGE('',*,*,#613,.T.);
#831=ORIENTED_EDGE('',*,*,#640,.T.);
#832=ORIENTED_EDGE('',*,*,#625,.T.);
#833=ORIENTED_EDGE('',*,*,#641,.T.);
#834=ORIENTED_EDGE('',*,*,#549,.F.);
#835=ORIENTED_EDGE('',*,*,#618,.T.);
#836=ORIENTED_EDGE('',*,*,#641,.F.);
#837=ORIENTED_EDGE('',*,*,#624,.F.);
#838=ORIENTED_EDGE('',*,*,#611,.F.);
#839=ORIENTED_EDGE('',*,*,#626,.T.);
#840=ORIENTED_EDGE('',*,*,#640,.F.);
#841=ORIENTED_EDGE('',*,*,#615,.T.);
#842=ORIENTED_EDGE('',*,*,#608,.F.);
#843=ORIENTED_EDGE('',*,*,#616,.T.);
#844=ORIENTED_EDGE('',*,*,#609,.T.);
#845=ORIENTED_EDGE('',*,*,#580,.T.);
#846=ORIENTED_EDGE('',*,*,#637,.F.);
#847=ORIENTED_EDGE('',*,*,#614,.T.);
#848=ORIENTED_EDGE('',*,*,#639,.F.);
#849=ORIENTED_EDGE('',*,*,#642,.T.);
#850=ORIENTED_EDGE('',*,*,#605,.T.);
#851=ORIENTED_EDGE('',*,*,#587,.T.);
#852=ORIENTED_EDGE('',*,*,#643,.T.);
#853=ORIENTED_EDGE('',*,*,#644,.T.);
#854=ORIENTED_EDGE('',*,*,#601,.T.);
#855=ORIENTED_EDGE('',*,*,#568,.T.);
#856=ORIENTED_EDGE('',*,*,#597,.T.);
#857=ORIENTED_EDGE('',*,*,#577,.T.);
#858=ORIENTED_EDGE('',*,*,#645,.T.);
#859=ORIENTED_EDGE('',*,*,#591,.T.);
#860=ORIENTED_EDGE('',*,*,#595,.T.);
#861=ORIENTED_EDGE('',*,*,#572,.T.);
#862=ORIENTED_EDGE('',*,*,#599,.T.);
#863=ORIENTED_EDGE('',*,*,#646,.F.);
#864=ORIENTED_EDGE('',*,*,#539,.T.);
#865=ORIENTED_EDGE('',*,*,#643,.F.);
#866=ORIENTED_EDGE('',*,*,#586,.F.);
#867=ORIENTED_EDGE('',*,*,#631,.F.);
#868=ORIENTED_EDGE('',*,*,#647,.F.);
#869=ORIENTED_EDGE('',*,*,#645,.F.);
#870=ORIENTED_EDGE('',*,*,#576,.F.);
#871=ORIENTED_EDGE('',*,*,#635,.F.);
#872=ORIENTED_EDGE('',*,*,#592,.F.);
#873=ORIENTED_EDGE('',*,*,#557,.F.);
#874=ORIENTED_EDGE('',*,*,#648,.T.);
#875=ORIENTED_EDGE('',*,*,#632,.T.);
#876=ORIENTED_EDGE('',*,*,#584,.F.);
#877=ORIENTED_EDGE('',*,*,#634,.F.);
#878=ORIENTED_EDGE('',*,*,#649,.F.);
#879=ORIENTED_EDGE('',*,*,#555,.F.);
#880=ORIENTED_EDGE('',*,*,#594,.F.);
#881=ORIENTED_EDGE('',*,*,#633,.T.);
#882=ORIENTED_EDGE('',*,*,#648,.F.);
#883=ORIENTED_EDGE('',*,*,#556,.F.);
#884=ORIENTED_EDGE('',*,*,#649,.T.);
#885=ORIENTED_EDGE('',*,*,#629,.F.);
#886=ORIENTED_EDGE('',*,*,#650,.F.);
#887=ORIENTED_EDGE('',*,*,#562,.F.);
#888=ORIENTED_EDGE('',*,*,#620,.F.);
#889=ORIENTED_EDGE('',*,*,#564,.F.);
#890=ORIENTED_EDGE('',*,*,#651,.T.);
#891=ORIENTED_EDGE('',*,*,#636,.T.);
#892=ORIENTED_EDGE('',*,*,#622,.F.);
#893=ORIENTED_EDGE('',*,*,#628,.T.);
#894=ORIENTED_EDGE('',*,*,#651,.F.);
#895=ORIENTED_EDGE('',*,*,#563,.F.);
#896=ORIENTED_EDGE('',*,*,#650,.T.);
#897=ORIENTED_EDGE('',*,*,#652,.F.);
#898=ORIENTED_EDGE('',*,*,#621,.T.);
#899=ORIENTED_EDGE('',*,*,#653,.F.);
#900=ORIENTED_EDGE('',*,*,#654,.F.);
#901=ORIENTED_EDGE('',*,*,#655,.F.);
#902=ORIENTED_EDGE('',*,*,#656,.T.);
#903=ORIENTED_EDGE('',*,*,#657,.T.);
#904=ORIENTED_EDGE('',*,*,#653,.T.);
#905=ORIENTED_EDGE('',*,*,#560,.F.);
#906=ORIENTED_EDGE('',*,*,#657,.F.);
#907=ORIENTED_EDGE('',*,*,#658,.T.);
#908=ORIENTED_EDGE('',*,*,#659,.T.);
#909=ORIENTED_EDGE('',*,*,#654,.T.);
#910=ORIENTED_EDGE('',*,*,#659,.F.);
#911=ORIENTED_EDGE('',*,*,#660,.T.);
#912=ORIENTED_EDGE('',*,*,#661,.T.);
#913=ORIENTED_EDGE('',*,*,#566,.T.);
#914=ORIENTED_EDGE('',*,*,#652,.T.);
#915=ORIENTED_EDGE('',*,*,#661,.F.);
#916=ORIENTED_EDGE('',*,*,#662,.T.);
#917=ORIENTED_EDGE('',*,*,#655,.T.);
#918=ORIENTED_EDGE('',*,*,#559,.T.);
#919=ORIENTED_EDGE('',*,*,#660,.F.);
#920=ORIENTED_EDGE('',*,*,#658,.F.);
#921=ORIENTED_EDGE('',*,*,#656,.F.);
#922=ORIENTED_EDGE('',*,*,#662,.F.);
#923=ORIENTED_EDGE('',*,*,#583,.F.);
#924=ORIENTED_EDGE('',*,*,#663,.F.);
#925=ORIENTED_EDGE('',*,*,#664,.F.);
#926=ORIENTED_EDGE('',*,*,#665,.F.);
#927=ORIENTED_EDGE('',*,*,#666,.F.);
#928=ORIENTED_EDGE('',*,*,#667,.T.);
#929=ORIENTED_EDGE('',*,*,#668,.T.);
#930=ORIENTED_EDGE('',*,*,#551,.T.);
#931=ORIENTED_EDGE('',*,*,#665,.T.);
#932=ORIENTED_EDGE('',*,*,#668,.F.);
#933=ORIENTED_EDGE('',*,*,#669,.T.);
#934=ORIENTED_EDGE('',*,*,#670,.T.);
#935=ORIENTED_EDGE('',*,*,#552,.T.);
#936=ORIENTED_EDGE('',*,*,#670,.F.);
#937=ORIENTED_EDGE('',*,*,#671,.T.);
#938=ORIENTED_EDGE('',*,*,#672,.T.);
#939=ORIENTED_EDGE('',*,*,#663,.T.);
#940=ORIENTED_EDGE('',*,*,#553,.T.);
#941=ORIENTED_EDGE('',*,*,#672,.F.);
#942=ORIENTED_EDGE('',*,*,#673,.T.);
#943=ORIENTED_EDGE('',*,*,#666,.T.);
#944=ORIENTED_EDGE('',*,*,#664,.T.);
#945=ORIENTED_EDGE('',*,*,#671,.F.);
#946=ORIENTED_EDGE('',*,*,#669,.F.);
#947=ORIENTED_EDGE('',*,*,#667,.F.);
#948=ORIENTED_EDGE('',*,*,#673,.F.);
#949=ORIENTED_EDGE('',*,*,#674,.T.);
#950=ORIENTED_EDGE('',*,*,#538,.T.);
#951=ORIENTED_EDGE('',*,*,#540,.T.);
#952=ORIENTED_EDGE('',*,*,#675,.F.);
#953=ORIENTED_EDGE('',*,*,#676,.F.);
#954=ORIENTED_EDGE('',*,*,#646,.T.);
#955=ORIENTED_EDGE('',*,*,#674,.F.);
#956=ORIENTED_EDGE('',*,*,#677,.F.);
#957=ORIENTED_EDGE('',*,*,#675,.T.);
#958=ORIENTED_EDGE('',*,*,#676,.T.);
#959=ORIENTED_EDGE('',*,*,#677,.T.);
#960=ORIENTED_EDGE('',*,*,#644,.F.);
#961=ORIENTED_EDGE('',*,*,#647,.T.);
#962=ORIENTED_EDGE('',*,*,#630,.T.);
#963=ORIENTED_EDGE('',*,*,#627,.F.);
#964=ORIENTED_EDGE('',*,*,#606,.F.);
#965=ORIENTED_EDGE('',*,*,#642,.F.);
#966=ORIENTED_EDGE('',*,*,#638,.F.);
#967=ORIENTED_EDGE('',*,*,#602,.F.);
#968=TOROIDAL_SURFACE('',#1095,3.340243369349,0.332903357113);
#969=TOROIDAL_SURFACE('',#1101,2.949999922922,0.199999994774);
#970=TOROIDAL_SURFACE('',#1108,2.949999922922,0.199999994774);
#971=TOROIDAL_SURFACE('',#1111,2.949999922922,0.199999994774);
#972=STYLED_ITEM('',(#1769),#1027);
#973=STYLED_ITEM('',(#1769),#1028);
#974=STYLED_ITEM('',(#1769),#1029);
#975=STYLED_ITEM('',(#1769),#1030);
#976=STYLED_ITEM('',(#1769),#1031);
#977=STYLED_ITEM('',(#1769),#1032);
#978=STYLED_ITEM('',(#1770),#1033);
#979=STYLED_ITEM('',(#1770),#1034);
#980=STYLED_ITEM('',(#1770),#1035);
#981=STYLED_ITEM('',(#1770),#1036);
#982=STYLED_ITEM('',(#1770),#1037);
#983=STYLED_ITEM('',(#1770),#1038);
#984=STYLED_ITEM('',(#1770),#1039);
#985=STYLED_ITEM('',(#1770),#1040);
#986=STYLED_ITEM('',(#1770),#1041);
#987=STYLED_ITEM('',(#1770),#1042);
#988=STYLED_ITEM('',(#1770),#1043);
#989=STYLED_ITEM('',(#1770),#1044);
#990=STYLED_ITEM('',(#1770),#1045);
#991=STYLED_ITEM('',(#1770),#1046);
#992=STYLED_ITEM('',(#1770),#1047);
#993=STYLED_ITEM('',(#1770),#1048);
#994=STYLED_ITEM('',(#1770),#1049);
#995=STYLED_ITEM('',(#1770),#1050);
#996=STYLED_ITEM('',(#1770),#1051);
#997=STYLED_ITEM('',(#1770),#1052);
#998=STYLED_ITEM('',(#1770),#1053);
#999=STYLED_ITEM('',(#1770),#1054);
#1000=STYLED_ITEM('',(#1770),#1055);
#1001=STYLED_ITEM('',(#1769),#1056);
#1002=STYLED_ITEM('',(#1770),#1057);
#1003=STYLED_ITEM('',(#1770),#1058);
#1004=STYLED_ITEM('',(#1770),#1059);
#1005=STYLED_ITEM('',(#1770),#1060);
#1006=STYLED_ITEM('',(#1770),#1061);
#1007=STYLED_ITEM('',(#1770),#1062);
#1008=STYLED_ITEM('',(#1770),#1063);
#1009=STYLED_ITEM('',(#1770),#1064);
#1010=STYLED_ITEM('',(#1769),#1065);
#1011=STYLED_ITEM('',(#1769),#1066);
#1012=STYLED_ITEM('',(#1769),#1067);
#1013=STYLED_ITEM('',(#1769),#1068);
#1014=STYLED_ITEM('',(#1769),#1069);
#1015=STYLED_ITEM('',(#1769),#1070);
#1016=STYLED_ITEM('',(#1769),#1071);
#1017=STYLED_ITEM('',(#1769),#1072);
#1018=STYLED_ITEM('',(#1769),#1073);
#1019=STYLED_ITEM('',(#1769),#1074);
#1020=STYLED_ITEM('',(#1769),#1075);
#1021=STYLED_ITEM('',(#1769),#1076);
#1022=STYLED_ITEM('',(#1771),#1077);
#1023=STYLED_ITEM('',(#1771),#1078);
#1024=STYLED_ITEM('',(#1770),#1079);
#1025=STYLED_ITEM('',(#1770),#1080);
#1026=STYLED_ITEM('',(#1768),#13);
#1027=ADVANCED_FACE('',(#305),#968,.F.);
#1028=ADVANCED_FACE('',(#306),#969,.T.);
#1029=ADVANCED_FACE('',(#307),#970,.T.);
#1030=ADVANCED_FACE('',(#308),#971,.T.);
#1031=ADVANCED_FACE('',(#309),#298,.T.);
#1032=ADVANCED_FACE('',(#310),#299,.T.);
#1033=ADVANCED_FACE('',(#311),#15,.F.);
#1034=ADVANCED_FACE('',(#312),#16,.T.);
#1035=ADVANCED_FACE('',(#313),#300,.F.);
#1036=ADVANCED_FACE('',(#314),#301,.F.);
#1037=ADVANCED_FACE('',(#315),#17,.F.);
#1038=ADVANCED_FACE('',(#316),#18,.F.);
#1039=ADVANCED_FACE('',(#317),#19,.T.);
#1040=ADVANCED_FACE('',(#318),#20,.T.);
#1041=ADVANCED_FACE('',(#319),#21,.T.);
#1042=ADVANCED_FACE('',(#320),#22,.T.);
#1043=ADVANCED_FACE('',(#321),#23,.T.);
#1044=ADVANCED_FACE('',(#322),#24,.T.);
#1045=ADVANCED_FACE('',(#323),#302,.F.);
#1046=ADVANCED_FACE('',(#324),#303,.F.);
#1047=ADVANCED_FACE('',(#325),#25,.F.);
#1048=ADVANCED_FACE('',(#326),#26,.F.);
#1049=ADVANCED_FACE('',(#327,#14),#27,.T.);
#1050=ADVANCED_FACE('',(#328),#28,.T.);
#1051=ADVANCED_FACE('',(#329),#29,.T.);
#1052=ADVANCED_FACE('',(#330),#30,.T.);
#1053=ADVANCED_FACE('',(#331),#31,.T.);
#1054=ADVANCED_FACE('',(#332),#32,.T.);
#1055=ADVANCED_FACE('',(#333),#33,.T.);
#1056=ADVANCED_FACE('',(#334),#34,.T.);
#1057=ADVANCED_FACE('',(#335),#35,.F.);
#1058=ADVANCED_FACE('',(#336),#36,.F.);
#1059=ADVANCED_FACE('',(#337),#37,.F.);
#1060=ADVANCED_FACE('',(#338),#38,.F.);
#1061=ADVANCED_FACE('',(#339),#39,.F.);
#1062=ADVANCED_FACE('',(#340),#40,.F.);
#1063=ADVANCED_FACE('',(#341),#41,.F.);
#1064=ADVANCED_FACE('',(#342),#42,.F.);
#1065=ADVANCED_FACE('',(#343),#43,.F.);
#1066=ADVANCED_FACE('',(#344),#44,.F.);
#1067=ADVANCED_FACE('',(#345),#45,.F.);
#1068=ADVANCED_FACE('',(#346),#46,.F.);
#1069=ADVANCED_FACE('',(#347),#47,.F.);
#1070=ADVANCED_FACE('',(#348),#48,.F.);
#1071=ADVANCED_FACE('',(#349),#49,.T.);
#1072=ADVANCED_FACE('',(#350),#50,.F.);
#1073=ADVANCED_FACE('',(#351),#51,.F.);
#1074=ADVANCED_FACE('',(#352),#52,.F.);
#1075=ADVANCED_FACE('',(#353),#53,.F.);
#1076=ADVANCED_FACE('',(#354),#54,.F.);
#1077=ADVANCED_FACE('',(#355),#304,.F.);
#1078=ADVANCED_FACE('',(#356),#55,.F.);
#1079=ADVANCED_FACE('',(#357),#56,.T.);
#1080=ADVANCED_FACE('',(#358),#57,.F.);
#1081=CLOSED_SHELL('',(#1027,#1028,#1029,#1030,#1031,#1032,#1033,#1034,
#1035,#1036,#1037,#1038,#1039,#1040,#1041,#1042,#1043,#1044,#1045,#1046,
#1047,#1048,#1049,#1050,#1051,#1052,#1053,#1054,#1055,#1056,#1057,#1058,
#1059,#1060,#1061,#1062,#1063,#1064,#1065,#1066,#1067,#1068,#1069,#1070,
#1071,#1072,#1073,#1074,#1075,#1076,#1077,#1078,#1079,#1080));
#1082=DERIVED_UNIT_ELEMENT(#1084,1.);
#1083=DERIVED_UNIT_ELEMENT(#1753,-3.);
#1084=(
MASS_UNIT()
NAMED_UNIT(*)
SI_UNIT(.KILO.,.GRAM.)
);
#1085=DERIVED_UNIT((#1082,#1083));
#1086=MEASURE_REPRESENTATION_ITEM('density measure',
POSITIVE_RATIO_MEASURE(7850.),#1085);
#1087=PROPERTY_DEFINITION_REPRESENTATION(#1092,#1089);
#1088=PROPERTY_DEFINITION_REPRESENTATION(#1093,#1090);
#1089=REPRESENTATION('material name',(#1091),#1750);
#1090=REPRESENTATION('density',(#1086),#1750);
#1091=DESCRIPTIVE_REPRESENTATION_ITEM('\X2\94A2\X0\','\X2\94A2\X0\');
#1092=PROPERTY_DEFINITION('material property','material name',#1760);
#1093=PROPERTY_DEFINITION('material property','density of part',#1760);
#1094=AXIS2_PLACEMENT_3D('',#1454,#1174,#1175);
#1095=AXIS2_PLACEMENT_3D('',#1455,#1176,#1177);
#1096=AXIS2_PLACEMENT_3D('',#1458,#1178,#1179);
#1097=AXIS2_PLACEMENT_3D('',#1460,#1180,#1181);
#1098=AXIS2_PLACEMENT_3D('',#1462,#1182,#1183);
#1099=AXIS2_PLACEMENT_3D('',#1463,#1184,#1185);
#1100=AXIS2_PLACEMENT_3D('',#1464,#1186,#1187);
#1101=AXIS2_PLACEMENT_3D('',#1465,#1188,#1189);
#1102=AXIS2_PLACEMENT_3D('',#1468,#1190,#1191);
#1103=AXIS2_PLACEMENT_3D('',#1470,#1192,#1193);
#1104=AXIS2_PLACEMENT_3D('',#1471,#1194,#1195);
#1105=AXIS2_PLACEMENT_3D('',#1473,#1196,#1197);
#1106=AXIS2_PLACEMENT_3D('',#1475,#1198,#1199);
#1107=AXIS2_PLACEMENT_3D('',#1476,#1200,#1201);
#1108=AXIS2_PLACEMENT_3D('',#1477,#1202,#1203);
#1109=AXIS2_PLACEMENT_3D('',#1479,#1204,#1205);
#1110=AXIS2_PLACEMENT_3D('',#1480,#1206,#1207);
#1111=AXIS2_PLACEMENT_3D('',#1481,#1208,#1209);
#1112=AXIS2_PLACEMENT_3D('',#1483,#1210,#1211);
#1113=AXIS2_PLACEMENT_3D('',#1484,#1212,#1213);
#1114=AXIS2_PLACEMENT_3D('',#1485,#1214,#1215);
#1115=AXIS2_PLACEMENT_3D('',#1487,#1217,#1218);
#1116=AXIS2_PLACEMENT_3D('',#1489,#1219,#1220);
#1117=AXIS2_PLACEMENT_3D('',#1491,#1222,#1223);
#1118=AXIS2_PLACEMENT_3D('',#1508,#1232,#1233);
#1119=AXIS2_PLACEMENT_3D('',#1525,#1242,#1243);
#1120=AXIS2_PLACEMENT_3D('',#1530,#1245,#1246);
#1121=AXIS2_PLACEMENT_3D('',#1533,#1248,#1249);
#1122=AXIS2_PLACEMENT_3D('',#1534,#1250,#1251);
#1123=AXIS2_PLACEMENT_3D('',#1539,#1253,#1254);
#1124=AXIS2_PLACEMENT_3D('',#1542,#1256,#1257);
#1125=AXIS2_PLACEMENT_3D('',#1543,#1258,#1259);
#1126=AXIS2_PLACEMENT_3D('',#1560,#1268,#1269);
#1127=AXIS2_PLACEMENT_3D('',#1583,#1282,#1283);
#1128=AXIS2_PLACEMENT_3D('',#1586,#1286,#1287);
#1129=AXIS2_PLACEMENT_3D('',#1589,#1290,#1291);
#1130=AXIS2_PLACEMENT_3D('',#1592,#1294,#1295);
#1131=AXIS2_PLACEMENT_3D('',#1598,#1299,#1300);
#1132=AXIS2_PLACEMENT_3D('',#1601,#1301,#1302);
#1133=AXIS2_PLACEMENT_3D('',#1609,#1307,#1308);
#1134=AXIS2_PLACEMENT_3D('',#1613,#1310,#1311);
#1135=AXIS2_PLACEMENT_3D('',#1617,#1314,#1315);
#1136=AXIS2_PLACEMENT_3D('',#1620,#1316,#1317);
#1137=AXIS2_PLACEMENT_3D('',#1623,#1320,#1321);
#1138=AXIS2_PLACEMENT_3D('',#1627,#1323,#1324);
#1139=AXIS2_PLACEMENT_3D('',#1629,#1326,#1327);
#1140=AXIS2_PLACEMENT_3D('',#1644,#1337,#1338);
#1141=AXIS2_PLACEMENT_3D('',#1659,#1348,#1349);
#1142=AXIS2_PLACEMENT_3D('',#1666,#1355,#1356);
#1143=AXIS2_PLACEMENT_3D('',#1667,#1357,#1358);
#1144=AXIS2_PLACEMENT_3D('',#1668,#1359,#1360);
#1145=AXIS2_PLACEMENT_3D('',#1669,#1361,#1362);
#1146=AXIS2_PLACEMENT_3D('',#1671,#1364,#1365);
#1147=AXIS2_PLACEMENT_3D('',#1675,#1368,#1369);
#1148=AXIS2_PLACEMENT_3D('',#1677,#1371,#1372);
#1149=AXIS2_PLACEMENT_3D('',#1679,#1374,#1375);
#1150=AXIS2_PLACEMENT_3D('',#1681,#1377,#1378);
#1151=AXIS2_PLACEMENT_3D('',#1682,#1379,#1380);
#1152=AXIS2_PLACEMENT_3D('',#1684,#1382,#1383);
#1153=AXIS2_PLACEMENT_3D('',#1686,#1385,#1386);
#1154=AXIS2_PLACEMENT_3D('',#1687,#1387,#1388);
#1155=AXIS2_PLACEMENT_3D('',#1689,#1390,#1391);
#1156=AXIS2_PLACEMENT_3D('',#1691,#1393,#1394);
#1157=AXIS2_PLACEMENT_3D('',#1692,#1395,#1396);
#1158=AXIS2_PLACEMENT_3D('',#1698,#1400,#1401);
#1159=AXIS2_PLACEMENT_3D('',#1704,#1405,#1406);
#1160=AXIS2_PLACEMENT_3D('',#1708,#1409,#1410);
#1161=AXIS2_PLACEMENT_3D('',#1712,#1413,#1414);
#1162=AXIS2_PLACEMENT_3D('',#1714,#1416,#1417);
#1163=AXIS2_PLACEMENT_3D('',#1715,#1418,#1419);
#1164=AXIS2_PLACEMENT_3D('',#1721,#1423,#1424);
#1165=AXIS2_PLACEMENT_3D('',#1727,#1428,#1429);
#1166=AXIS2_PLACEMENT_3D('',#1731,#1432,#1433);
#1167=AXIS2_PLACEMENT_3D('',#1735,#1436,#1437);
#1168=AXIS2_PLACEMENT_3D('',#1737,#1439,#1440);
#1169=AXIS2_PLACEMENT_3D('',#1738,#1441,#1442);
#1170=AXIS2_PLACEMENT_3D('',#1743,#1445,#1446);
#1171=AXIS2_PLACEMENT_3D('',#1744,#1447,#1448);
#1172=AXIS2_PLACEMENT_3D('',#1746,#1450,#1451);
#1173=AXIS2_PLACEMENT_3D('',#1747,#1452,#1453);
#1174=DIRECTION('axis',(0.,0.,1.));
#1175=DIRECTION('refdir',(1.,0.,0.));
#1176=DIRECTION('center_axis',(0.,0.,1.));
#1177=DIRECTION('ref_axis',(-1.,1.22465048834498E-16,0.));
#1178=DIRECTION('center_axis',(0.,0.,-1.));
#1179=DIRECTION('ref_axis',(1.,-1.224646799147E-16,0.));
#1180=DIRECTION('center_axis',(0.,-1.,0.));
#1181=DIRECTION('ref_axis',(1.,0.,0.));
#1182=DIRECTION('center_axis',(0.,0.,1.));
#1183=DIRECTION('ref_axis',(-1.,1.224646799147E-16,0.));
#1184=DIRECTION('center_axis',(0.,0.,1.));
#1185=DIRECTION('ref_axis',(-1.,1.224646799147E-16,0.));
#1186=DIRECTION('center_axis',(0.,0.,-1.));
#1187=DIRECTION('ref_axis',(1.,-1.224646799147E-16,0.));
#1188=DIRECTION('center_axis',(0.,0.,1.));
#1189=DIRECTION('ref_axis',(-1.,1.22464295613153E-16,0.));
#1190=DIRECTION('center_axis',(0.,0.,1.));
#1191=DIRECTION('ref_axis',(-1.,1.224646799147E-16,0.));
#1192=DIRECTION('center_axis',(0.,0.,1.));
#1193=DIRECTION('ref_axis',(-1.,1.224646799147E-16,0.));
#1194=DIRECTION('center_axis',(0.,0.,1.));
#1195=DIRECTION('ref_axis',(-1.,1.224646799147E-16,0.));
#1196=DIRECTION('center_axis',(0.,1.,0.));
#1197=DIRECTION('ref_axis',(1.,0.,0.));
#1198=DIRECTION('center_axis',(0.,0.,-1.));
#1199=DIRECTION('ref_axis',(-1.,1.224646799147E-16,0.));
#1200=DIRECTION('center_axis',(0.,0.,-1.));
#1201=DIRECTION('ref_axis',(-1.,1.224646799147E-16,0.));
#1202=DIRECTION('center_axis',(0.,0.,-1.));
#1203=DIRECTION('ref_axis',(1.,-1.22464295613153E-16,0.));
#1204=DIRECTION('center_axis',(0.,0.,-1.));
#1205=DIRECTION('ref_axis',(1.,-1.224646799147E-16,0.));
#1206=DIRECTION('center_axis',(2.44928322326951E-16,1.,0.));
#1207=DIRECTION('ref_axis',(-1.,2.44928322326951E-16,0.));
#1208=DIRECTION('center_axis',(0.,0.,-1.));
#1209=DIRECTION('ref_axis',(1.,-1.22464295613153E-16,0.));
#1210=DIRECTION('center_axis',(2.44928322326951E-16,1.,0.));
#1211=DIRECTION('ref_axis',(-1.,2.44928322326951E-16,0.));
#1212=DIRECTION('center_axis',(0.,0.,1.));
#1213=DIRECTION('ref_axis',(1.,-1.224646799147E-16,0.));
#1214=DIRECTION('center_axis',(0.,0.,-1.));
#1215=DIRECTION('ref_axis',(1.,-1.224646799147E-16,0.));
#1216=DIRECTION('',(0.,0.,1.));
#1217=DIRECTION('center_axis',(0.,0.,-1.));
#1218=DIRECTION('ref_axis',(1.,-1.224646799147E-16,0.));
#1219=DIRECTION('center_axis',(0.,0.,1.));
#1220=DIRECTION('ref_axis',(-1.,1.224646799147E-16,0.));
#1221=DIRECTION('',(0.,0.,1.));
#1222=DIRECTION('center_axis',(0.,0.,1.));
#1223=DIRECTION('ref_axis',(-1.,1.224646799147E-16,0.));
#1224=DIRECTION('',(-1.,2.267148888076E-16,0.));
#1225=DIRECTION('',(-4.560653483718E-16,-1.,0.));
#1226=DIRECTION('',(1.,-2.267148888076E-16,0.));
#1227=DIRECTION('',(8.953765235023E-18,-1.,0.));
#1228=DIRECTION('',(1.,-1.224646799147E-16,0.));
#1229=DIRECTION('',(-1.224646799147E-16,-1.,0.));
#1230=DIRECTION('',(-1.,1.224646799147E-16,0.));
#1231=DIRECTION('',(8.953765235023E-18,-1.,0.));
#1232=DIRECTION('center_axis',(0.,0.,-1.));
#1233=DIRECTION('ref_axis',(1.,-1.224646799147E-16,0.));
#1234=DIRECTION('',(-2.111359885423E-16,1.,0.));
#1235=DIRECTION('',(1.,-2.475649305861E-16,0.));
#1236=DIRECTION('',(8.953765235023E-18,-1.,0.));
#1237=DIRECTION('',(-1.,1.224646799147E-16,0.));
#1238=DIRECTION('',(1.224646799147E-16,1.,0.));
#1239=DIRECTION('',(1.,-1.224646799147E-16,0.));
#1240=DIRECTION('',(8.953765235023E-18,-1.,0.));
#1241=DIRECTION('',(1.,-2.475649305861E-16,0.));
#1242=DIRECTION('center_axis',(0.,0.,1.));
#1243=DIRECTION('ref_axis',(-1.,1.224646799147E-16,0.));
#1244=DIRECTION('',(0.,0.,-1.));
#1245=DIRECTION('center_axis',(0.,0.,-1.));
#1246=DIRECTION('ref_axis',(-1.,1.224646799147E-16,0.));
#1247=DIRECTION('',(0.,0.,1.));
#1248=DIRECTION('center_axis',(0.,0.,1.));
#1249=DIRECTION('ref_axis',(-1.,1.224646799147E-16,0.));
#1250=DIRECTION('center_axis',(0.,0.,1.));
#1251=DIRECTION('ref_axis',(-1.,1.224646799147E-16,0.));
#1252=DIRECTION('',(0.,0.,-1.));
#1253=DIRECTION('center_axis',(0.,0.,-1.));
#1254=DIRECTION('ref_axis',(-1.,1.224646799147E-16,0.));
#1255=DIRECTION('',(0.,0.,1.));
#1256=DIRECTION('center_axis',(0.,0.,1.));
#1257=DIRECTION('ref_axis',(-1.,1.224646799147E-16,0.));
#1258=DIRECTION('center_axis',(-1.224646799147E-16,-1.,0.));
#1259=DIRECTION('ref_axis',(0.,0.,1.));
#1260=DIRECTION('',(-1.,1.224646799147E-16,0.));
#1261=DIRECTION('',(0.,0.,1.));
#1262=DIRECTION('',(-1.,-4.76062491026E-17,0.));
#1263=DIRECTION('',(0.,0.,1.));
#1264=DIRECTION('',(-1.,1.224646799147E-16,0.));
#1265=DIRECTION('',(0.,0.,-1.));
#1266=DIRECTION('',(-1.,1.224646799147E-16,0.));
#1267=DIRECTION('',(0.,0.,-1.));
#1268=DIRECTION('center_axis',(1.,8.953765235023E-18,0.));
#1269=DIRECTION('ref_axis',(-8.953765235023E-18,1.,0.));
#1270=DIRECTION('',(8.953765235023E-18,-1.,0.));
#1271=DIRECTION('',(0.,0.,-1.));
#1272=DIRECTION('',(8.953765235023E-18,-1.,0.));
#1273=DIRECTION('',(0.,0.,1.));
#1274=DIRECTION('',(2.176771781199E-16,-1.,0.));
#1275=DIRECTION('',(0.,0.,-1.));
#1276=DIRECTION('',(-1.224646799147E-16,-1.,0.));
#1277=DIRECTION('',(0.,0.,-1.));
#1278=DIRECTION('',(-1.224646799147E-16,-1.,0.));
#1279=DIRECTION('',(0.,0.,-1.));
#1280=DIRECTION('',(8.953765235023E-18,-1.,0.));
#1281=DIRECTION('',(0.,0.,1.));
#1282=DIRECTION('center_axis',(-1.224646799147E-16,-1.,0.));
#1283=DIRECTION('ref_axis',(0.,0.,1.));
#1284=DIRECTION('',(1.,-4.058653150903E-15,0.));
#1285=DIRECTION('',(-1.,1.224646799147E-16,0.));
#1286=DIRECTION('center_axis',(1.224646799147E-16,1.,0.));
#1287=DIRECTION('ref_axis',(0.,0.,-1.));
#1288=DIRECTION('',(-1.,-6.647730142829E-16,0.));
#1289=DIRECTION('',(1.,-1.224646799147E-16,0.));
#1290=DIRECTION('center_axis',(1.,6.033355342806E-18,0.));
#1291=DIRECTION('ref_axis',(-6.033355342806E-18,1.,0.));
#1292=DIRECTION('',(-1.483505150984E-14,1.,0.));
#1293=DIRECTION('',(6.033355342806E-18,-1.,0.));
#1294=DIRECTION('center_axis',(1.,6.033355342806E-18,0.));
#1295=DIRECTION('ref_axis',(-6.033355342806E-18,1.,0.));
#1296=DIRECTION('',(1.224646799147E-16,1.,0.));
#1297=DIRECTION('',(0.,0.,-1.));
#1298=DIRECTION('',(6.033355342806E-18,-1.,0.));
#1299=DIRECTION('center_axis',(0.,0.,1.));
#1300=DIRECTION('ref_axis',(-1.,1.224646799147E-16,0.));
#1301=DIRECTION('center_axis',(0.,0.,1.));
#1302=DIRECTION('ref_axis',(-1.,1.224646799147E-16,0.));
#1303=DIRECTION('',(1.99777186079E-18,1.,0.));
#1304=DIRECTION('',(1.,-1.224646799147E-16,0.));
#1305=DIRECTION('',(-8.953765235023E-18,1.,0.));
#1306=DIRECTION('',(-1.,1.224646799147E-16,0.));
#1307=DIRECTION('center_axis',(0.,0.,1.));
#1308=DIRECTION('ref_axis',(-1.,1.224646799147E-16,0.));
#1309=DIRECTION('',(1.99777186079E-18,1.,0.));
#1310=DIRECTION('center_axis',(0.,0.,1.));
#1311=DIRECTION('ref_axis',(-1.,1.224646799147E-16,0.));
#1312=DIRECTION('',(1.,-1.224646799147E-16,0.));
#1313=DIRECTION('',(-8.953765235023E-18,1.,0.));
#1314=DIRECTION('center_axis',(0.,0.,1.));
#1315=DIRECTION('ref_axis',(-1.,1.224646799147E-16,0.));
#1316=DIRECTION('center_axis',(0.,0.,1.));
#1317=DIRECTION('ref_axis',(-1.,1.224646799147E-16,0.));
#1318=DIRECTION('',(0.,0.,-1.));
#1319=DIRECTION('',(0.,0.,1.));
#1320=DIRECTION('center_axis',(0.,0.,1.));
#1321=DIRECTION('ref_axis',(-1.,1.224646799147E-16,0.));
#1322=DIRECTION('',(0.,0.,1.));
#1323=DIRECTION('center_axis',(0.,0.,1.));
#1324=DIRECTION('ref_axis',(-1.,1.224646799147E-16,0.));
#1325=DIRECTION('',(0.,0.,-1.));
#1326=DIRECTION('center_axis',(-1.,-8.953765235023E-18,0.));
#1327=DIRECTION('ref_axis',(8.953765235023E-18,-1.,0.));
#1328=DIRECTION('',(-8.953765235023E-18,1.,0.));
#1329=DIRECTION('',(0.,0.,1.));
#1330=DIRECTION('',(8.953765235023E-18,-1.,0.));
#1331=DIRECTION('',(0.,0.,-1.));
#1332=DIRECTION('',(-8.953765235023E-18,1.,0.));
#1333=DIRECTION('',(0.,0.,-1.));
#1334=DIRECTION('',(1.224646799147E-16,1.,0.));
#1335=DIRECTION('',(0.,0.,-1.));
#1336=DIRECTION('',(0.,0.,-1.));
#1337=DIRECTION('center_axis',(0.,0.,1.));
#1338=DIRECTION('ref_axis',(-1.,1.224646799147E-16,0.));
#1339=DIRECTION('',(1.224646799147E-16,1.,0.));
#1340=DIRECTION('',(1.,-1.224646799147E-16,0.));
#1341=DIRECTION('',(1.,-1.224646799147E-16,0.));
#1342=DIRECTION('',(-0.707106781186548,0.707106781186548,0.));
#1343=DIRECTION('',(-1.,1.224646799147E-16,0.));
#1344=DIRECTION('',(-1.224646799147E-16,-1.,0.));
#1345=DIRECTION('',(-1.,1.224646799147E-16,0.));
#1346=DIRECTION('',(0.707106781186548,0.707106781186548,0.));
#1347=DIRECTION('',(1.,-1.224646799147E-16,0.));
#1348=DIRECTION('center_axis',(0.,0.,1.));
#1349=DIRECTION('ref_axis',(-1.,1.224646799147E-16,0.));
#1350=DIRECTION('',(1.99777186079E-18,1.,0.));
#1351=DIRECTION('',(1.,-1.224646799147E-16,0.));
#1352=DIRECTION('',(1.99777186079E-18,1.,0.));
#1353=DIRECTION('',(1.,-1.224646799147E-16,0.));
#1354=DIRECTION('',(-1.,1.224646799147E-16,0.));
#1355=DIRECTION('center_axis',(-1.224646799147E-16,-1.,0.));
#1356=DIRECTION('ref_axis',(0.,0.,1.));
#1357=DIRECTION('center_axis',(1.224646799147E-16,1.,0.));
#1358=DIRECTION('ref_axis',(0.,0.,-1.));
#1359=DIRECTION('center_axis',(-1.,1.99777186079E-18,0.));
#1360=DIRECTION('ref_axis',(-1.99777186079E-18,-1.,0.));
#1361=DIRECTION('center_axis',(-1.,1.99777186079E-18,0.));
#1362=DIRECTION('ref_axis',(-1.99777186079E-18,-1.,0.));
#1363=DIRECTION('',(0.,0.,1.));
#1364=DIRECTION('center_axis',(0.,0.,1.));
#1365=DIRECTION('ref_axis',(-1.,1.224646799147E-16,0.));
#1366=DIRECTION('',(0.707106781186548,-0.707106781186548,0.));
#1367=DIRECTION('',(1.,-1.224646799147E-16,0.));
#1368=DIRECTION('center_axis',(0.,0.,1.));
#1369=DIRECTION('ref_axis',(-1.,1.224646799147E-16,0.));
#1370=DIRECTION('',(-0.707106781186548,-0.707106781186548,0.));
#1371=DIRECTION('center_axis',(0.,0.,1.));
#1372=DIRECTION('ref_axis',(-1.,1.224646799147E-16,0.));
#1373=DIRECTION('',(-1.224646799147E-16,-1.,0.));
#1374=DIRECTION('center_axis',(0.707106781186548,0.707106781186548,0.));
#1375=DIRECTION('ref_axis',(0.,0.,-1.));
#1376=DIRECTION('',(0.,0.,-1.));
#1377=DIRECTION('center_axis',(0.707106781186548,-0.707106781186548,0.));
#1378=DIRECTION('ref_axis',(0.,0.,-1.));
#1379=DIRECTION('center_axis',(-1.224646799147E-16,-1.,0.));
#1380=DIRECTION('ref_axis',(0.,0.,1.));
#1381=DIRECTION('',(0.,0.,-1.));
#1382=DIRECTION('center_axis',(1.224646799147E-16,1.,0.));
#1383=DIRECTION('ref_axis',(0.,0.,-1.));
#1384=DIRECTION('',(0.,0.,-1.));
#1385=DIRECTION('center_axis',(1.,-1.224646799147E-16,0.));
#1386=DIRECTION('ref_axis',(0.,0.,1.));
#1387=DIRECTION('center_axis',(-1.224646799147E-16,-1.,0.));
#1388=DIRECTION('ref_axis',(0.,0.,1.));
#1389=DIRECTION('',(0.,0.,-1.));
#1390=DIRECTION('center_axis',(1.224646799147E-16,1.,0.));
#1391=DIRECTION('ref_axis',(0.,0.,-1.));
#1392=DIRECTION('',(0.,0.,-1.));
#1393=DIRECTION('center_axis',(-1.,1.224646799147E-16,0.));
#1394=DIRECTION('ref_axis',(0.,0.,-1.));
#1395=DIRECTION('center_axis',(0.,0.,-1.));
#1396=DIRECTION('ref_axis',(1.,-1.224646799147E-16,0.));
#1397=DIRECTION('',(1.,-2.475649305861E-16,0.));
#1398=DIRECTION('',(-1.,2.475649305861E-16,0.));
#1399=DIRECTION('',(5.447366569994E-16,-1.,0.));
#1400=DIRECTION('center_axis',(2.475649305861E-16,1.,0.));
#1401=DIRECTION('ref_axis',(-1.,2.475649305861E-16,0.));
#1402=DIRECTION('',(0.,0.,1.));
#1403=DIRECTION('',(1.,-2.475649305861E-16,0.));
#1404=DIRECTION('',(0.,0.,1.));
#1405=DIRECTION('center_axis',(-1.,-5.447366569994E-16,0.));
#1406=DIRECTION('ref_axis',(5.447366569994E-16,-1.,0.));
#1407=DIRECTION('',(-5.447366569994E-16,1.,0.));
#1408=DIRECTION('',(0.,0.,1.));
#1409=DIRECTION('center_axis',(-2.475649305861E-16,-1.,0.));
#1410=DIRECTION('ref_axis',(1.,-2.475649305861E-16,0.));
#1411=DIRECTION('',(-1.,2.475649305861E-16,0.));
#1412=DIRECTION('',(0.,0.,1.));
#1413=DIRECTION('center_axis',(1.,2.111359885423E-16,0.));
#1414=DIRECTION('ref_axis',(-2.111359885423E-16,1.,0.));
#1415=DIRECTION('',(2.111359885423E-16,-1.,0.));
#1416=DIRECTION('center_axis',(0.,0.,1.));
#1417=DIRECTION('ref_axis',(-1.,1.224646799147E-16,0.));
#1418=DIRECTION('center_axis',(0.,0.,1.));
#1419=DIRECTION('ref_axis',(-1.,1.224646799147E-16,0.));
#1420=DIRECTION('',(1.,-2.267148888076E-16,0.));
#1421=DIRECTION('',(7.896660168289E-16,1.,0.));
#1422=DIRECTION('',(-1.,2.267148888076E-16,0.));
#1423=DIRECTION('center_axis',(2.267148888076E-16,1.,0.));
#1424=DIRECTION('ref_axis',(-1.,2.267148888076E-16,0.));
#1425=DIRECTION('',(0.,0.,1.));
#1426=DIRECTION('',(1.,-2.267148888076E-16,0.));
#1427=DIRECTION('',(0.,0.,1.));
#1428=DIRECTION('center_axis',(-1.,4.560653483718E-16,0.));
#1429=DIRECTION('ref_axis',(-4.560653483718E-16,-1.,0.));
#1430=DIRECTION('',(4.560653483718E-16,1.,0.));
#1431=DIRECTION('',(0.,0.,1.));
#1432=DIRECTION('center_axis',(-2.267148888076E-16,-1.,0.));
#1433=DIRECTION('ref_axis',(1.,-2.267148888076E-16,0.));
#1434=DIRECTION('',(-1.,2.267148888076E-16,0.));
#1435=DIRECTION('',(0.,0.,1.));
#1436=DIRECTION('center_axis',(1.,-7.896660168289E-16,0.));
#1437=DIRECTION('ref_axis',(7.896660168289E-16,1.,0.));
#1438=DIRECTION('',(-7.896660168289E-16,-1.,0.));
#1439=DIRECTION('center_axis',(0.,0.,1.));
#1440=DIRECTION('ref_axis',(-1.,1.224646799147E-16,0.));
#1441=DIRECTION('center_axis',(0.,0.,1.));
#1442=DIRECTION('ref_axis',(1.,3.30617613789253E-14,0.));
#1443=DIRECTION('',(0.,0.,1.));
#1444=DIRECTION('',(0.,0.,1.));
#1445=DIRECTION('center_axis',(0.,0.,1.));
#1446=DIRECTION('ref_axis',(-1.,1.224646799147E-16,0.));
#1447=DIRECTION('center_axis',(-1.,1.224646799147E-16,0.));
#1448=DIRECTION('ref_axis',(0.,0.,-1.));
#1449=DIRECTION('',(-1.224646799147E-16,-1.,0.));
#1450=DIRECTION('center_axis',(0.,0.,1.));
#1451=DIRECTION('ref_axis',(-1.,1.224646799147E-16,0.));
#1452=DIRECTION('center_axis',(1.224646799147E-16,1.,0.));
#1453=DIRECTION('ref_axis',(0.,0.,-1.));
#1454=CARTESIAN_POINT('',(0.,0.,0.));
#1455=CARTESIAN_POINT('Origin',(2.54000508001E-5,2.54000508001E-5,1.363849607329));
#1456=CARTESIAN_POINT('',(-3.0964338892272,2.54000508008584E-5,1.590551983763));
#1457=CARTESIAN_POINT('',(3.0964846893288,2.54000508001E-5,1.590551983763));
#1458=CARTESIAN_POINT('Origin',(2.54000508001E-5,2.54000508001E-5,1.590551983763));
#1459=CARTESIAN_POINT('',(3.0964846893288,2.54000508001E-5,1.137147230895));
#1460=CARTESIAN_POINT('Origin',(3.3402687693998,2.54000508001E-5,1.363849607329));
#1461=CARTESIAN_POINT('',(-3.0964338892272,2.54000508008584E-5,1.137147230895));
#1462=CARTESIAN_POINT('Origin',(2.54000508001E-5,2.54000508001E-5,1.137147230895));
#1463=CARTESIAN_POINT('Origin',(2.54000508001E-5,2.54000508001E-5,1.137147230895));
#1464=CARTESIAN_POINT('Origin',(2.54000508001E-5,2.54000508001E-5,1.590551983763));
#1465=CARTESIAN_POINT('Origin',(2.54000508001E-5,2.54000508001E-5,5.619999852713));
#1466=CARTESIAN_POINT('',(1.437614732469,-2.575986334503,5.819999847488));
#1467=CARTESIAN_POINT('',(2.9500253229728,2.54000508001E-5,5.819999847488));
#1468=CARTESIAN_POINT('Origin',(2.54000508001E-5,2.54000508001E-5,5.819999847488));
#1469=CARTESIAN_POINT('',(1.437614732469,2.576037134605,5.819999847488));
#1470=CARTESIAN_POINT('Origin',(2.54000508001E-5,2.54000508001E-5,5.819999847488));
#1471=CARTESIAN_POINT('Origin',(2.54000508001E-5,2.54000508001E-5,5.819999847488));
#1472=CARTESIAN_POINT('',(3.1500253177478,2.54000508001E-5,5.619999852713));
#1473=CARTESIAN_POINT('Origin',(2.9500253229728,2.54000508001E-5,5.619999852713));
#1474=CARTESIAN_POINT('',(-3.149974517646,2.54000508001E-5,5.619999852713));
#1475=CARTESIAN_POINT('Origin',(2.54000508001E-5,2.54000508001E-5,5.619999852713));
#1476=CARTESIAN_POINT('Origin',(2.54000508001E-5,2.54000508001E-5,5.619999852713));
#1477=CARTESIAN_POINT('Origin',(2.54000508001E-5,2.54000508001E-5,1.000950124036));
#1478=CARTESIAN_POINT('',(-3.1499745176462,2.54000508008715E-5,1.000950124036));
#1479=CARTESIAN_POINT('Origin',(2.54000508001E-5,2.54000508001E-5,1.000950124036));
#1480=CARTESIAN_POINT('Origin',(-2.9499745228712,2.54000508008225E-5,1.000950124036));
#1481=CARTESIAN_POINT('Origin',(2.54000508001E-5,2.54000508001E-5,1.726749090621));
#1482=CARTESIAN_POINT('',(-3.1499745176462,2.54000508008715E-5,1.726749090621));
#1483=CARTESIAN_POINT('Origin',(-2.9499745228712,2.54000508008225E-5,1.726749090621));
#1484=CARTESIAN_POINT('Origin',(2.54000508001E-5,2.54000508001E-5,1.726749090621));
#1485=CARTESIAN_POINT('Origin',(2.54000508001E-5,2.54000508001E-5,20.529544906106));
#1486=CARTESIAN_POINT('',(-3.1499745176462,2.54000508008715E-5,20.529544906106));
#1487=CARTESIAN_POINT('Origin',(2.54000508001E-5,2.54000508001E-5,20.529544906106));
#1488=CARTESIAN_POINT('',(-3.1499745176462,2.54000508008715E-5,0.519999985966));
#1489=CARTESIAN_POINT('Origin',(2.54000508001E-5,2.54000508001E-5,0.519999985966));
#1490=CARTESIAN_POINT('',(-3.1499745176462,2.54000508008715E-5,20.529544906106));
#1491=CARTESIAN_POINT('Origin',(2.54000508001E-5,2.54000508001E-5,0.219999993805));
#1492=CARTESIAN_POINT('',(-1.049974572515,-0.324974591458,0.219999993805));
#1493=CARTESIAN_POINT('',(-3.299974513727,-0.324974591458,0.219999993805));
#1494=CARTESIAN_POINT('',(-3.649974504582,-0.324974591458,0.219999993805));
#1495=CARTESIAN_POINT('',(-1.049974572515,0.325025391559,0.219999993805));
#1496=CARTESIAN_POINT('',(-1.049974572515,0.325025391559,0.219999993805));
#1497=CARTESIAN_POINT('',(-3.299974513727,0.325025391559,0.219999993805));
#1498=CARTESIAN_POINT('',(2.540005080018E-5,0.325025391559,0.219999993805));
#1499=CARTESIAN_POINT('',(-3.299974513727,0.4000253896,0.219999993805));
#1500=CARTESIAN_POINT('',(-3.299974513727,-3.299974513727,0.219999993805));
#1501=CARTESIAN_POINT('',(-0.399974589498,0.4000253896,0.219999993805));
#1502=CARTESIAN_POINT('',(-6.199974437955,0.4000253896,0.219999993805));
#1503=CARTESIAN_POINT('',(-0.399974589498,-0.399974589498,0.219999993805));
#1504=CARTESIAN_POINT('',(-0.399974589498,0.4000253896,0.219999993805));
#1505=CARTESIAN_POINT('',(-3.299974513727,-0.399974589498,0.219999993805));
#1506=CARTESIAN_POINT('',(-6.199974437955,-0.399974589498,0.219999993805));
#1507=CARTESIAN_POINT('',(-3.299974513727,-3.299974513727,0.219999993805));
#1508=CARTESIAN_POINT('Origin',(2.54000508001E-5,2.54000508001E-5,0.219999993805));
#1509=CARTESIAN_POINT('',(1.050025372616,-0.324974591458,0.219999993805));
#1510=CARTESIAN_POINT('',(1.050025372616,0.325025391559,0.219999993805));
#1511=CARTESIAN_POINT('',(1.050025372616,0.325025391559,0.219999993805));
#1512=CARTESIAN_POINT('',(3.300025313828,-0.324974591458,0.219999993805));
#1513=CARTESIAN_POINT('',(2.540005080002E-5,-0.324974591458,0.219999993805));
#1514=CARTESIAN_POINT('',(3.300025313828,-0.399974589498,0.219999993805));
#1515=CARTESIAN_POINT('',(3.300025313828,-3.299974513727,0.219999993805));
#1516=CARTESIAN_POINT('',(0.4000253896,-0.399974589498,0.219999993805));
#1517=CARTESIAN_POINT('',(6.200025238057,-0.399974589498,0.219999993805));
#1518=CARTESIAN_POINT('',(0.4000253896,0.4000253896,0.219999993805));
#1519=CARTESIAN_POINT('',(0.4000253896,0.4000253896,0.219999993805));
#1520=CARTESIAN_POINT('',(3.300025313828,0.4000253896,0.219999993805));
#1521=CARTESIAN_POINT('',(6.200025238057,0.4000253896,0.219999993805));
#1522=CARTESIAN_POINT('',(3.300025313828,0.325025391559,0.219999993805));
#1523=CARTESIAN_POINT('',(3.300025313828,-3.299974513727,0.219999993805));
#1524=CARTESIAN_POINT('',(3.650025304683,0.325025391559,0.219999993805));
#1525=CARTESIAN_POINT('Origin',(2.54000508001E-5,2.54000508001E-5,0.519999985966));
#1526=CARTESIAN_POINT('',(-3.162252177493,-0.749974580353,0.819999978128));
#1527=CARTESIAN_POINT('',(-3.162252177493,-0.749974580353,0.519999985966));
#1528=CARTESIAN_POINT('',(-3.162252177493,-0.749974580353,0.519999985966));
#1529=CARTESIAN_POINT('',(-0.749974580353,-3.162252177493,0.819999978128));
#1530=CARTESIAN_POINT('Origin',(2.54000508001E-5,2.54000508001E-5,0.819999978128));
#1531=CARTESIAN_POINT('',(-0.749974580353,-3.162252177493,0.519999985966));
#1532=CARTESIAN_POINT('',(-0.749974580353,-3.162252177493,0.519999985966));
#1533=CARTESIAN_POINT('Origin',(2.54000508001E-5,2.54000508001E-5,0.519999985966));
#1534=CARTESIAN_POINT('Origin',(2.54000508001E-5,2.54000508001E-5,0.519999985966));
#1535=CARTESIAN_POINT('',(-0.749974580353,3.162302977595,0.819999978128));
#1536=CARTESIAN_POINT('',(-0.749974580353,3.162302977595,0.519999985966));
#1537=CARTESIAN_POINT('',(-0.749974580353,3.162302977595,0.519999985966));
#1538=CARTESIAN_POINT('',(-3.162252177493,0.750025380455,0.819999978128));
#1539=CARTESIAN_POINT('Origin',(2.54000508001E-5,2.54000508001E-5,0.819999978128));
#1540=CARTESIAN_POINT('',(-3.162252177493,0.750025380455,0.519999985966));
#1541=CARTESIAN_POINT('',(-3.162252177493,0.750025380455,0.519999985966));
#1542=CARTESIAN_POINT('Origin',(2.54000508001E-5,2.54000508001E-5,0.519999985966));
#1543=CARTESIAN_POINT('Origin',(3.300025313828,3.300025313828,1.019999972902));
#1544=CARTESIAN_POINT('',(3.300025313828,3.300025313828,0.0199999990304));
#1545=CARTESIAN_POINT('',(-2.09997454508,3.300025313828,0.0199999990304));
#1546=CARTESIAN_POINT('',(3.300025313828,3.300025313828,0.0199999990304));
#1547=CARTESIAN_POINT('',(-2.09997454508,3.300025313828,0.819999978128));
#1548=CARTESIAN_POINT('',(-2.09997454508,3.300025313828,1.019999972902));
#1549=CARTESIAN_POINT('',(-0.749974580353,3.300025313828,0.819999978128));
#1550=CARTESIAN_POINT('',(-0.749974580353,3.300025313828,0.819999978128));
#1551=CARTESIAN_POINT('',(-0.749974580353,3.300025313828,0.519999985966));
#1552=CARTESIAN_POINT('',(-0.749974580353,3.300025313828,1.019999972902));
#1553=CARTESIAN_POINT('',(0.750025380455,3.300025313828,0.519999985966));
#1554=CARTESIAN_POINT('',(3.300025313828,3.300025313828,0.519999985966));
#1555=CARTESIAN_POINT('',(0.750025380455,3.300025313828,1.019999972902));
#1556=CARTESIAN_POINT('',(0.750025380455,3.300025313828,1.019999972902));
#1557=CARTESIAN_POINT('',(3.300025313828,3.300025313828,1.019999972902));
#1558=CARTESIAN_POINT('',(3.300025313828,3.300025313828,1.019999972902));
#1559=CARTESIAN_POINT('',(3.300025313828,3.300025313828,1.019999972902));
#1560=CARTESIAN_POINT('Origin',(-3.299974513727,-3.299974513727,1.019999972902));
#1561=CARTESIAN_POINT('',(-3.299974513727,-3.299974513727,0.219999993805));
#1562=CARTESIAN_POINT('',(-3.299974513727,-0.399974589498,0.0199999990304));
#1563=CARTESIAN_POINT('',(-3.299974513727,-0.399974589498,1.019999972902));
#1564=CARTESIAN_POINT('',(-3.299974513727,-2.09997454508,0.0199999990304));
#1565=CARTESIAN_POINT('',(-3.299974513727,-3.299974513727,0.0199999990304));
#1566=CARTESIAN_POINT('',(-3.299974513727,-2.09997454508,0.819999978128));
#1567=CARTESIAN_POINT('',(-3.299974513727,-2.09997454508,1.019999972902));
#1568=CARTESIAN_POINT('',(-3.299974513727,-0.749974580353,0.819999978128));
#1569=CARTESIAN_POINT('',(-3.299974513727,-0.749974580353,0.819999978128));
#1570=CARTESIAN_POINT('',(-3.299974513727,-0.749974580353,0.519999985966));
#1571=CARTESIAN_POINT('',(-3.299974513727,-0.749974580353,2.51999993371));
#1572=CARTESIAN_POINT('',(-3.299974513727,0.750025380455,0.519999985966));
#1573=CARTESIAN_POINT('',(-3.299974513727,-0.749974580353,0.519999985966));
#1574=CARTESIAN_POINT('',(-3.299974513727,0.750025380455,0.819999978128));
#1575=CARTESIAN_POINT('',(-3.299974513727,0.750025380455,2.51999993371));
#1576=CARTESIAN_POINT('',(-3.299974513727,2.100025345182,0.819999978128));
#1577=CARTESIAN_POINT('',(-3.299974513727,3.300025313828,0.819999978128));
#1578=CARTESIAN_POINT('',(-3.299974513727,2.100025345182,0.0199999990304));
#1579=CARTESIAN_POINT('',(-3.299974513727,2.100025345182,1.019999972902));
#1580=CARTESIAN_POINT('',(-3.299974513727,0.4000253896,0.0199999990304));
#1581=CARTESIAN_POINT('',(-3.299974513727,-3.299974513727,0.0199999990304));
#1582=CARTESIAN_POINT('',(-3.299974513727,0.4000253896,1.019999972902));
#1583=CARTESIAN_POINT('Origin',(3.300025313828,0.750025380455,2.51999993371));
#1584=CARTESIAN_POINT('',(-3.299974513727,0.750025380455,0.819999978128));
#1585=CARTESIAN_POINT('',(3.300025313828,0.750025380455,0.519999985966));
#1586=CARTESIAN_POINT('Origin',(3.300025313828,-0.749974580353,2.51999993371));
#1587=CARTESIAN_POINT('',(-3.162252177493,-0.749974580353,0.819999978128));
#1588=CARTESIAN_POINT('',(3.300025313828,-0.749974580353,0.519999985966));
#1589=CARTESIAN_POINT('Origin',(-0.749974580353,-6.749974423585,1.019999972902));
#1590=CARTESIAN_POINT('',(-0.749974580353,3.162302977595,0.819999978128));
#1591=CARTESIAN_POINT('',(-0.749974580353,-6.749974423585,0.519999985966));
#1592=CARTESIAN_POINT('Origin',(-0.749974580353,-6.749974423585,1.019999972902));
#1593=CARTESIAN_POINT('',(-0.749974580353,-3.299974513727,0.819999978128));
#1594=CARTESIAN_POINT('',(-0.749974580353,-3.299974513727,0.819999978128));
#1595=CARTESIAN_POINT('',(-0.749974580353,-3.299974513727,0.519999985966));
#1596=CARTESIAN_POINT('',(-0.749974580353,-3.299974513727,1.019999972902));
#1597=CARTESIAN_POINT('',(-0.749974580353,-6.749974423585,0.519999985966));
#1598=CARTESIAN_POINT('Origin',(2.54000508001E-5,2.54000508001E-5,1.019999972902));
#1599=CARTESIAN_POINT('',(0.750025380455,-3.162252177493,1.019999972902));
#1600=CARTESIAN_POINT('',(3.162302977595,-0.749974580353,1.019999972902));
#1601=CARTESIAN_POINT('Origin',(2.54000508001E-5,2.54000508001E-5,1.019999972902));
#1602=CARTESIAN_POINT('',(0.750025380455,-3.299974513727,1.019999972902));
#1603=CARTESIAN_POINT('',(0.750025380455,-6.749974423585,1.019999972902));
#1604=CARTESIAN_POINT('',(3.300025313828,-3.299974513727,1.019999972902));
#1605=CARTESIAN_POINT('',(3.300025313828,-3.299974513727,1.019999972902));
#1606=CARTESIAN_POINT('',(3.300025313828,-0.749974580353,1.019999972902));
#1607=CARTESIAN_POINT('',(3.300025313828,-3.299974513727,1.019999972902));
#1608=CARTESIAN_POINT('',(2.540005080001E-5,-0.749974580353,1.019999972902));
#1609=CARTESIAN_POINT('Origin',(2.54000508001E-5,2.54000508001E-5,1.019999972902));
#1610=CARTESIAN_POINT('',(0.750025380455,3.162302977595,1.019999972902));
#1611=CARTESIAN_POINT('',(0.750025380455,-6.749974423585,1.019999972902));
#1612=CARTESIAN_POINT('',(3.162302977595,0.750025380455,1.019999972902));
#1613=CARTESIAN_POINT('Origin',(2.54000508001E-5,2.54000508001E-5,1.019999972902));
#1614=CARTESIAN_POINT('',(3.300025313828,0.750025380455,1.019999972902));
#1615=CARTESIAN_POINT('',(2.540005080019E-5,0.750025380455,1.019999972902));
#1616=CARTESIAN_POINT('',(3.300025313828,-3.299974513727,1.019999972902));
#1617=CARTESIAN_POINT('Origin',(2.54000508001E-5,2.54000508001E-5,0.519999985966));
#1618=CARTESIAN_POINT('',(0.750025380455,-3.162252177493,0.519999985966));
#1619=CARTESIAN_POINT('',(3.162302977595,-0.749974580353,0.519999985966));
#1620=CARTESIAN_POINT('Origin',(2.54000508001E-5,2.54000508001E-5,0.519999985966));
#1621=CARTESIAN_POINT('',(0.750025380455,-3.162252177493,0.519999985966));
#1622=CARTESIAN_POINT('',(3.162302977595,-0.749974580353,0.519999985966));
#1623=CARTESIAN_POINT('Origin',(2.54000508001E-5,2.54000508001E-5,0.519999985966));
#1624=CARTESIAN_POINT('',(0.750025380455,3.162302977595,0.519999985966));
#1625=CARTESIAN_POINT('',(0.750025380455,3.162302977595,0.519999985966));
#1626=CARTESIAN_POINT('',(3.162302977595,0.750025380455,0.519999985966));
#1627=CARTESIAN_POINT('Origin',(2.54000508001E-5,2.54000508001E-5,0.519999985966));
#1628=CARTESIAN_POINT('',(3.162302977595,0.750025380455,0.519999985966));
#1629=CARTESIAN_POINT('Origin',(3.300025313828,-3.299974513727,1.019999972902));
#1630=CARTESIAN_POINT('',(3.300025313828,-3.299974513727,0.0199999990304));
#1631=CARTESIAN_POINT('',(3.300025313828,-0.399974589498,0.0199999990304));
#1632=CARTESIAN_POINT('',(3.300025313828,-3.299974513727,0.0199999990304));
#1633=CARTESIAN_POINT('',(3.300025313828,-0.399974589498,1.019999972902));
#1634=CARTESIAN_POINT('',(3.300025313828,-3.299974513727,0.219999993805));
#1635=CARTESIAN_POINT('',(3.300025313828,0.4000253896,0.0199999990304));
#1636=CARTESIAN_POINT('',(3.300025313828,0.4000253896,1.019999972902));
#1637=CARTESIAN_POINT('',(3.300025313828,-3.299974513727,0.0199999990304));
#1638=CARTESIAN_POINT('',(3.300025313828,0.750025380455,0.519999985966));
#1639=CARTESIAN_POINT('',(3.300025313828,0.750025380455,2.51999993371));
#1640=CARTESIAN_POINT('',(3.300025313828,-0.749974580353,0.519999985966));
#1641=CARTESIAN_POINT('',(3.300025313828,-0.749974580353,0.519999985966));
#1642=CARTESIAN_POINT('',(3.300025313828,-0.749974580353,2.51999993371));
#1643=CARTESIAN_POINT('',(3.300025313828,-3.299974513727,1.019999972902));
#1644=CARTESIAN_POINT('Origin',(2.54000508001E-5,2.54000508001E-5,0.0199999990304));
#1645=CARTESIAN_POINT('',(0.4000253896,-0.399974589498,0.0199999990304));
#1646=CARTESIAN_POINT('',(0.4000253896,0.4000253896,0.0199999990304));
#1647=CARTESIAN_POINT('',(0.4000253896,0.4000253896,0.0199999990304));
#1648=CARTESIAN_POINT('',(2.540005080005E-5,-0.399974589498,0.0199999990304));
#1649=CARTESIAN_POINT('',(-2.09997454508,-3.299974513727,0.0199999990304));
#1650=CARTESIAN_POINT('',(3.300025313828,-3.299974513727,0.0199999990304));
#1651=CARTESIAN_POINT('',(-2.09997454508,-3.299974513727,0.0199999990304));
#1652=CARTESIAN_POINT('',(-0.399974589498,-0.399974589498,0.0199999990304));
#1653=CARTESIAN_POINT('',(-6.199974437955,-0.399974589498,0.0199999990304));
#1654=CARTESIAN_POINT('',(-0.399974589498,0.4000253896,0.0199999990304));
#1655=CARTESIAN_POINT('',(-0.399974589498,0.4000253896,0.0199999990304));
#1656=CARTESIAN_POINT('',(2.540005080015E-5,0.4000253896,0.0199999990304));
#1657=CARTESIAN_POINT('',(-3.299974513727,2.100025345182,0.0199999990304));
#1658=CARTESIAN_POINT('',(6.200025238057,0.4000253896,0.0199999990304));
#1659=CARTESIAN_POINT('Origin',(2.54000508001E-5,2.54000508001E-5,0.519999985966));
#1660=CARTESIAN_POINT('',(0.750025380455,-6.749974423585,0.519999985966));
#1661=CARTESIAN_POINT('',(0.750025380455,-3.299974513727,0.519999985966));
#1662=CARTESIAN_POINT('',(3.300025313828,-3.299974513727,0.519999985966));
#1663=CARTESIAN_POINT('',(0.750025380455,-6.749974423585,0.519999985966));
#1664=CARTESIAN_POINT('',(3.300025313828,-0.749974580353,0.519999985966));
#1665=CARTESIAN_POINT('',(3.300025313828,0.750025380455,0.519999985966));
#1666=CARTESIAN_POINT('Origin',(3.300025313828,0.750025380455,2.51999993371));
#1667=CARTESIAN_POINT('Origin',(3.300025313828,-0.749974580353,2.51999993371));
#1668=CARTESIAN_POINT('Origin',(0.750025380455,-6.749974423585,1.019999972902));
#1669=CARTESIAN_POINT('Origin',(0.750025380455,-6.749974423585,1.019999972902));
#1670=CARTESIAN_POINT('',(0.750025380455,-3.299974513727,1.019999972902));
#1671=CARTESIAN_POINT('Origin',(2.54000508001E-5,2.54000508001E-5,0.819999978128));
#1672=CARTESIAN_POINT('',(-2.09997454508,-3.299974513727,0.819999978128));
#1673=CARTESIAN_POINT('',(-2.699974529403,-2.699974529403,0.819999978128));
#1674=CARTESIAN_POINT('',(-3.299974513727,-3.299974513727,0.819999978128));
#1675=CARTESIAN_POINT('Origin',(2.54000508001E-5,2.54000508001E-5,0.819999978128));
#1676=CARTESIAN_POINT('',(-2.699974529403,2.700025329505,0.819999978128));
#1677=CARTESIAN_POINT('Origin',(2.54000508001E-5,2.54000508001E-5,5.819999847488));
#1678=CARTESIAN_POINT('',(1.437614732469,-2.575986334503,5.819999847488));
#1679=CARTESIAN_POINT('Origin',(-2.09997454508,-3.299974513727,1.019999972902));
#1680=CARTESIAN_POINT('',(-2.09997454508,-3.299974513727,1.019999972902));
#1681=CARTESIAN_POINT('Origin',(-3.299974513727,2.100025345182,1.019999972902));
#1682=CARTESIAN_POINT('Origin',(-6.199974437955,-0.399974589498,0.219999993805));
#1683=CARTESIAN_POINT('',(-0.399974589498,-0.399974589498,0.219999993805));
#1684=CARTESIAN_POINT('Origin',(-6.199974437955,0.4000253896,0.219999993805));
#1685=CARTESIAN_POINT('',(-0.399974589498,0.4000253896,0.219999993805));
#1686=CARTESIAN_POINT('Origin',(-0.399974589498,0.4000253896,0.219999993805));
#1687=CARTESIAN_POINT('Origin',(6.200025238057,-0.399974589498,0.219999993805));
#1688=CARTESIAN_POINT('',(0.4000253896,-0.399974589498,0.219999993805));
#1689=CARTESIAN_POINT('Origin',(6.200025238057,0.4000253896,0.219999993805));
#1690=CARTESIAN_POINT('',(0.4000253896,0.4000253896,0.219999993805));
#1691=CARTESIAN_POINT('Origin',(0.4000253896,0.4000253896,0.219999993805));
#1692=CARTESIAN_POINT('Origin',(2.54000508001E-5,2.54000508001E-5,0.219999993805));
#1693=CARTESIAN_POINT('',(3.650025304683,0.325025391559,0.219999993805));
#1694=CARTESIAN_POINT('',(3.650025304683,0.325025391559,0.219999993805));
#1695=CARTESIAN_POINT('',(3.650025304683,-0.324974591458,0.219999993805));
#1696=CARTESIAN_POINT('',(3.650025304683,-0.324974591458,0.219999993805));
#1697=CARTESIAN_POINT('',(3.650025304683,0.325025391559,0.219999993805));
#1698=CARTESIAN_POINT('Origin',(3.650025304683,-0.324974591458,-2.700018586552));
#1699=CARTESIAN_POINT('',(1.050025372616,-0.324974591458,-4.470348778651E-10));
#1700=CARTESIAN_POINT('',(1.050025372616,-0.324974591458,-2.700018586552));
#1701=CARTESIAN_POINT('',(3.650025304683,-0.324974591458,-4.470357452269E-10));
#1702=CARTESIAN_POINT('',(3.650025304683,-0.324974591458,-4.470348778651E-10));
#1703=CARTESIAN_POINT('',(3.650025304683,-0.324974591458,-2.700018586552));
#1704=CARTESIAN_POINT('Origin',(3.650025304683,0.325025391559,-2.700018586552));
#1705=CARTESIAN_POINT('',(3.650025304683,0.325025391559,-4.470348778651E-10));
#1706=CARTESIAN_POINT('',(3.650025304683,0.325025391559,-4.470348778651E-10));
#1707=CARTESIAN_POINT('',(3.650025304683,0.325025391559,-2.700018586552));
#1708=CARTESIAN_POINT('Origin',(3.650025304683,0.325025391559,-2.700018586552));
#1709=CARTESIAN_POINT('',(1.050025372616,0.325025391559,-4.470348778651E-10));
#1710=CARTESIAN_POINT('',(3.650025304683,0.325025391559,-4.470348778651E-10));
#1711=CARTESIAN_POINT('',(1.050025372616,0.325025391559,-2.700018586552));
#1712=CARTESIAN_POINT('Origin',(1.050025372616,0.325025391559,-2.700018586552));
#1713=CARTESIAN_POINT('',(1.050025372616,0.325025391559,-4.470348778651E-10));
#1714=CARTESIAN_POINT('Origin',(2.54000508001E-5,2.54000508001E-5,-4.470348258234E-10));
#1715=CARTESIAN_POINT('Origin',(2.54000508001E-5,2.54000508001E-5,0.219999993805));
#1716=CARTESIAN_POINT('',(-3.649974504582,0.325025391559,0.219999993805));
#1717=CARTESIAN_POINT('',(-3.649974504582,0.325025391559,0.219999993805));
#1718=CARTESIAN_POINT('',(-3.649974504582,-0.324974591458,0.219999993805));
#1719=CARTESIAN_POINT('',(-3.649974504582,0.325025391559,0.219999993805));
#1720=CARTESIAN_POINT('',(-3.649974504582,-0.324974591458,0.219999993805));
#1721=CARTESIAN_POINT('Origin',(-3.649974504582,-0.324974591458,-2.700018586552));
#1722=CARTESIAN_POINT('',(-3.649974504582,-0.324974591458,-4.470348778651E-10));
#1723=CARTESIAN_POINT('',(-3.649974504582,-0.324974591458,-2.700018586552));
#1724=CARTESIAN_POINT('',(-1.049974572515,-0.324974591458,-4.470357452269E-10));
#1725=CARTESIAN_POINT('',(-3.649974504582,-0.324974591458,-4.470348778651E-10));
#1726=CARTESIAN_POINT('',(-1.049974572515,-0.324974591458,-2.700018586552));
#1727=CARTESIAN_POINT('Origin',(-1.049974572515,0.325025391559,-2.700018586552));
#1728=CARTESIAN_POINT('',(-1.049974572515,0.325025391559,-4.470348778651E-10));
#1729=CARTESIAN_POINT('',(-1.049974572515,0.325025391559,-4.470348778651E-10));
#1730=CARTESIAN_POINT('',(-1.049974572515,0.325025391559,-2.700018586552));
#1731=CARTESIAN_POINT('Origin',(-3.649974504582,0.325025391559,-2.700018586552));
#1732=CARTESIAN_POINT('',(-3.649974504582,0.325025391559,-4.470348778651E-10));
#1733=CARTESIAN_POINT('',(-3.649974504582,0.325025391559,-4.470348778651E-10));
#1734=CARTESIAN_POINT('',(-3.649974504582,0.325025391559,-2.700018586552));
#1735=CARTESIAN_POINT('Origin',(-3.649974504582,0.325025391559,-2.700018586552));
#1736=CARTESIAN_POINT('',(-3.649974504582,0.325025391559,-4.470348778651E-10));
#1737=CARTESIAN_POINT('Origin',(2.54000508001E-5,2.54000508001E-5,-4.470348258234E-10));
#1738=CARTESIAN_POINT('Origin',(2.54000508001E-5,2.54000508001E-5,5.818999847514));
#1739=CARTESIAN_POINT('',(1.437614732469,-2.575986334503,5.818999847514));
#1740=CARTESIAN_POINT('',(1.437614732469,-2.575986334503,5.818999847514));
#1741=CARTESIAN_POINT('',(1.437614732469,2.576037134605,5.818999847514));
#1742=CARTESIAN_POINT('',(1.437614732469,2.576037134605,5.818999847514));
#1743=CARTESIAN_POINT('Origin',(2.54000508001E-5,2.54000508001E-5,5.818999847514));
#1744=CARTESIAN_POINT('Origin',(1.437614732469,-2.575986334503,5.818999847514));
#1745=CARTESIAN_POINT('',(1.437614732469,-2.575986334503,5.818999847514));
#1746=CARTESIAN_POINT('Origin',(2.54000508001E-5,2.54000508001E-5,5.818999847514));
#1747=CARTESIAN_POINT('Origin',(3.300025313828,-3.299974513727,1.019999972902));
#1748=UNCERTAINTY_MEASURE_WITH_UNIT(LENGTH_MEASURE(0.01),#1752,
'DISTANCE_ACCURACY_VALUE',
'Maximum model space distance between geometric entities at asserted c
onnectivities');
#1749=UNCERTAINTY_MEASURE_WITH_UNIT(LENGTH_MEASURE(0.01),#1752,
'DISTANCE_ACCURACY_VALUE',
'Maximum model space distance between geometric entities at asserted c
onnectivities');
#1750=(
GEOMETRIC_REPRESENTATION_CONTEXT(3)
GLOBAL_UNCERTAINTY_ASSIGNED_CONTEXT((#1748))
GLOBAL_UNIT_ASSIGNED_CONTEXT((#1752,#1754,#1755))
REPRESENTATION_CONTEXT('','3D')
);
#1751=(
GEOMETRIC_REPRESENTATION_CONTEXT(3)
GLOBAL_UNCERTAINTY_ASSIGNED_CONTEXT((#1749))
GLOBAL_UNIT_ASSIGNED_CONTEXT((#1752,#1754,#1755))
REPRESENTATION_CONTEXT('','3D')
);
#1752=(
LENGTH_UNIT()
NAMED_UNIT(*)
SI_UNIT(.MILLI.,.METRE.)
);
#1753=(
LENGTH_UNIT()
NAMED_UNIT(*)
SI_UNIT($,.METRE.)
);
#1754=(
NAMED_UNIT(*)
PLANE_ANGLE_UNIT()
SI_UNIT($,.RADIAN.)
);
#1755=(
NAMED_UNIT(*)
SI_UNIT($,.STERADIAN.)
SOLID_ANGLE_UNIT()
);
#1756=SHAPE_DEFINITION_REPRESENTATION(#1757,#1758);
#1757=PRODUCT_DEFINITION_SHAPE('',$,#1760);
#1758=SHAPE_REPRESENTATION('',(#1094),#1750);
#1759=PRODUCT_DEFINITION_CONTEXT('part definition',#1764,'design');
#1760=PRODUCT_DEFINITION('2025-09-08-22-37-35-695','(\X2\672A4FDD5B58\X0\)',
#1761,#1759);
#1761=PRODUCT_DEFINITION_FORMATION('',$,#1766);
#1762=PRODUCT_RELATED_PRODUCT_CATEGORY('(\X2\672A4FDD5B58\X0\)',
'(\X2\672A4FDD5B58\X0\)',(#1766));
#1763=APPLICATION_PROTOCOL_DEFINITION('international standard',
'automotive_design',2009,#1764);
#1764=APPLICATION_CONTEXT(
'Core Data for Automotive Mechanical Design Process');
#1765=PRODUCT_CONTEXT('part definition',#1764,'mechanical');
#1766=PRODUCT('2025-09-08-22-37-35-695','(\X2\672A4FDD5B58\X0\)',$,(#1765));
#1767=PRESENTATION_STYLE_ASSIGNMENT((#1772));
#1768=PRESENTATION_STYLE_ASSIGNMENT((#1773));
#1769=PRESENTATION_STYLE_ASSIGNMENT((#1774));
#1770=PRESENTATION_STYLE_ASSIGNMENT((#1775));
#1771=PRESENTATION_STYLE_ASSIGNMENT((#1776));
#1772=SURFACE_STYLE_USAGE(.BOTH.,#1777);
#1773=SURFACE_STYLE_USAGE(.BOTH.,#1778);
#1774=SURFACE_STYLE_USAGE(.BOTH.,#1779);
#1775=SURFACE_STYLE_USAGE(.BOTH.,#1780);
#1776=SURFACE_STYLE_USAGE(.BOTH.,#1781);
#1777=SURFACE_SIDE_STYLE('',(#1782));
#1778=SURFACE_SIDE_STYLE('',(#1783));
#1779=SURFACE_SIDE_STYLE('',(#1784));
#1780=SURFACE_SIDE_STYLE('',(#1785));
#1781=SURFACE_SIDE_STYLE('',(#1786));
#1782=SURFACE_STYLE_FILL_AREA(#1787);
#1783=SURFACE_STYLE_FILL_AREA(#1788);
#1784=SURFACE_STYLE_FILL_AREA(#1789);
#1785=SURFACE_STYLE_FILL_AREA(#1790);
#1786=SURFACE_STYLE_FILL_AREA(#1791);
#1787=FILL_AREA_STYLE('\X2\94A2\X0\ - \X2\7F0E5149\X0\',(#1792));
#1788=FILL_AREA_STYLE('Opaque(128,64,64)',(#1793));
#1789=FILL_AREA_STYLE('Opaque(255,255,255)',(#1794));
#1790=FILL_AREA_STYLE('Opaque(64,64,64)',(#1795));
#1791=FILL_AREA_STYLE('Opaque(255,128,255)',(#1796));
#1792=FILL_AREA_STYLE_COLOUR('\X2\94A2\X0\ - \X2\7F0E5149\X0\',#1797);
#1793=FILL_AREA_STYLE_COLOUR('Opaque(128,64,64)',#1798);
#1794=FILL_AREA_STYLE_COLOUR('Opaque(255,255,255)',#1799);
#1795=FILL_AREA_STYLE_COLOUR('Opaque(64,64,64)',#1800);
#1796=FILL_AREA_STYLE_COLOUR('Opaque(255,128,255)',#1801);
#1797=COLOUR_RGB('\X2\94A2\X0\ - \X2\7F0E5149\X0\',0.627450980392157,0.627450980392157,
0.627450980392157);
#1798=COLOUR_RGB('Opaque(128,64,64)',0.501960784313725,0.250980392156863,
0.250980392156863);
#1799=COLOUR_RGB('Opaque(255,255,255)',1.,1.,1.);
#1800=COLOUR_RGB('Opaque(64,64,64)',0.250980392156863,0.250980392156863,
0.250980392156863);
#1801=COLOUR_RGB('Opaque(255,128,255)',1.,0.501960784313725,1.);
ENDSEC;
END-ISO-10303-21;
