ISO-10303-21;
HEADER;
FILE_DESCRIPTION (( 'STEP AP214' ),
    '1' );
FILE_NAME ('FTC2520.STEP',
    '2025-08-26T05:11:25',
    ( '' ),
    ( '' ),
    'SwSTEP 2.0',
    'SolidWorks 2025',
    '' );
FILE_SCHEMA (( 'AUTOMOTIVE_DESIGN' ));
ENDSEC;

DATA;
#1 = ADVANCED_FACE ( 'NONE', ( #506 ), #230, .T. ) ;
#2 = CARTESIAN_POINT ( 'NONE',  ( -0.6500000000000000222, 0.9899999999999999911, 0.009999966621399000721 ) ) ;
#3 = VERTEX_POINT ( 'NONE', #111 ) ;
#4 = DIRECTION ( 'NONE',  ( 0.000000000000000000, 0.000000000000000000, -1.000000000000000000 ) ) ;
#5 =( NAMED_UNIT ( * ) SI_UNIT ( $, .STERADIAN. ) SOLID_ANGLE_UNIT ( ) );
#6 = CARTESIAN_POINT ( 'NONE',  ( 0.6500000000000000222, 1.000000000000000000, 3.248061268403999780 ) ) ;
#7 = ADVANCED_FACE ( 'NONE', ( #122 ), #525, .T. ) ;
#8 = PRESENTATION_LAYER_ASSIGNMENT (  '', '', ( #251 ) ) ;
#9 = STYLED_ITEM ( 'NONE', ( #501 ), #1166 ) ;
#10 = DIRECTION ( 'NONE',  ( 0.000000000000000000, 0.000000000000000000, 1.000000000000000000 ) ) ;
#11 = VERTEX_POINT ( 'NONE', #211 ) ;
#12 = CARTESIAN_POINT ( 'NONE',  ( 1.149999999999999911, -0.9000000000000000222, 1.159999966620999912 ) ) ;
#13 = VECTOR ( 'NONE', #1195, 1000.000000000000000 ) ;
#14 = LINE ( 'NONE', #442, #320 ) ;
#15 = DIRECTION ( 'NONE',  ( 0.000000000000000000, 0.000000000000000000, -1.000000000000000000 ) ) ;
#16 = CARTESIAN_POINT ( 'NONE',  ( -0.6500000000000000222, 1.000000000000000000, -3.337860099427999893E-08 ) ) ;
#17 = ORIENTED_EDGE ( 'NONE', *, *, #598, .T. ) ;
#18 = SURFACE_STYLE_FILL_AREA ( #927 ) ;
#19 = ORIENTED_EDGE ( 'NONE', *, *, #1261, .F. ) ;
#20 = UNCERTAINTY_MEASURE_WITH_UNIT (LENGTH_MEASURE( 1.000000000000000082E-05 ), #1175, 'distance_accuracy_value', 'NONE');
#21 = FILL_AREA_STYLE ('',( #930 ) ) ;
#22 = FACE_OUTER_BOUND ( 'NONE', #1293, .T. ) ;
#23 = PLANE ( 'NONE',  #655 ) ;
#24 = ORIENTED_EDGE ( 'NONE', *, *, #83, .T. ) ;
#25 = DIRECTION ( 'NONE',  ( -1.000000000000000000, 4.336808689942000480E-16, 0.000000000000000000 ) ) ;
#26 = PRESENTATION_LAYER_ASSIGNMENT (  '', '', ( #1011 ) ) ;
#27 = STYLED_ITEM ( 'NONE', ( #1054 ), #223 ) ;
#28 = AXIS2_PLACEMENT_3D ( 'NONE', #982, #349, #963 ) ;
#29 =( GEOMETRIC_REPRESENTATION_CONTEXT ( 3 ) GLOBAL_UNCERTAINTY_ASSIGNED_CONTEXT ( ( #1220 ) ) GLOBAL_UNIT_ASSIGNED_CONTEXT ( ( #737, #1127, #744 ) ) REPRESENTATION_CONTEXT ( 'NONE', 'WORKASPACE' ) );
#30 = EDGE_CURVE ( 'NONE', #674, #698, #198, .T. ) ;
#31 = MECHANICAL_DESIGN_GEOMETRIC_PRESENTATION_REPRESENTATION (  '', ( #907 ), #555 ) ;
#32 = SURFACE_STYLE_USAGE ( .BOTH. , #728 ) ;
#33 = CARTESIAN_POINT ( 'NONE',  ( -1.149999999999999911, -0.9000000000000000222, -3.337860099427999893E-08 ) ) ;
#34 = CARTESIAN_POINT ( 'NONE',  ( 1.149999999999999911, 1.000000000000000000, 3.248061268403999780 ) ) ;
#35 = DIRECTION ( 'NONE',  ( -1.000000000000000000, 0.000000000000000000, 0.000000000000000000 ) ) ;
#36 = UNCERTAINTY_MEASURE_WITH_UNIT (LENGTH_MEASURE( 1.000000000000000082E-05 ), #245, 'distance_accuracy_value', 'NONE');
#37 = DIRECTION ( 'NONE',  ( 1.000000000000000000, 0.000000000000000000, 0.000000000000000000 ) ) ;
#38 = CARTESIAN_POINT ( 'NONE',  ( -0.6500000000000000222, -1.000000000000000000, -3.337860099427999893E-08 ) ) ;
#39 = EDGE_CURVE ( 'NONE', #269, #258, #818, .T. ) ;
#40 = SURFACE_STYLE_FILL_AREA ( #872 ) ;
#41 = CARTESIAN_POINT ( 'NONE',  ( 0.6500000000000000222, 0.9899999999999999911, -4.363452412097999833 ) ) ;
#42 = DIRECTION ( 'NONE',  ( -1.000000000000000000, 4.336808689942000480E-16, 0.000000000000000000 ) ) ;
#43 = ORIENTED_EDGE ( 'NONE', *, *, #575, .T. ) ;
#44 = DIRECTION ( 'NONE',  ( 0.000000000000000000, 0.000000000000000000, -1.000000000000000000 ) ) ;
#45 = FILL_AREA_STYLE_COLOUR ( '', #947 ) ;
#46 = FILL_AREA_STYLE_COLOUR ( '', #975 ) ;
#47 = CARTESIAN_POINT ( 'NONE',  ( -0.6500000000000000222, -1.000000000000000000, 1.159999966620999912 ) ) ;
#48 = DIRECTION ( 'NONE',  ( 0.000000000000000000, 0.000000000000000000, -1.000000000000000000 ) ) ;
#49 = FILL_AREA_STYLE ('',( #1040 ) ) ;
#50 = VERTEX_POINT ( 'NONE', #221 ) ;
#51 = UNCERTAINTY_MEASURE_WITH_UNIT (LENGTH_MEASURE( 1.000000000000000082E-05 ), #491, 'distance_accuracy_value', 'NONE');
#52 = DIRECTION ( 'NONE',  ( 0.000000000000000000, 0.000000000000000000, 1.000000000000000000 ) ) ;
#53 = EDGE_CURVE ( 'NONE', #1056, #817, #1223, .T. ) ;
#54 = FILL_AREA_STYLE ('',( #45 ) ) ;
#55 = STYLED_ITEM ( 'NONE', ( #95 ), #352 ) ;
#56 = COLOUR_RGB ( '',1.000000000000000000, 1.000000000000000000, 1.000000000000000000 ) ;
#57 = AXIS2_PLACEMENT_3D ( 'NONE', #1174, #865, #557 ) ;
#58 = SURFACE_STYLE_USAGE ( .BOTH. , #156 ) ;
#59 =( NAMED_UNIT ( * ) SI_UNIT ( $, .STERADIAN. ) SOLID_ANGLE_UNIT ( ) );
#60 = CARTESIAN_POINT ( 'NONE',  ( -1.149999999999999911, -1.000000000000000000, 3.248061268403999780 ) ) ;
#61 = AXIS2_PLACEMENT_3D ( 'NONE', #1132, #937, #139 ) ;
#62 = DIRECTION ( 'NONE',  ( 0.000000000000000000, 0.000000000000000000, -1.000000000000000000 ) ) ;
#63 = EDGE_LOOP ( 'NONE', ( #295, #350, #43, #172, #628, #591, #513, #416 ) ) ;
#64 = VECTOR ( 'NONE', #255, 1000.000000000000000 ) ;
#65 = CARTESIAN_POINT ( 'NONE',  ( 1.250000000000000000, -0.9000000000000000222, -3.337860099427999893E-08 ) ) ;
#66 = EDGE_CURVE ( 'NONE', #993, #311, #1311, .T. ) ;
#67 = COLOUR_RGB ( '',0.000000000000000000, 0.000000000000000000, 0.000000000000000000 ) ;
#68 =( NAMED_UNIT ( * ) PLANE_ANGLE_UNIT ( ) SI_UNIT ( $, .RADIAN. ) );
#69 = FACE_OUTER_BOUND ( 'NONE', #509, .T. ) ;
#70 = FACE_OUTER_BOUND ( 'NONE', #720, .T. ) ;
#71 = DIRECTION ( 'NONE',  ( 0.000000000000000000, 0.000000000000000000, 1.000000000000000000 ) ) ;
#72 = ORIENTED_EDGE ( 'NONE', *, *, #39, .F. ) ;
#73 = FILL_AREA_STYLE ('',( #1079 ) ) ;
#74 = LINE ( 'NONE', #675, #163 ) ;
#75 = SURFACE_STYLE_FILL_AREA ( #870 ) ;
#76 =( NAMED_UNIT ( * ) SI_UNIT ( $, .STERADIAN. ) SOLID_ANGLE_UNIT ( ) );
#77 = FILL_AREA_STYLE_COLOUR ( '', #126 ) ;
#78 = CARTESIAN_POINT ( 'NONE',  ( 1.149999999999999911, -1.000000000000000000, -3.337860099427999893E-08 ) ) ;
#79 = SURFACE_STYLE_FILL_AREA ( #388 ) ;
#80 = ORIENTED_EDGE ( 'NONE', *, *, #260, .T. ) ;
#81 = FACE_OUTER_BOUND ( 'NONE', #699, .T. ) ;
#82 = DIRECTION ( 'NONE',  ( -0.000000000000000000, 1.000000000000000000, 0.000000000000000000 ) ) ;
#83 = EDGE_CURVE ( 'NONE', #184, #1260, #476, .T. ) ;
#84 = PRESENTATION_STYLE_ASSIGNMENT (( #793 ) ) ;
#85 = CARTESIAN_POINT ( 'NONE',  ( 1.149999999999999911, -0.9899999999999999911, 0.009999966621399000721 ) ) ;
#86 = ORIENTED_EDGE ( 'NONE', *, *, #487, .F. ) ;
#87 = DIRECTION ( 'NONE',  ( 1.000000000000000000, 0.000000000000000000, 0.000000000000000000 ) ) ;
#88 = VECTOR ( 'NONE', #1145, 1000.000000000000000 ) ;
#89 = VECTOR ( 'NONE', #1165, 1000.000000000000000 ) ;
#90 = CARTESIAN_POINT ( 'NONE',  ( 0.6500000000000000222, -0.9899999999999999911, 0.009999966621399000721 ) ) ;
#91 = CARTESIAN_POINT ( 'NONE',  ( -1.250000000000000000, 1.000000000000000000, 1.159999966620999912 ) ) ;
#92 = AXIS2_PLACEMENT_3D ( 'NONE', #813, #1022, #913 ) ;
#93 = EDGE_LOOP ( 'NONE', ( #694, #756, #684, #72 ) ) ;
#94 = FILL_AREA_STYLE_COLOUR ( '', #1156 ) ;
#95 = PRESENTATION_STYLE_ASSIGNMENT (( #385 ) ) ;
#96 = ORIENTED_EDGE ( 'NONE', *, *, #672, .F. ) ;
#97 = SURFACE_STYLE_USAGE ( .BOTH. , #883 ) ;
#98 = ADVANCED_FACE ( 'NONE', ( #541 ), #571, .T. ) ;
#99 =( NAMED_UNIT ( * ) PLANE_ANGLE_UNIT ( ) SI_UNIT ( $, .RADIAN. ) );
#100 = VERTEX_POINT ( 'NONE', #543 ) ;
#101 = SURFACE_STYLE_FILL_AREA ( #1023 ) ;
#102 = PRESENTATION_LAYER_ASSIGNMENT (  '', '', ( #1068 ) ) ;
#103 = PRESENTATION_LAYER_ASSIGNMENT (  '', '', ( #1225 ) ) ;
#104 = AXIS2_PLACEMENT_3D ( 'NONE', #654, #1050, #1036 ) ;
#105 = EDGE_LOOP ( 'NONE', ( #725, #868, #729, #492 ) ) ;
#106 = COLOUR_RGB ( '',1.000000000000000000, 1.000000000000000000, 1.000000000000000000 ) ;
#107 = PRESENTATION_LAYER_ASSIGNMENT (  '', '', ( #1016 ) ) ;
#108 = CARTESIAN_POINT ( 'NONE',  ( -0.6500000000000000222, -1.000000000000000000, 3.248061268403999780 ) ) ;
#109 =( GEOMETRIC_REPRESENTATION_CONTEXT ( 3 ) GLOBAL_UNCERTAINTY_ASSIGNED_CONTEXT ( ( #1083 ) ) GLOBAL_UNIT_ASSIGNED_CONTEXT ( ( #1210, #613, #1212 ) ) REPRESENTATION_CONTEXT ( 'NONE', 'WORKASPACE' ) );
#110 = ORIENTED_EDGE ( 'NONE', *, *, #727, .T. ) ;
#111 = CARTESIAN_POINT ( 'NONE',  ( -1.250000000000000000, -0.9000000000000000222, -3.337860099427999893E-08 ) ) ;
#112 = LINE ( 'NONE', #806, #639 ) ;
#113 = CARTESIAN_POINT ( 'NONE',  ( 1.149999999999999911, -0.9899999999999999911, 1.159999966620999912 ) ) ;
#114 = DIRECTION ( 'NONE',  ( 0.000000000000000000, 1.000000000000000000, 0.000000000000000000 ) ) ;
#115 = ORIENTED_EDGE ( 'NONE', *, *, #631, .F. ) ;
#116 = CARTESIAN_POINT ( 'NONE',  ( -1.149999999999999911, 0.9000000000000000222, 1.209999966620999956 ) ) ;
#117 = DIRECTION ( 'NONE',  ( 5.421010862427999184E-17, 1.000000000000000000, 0.000000000000000000 ) ) ;
#118 = EDGE_CURVE ( 'NONE', #1070, #189, #764, .T. ) ;
#119 = MECHANICAL_DESIGN_GEOMETRIC_PRESENTATION_REPRESENTATION (  '', ( #1011 ), #978 ) ;
#120 = UNCERTAINTY_MEASURE_WITH_UNIT (LENGTH_MEASURE( 1.000000000000000082E-05 ), #202, 'distance_accuracy_value', 'NONE');
#121 = VERTEX_POINT ( 'NONE', #157 ) ;
#122 = FACE_OUTER_BOUND ( 'NONE', #833, .T. ) ;
#123 = VECTOR ( 'NONE', #62, 1000.000000000000000 ) ;
#124 = AXIS2_PLACEMENT_3D ( 'NONE', #135, #1148, #848 ) ;
#125 = APPLICATION_PROTOCOL_DEFINITION ( 'draft international standard', 'automotive_design', 1998, #1009 ) ;
#126 = COLOUR_RGB ( '',1.000000000000000000, 1.000000000000000000, 1.000000000000000000 ) ;
#127 = CARTESIAN_POINT ( 'NONE',  ( 1.250000000000000000, 1.000000000000000000, 1.209999966620999956 ) ) ;
#128 = PLANE ( 'NONE',  #612 ) ;
#129 = PRESENTATION_STYLE_ASSIGNMENT (( #457 ) ) ;
#130 = CARTESIAN_POINT ( 'NONE',  ( 1.149999999999999911, -1.000000000000000000, 1.209999966620999956 ) ) ;
#131 = PRESENTATION_STYLE_ASSIGNMENT (( #440 ) ) ;
#132 = ADVANCED_FACE ( 'NONE', ( #866 ), #1038, .F. ) ;
#133 = DIRECTION ( 'NONE',  ( 1.000000000000000000, 0.000000000000000000, 0.000000000000000000 ) ) ;
#134 = AXIS2_PLACEMENT_3D ( 'NONE', #108, #1018, #1133 ) ;
#135 = CARTESIAN_POINT ( 'NONE',  ( -1.250000000000000000, -1.000000000000000000, 1.209999966620999956 ) ) ;
#136 = DIRECTION ( 'NONE',  ( -5.421010862427999184E-17, 1.000000000000000000, 0.000000000000000000 ) ) ;
#137 = SURFACE_STYLE_FILL_AREA ( #49 ) ;
#138 = CARTESIAN_POINT ( 'NONE',  ( 0.6500000000000000222, -1.000000000000000000, 1.159999966620999912 ) ) ;
#139 = DIRECTION ( 'NONE',  ( 0.000000000000000000, 0.000000000000000000, -1.000000000000000000 ) ) ;
#140 = STYLED_ITEM ( 'NONE', ( #811 ), #1136 ) ;
#141 = PRESENTATION_LAYER_ASSIGNMENT (  '', '', ( #55 ) ) ;
#142 = EDGE_CURVE ( 'NONE', #1085, #1176, #341, .T. ) ;
#143 = STYLED_ITEM ( 'NONE', ( #455 ), #496 ) ;
#144 = VECTOR ( 'NONE', #933, 1000.000000000000000 ) ;
#145 = LINE ( 'NONE', #479, #164 ) ;
#146 = SURFACE_SIDE_STYLE ('',( #1254 ) ) ;
#147 = ORIENTED_EDGE ( 'NONE', *, *, #487, .T. ) ;
#148 = CARTESIAN_POINT ( 'NONE',  ( -1.149999999999999911, 1.000000000000000000, -3.337860099427999893E-08 ) ) ;
#149 = PLANE ( 'NONE',  #165 ) ;
#150 = EDGE_CURVE ( 'NONE', #483, #589, #246, .T. ) ;
#151 = CARTESIAN_POINT ( 'NONE',  ( -1.250000000000000000, 1.000000000000000000, 1.159999966620999912 ) ) ;
#152 = CARTESIAN_POINT ( 'NONE',  ( -0.6500000000000000222, 0.9899999999999999911, 1.159999966620999912 ) ) ;
#153 = FILL_AREA_STYLE_COLOUR ( '', #195 ) ;
#154 = ORIENTED_EDGE ( 'NONE', *, *, #150, .T. ) ;
#155 = LINE ( 'NONE', #644, #940 ) ;
#156 = SURFACE_SIDE_STYLE ('',( #853 ) ) ;
#157 = CARTESIAN_POINT ( 'NONE',  ( -1.250000000000000000, -0.9000000000000000222, 1.159999966620999912 ) ) ;
#158 =( NAMED_UNIT ( * ) SI_UNIT ( $, .STERADIAN. ) SOLID_ANGLE_UNIT ( ) );
#159 = PRESENTATION_STYLE_ASSIGNMENT (( #547 ) ) ;
#160 = EDGE_CURVE ( 'NONE', #184, #898, #648, .T. ) ;
#161 = ORIENTED_EDGE ( 'NONE', *, *, #217, .F. ) ;
#162 = SURFACE_STYLE_USAGE ( .BOTH. , #965 ) ;
#163 = VECTOR ( 'NONE', #52, 1000.000000000000000 ) ;
#164 = VECTOR ( 'NONE', #969, 1000.000000000000000 ) ;
#165 = AXIS2_PLACEMENT_3D ( 'NONE', #997, #181, #391 ) ;
#166 =( NAMED_UNIT ( * ) SI_UNIT ( $, .STERADIAN. ) SOLID_ANGLE_UNIT ( ) );
#167 = SURFACE_STYLE_FILL_AREA ( #1091 ) ;
#168 = VECTOR ( 'NONE', #453, 1000.000000000000000 ) ;
#169 = PRESENTATION_LAYER_ASSIGNMENT (  '', '', ( #278 ) ) ;
#170 = FILL_AREA_STYLE_COLOUR ( '', #425 ) ;
#171 = VERTEX_POINT ( 'NONE', #460 ) ;
#172 = ORIENTED_EDGE ( 'NONE', *, *, #1202, .T. ) ;
#173 = LINE ( 'NONE', #370, #305 ) ;
#174 = CIRCLE ( 'NONE', #452, 0.1000000000000000472 ) ;
#175 = FACE_OUTER_BOUND ( 'NONE', #989, .T. ) ;
#176 = PRESENTATION_STYLE_ASSIGNMENT (( #193 ) ) ;
#177 = DIRECTION ( 'NONE',  ( 0.000000000000000000, 0.000000000000000000, -1.000000000000000000 ) ) ;
#178 =( LENGTH_UNIT ( ) NAMED_UNIT ( * ) SI_UNIT ( .MILLI., .METRE. ) );
#179 = SURFACE_STYLE_FILL_AREA ( #73 ) ;
#180 = PRESENTATION_STYLE_ASSIGNMENT (( #789 ) ) ;
#181 = DIRECTION ( 'NONE',  ( -1.000000000000000000, -5.421010862427999184E-17, 0.000000000000000000 ) ) ;
#182 = EDGE_CURVE ( 'NONE', #589, #926, #347, .T. ) ;
#183 = CARTESIAN_POINT ( 'NONE',  ( 1.149999999999999911, 0.9000000000000000222, 1.209999966620999956 ) ) ;
#184 = VERTEX_POINT ( 'NONE', #659 ) ;
#185 = CARTESIAN_POINT ( 'NONE',  ( 1.250000000000000000, -0.9000000000000000222, -3.337860099427999893E-08 ) ) ;
#186 = VERTEX_POINT ( 'NONE', #1053 ) ;
#187 = CARTESIAN_POINT ( 'NONE',  ( 1.250000000000000000, 1.000000000000000000, 1.159999966620999912 ) ) ;
#188 = CARTESIAN_POINT ( 'NONE',  ( -1.149999999999999911, 0.9899999999999999911, 1.159999966620999912 ) ) ;
#189 = VERTEX_POINT ( 'NONE', #152 ) ;
#190 =( LENGTH_UNIT ( ) NAMED_UNIT ( * ) SI_UNIT ( .MILLI., .METRE. ) );
#191 = EDGE_CURVE ( 'NONE', #1211, #3, #253, .T. ) ;
#192 = MECHANICAL_DESIGN_GEOMETRIC_PRESENTATION_REPRESENTATION (  '', ( #9 ), #474 ) ;
#193 = SURFACE_STYLE_USAGE ( .BOTH. , #287 ) ;
#194 = EDGE_LOOP ( 'NONE', ( #812, #1200, #604, #324, #1013, #602, #464, #964, #901, #773, #766, #877, #1017, #1187, #1215, #1093 ) ) ;
#195 = COLOUR_RGB ( '',1.000000000000000000, 1.000000000000000000, 1.000000000000000000 ) ;
#196 = VECTOR ( 'NONE', #71, 1000.000000000000000 ) ;
#197 = PRESENTATION_STYLE_ASSIGNMENT (( #1177 ) ) ;
#198 = CIRCLE ( 'NONE', #679, 0.1000000000000000472 ) ;
#199 = DIRECTION ( 'NONE',  ( -1.000000000000000000, 0.000000000000000000, 0.000000000000000000 ) ) ;
#200 = ORIENTED_EDGE ( 'NONE', *, *, #217, .T. ) ;
#201 =( GEOMETRIC_REPRESENTATION_CONTEXT ( 3 ) GLOBAL_UNCERTAINTY_ASSIGNED_CONTEXT ( ( #120 ) ) GLOBAL_UNIT_ASSIGNED_CONTEXT ( ( #202, #705, #5 ) ) REPRESENTATION_CONTEXT ( 'NONE', 'WORKASPACE' ) );
#202 =( LENGTH_UNIT ( ) NAMED_UNIT ( * ) SI_UNIT ( .MILLI., .METRE. ) );
#203 = ADVANCED_FACE ( 'NONE', ( #396 ), #277, .T. ) ;
#204 = FACE_OUTER_BOUND ( 'NONE', #63, .T. ) ;
#205 = ORIENTED_EDGE ( 'NONE', *, *, #932, .T. ) ;
#206 = MECHANICAL_DESIGN_GEOMETRIC_PRESENTATION_REPRESENTATION (  '', ( #353 ), #595 ) ;
#207 = VECTOR ( 'NONE', #339, 1000.000000000000000 ) ;
#208 = VECTOR ( 'NONE', #761, 1000.000000000000000 ) ;
#209 = ORIENTED_EDGE ( 'NONE', *, *, #880, .T. ) ;
#210 = MECHANICAL_DESIGN_GEOMETRIC_PRESENTATION_REPRESENTATION (  '', ( #842 ), #1267 ) ;
#211 = CARTESIAN_POINT ( 'NONE',  ( -1.250000000000000000, -0.9000000000000000222, 1.159999966620999912 ) ) ;
#212 = CYLINDRICAL_SURFACE ( 'NONE', #581, 0.1000000000000000472 ) ;
#213 = ADVANCED_BREP_SHAPE_REPRESENTATION ( 'FTC2520', ( #219, #223, #537 ), #431 ) ;
#214 = UNCERTAINTY_MEASURE_WITH_UNIT (LENGTH_MEASURE( 1.000000000000000082E-05 ), #1123, 'distance_accuracy_value', 'NONE');
#215 = ORIENTED_EDGE ( 'NONE', *, *, #30, .F. ) ;
#216 = DIRECTION ( 'NONE',  ( 1.000000000000000000, 0.000000000000000000, 0.000000000000000000 ) ) ;
#217 = EDGE_CURVE ( 'NONE', #186, #674, #504, .T. ) ;
#218 = CARTESIAN_POINT ( 'NONE',  ( 1.149999999999999911, 1.000000000000000000, 3.248061268403999780 ) ) ;
#219 = MANIFOLD_SOLID_BREP ( 'NONE', #971 ) ;
#220 = ORIENTED_EDGE ( 'NONE', *, *, #836, .F. ) ;
#221 = CARTESIAN_POINT ( 'NONE',  ( 1.250000000000000000, 0.9000000000000000222, 1.209999966620999956 ) ) ;
#222 = DIRECTION ( 'NONE',  ( 0.000000000000000000, 0.000000000000000000, 1.000000000000000000 ) ) ;
#223 = MANIFOLD_SOLID_BREP ( 'NONE', #614 ) ;
#224 = SURFACE_STYLE_FILL_AREA ( #832 ) ;
#225 = ORIENTED_EDGE ( 'NONE', *, *, #727, .F. ) ;
#226 = AXIS2_PLACEMENT_3D ( 'NONE', #183, #177, #801 ) ;
#227 =( GEOMETRIC_REPRESENTATION_CONTEXT ( 3 ) GLOBAL_UNCERTAINTY_ASSIGNED_CONTEXT ( ( #333 ) ) GLOBAL_UNIT_ASSIGNED_CONTEXT ( ( #568, #249, #369 ) ) REPRESENTATION_CONTEXT ( 'NONE', 'WORKASPACE' ) );
#228 =( NAMED_UNIT ( * ) PLANE_ANGLE_UNIT ( ) SI_UNIT ( $, .RADIAN. ) );
#229 = CARTESIAN_POINT ( 'NONE',  ( -0.6500000000000000222, -1.000000000000000000, -3.337860099427999893E-08 ) ) ;
#230 = PLANE ( 'NONE',  #134 ) ;
#231 = CIRCLE ( 'NONE', #28, 0.1000000000000000472 ) ;
#232 = STYLED_ITEM ( 'NONE', ( #238 ), #706 ) ;
#233 =( NAMED_UNIT ( * ) SI_UNIT ( $, .STERADIAN. ) SOLID_ANGLE_UNIT ( ) );
#234 = ADVANCED_FACE ( 'NONE', ( #70 ), #469, .T. ) ;
#235 = ORIENTED_EDGE ( 'NONE', *, *, #1185, .F. ) ;
#236 = SURFACE_STYLE_USAGE ( .BOTH. , #523 ) ;
#237 =( NAMED_UNIT ( * ) PLANE_ANGLE_UNIT ( ) SI_UNIT ( $, .RADIAN. ) );
#238 = PRESENTATION_STYLE_ASSIGNMENT (( #338 ) ) ;
#239 = SURFACE_STYLE_FILL_AREA ( #1143 ) ;
#240 = SURFACE_STYLE_USAGE ( .BOTH. , #146 ) ;
#241 = CARTESIAN_POINT ( 'NONE',  ( 0.6500000000000000222, 0.9899999999999999911, 1.159999966620999912 ) ) ;
#242 = EDGE_CURVE ( 'NONE', #1306, #1211, #748, .T. ) ;
#243 = UNCERTAINTY_MEASURE_WITH_UNIT (LENGTH_MEASURE( 1.000000000000000082E-05 ), #626, 'distance_accuracy_value', 'NONE');
#244 = DIRECTION ( 'NONE',  ( 1.000000000000000000, 0.000000000000000000, 0.000000000000000000 ) ) ;
#245 =( LENGTH_UNIT ( ) NAMED_UNIT ( * ) SI_UNIT ( .MILLI., .METRE. ) );
#246 = LINE ( 'NONE', #41, #923 ) ;
#247 = FACE_OUTER_BOUND ( 'NONE', #855, .T. ) ;
#248 = ORIENTED_EDGE ( 'NONE', *, *, #1255, .F. ) ;
#249 =( NAMED_UNIT ( * ) PLANE_ANGLE_UNIT ( ) SI_UNIT ( $, .RADIAN. ) );
#250 = CARTESIAN_POINT ( 'NONE',  ( 1.250000000000000000, 0.9000000000000000222, 1.159999966620999912 ) ) ;
#251 = STYLED_ITEM ( 'NONE', ( #197 ), #1 ) ;
#252 = DIRECTION ( 'NONE',  ( 1.000000000000000000, 0.000000000000000000, 0.000000000000000000 ) ) ;
#253 = CIRCLE ( 'NONE', #358, 0.1000000000000000472 ) ;
#254 = PRESENTATION_STYLE_ASSIGNMENT (( #58 ) ) ;
#255 = DIRECTION ( 'NONE',  ( -1.000000000000000000, 0.000000000000000000, 0.000000000000000000 ) ) ;
#256 =( LENGTH_UNIT ( ) NAMED_UNIT ( * ) SI_UNIT ( .MILLI., .METRE. ) );
#257 = SURFACE_SIDE_STYLE ('',( #137 ) ) ;
#258 = VERTEX_POINT ( 'NONE', #970 ) ;
#259 = LINE ( 'NONE', #1262, #1294 ) ;
#260 = EDGE_CURVE ( 'NONE', #993, #100, #857, .T. ) ;
#261 = LINE ( 'NONE', #960, #502 ) ;
#262 = SURFACE_STYLE_USAGE ( .BOTH. , #583 ) ;
#263 = FILL_AREA_STYLE ('',( #153 ) ) ;
#264 = ORIENTED_EDGE ( 'NONE', *, *, #1280, .F. ) ;
#265 = FILL_AREA_STYLE_COLOUR ( '', #1015 ) ;
#266 = PRESENTATION_STYLE_ASSIGNMENT (( #769 ) ) ;
#267 = FILL_AREA_STYLE ('',( #564 ) ) ;
#268 =( NAMED_UNIT ( * ) PLANE_ANGLE_UNIT ( ) SI_UNIT ( $, .RADIAN. ) );
#269 = VERTEX_POINT ( 'NONE', #348 ) ;
#270 =( LENGTH_UNIT ( ) NAMED_UNIT ( * ) SI_UNIT ( .MILLI., .METRE. ) );
#271 = DIRECTION ( 'NONE',  ( 0.000000000000000000, 0.000000000000000000, -1.000000000000000000 ) ) ;
#272 = LINE ( 'NONE', #1296, #426 ) ;
#273 = AXIS2_PLACEMENT_3D ( 'NONE', #363, #976, #662 ) ;
#274 = DIRECTION ( 'NONE',  ( 1.000000000000000000, 0.000000000000000000, 0.000000000000000000 ) ) ;
#275 = COLOUR_RGB ( '',1.000000000000000000, 1.000000000000000000, 1.000000000000000000 ) ;
#276 = COLOUR_RGB ( '',1.000000000000000000, 1.000000000000000000, 1.000000000000000000 ) ;
#277 = CYLINDRICAL_SURFACE ( 'NONE', #809, 0.1000000000000000472 ) ;
#278 = STYLED_ITEM ( 'NONE', ( #917 ), #985 ) ;
#279 = LINE ( 'NONE', #972, #1069 ) ;
#280 = ORIENTED_EDGE ( 'NONE', *, *, #300, .T. ) ;
#281 = EDGE_LOOP ( 'NONE', ( #685, #1297, #1061, #896 ) ) ;
#282 = SURFACE_SIDE_STYLE ('',( #895 ) ) ;
#283 = DIRECTION ( 'NONE',  ( 0.000000000000000000, 0.000000000000000000, -1.000000000000000000 ) ) ;
#284 = AXIS2_PLACEMENT_3D ( 'NONE', #819, #713, #402 ) ;
#285 = UNCERTAINTY_MEASURE_WITH_UNIT (LENGTH_MEASURE( 1.000000000000000082E-05 ), #553, 'distance_accuracy_value', 'NONE');
#286 = SURFACE_STYLE_USAGE ( .BOTH. , #382 ) ;
#287 = SURFACE_SIDE_STYLE ('',( #167 ) ) ;
#288 = ORIENTED_EDGE ( 'NONE', *, *, #539, .F. ) ;
#289 = ORIENTED_EDGE ( 'NONE', *, *, #292, .T. ) ;
#290 = CARTESIAN_POINT ( 'NONE',  ( -1.149999999999999911, 0.9000000000000000222, 1.209999966620999956 ) ) ;
#291 = DIRECTION ( 'NONE',  ( 0.000000000000000000, -1.000000000000000000, 0.000000000000000000 ) ) ;
#292 = EDGE_CURVE ( 'NONE', #1128, #1211, #955, .T. ) ;
#293 = ORIENTED_EDGE ( 'NONE', *, *, #436, .F. ) ;
#294 = FILL_AREA_STYLE_COLOUR ( '', #615 ) ;
#295 = ORIENTED_EDGE ( 'NONE', *, *, #836, .T. ) ;
#296 = CARTESIAN_POINT ( 'NONE',  ( 1.149999999999999911, -0.9899999999999999911, -4.363452412097999833 ) ) ;
#297 = SURFACE_SIDE_STYLE ('',( #179 ) ) ;
#298 =( NAMED_UNIT ( * ) PLANE_ANGLE_UNIT ( ) SI_UNIT ( $, .RADIAN. ) );
#299 = ORIENTED_EDGE ( 'NONE', *, *, #182, .T. ) ;
#300 = EDGE_CURVE ( 'NONE', #483, #1110, #1039, .T. ) ;
#301 = DIRECTION ( 'NONE',  ( -1.000000000000000000, 0.000000000000000000, 0.000000000000000000 ) ) ;
#302 = STYLED_ITEM ( 'NONE', ( #765 ), #234 ) ;
#303 = AXIS2_PLACEMENT_3D ( 'NONE', #967, #775, #1288 ) ;
#304 =( GEOMETRIC_REPRESENTATION_CONTEXT ( 3 ) GLOBAL_UNCERTAINTY_ASSIGNED_CONTEXT ( ( #20 ) ) GLOBAL_UNIT_ASSIGNED_CONTEXT ( ( #1175, #268, #671 ) ) REPRESENTATION_CONTEXT ( 'NONE', 'WORKASPACE' ) );
#305 = VECTOR ( 'NONE', #1063, 1000.000000000000000 ) ;
#306 = MECHANICAL_DESIGN_GEOMETRIC_PRESENTATION_REPRESENTATION (  '', ( #1270 ), #536 ) ;
#307 = STYLED_ITEM ( 'NONE', ( #800 ), #1173 ) ;
#308 = SURFACE_STYLE_USAGE ( .BOTH. , #408 ) ;
#309 = ORIENTED_EDGE ( 'NONE', *, *, #150, .F. ) ;
#310 = SURFACE_SIDE_STYLE ('',( #395 ) ) ;
#311 = VERTEX_POINT ( 'NONE', #962 ) ;
#312 = SURFACE_SIDE_STYLE ('',( #1192 ) ) ;
#313 = DIRECTION ( 'NONE',  ( 0.000000000000000000, 0.000000000000000000, -1.000000000000000000 ) ) ;
#314 = COLOUR_RGB ( '',1.000000000000000000, 1.000000000000000000, 1.000000000000000000 ) ;
#315 = MECHANICAL_DESIGN_GEOMETRIC_PRESENTATION_REPRESENTATION (  '', ( #554 ), #840 ) ;
#316 = EDGE_CURVE ( 'NONE', #367, #1007, #946, .T. ) ;
#317 = EDGE_LOOP ( 'NONE', ( #799, #398, #607, #205, #1284, #1162, #235, #390 ) ) ;
#318 = DIRECTION ( 'NONE',  ( 0.000000000000000000, 0.000000000000000000, -1.000000000000000000 ) ) ;
#319 = CARTESIAN_POINT ( 'NONE',  ( 1.149999999999999911, 1.000000000000000000, -3.337860099427999893E-08 ) ) ;
#320 = VECTOR ( 'NONE', #852, 1000.000000000000000 ) ;
#321 =( NAMED_UNIT ( * ) SI_UNIT ( $, .STERADIAN. ) SOLID_ANGLE_UNIT ( ) );
#322 = UNCERTAINTY_MEASURE_WITH_UNIT (LENGTH_MEASURE( 1.000000000000000082E-05 ), #459, 'distance_accuracy_value', 'NONE');
#323 =( NAMED_UNIT ( * ) SI_UNIT ( $, .STERADIAN. ) SOLID_ANGLE_UNIT ( ) );
#324 = ORIENTED_EDGE ( 'NONE', *, *, #83, .F. ) ;
#325 = EDGE_CURVE ( 'NONE', #100, #889, #1134, .T. ) ;
#326 = PLANE ( 'NONE',  #736 ) ;
#327 = ORIENTED_EDGE ( 'NONE', *, *, #846, .T. ) ;
#328 = CARTESIAN_POINT ( 'NONE',  ( 1.149999999999999911, 0.9000000000000000222, 1.209999966620999956 ) ) ;
#329 = DIRECTION ( 'NONE',  ( -0.000000000000000000, 1.000000000000000000, 0.000000000000000000 ) ) ;
#330 = COLOUR_RGB ( '',0.000000000000000000, 0.000000000000000000, 0.000000000000000000 ) ;
#331 = EDGE_LOOP ( 'NONE', ( #215, #161, #827, #1301 ) ) ;
#332 =( GEOMETRIC_REPRESENTATION_CONTEXT ( 3 ) GLOBAL_UNCERTAINTY_ASSIGNED_CONTEXT ( ( #322 ) ) GLOBAL_UNIT_ASSIGNED_CONTEXT ( ( #459, #669, #166 ) ) REPRESENTATION_CONTEXT ( 'NONE', 'WORKASPACE' ) );
#333 = UNCERTAINTY_MEASURE_WITH_UNIT (LENGTH_MEASURE( 1.000000000000000082E-05 ), #568, 'distance_accuracy_value', 'NONE');
#334 = PRESENTATION_STYLE_ASSIGNMENT (( #835 ) ) ;
#335 =( NAMED_UNIT ( * ) SI_UNIT ( $, .STERADIAN. ) SOLID_ANGLE_UNIT ( ) );
#336 = DIRECTION ( 'NONE',  ( 1.000000000000000000, 0.000000000000000000, 0.000000000000000000 ) ) ;
#337 = PRODUCT_RELATED_PRODUCT_CATEGORY ( 'part', '', ( #815 ) ) ;
#338 = SURFACE_STYLE_USAGE ( .BOTH. , #1248 ) ;
#339 = DIRECTION ( 'NONE',  ( 5.421010862427999184E-17, -1.000000000000000000, 0.000000000000000000 ) ) ;
#340 = DIRECTION ( 'NONE',  ( 0.000000000000000000, 0.000000000000000000, -1.000000000000000000 ) ) ;
#341 = LINE ( 'NONE', #945, #716 ) ;
#342 = SURFACE_STYLE_USAGE ( .BOTH. , #1169 ) ;
#343 = CYLINDRICAL_SURFACE ( 'NONE', #652, 0.1000000000000000472 ) ;
#344 = UNCERTAINTY_MEASURE_WITH_UNIT (LENGTH_MEASURE( 1.000000000000000082E-05 ), #489, 'distance_accuracy_value', 'NONE');
#345 = CARTESIAN_POINT ( 'NONE',  ( 1.250000000000000000, -0.9000000000000000222, 1.159999966620999912 ) ) ;
#346 = DIRECTION ( 'NONE',  ( 1.000000000000000000, 0.000000000000000000, 0.000000000000000000 ) ) ;
#347 = LINE ( 'NONE', #1160, #64 ) ;
#348 = CARTESIAN_POINT ( 'NONE',  ( 1.250000000000000000, -0.9000000000000000222, 1.209999966620999956 ) ) ;
#349 = DIRECTION ( 'NONE',  ( 0.000000000000000000, 0.000000000000000000, -1.000000000000000000 ) ) ;
#350 = ORIENTED_EDGE ( 'NONE', *, *, #30, .T. ) ;
#351 = DIRECTION ( 'NONE',  ( 0.000000000000000000, 0.000000000000000000, -1.000000000000000000 ) ) ;
#352 = ADVANCED_FACE ( 'NONE', ( #247 ), #660, .T. ) ;
#353 = STYLED_ITEM ( 'NONE', ( #180 ), #1124 ) ;
#354 = STYLED_ITEM ( 'NONE', ( #1183 ), #406 ) ;
#355 = STYLED_ITEM ( 'NONE', ( #159 ), #556 ) ;
#356 = AXIS2_PLACEMENT_3D ( 'NONE', #621, #4, #1238 ) ;
#357 = AXIS2_PLACEMENT_3D ( 'NONE', #1221, #730, #718 ) ;
#358 = AXIS2_PLACEMENT_3D ( 'NONE', #961, #468, #1299 ) ;
#359 = DIRECTION ( 'NONE',  ( 0.000000000000000000, -1.000000000000000000, 0.000000000000000000 ) ) ;
#360 = DIRECTION ( 'NONE',  ( 0.000000000000000000, 0.000000000000000000, -1.000000000000000000 ) ) ;
#361 = ORIENTED_EDGE ( 'NONE', *, *, #1112, .T. ) ;
#362 = VECTOR ( 'NONE', #313, 1000.000000000000000 ) ;
#363 = CARTESIAN_POINT ( 'NONE',  ( 1.149999999999999911, 0.9000000000000000222, -3.337860099427999893E-08 ) ) ;
#364 = LINE ( 'NONE', #1257, #89 ) ;
#365 =( LENGTH_UNIT ( ) NAMED_UNIT ( * ) SI_UNIT ( .MILLI., .METRE. ) );
#366 = FILL_AREA_STYLE_COLOUR ( '', #473 ) ;
#367 = VERTEX_POINT ( 'NONE', #703 ) ;
#368 = ORIENTED_EDGE ( 'NONE', *, *, #709, .T. ) ;
#369 =( NAMED_UNIT ( * ) SI_UNIT ( $, .STERADIAN. ) SOLID_ANGLE_UNIT ( ) );
#370 = CARTESIAN_POINT ( 'NONE',  ( -1.250000000000000000, 1.000000000000000000, 1.209999966620999956 ) ) ;
#371 = FACE_OUTER_BOUND ( 'NONE', #528, .T. ) ;
#372 = ADVANCED_FACE ( 'NONE', ( #374 ), #1092, .T. ) ;
#373 = CARTESIAN_POINT ( 'NONE',  ( 1.250000000000000000, -0.9000000000000000222, 3.248061268403999780 ) ) ;
#374 = FACE_OUTER_BOUND ( 'NONE', #661, .T. ) ;
#375 = PRESENTATION_STYLE_ASSIGNMENT (( #603 ) ) ;
#376 = ORIENTED_EDGE ( 'NONE', *, *, #1010, .T. ) ;
#377 = ORIENTED_EDGE ( 'NONE', *, *, #441, .F. ) ;
#378 = CARTESIAN_POINT ( 'NONE',  ( 1.149999999999999911, 1.000000000000000000, 1.159999966620999912 ) ) ;
#379 =( LENGTH_UNIT ( ) NAMED_UNIT ( * ) SI_UNIT ( .MILLI., .METRE. ) );
#380 = PRESENTATION_LAYER_ASSIGNMENT (  '', '', ( #780 ) ) ;
#381 = VECTOR ( 'NONE', #565, 1000.000000000000000 ) ;
#382 = SURFACE_SIDE_STYLE ('',( #578 ) ) ;
#383 = AXIS2_PLACEMENT_3D ( 'NONE', #218, #329, #545 ) ;
#384 = DIRECTION ( 'NONE',  ( 0.000000000000000000, 0.000000000000000000, 1.000000000000000000 ) ) ;
#385 = SURFACE_STYLE_USAGE ( .BOTH. , #891 ) ;
#386 = COLOUR_RGB ( '',0.000000000000000000, 0.000000000000000000, 0.000000000000000000 ) ;
#387 = ORIENTED_EDGE ( 'NONE', *, *, #900, .T. ) ;
#388 = FILL_AREA_STYLE ('',( #1108 ) ) ;
#389 = EDGE_CURVE ( 'NONE', #1237, #1122, #588, .T. ) ;
#390 = ORIENTED_EDGE ( 'NONE', *, *, #463, .T. ) ;
#391 = DIRECTION ( 'NONE',  ( -5.421010862427999184E-17, 1.000000000000000000, 0.000000000000000000 ) ) ;
#392 = MECHANICAL_DESIGN_GEOMETRIC_PRESENTATION_REPRESENTATION (  '', ( #307 ), #201 ) ;
#393 = VERTEX_POINT ( 'NONE', #78 ) ;
#394 = UNCERTAINTY_MEASURE_WITH_UNIT (LENGTH_MEASURE( 1.000000000000000082E-05 ), #379, 'distance_accuracy_value', 'NONE');
#395 = SURFACE_STYLE_FILL_AREA ( #681 ) ;
#396 = FACE_OUTER_BOUND ( 'NONE', #894, .T. ) ;
#397 = ORIENTED_EDGE ( 'NONE', *, *, #182, .F. ) ;
#398 = ORIENTED_EDGE ( 'NONE', *, *, #701, .T. ) ;
#399 = FILL_AREA_STYLE ('',( #507 ) ) ;
#400 = ADVANCED_FACE ( 'NONE', ( #497 ), #988, .F. ) ;
#401 = VERTEX_POINT ( 'NONE', #899 ) ;
#402 = DIRECTION ( 'NONE',  ( 1.000000000000000000, 0.000000000000000000, 0.000000000000000000 ) ) ;
#403 = SURFACE_STYLE_USAGE ( .BOTH. , #1106 ) ;
#404 = ORIENTED_EDGE ( 'NONE', *, *, #1255, .T. ) ;
#405 = DIRECTION ( 'NONE',  ( 0.000000000000000000, 0.000000000000000000, -1.000000000000000000 ) ) ;
#406 = ADVANCED_FACE ( 'NONE', ( #1094 ), #1086, .T. ) ;
#407 = COLOUR_RGB ( '',1.000000000000000000, 1.000000000000000000, 1.000000000000000000 ) ;
#408 = SURFACE_SIDE_STYLE ('',( #101 ) ) ;
#409 = COLOUR_RGB ( '',1.000000000000000000, 1.000000000000000000, 1.000000000000000000 ) ;
#410 = VECTOR ( 'NONE', #987, 1000.000000000000000 ) ;
#411 = VECTOR ( 'NONE', #760, 1000.000000000000000 ) ;
#412 = MECHANICAL_DESIGN_GEOMETRIC_PRESENTATION_REPRESENTATION (  '', ( #1225 ), #616 ) ;
#413 = MECHANICAL_DESIGN_GEOMETRIC_PRESENTATION_REPRESENTATION (  '', ( #821 ), #1268 ) ;
#414 = SURFACE_STYLE_USAGE ( .BOTH. , #814 ) ;
#415 = FACE_OUTER_BOUND ( 'NONE', #485, .T. ) ;
#416 = ORIENTED_EDGE ( 'NONE', *, *, #1280, .T. ) ;
#417 = PLANE ( 'NONE',  #284 ) ;
#418 = EDGE_CURVE ( 'NONE', #889, #898, #590, .T. ) ;
#419 = FACE_OUTER_BOUND ( 'NONE', #574, .T. ) ;
#420 = ORIENTED_EDGE ( 'NONE', *, *, #1313, .T. ) ;
#421 = DIRECTION ( 'NONE',  ( 1.000000000000000000, 0.000000000000000000, 0.000000000000000000 ) ) ;
#422 = AXIS2_PLACEMENT_3D ( 'NONE', #1002, #82, #274 ) ;
#423 = DIRECTION ( 'NONE',  ( 1.000000000000000000, 0.000000000000000000, 0.000000000000000000 ) ) ;
#424 = EDGE_CURVE ( 'NONE', #1085, #367, #690, .T. ) ;
#425 = COLOUR_RGB ( '',0.000000000000000000, 0.000000000000000000, 0.000000000000000000 ) ;
#426 = VECTOR ( 'NONE', #1081, 1000.000000000000000 ) ;
#427 = CARTESIAN_POINT ( 'NONE',  ( -1.250000000000000000, 0.9000000000000000222, 1.159999966620999912 ) ) ;
#428 = ORIENTED_EDGE ( 'NONE', *, *, #1202, .F. ) ;
#429 = STYLED_ITEM ( 'NONE', ( #176 ), #219 ) ;
#430 = CARTESIAN_POINT ( 'NONE',  ( -0.6500000000000000222, -0.9899999999999999911, 1.159999966620999912 ) ) ;
#431 =( GEOMETRIC_REPRESENTATION_CONTEXT ( 3 ) GLOBAL_UNCERTAINTY_ASSIGNED_CONTEXT ( ( #36 ) ) GLOBAL_UNIT_ASSIGNED_CONTEXT ( ( #245, #920, #1240 ) ) REPRESENTATION_CONTEXT ( 'NONE', 'WORKASPACE' ) );
#432 = SURFACE_STYLE_FILL_AREA ( #1147 ) ;
#433 = UNCERTAINTY_MEASURE_WITH_UNIT (LENGTH_MEASURE( 1.000000000000000082E-05 ), #1080, 'distance_accuracy_value', 'NONE');
#434 = ORIENTED_EDGE ( 'NONE', *, *, #1213, .T. ) ;
#435 = SURFACE_STYLE_USAGE ( .BOTH. , #909 ) ;
#436 = EDGE_CURVE ( 'NONE', #393, #367, #279, .T. ) ;
#437 = CARTESIAN_POINT ( 'NONE',  ( -1.149999999999999911, -1.000000000000000000, 1.209999966620999956 ) ) ;
#438 = EDGE_LOOP ( 'NONE', ( #796, #1131, #434, #929 ) ) ;
#439 = SURFACE_SIDE_STYLE ('',( #1252 ) ) ;
#440 = SURFACE_STYLE_USAGE ( .BOTH. , #562 ) ;
#441 = EDGE_CURVE ( 'NONE', #1071, #1306, #854, .T. ) ;
#442 = CARTESIAN_POINT ( 'NONE',  ( -1.250000000000000000, -0.9000000000000000222, -3.337860099427999893E-08 ) ) ;
#443 = CARTESIAN_POINT ( 'NONE',  ( -1.250000000000000000, -0.9000000000000000222, 1.209999966620999956 ) ) ;
#444 = DIRECTION ( 'NONE',  ( 0.000000000000000000, 0.000000000000000000, -1.000000000000000000 ) ) ;
#445 = PRESENTATION_LAYER_ASSIGNMENT (  '', '', ( #1012 ) ) ;
#446 = ORIENTED_EDGE ( 'NONE', *, *, #389, .F. ) ;
#447 =( GEOMETRIC_REPRESENTATION_CONTEXT ( 3 ) GLOBAL_UNCERTAINTY_ASSIGNED_CONTEXT ( ( #924 ) ) GLOBAL_UNIT_ASSIGNED_CONTEXT ( ( #599, #670, #580 ) ) REPRESENTATION_CONTEXT ( 'NONE', 'WORKASPACE' ) );
#448 = CARTESIAN_POINT ( 'NONE',  ( 0.6500000000000000222, -1.000000000000000000, 1.159999966620999912 ) ) ;
#449 = STYLED_ITEM ( 'NONE', ( #847 ), #915 ) ;
#450 = COLOUR_RGB ( '',0.000000000000000000, 0.000000000000000000, 0.000000000000000000 ) ;
#451 = CARTESIAN_POINT ( 'NONE',  ( 0.000000000000000000, 0.000000000000000000, 0.000000000000000000 ) ) ;
#452 = AXIS2_PLACEMENT_3D ( 'NONE', #542, #745, #133 ) ;
#453 = DIRECTION ( 'NONE',  ( -5.421010862427999184E-17, -1.000000000000000000, 0.000000000000000000 ) ) ;
#454 = CARTESIAN_POINT ( 'NONE',  ( 0.6500000000000000222, -1.000000000000000000, 1.159999966620999912 ) ) ;
#455 = PRESENTATION_STYLE_ASSIGNMENT (( #1259 ) ) ;
#456 = CARTESIAN_POINT ( 'NONE',  ( 1.250000000000000000, 0.9000000000000000222, 1.209999966620999956 ) ) ;
#457 = SURFACE_STYLE_USAGE ( .BOTH. , #641 ) ;
#458 = SHAPE_DEFINITION_REPRESENTATION ( #1281, #213 ) ;
#459 =( LENGTH_UNIT ( ) NAMED_UNIT ( * ) SI_UNIT ( .MILLI., .METRE. ) );
#460 = CARTESIAN_POINT ( 'NONE',  ( -1.250000000000000000, 0.9000000000000000222, -3.337860099427999893E-08 ) ) ;
#461 =( NAMED_UNIT ( * ) PLANE_ANGLE_UNIT ( ) SI_UNIT ( $, .RADIAN. ) );
#462 = LINE ( 'NONE', #470, #207 ) ;
#463 = EDGE_CURVE ( 'NONE', #974, #121, #231, .T. ) ;
#464 = ORIENTED_EDGE ( 'NONE', *, *, #1074, .F. ) ;
#465 = DIRECTION ( 'NONE',  ( -1.204669080538999940E-16, -1.000000000000000000, 0.000000000000000000 ) ) ;
#466 =( NAMED_UNIT ( * ) PLANE_ANGLE_UNIT ( ) SI_UNIT ( $, .RADIAN. ) );
#467 = LINE ( 'NONE', #579, #1207 ) ;
#468 = DIRECTION ( 'NONE',  ( 0.000000000000000000, 0.000000000000000000, -1.000000000000000000 ) ) ;
#469 = PLANE ( 'NONE',  #630 ) ;
#470 = CARTESIAN_POINT ( 'NONE',  ( 0.6500000000000000222, 3.523657060578000344E-17, 0.009999966621399000721 ) ) ;
#471 = ORIENTED_EDGE ( 'NONE', *, *, #463, .F. ) ;
#472 = LINE ( 'NONE', #345, #1219 ) ;
#473 = COLOUR_RGB ( '',1.000000000000000000, 1.000000000000000000, 1.000000000000000000 ) ;
#474 =( GEOMETRIC_REPRESENTATION_CONTEXT ( 3 ) GLOBAL_UNCERTAINTY_ASSIGNED_CONTEXT ( ( #586 ) ) GLOBAL_UNIT_ASSIGNED_CONTEXT ( ( #890, #68, #897 ) ) REPRESENTATION_CONTEXT ( 'NONE', 'WORKASPACE' ) );
#475 = STYLED_ITEM ( 'NONE', ( #254 ), #563 ) ;
#476 = CIRCLE ( 'NONE', #949, 0.1000000000000000472 ) ;
#477 = PRESENTATION_LAYER_ASSIGNMENT (  '', '', ( #554 ) ) ;
#478 = CARTESIAN_POINT ( 'NONE',  ( -1.250000000000000000, 1.000000000000000000, 1.209999966620999956 ) ) ;
#479 = CARTESIAN_POINT ( 'NONE',  ( -1.250000000000000000, 0.9000000000000000222, 1.209999966620999956 ) ) ;
#480 = DIRECTION ( 'NONE',  ( 0.000000000000000000, -1.000000000000000000, 0.000000000000000000 ) ) ;
#481 =( LENGTH_UNIT ( ) NAMED_UNIT ( * ) SI_UNIT ( .MILLI., .METRE. ) );
#482 = CARTESIAN_POINT ( 'NONE',  ( -0.6500000000000000222, 0.9899999999999999911, -4.363452412097999833 ) ) ;
#483 = VERTEX_POINT ( 'NONE', #241 ) ;
#484 = AXIS2_PLACEMENT_3D ( 'NONE', #526, #1203, #522 ) ;
#485 = EDGE_LOOP ( 'NONE', ( #493, #689, #376, #711 ) ) ;
#486 = LINE ( 'NONE', #508, #1135 ) ;
#487 = EDGE_CURVE ( 'NONE', #926, #189, #858, .T. ) ;
#488 = PLANE ( 'NONE',  #383 ) ;
#489 =( LENGTH_UNIT ( ) NAMED_UNIT ( * ) SI_UNIT ( .MILLI., .METRE. ) );
#490 = FILL_AREA_STYLE ('',( #366 ) ) ;
#491 =( LENGTH_UNIT ( ) NAMED_UNIT ( * ) SI_UNIT ( .MILLI., .METRE. ) );
#492 = ORIENTED_EDGE ( 'NONE', *, *, #1019, .T. ) ;
#493 = ORIENTED_EDGE ( 'NONE', *, *, #1213, .F. ) ;
#494 = CARTESIAN_POINT ( 'NONE',  ( -0.6500000000000000222, -1.000000000000000000, 1.159999966620999912 ) ) ;
#495 = SURFACE_STYLE_USAGE ( .BOTH. , #1179 ) ;
#496 = ADVANCED_FACE ( 'NONE', ( #1047 ), #343, .T. ) ;
#497 = FACE_OUTER_BOUND ( 'NONE', #281, .T. ) ;
#498 = EDGE_LOOP ( 'NONE', ( #115, #957, #778, #225, #908, #1276, #86, #19 ) ) ;
#499 = FILL_AREA_STYLE_COLOUR ( '', #330 ) ;
#500 = VECTOR ( 'NONE', #851, 1000.000000000000000 ) ;
#501 = PRESENTATION_STYLE_ASSIGNMENT (( #286 ) ) ;
#502 = VECTOR ( 'NONE', #1066, 1000.000000000000000 ) ;
#503 = PRESENTATION_LAYER_ASSIGNMENT (  '', '', ( #449 ) ) ;
#504 = LINE ( 'NONE', #696, #1209 ) ;
#505 = ORIENTED_EDGE ( 'NONE', *, *, #1239, .T. ) ;
#506 = FACE_OUTER_BOUND ( 'NONE', #498, .T. ) ;
#507 = FILL_AREA_STYLE_COLOUR ( '', #314 ) ;
#508 = CARTESIAN_POINT ( 'NONE',  ( 1.149999999999999911, -1.000000000000000000, 3.248061268403999780 ) ) ;
#509 = EDGE_LOOP ( 'NONE', ( #96, #912, #80, #1103 ) ) ;
#510 = LINE ( 'NONE', #1217, #362 ) ;
#511 =( LENGTH_UNIT ( ) NAMED_UNIT ( * ) SI_UNIT ( .MILLI., .METRE. ) );
#512 = ORIENTED_EDGE ( 'NONE', *, *, #424, .F. ) ;
#513 = ORIENTED_EDGE ( 'NONE', *, *, #824, .T. ) ;
#514 = VECTOR ( 'NONE', #979, 1000.000000000000000 ) ;
#515 = MECHANICAL_DESIGN_GEOMETRIC_PRESENTATION_REPRESENTATION (  '', ( #1292 ), #1312 ) ;
#516 =( GEOMETRIC_REPRESENTATION_CONTEXT ( 3 ) GLOBAL_UNCERTAINTY_ASSIGNED_CONTEXT ( ( #518 ) ) GLOBAL_UNIT_ASSIGNED_CONTEXT ( ( #623, #228, #323 ) ) REPRESENTATION_CONTEXT ( 'NONE', 'WORKASPACE' ) );
#517 = MECHANICAL_DESIGN_GEOMETRIC_PRESENTATION_REPRESENTATION (  '', ( #354 ), #838 ) ;
#518 = UNCERTAINTY_MEASURE_WITH_UNIT (LENGTH_MEASURE( 1.000000000000000082E-05 ), #623, 'distance_accuracy_value', 'NONE');
#519 = ORIENTED_EDGE ( 'NONE', *, *, #1313, .F. ) ;
#520 = FILL_AREA_STYLE ('',( #1316 ) ) ;
#521 = EDGE_CURVE ( 'NONE', #817, #269, #1044, .T. ) ;
#522 = DIRECTION ( 'NONE',  ( 1.000000000000000000, 0.000000000000000000, 0.000000000000000000 ) ) ;
#523 = SURFACE_SIDE_STYLE ('',( #1230 ) ) ;
#524 = ORIENTED_EDGE ( 'NONE', *, *, #292, .F. ) ;
#525 = CYLINDRICAL_SURFACE ( 'NONE', #92, 0.1000000000000000472 ) ;
#526 = CARTESIAN_POINT ( 'NONE',  ( -1.149999999999999911, -0.9000000000000000222, 1.209999966620999956 ) ) ;
#527 = UNCERTAINTY_MEASURE_WITH_UNIT (LENGTH_MEASURE( 1.000000000000000082E-05 ), #256, 'distance_accuracy_value', 'NONE');
#528 = EDGE_LOOP ( 'NONE', ( #634, #995, #209, #573 ) ) ;
#529 = DIRECTION ( 'NONE',  ( 0.000000000000000000, 0.000000000000000000, 1.000000000000000000 ) ) ;
#530 = DIRECTION ( 'NONE',  ( 0.000000000000000000, 0.000000000000000000, 1.000000000000000000 ) ) ;
#531 =( GEOMETRIC_REPRESENTATION_CONTEXT ( 3 ) GLOBAL_UNCERTAINTY_ASSIGNED_CONTEXT ( ( #834 ) ) GLOBAL_UNIT_ASSIGNED_CONTEXT ( ( #749, #566, #1170 ) ) REPRESENTATION_CONTEXT ( 'NONE', 'WORKASPACE' ) );
#532 = EDGE_CURVE ( 'NONE', #589, #1122, #462, .T. ) ;
#533 = MECHANICAL_DESIGN_GEOMETRIC_PRESENTATION_REPRESENTATION (  '', ( #232 ), #1161 ) ;
#534 = PLANE ( 'NONE',  #1247 ) ;
#535 = ORIENTED_EDGE ( 'NONE', *, *, #1019, .F. ) ;
#536 =( GEOMETRIC_REPRESENTATION_CONTEXT ( 3 ) GLOBAL_UNCERTAINTY_ASSIGNED_CONTEXT ( ( #344 ) ) GLOBAL_UNIT_ASSIGNED_CONTEXT ( ( #489, #980, #1181 ) ) REPRESENTATION_CONTEXT ( 'NONE', 'WORKASPACE' ) );
#537 = AXIS2_PLACEMENT_3D ( 'NONE', #451, #222, #336 ) ;
#538 = DIRECTION ( 'NONE',  ( -1.000000000000000000, 0.000000000000000000, 0.000000000000000000 ) ) ;
#539 = EDGE_CURVE ( 'NONE', #121, #673, #1055, .T. ) ;
#540 = CARTESIAN_POINT ( 'NONE',  ( -1.250000000000000000, -0.9000000000000000222, 1.159999966620999912 ) ) ;
#541 = FACE_OUTER_BOUND ( 'NONE', #792, .T. ) ;
#542 = CARTESIAN_POINT ( 'NONE',  ( 1.149999999999999911, -0.9000000000000000222, -3.337860099427999893E-08 ) ) ;
#543 = CARTESIAN_POINT ( 'NONE',  ( 1.149999999999999911, 1.000000000000000000, -3.337860099427999893E-08 ) ) ;
#544 = LINE ( 'NONE', #229, #208 ) ;
#545 = DIRECTION ( 'NONE',  ( 1.000000000000000000, 0.000000000000000000, 0.000000000000000000 ) ) ;
#546 =( LENGTH_UNIT ( ) NAMED_UNIT ( * ) SI_UNIT ( .MILLI., .METRE. ) );
#547 = SURFACE_STYLE_USAGE ( .BOTH. , #257 ) ;
#548 = MECHANICAL_DESIGN_GEOMETRIC_PRESENTATION_REPRESENTATION (  '', ( #1012 ), #996 ) ;
#549 = VECTOR ( 'NONE', #360, 1000.000000000000000 ) ;
#550 = COLOUR_RGB ( '',0.000000000000000000, 0.000000000000000000, 0.000000000000000000 ) ;
#551 = UNCERTAINTY_MEASURE_WITH_UNIT (LENGTH_MEASURE( 1.000000000000000082E-05 ), #959, 'distance_accuracy_value', 'NONE');
#552 = CARTESIAN_POINT ( 'NONE',  ( -1.250000000000000000, -1.000000000000000000, 1.209999966620999956 ) ) ;
#553 =( LENGTH_UNIT ( ) NAMED_UNIT ( * ) SI_UNIT ( .MILLI., .METRE. ) );
#554 = STYLED_ITEM ( 'NONE', ( #131 ), #798 ) ;
#555 =( GEOMETRIC_REPRESENTATION_CONTEXT ( 3 ) GLOBAL_UNCERTAINTY_ASSIGNED_CONTEXT ( ( #935 ) ) GLOBAL_UNIT_ASSIGNED_CONTEXT ( ( #546, #640, #1258 ) ) REPRESENTATION_CONTEXT ( 'NONE', 'WORKASPACE' ) );
#556 = ADVANCED_FACE ( 'NONE', ( #754 ), #643, .F. ) ;
#557 = DIRECTION ( 'NONE',  ( 1.000000000000000000, 0.000000000000000000, 0.000000000000000000 ) ) ;
#558 = SURFACE_SIDE_STYLE ('',( #239 ) ) ;
#559 = DIRECTION ( 'NONE',  ( 0.000000000000000000, 0.000000000000000000, -1.000000000000000000 ) ) ;
#560 = ORIENTED_EDGE ( 'NONE', *, *, #316, .T. ) ;
#561 = DIRECTION ( 'NONE',  ( 1.000000000000000000, 0.000000000000000000, 0.000000000000000000 ) ) ;
#562 = SURFACE_SIDE_STYLE ('',( #966 ) ) ;
#563 = ADVANCED_FACE ( 'NONE', ( #1159 ), #1282, .T. ) ;
#564 = FILL_AREA_STYLE_COLOUR ( '', #275 ) ;
#565 = DIRECTION ( 'NONE',  ( -1.000000000000000000, -4.336808689942000480E-16, 0.000000000000000000 ) ) ;
#566 =( NAMED_UNIT ( * ) PLANE_ANGLE_UNIT ( ) SI_UNIT ( $, .RADIAN. ) );
#567 = ORIENTED_EDGE ( 'NONE', *, *, #938, .T. ) ;
#568 =( LENGTH_UNIT ( ) NAMED_UNIT ( * ) SI_UNIT ( .MILLI., .METRE. ) );
#569 = FILL_AREA_STYLE ('',( #663 ) ) ;
#570 = DIRECTION ( 'NONE',  ( -1.000000000000000000, 0.000000000000000000, 0.000000000000000000 ) ) ;
#571 = PLANE ( 'NONE',  #807 ) ;
#572 = DIRECTION ( 'NONE',  ( -1.000000000000000000, 0.000000000000000000, 0.000000000000000000 ) ) ;
#573 = ORIENTED_EDGE ( 'NONE', *, *, #325, .F. ) ;
#574 = EDGE_LOOP ( 'NONE', ( #830, #200, #220, #1095 ) ) ;
#575 = EDGE_CURVE ( 'NONE', #698, #673, #467, .T. ) ;
#576 = PRESENTATION_LAYER_ASSIGNMENT (  '', '', ( #140 ) ) ;
#577 = DIRECTION ( 'NONE',  ( 0.000000000000000000, 0.000000000000000000, -1.000000000000000000 ) ) ;
#578 = SURFACE_STYLE_FILL_AREA ( #1191 ) ;
#579 = CARTESIAN_POINT ( 'NONE',  ( -1.250000000000000000, 1.000000000000000000, 1.209999966620999956 ) ) ;
#580 =( NAMED_UNIT ( * ) SI_UNIT ( $, .STERADIAN. ) SOLID_ANGLE_UNIT ( ) );
#581 = AXIS2_PLACEMENT_3D ( 'NONE', #1109, #1125, #301 ) ;
#582 = ORIENTED_EDGE ( 'NONE', *, *, #160, .T. ) ;
#583 = SURFACE_SIDE_STYLE ('',( #18 ) ) ;
#584 = LINE ( 'NONE', #593, #1310 ) ;
#585 = LINE ( 'NONE', #91, #1208 ) ;
#586 = UNCERTAINTY_MEASURE_WITH_UNIT (LENGTH_MEASURE( 1.000000000000000082E-05 ), #890, 'distance_accuracy_value', 'NONE');
#587 = FILL_AREA_STYLE ('',( #688 ) ) ;
#588 = LINE ( 'NONE', #85, #410 ) ;
#589 = VERTEX_POINT ( 'NONE', #752 ) ;
#590 = LINE ( 'NONE', #185, #905 ) ;
#591 = ORIENTED_EDGE ( 'NONE', *, *, #521, .T. ) ;
#592 = CARTESIAN_POINT ( 'NONE',  ( -1.149999999999999911, -1.000000000000000000, 1.159999966620999912 ) ) ;
#593 = CARTESIAN_POINT ( 'NONE',  ( 1.250000000000000000, 0.9000000000000000222, 3.248061268403999780 ) ) ;
#594 = ORIENTED_EDGE ( 'NONE', *, *, #191, .T. ) ;
#595 =( GEOMETRIC_REPRESENTATION_CONTEXT ( 3 ) GLOBAL_UNCERTAINTY_ASSIGNED_CONTEXT ( ( #433 ) ) GLOBAL_UNIT_ASSIGNED_CONTEXT ( ( #1080, #298, #1188 ) ) REPRESENTATION_CONTEXT ( 'NONE', 'WORKASPACE' ) );
#596 = AXIS2_PLACEMENT_3D ( 'NONE', #296, #683, #87 ) ;
#597 = VECTOR ( 'NONE', #25, 1000.000000000000000 ) ;
#598 = EDGE_CURVE ( 'NONE', #698, #918, #145, .T. ) ;
#599 =( LENGTH_UNIT ( ) NAMED_UNIT ( * ) SI_UNIT ( .MILLI., .METRE. ) );
#600 =( NAMED_UNIT ( * ) SI_UNIT ( $, .STERADIAN. ) SOLID_ANGLE_UNIT ( ) );
#601 = MECHANICAL_DESIGN_GEOMETRIC_PRESENTATION_REPRESENTATION (  '', ( #429 ), #447 ) ;
#602 = ORIENTED_EDGE ( 'NONE', *, *, #66, .F. ) ;
#603 = SURFACE_STYLE_USAGE ( .BOTH. , #312 ) ;
#604 = ORIENTED_EDGE ( 'NONE', *, *, #709, .F. ) ;
#605 = CYLINDRICAL_SURFACE ( 'NONE', #303, 0.1000000000000000472 ) ;
#606 = PRESENTATION_LAYER_ASSIGNMENT (  '', '', ( #1139 ) ) ;
#607 = ORIENTED_EDGE ( 'NONE', *, *, #622, .F. ) ;
#608 = FILL_AREA_STYLE ('',( #1308 ) ) ;
#609 = CARTESIAN_POINT ( 'NONE',  ( -1.149999999999999911, -1.000000000000000000, 1.209999966620999956 ) ) ;
#610 = EDGE_CURVE ( 'NONE', #401, #750, #633, .T. ) ;
#611 = ORIENTED_EDGE ( 'NONE', *, *, #1024, .T. ) ;
#612 = AXIS2_PLACEMENT_3D ( 'NONE', #1073, #1286, #351 ) ;
#613 =( NAMED_UNIT ( * ) PLANE_ANGLE_UNIT ( ) SI_UNIT ( $, .RADIAN. ) );
#614 = CLOSED_SHELL ( 'NONE', ( #664, #985, #1166, #132, #1218, #915, #1124, #7, #496, #372 ) ) ;
#615 = COLOUR_RGB ( '',0.000000000000000000, 0.000000000000000000, 0.000000000000000000 ) ;
#616 =( GEOMETRIC_REPRESENTATION_CONTEXT ( 3 ) GLOBAL_UNCERTAINTY_ASSIGNED_CONTEXT ( ( #1126 ) ) GLOBAL_UNIT_ASSIGNED_CONTEXT ( ( #647, #734, #321 ) ) REPRESENTATION_CONTEXT ( 'NONE', 'WORKASPACE' ) );
#617 = PRESENTATION_LAYER_ASSIGNMENT (  '', '', ( #907 ) ) ;
#618 = PRODUCT_DEFINITION_CONTEXT ( 'detailed design', #1009, 'design' ) ;
#619 = FILL_AREA_STYLE_COLOUR ( '', #450 ) ;
#620 = ORIENTED_EDGE ( 'NONE', *, *, #805, .F. ) ;
#621 = CARTESIAN_POINT ( 'NONE',  ( 1.149999999999999911, 0.9000000000000000222, 1.159999966620999912 ) ) ;
#622 = EDGE_CURVE ( 'NONE', #983, #186, #1274, .T. ) ;
#623 =( LENGTH_UNIT ( ) NAMED_UNIT ( * ) SI_UNIT ( .MILLI., .METRE. ) );
#624 = ORIENTED_EDGE ( 'NONE', *, *, #695, .F. ) ;
#625 = EDGE_CURVE ( 'NONE', #401, #171, #261, .T. ) ;
#626 =( LENGTH_UNIT ( ) NAMED_UNIT ( * ) SI_UNIT ( .MILLI., .METRE. ) );
#627 = UNCERTAINTY_MEASURE_WITH_UNIT (LENGTH_MEASURE( 1.000000000000000082E-05 ), #936, 'distance_accuracy_value', 'NONE');
#628 = ORIENTED_EDGE ( 'NONE', *, *, #1031, .T. ) ;
#629 = DIRECTION ( 'NONE',  ( 1.000000000000000000, 0.000000000000000000, 0.000000000000000000 ) ) ;
#630 = AXIS2_PLACEMENT_3D ( 'NONE', #1249, #572, #1046 ) ;
#631 = EDGE_CURVE ( 'NONE', #1269, #1237, #953, .T. ) ;
#632 = AXIS2_PLACEMENT_3D ( 'NONE', #478, #871, #1279 ) ;
#633 = CIRCLE ( 'NONE', #57, 0.1000000000000000472 ) ;
#634 = ORIENTED_EDGE ( 'NONE', *, *, #260, .F. ) ;
#635 = DIRECTION ( 'NONE',  ( 0.000000000000000000, 0.000000000000000000, -1.000000000000000000 ) ) ;
#636 = VECTOR ( 'NONE', #1265, 1000.000000000000000 ) ;
#637 = SURFACE_STYLE_FILL_AREA ( #520 ) ;
#638 = VECTOR ( 'NONE', #722, 1000.000000000000000 ) ;
#639 = VECTOR ( 'NONE', #902, 1000.000000000000000 ) ;
#640 =( NAMED_UNIT ( * ) PLANE_ANGLE_UNIT ( ) SI_UNIT ( $, .RADIAN. ) );
#641 = SURFACE_SIDE_STYLE ('',( #1141 ) ) ;
#642 = DIRECTION ( 'NONE',  ( 0.000000000000000000, 0.000000000000000000, -1.000000000000000000 ) ) ;
#643 = PLANE ( 'NONE',  #1028 ) ;
#644 = CARTESIAN_POINT ( 'NONE',  ( -0.6500000000000000222, 1.000000000000000000, 3.248061268403999780 ) ) ;
#645 = DIRECTION ( 'NONE',  ( 0.000000000000000000, 0.000000000000000000, 1.000000000000000000 ) ) ;
#646 = ADVANCED_FACE ( 'NONE', ( #69 ), #488, .T. ) ;
#647 =( LENGTH_UNIT ( ) NAMED_UNIT ( * ) SI_UNIT ( .MILLI., .METRE. ) );
#648 = LINE ( 'NONE', #1045, #636 ) ;
#649 = VECTOR ( 'NONE', #244, 1000.000000000000000 ) ;
#650 = EDGE_LOOP ( 'NONE', ( #397, #869, #446, #1171 ) ) ;
#651 = COLOUR_RGB ( '',0.000000000000000000, 0.000000000000000000, 0.000000000000000000 ) ;
#652 = AXIS2_PLACEMENT_3D ( 'NONE', #841, #559, #35 ) ;
#653 = PLANE ( 'NONE',  #273 ) ;
#654 = CARTESIAN_POINT ( 'NONE',  ( -1.149999999999999911, 0.9000000000000000222, -3.337860099427999893E-08 ) ) ;
#655 = AXIS2_PLACEMENT_3D ( 'NONE', #127, #1253, #916 ) ;
#656 = EDGE_CURVE ( 'NONE', #1176, #1269, #944, .T. ) ;
#657 = LINE ( 'NONE', #952, #1107 ) ;
#658 = CARTESIAN_POINT ( 'NONE',  ( -0.6500000000000000222, -0.9899999999999999911, -4.363452412097999833 ) ) ;
#659 = CARTESIAN_POINT ( 'NONE',  ( 1.250000000000000000, -0.9000000000000000222, 1.159999966620999912 ) ) ;
#660 = PLANE ( 'NONE',  #733 ) ;
#661 = EDGE_LOOP ( 'NONE', ( #264, #535, #876, #779 ) ) ;
#662 = DIRECTION ( 'NONE',  ( 1.000000000000000000, 0.000000000000000000, 0.000000000000000000 ) ) ;
#663 = FILL_AREA_STYLE_COLOUR ( '', #1072 ) ;
#664 = ADVANCED_FACE ( 'NONE', ( #1229 ), #23, .F. ) ;
#665 = DIRECTION ( 'NONE',  ( 0.000000000000000000, 0.000000000000000000, -1.000000000000000000 ) ) ;
#666 = SURFACE_STYLE_FILL_AREA ( #263 ) ;
#667 = ORIENTED_EDGE ( 'NONE', *, *, #532, .F. ) ;
#668 = CARTESIAN_POINT ( 'NONE',  ( 0.6500000000000000222, 1.000000000000000000, -3.337860099427999893E-08 ) ) ;
#669 =( NAMED_UNIT ( * ) PLANE_ANGLE_UNIT ( ) SI_UNIT ( $, .RADIAN. ) );
#670 =( NAMED_UNIT ( * ) PLANE_ANGLE_UNIT ( ) SI_UNIT ( $, .RADIAN. ) );
#671 =( NAMED_UNIT ( * ) SI_UNIT ( $, .STERADIAN. ) SOLID_ANGLE_UNIT ( ) );
#672 = EDGE_CURVE ( 'NONE', #1110, #1007, #1037, .T. ) ;
#673 = VERTEX_POINT ( 'NONE', #443 ) ;
#674 = VERTEX_POINT ( 'NONE', #1137 ) ;
#675 = CARTESIAN_POINT ( 'NONE',  ( 0.6500000000000000222, -0.9899999999999999911, -4.363452412097999833 ) ) ;
#676 = STYLED_ITEM ( 'NONE', ( #1204 ), #372 ) ;
#677 = PRESENTATION_LAYER_ASSIGNMENT (  '', '', ( #355 ) ) ;
#678 = AXIS2_PLACEMENT_3D ( 'NONE', #738, #645, #346 ) ;
#679 = AXIS2_PLACEMENT_3D ( 'NONE', #116, #529, #421 ) ;
#680 = COLOUR_RGB ( '',0.000000000000000000, 0.000000000000000000, 0.000000000000000000 ) ;
#681 = FILL_AREA_STYLE ('',( #1172 ) ) ;
#682 = SURFACE_SIDE_STYLE ('',( #881 ) ) ;
#683 = DIRECTION ( 'NONE',  ( -0.000000000000000000, 1.000000000000000000, 0.000000000000000000 ) ) ;
#684 = ORIENTED_EDGE ( 'NONE', *, *, #1305, .F. ) ;
#685 = ORIENTED_EDGE ( 'NONE', *, *, #389, .T. ) ;
#686 = SURFACE_SIDE_STYLE ('',( #692 ) ) ;
#687 = LINE ( 'NONE', #1189, #864 ) ;
#688 = FILL_AREA_STYLE_COLOUR ( '', #1043 ) ;
#689 = ORIENTED_EDGE ( 'NONE', *, *, #763, .T. ) ;
#690 = LINE ( 'NONE', #704, #861 ) ;
#691 = ORIENTED_EDGE ( 'NONE', *, *, #418, .T. ) ;
#692 = SURFACE_STYLE_FILL_AREA ( #1295 ) ;
#693 = DIRECTION ( 'NONE',  ( 1.000000000000000000, 0.000000000000000000, 0.000000000000000000 ) ) ;
#694 = ORIENTED_EDGE ( 'NONE', *, *, #521, .F. ) ;
#695 = EDGE_CURVE ( 'NONE', #1198, #974, #928, .T. ) ;
#696 = CARTESIAN_POINT ( 'NONE',  ( -1.149999999999999911, 1.000000000000000000, 1.209999966620999956 ) ) ;
#697 = ORIENTED_EDGE ( 'NONE', *, *, #436, .T. ) ;
#698 = VERTEX_POINT ( 'NONE', #922 ) ;
#699 = EDGE_LOOP ( 'NONE', ( #524, #1285, #731, #1004 ) ) ;
#700 = MECHANICAL_DESIGN_GEOMETRIC_PRESENTATION_REPRESENTATION (  '', ( #676 ), #1224 ) ;
#701 = EDGE_CURVE ( 'NONE', #918, #186, #1119, .T. ) ;
#702 = AXIS2_PLACEMENT_3D ( 'NONE', #787, #405, #802 ) ;
#703 = CARTESIAN_POINT ( 'NONE',  ( 0.6500000000000000222, -1.000000000000000000, -3.337860099427999893E-08 ) ) ;
#704 = CARTESIAN_POINT ( 'NONE',  ( 0.6500000000000000222, -1.000000000000000000, 3.248061268403999780 ) ) ;
#705 =( NAMED_UNIT ( * ) PLANE_ANGLE_UNIT ( ) SI_UNIT ( $, .RADIAN. ) );
#706 = ADVANCED_FACE ( 'NONE', ( #1241 ), #1272, .T. ) ;
#707 = ORIENTED_EDGE ( 'NONE', *, *, #539, .T. ) ;
#708 = CARTESIAN_POINT ( 'NONE',  ( -1.149999999999999911, -1.000000000000000000, -3.337860099427999893E-08 ) ) ;
#709 = EDGE_CURVE ( 'NONE', #1260, #1085, #951, .T. ) ;
#710 =( NAMED_UNIT ( * ) PLANE_ANGLE_UNIT ( ) SI_UNIT ( $, .RADIAN. ) );
#711 = ORIENTED_EDGE ( 'NONE', *, *, #1112, .F. ) ;
#712 = CARTESIAN_POINT ( 'NONE',  ( 1.250000000000000000, -0.9000000000000000222, 1.209999966620999956 ) ) ;
#713 = DIRECTION ( 'NONE',  ( 0.000000000000000000, 0.000000000000000000, 1.000000000000000000 ) ) ;
#714 = AXIS2_PLACEMENT_3D ( 'NONE', #1149, #48, #849 ) ;
#715 = PRESENTATION_LAYER_ASSIGNMENT (  '', '', ( #821 ) ) ;
#716 = VECTOR ( 'NONE', #747, 1000.000000000000000 ) ;
#717 = UNCERTAINTY_MEASURE_WITH_UNIT (LENGTH_MEASURE( 1.000000000000000082E-05 ), #365, 'distance_accuracy_value', 'NONE');
#718 = DIRECTION ( 'NONE',  ( 1.000000000000000000, 0.000000000000000000, 0.000000000000000000 ) ) ;
#719 = PRESENTATION_LAYER_ASSIGNMENT (  '', '', ( #307 ) ) ;
#720 = EDGE_LOOP ( 'NONE', ( #1090, #567, #1021, #248 ) ) ;
#721 = PRESENTATION_STYLE_ASSIGNMENT (( #435 ) ) ;
#722 = DIRECTION ( 'NONE',  ( 1.000000000000000000, 0.000000000000000000, 0.000000000000000000 ) ) ;
#723 = PRESENTATION_STYLE_ASSIGNMENT (( #32 ) ) ;
#724 = DIRECTION ( 'NONE',  ( 1.000000000000000000, 0.000000000000000000, 0.000000000000000000 ) ) ;
#725 = ORIENTED_EDGE ( 'NONE', *, *, #824, .F. ) ;
#726 =( NAMED_UNIT ( * ) PLANE_ANGLE_UNIT ( ) SI_UNIT ( $, .RADIAN. ) );
#727 = EDGE_CURVE ( 'NONE', #1001, #1306, #544, .T. ) ;
#728 = SURFACE_SIDE_STYLE ('',( #224 ) ) ;
#729 = ORIENTED_EDGE ( 'NONE', *, *, #1129, .T. ) ;
#730 = DIRECTION ( 'NONE',  ( 0.000000000000000000, 0.000000000000000000, -1.000000000000000000 ) ) ;
#731 = ORIENTED_EDGE ( 'NONE', *, *, #856, .T. ) ;
#732 = AXIS2_PLACEMENT_3D ( 'NONE', #290, #990, #199 ) ;
#733 = AXIS2_PLACEMENT_3D ( 'NONE', #1283, #992, #1197 ) ;
#734 =( NAMED_UNIT ( * ) PLANE_ANGLE_UNIT ( ) SI_UNIT ( $, .RADIAN. ) );
#735 = FILL_AREA_STYLE_COLOUR ( '', #386 ) ;
#736 = AXIS2_PLACEMENT_3D ( 'NONE', #1236, #10, #724 ) ;
#737 =( LENGTH_UNIT ( ) NAMED_UNIT ( * ) SI_UNIT ( .MILLI., .METRE. ) );
#738 = CARTESIAN_POINT ( 'NONE',  ( 0.000000000000000000, 0.000000000000000000, 0.009999966621399000721 ) ) ;
#739 = AXIS2_PLACEMENT_3D ( 'NONE', #939, #831, #629 ) ;
#740 = SURFACE_SIDE_STYLE ('',( #40 ) ) ;
#741 = PRESENTATION_STYLE_ASSIGNMENT (( #262 ) ) ;
#742 = EDGE_CURVE ( 'NONE', #1269, #1071, #364, .T. ) ;
#743 = UNCERTAINTY_MEASURE_WITH_UNIT (LENGTH_MEASURE( 1.000000000000000082E-05 ), #178, 'distance_accuracy_value', 'NONE');
#744 =( NAMED_UNIT ( * ) SI_UNIT ( $, .STERADIAN. ) SOLID_ANGLE_UNIT ( ) );
#745 = DIRECTION ( 'NONE',  ( 0.000000000000000000, 0.000000000000000000, -1.000000000000000000 ) ) ;
#746 = CARTESIAN_POINT ( 'NONE',  ( -1.149999999999999911, 0.9000000000000000222, 1.159999966620999912 ) ) ;
#747 = DIRECTION ( 'NONE',  ( -5.421010862427999184E-17, 1.000000000000000000, 0.000000000000000000 ) ) ;
#748 = LINE ( 'NONE', #1144, #381 ) ;
#749 =( LENGTH_UNIT ( ) NAMED_UNIT ( * ) SI_UNIT ( .MILLI., .METRE. ) );
#750 = VERTEX_POINT ( 'NONE', #863 ) ;
#751 = LINE ( 'NONE', #552, #411 ) ;
#752 = CARTESIAN_POINT ( 'NONE',  ( 0.6500000000000000222, 0.9899999999999999911, 0.009999966621399000721 ) ) ;
#753 = DIRECTION ( 'NONE',  ( -5.421010862427999184E-17, 1.000000000000000000, 0.000000000000000000 ) ) ;
#754 = FACE_OUTER_BOUND ( 'NONE', #194, .T. ) ;
#755 = PRESENTATION_LAYER_ASSIGNMENT (  '', '', ( #9 ) ) ;
#756 = ORIENTED_EDGE ( 'NONE', *, *, #53, .F. ) ;
#757 = VECTOR ( 'NONE', #753, 1000.000000000000000 ) ;
#758 = PRESENTATION_LAYER_ASSIGNMENT (  '', '', ( #475 ) ) ;
#759 = UNCERTAINTY_MEASURE_WITH_UNIT (LENGTH_MEASURE( 1.000000000000000082E-05 ), #511, 'distance_accuracy_value', 'NONE');
#760 = DIRECTION ( 'NONE',  ( 1.000000000000000000, 0.000000000000000000, 0.000000000000000000 ) ) ;
#761 = DIRECTION ( 'NONE',  ( -5.421010862427999184E-17, -1.000000000000000000, 0.000000000000000000 ) ) ;
#762 = VECTOR ( 'NONE', #693, 1000.000000000000000 ) ;
#763 = EDGE_CURVE ( 'NONE', #750, #1070, #259, .T. ) ;
#764 = LINE ( 'NONE', #47, #168 ) ;
#765 = PRESENTATION_STYLE_ASSIGNMENT (( #240 ) ) ;
#766 = ORIENTED_EDGE ( 'NONE', *, *, #763, .F. ) ;
#767 = LINE ( 'NONE', #456, #500 ) ;
#768 = FACE_OUTER_BOUND ( 'NONE', #317, .T. ) ;
#769 = SURFACE_STYLE_USAGE ( .BOTH. , #310 ) ;
#770 = ADVANCED_FACE ( 'NONE', ( #1146 ), #931, .F. ) ;
#771 = FILL_AREA_STYLE ('',( #77 ) ) ;
#772 = ORIENTED_EDGE ( 'NONE', *, *, #1031, .F. ) ;
#773 = ORIENTED_EDGE ( 'NONE', *, *, #118, .F. ) ;
#774 =( GEOMETRIC_REPRESENTATION_CONTEXT ( 3 ) GLOBAL_UNCERTAINTY_ASSIGNED_CONTEXT ( ( #911 ) ) GLOBAL_UNIT_ASSIGNED_CONTEXT ( ( #270, #99, #1216 ) ) REPRESENTATION_CONTEXT ( 'NONE', 'WORKASPACE' ) );
#775 = DIRECTION ( 'NONE',  ( 0.000000000000000000, 0.000000000000000000, -1.000000000000000000 ) ) ;
#776 = DIRECTION ( 'NONE',  ( 1.000000000000000000, -1.204669080538999940E-16, 0.000000000000000000 ) ) ;
#777 = FILL_AREA_STYLE ('',( #294 ) ) ;
#778 = ORIENTED_EDGE ( 'NONE', *, *, #441, .T. ) ;
#779 = ORIENTED_EDGE ( 'NONE', *, *, #1233, .F. ) ;
#780 = STYLED_ITEM ( 'NONE', ( #862 ), #1052 ) ;
#781 = LINE ( 'NONE', #1089, #13 ) ;
#782 = AXIS2_PLACEMENT_3D ( 'NONE', #1067, #1250, #956 ) ;
#783 = PRESENTATION_LAYER_ASSIGNMENT (  '', '', ( #232 ) ) ;
#784 = PLANE ( 'NONE',  #422 ) ;
#785 =( NAMED_UNIT ( * ) PLANE_ANGLE_UNIT ( ) SI_UNIT ( $, .RADIAN. ) );
#786 = ORIENTED_EDGE ( 'NONE', *, *, #880, .F. ) ;
#787 = CARTESIAN_POINT ( 'NONE',  ( -1.149999999999999911, 0.9000000000000000222, 3.248061268403999780 ) ) ;
#788 = VERTEX_POINT ( 'NONE', #250 ) ;
#789 = SURFACE_STYLE_USAGE ( .BOTH. , #686 ) ;
#790 = EDGE_CURVE ( 'NONE', #171, #1006, #1000, .T. ) ;
#791 = DIRECTION ( 'NONE',  ( 0.000000000000000000, 0.000000000000000000, -1.000000000000000000 ) ) ;
#792 = EDGE_LOOP ( 'NONE', ( #973, #594, #404, #1201, #361, #110 ) ) ;
#793 = SURFACE_STYLE_USAGE ( .BOTH. , #682 ) ;
#794 = ORIENTED_EDGE ( 'NONE', *, *, #575, .F. ) ;
#795 =( NAMED_UNIT ( * ) PLANE_ANGLE_UNIT ( ) SI_UNIT ( $, .RADIAN. ) );
#796 = ORIENTED_EDGE ( 'NONE', *, *, #625, .F. ) ;
#797 = DIRECTION ( 'NONE',  ( 0.000000000000000000, 1.000000000000000000, 0.000000000000000000 ) ) ;
#798 = ADVANCED_FACE ( 'NONE', ( #22 ), #149, .T. ) ;
#799 = ORIENTED_EDGE ( 'NONE', *, *, #893, .F. ) ;
#800 = PRESENTATION_STYLE_ASSIGNMENT (( #414 ) ) ;
#801 = DIRECTION ( 'NONE',  ( -1.000000000000000000, 0.000000000000000000, 0.000000000000000000 ) ) ;
#802 = DIRECTION ( 'NONE',  ( -1.000000000000000000, 0.000000000000000000, 0.000000000000000000 ) ) ;
#803 = PRESENTATION_LAYER_ASSIGNMENT (  '', '', ( #676 ) ) ;
#804 = VECTOR ( 'NONE', #570, 1000.000000000000000 ) ;
#805 = EDGE_CURVE ( 'NONE', #1260, #393, #486, .T. ) ;
#806 = CARTESIAN_POINT ( 'NONE',  ( -1.250000000000000000, -1.000000000000000000, 1.159999966620999912 ) ) ;
#807 = AXIS2_PLACEMENT_3D ( 'NONE', #33, #444, #480 ) ;
#808 = CIRCLE ( 'NONE', #357, 0.1000000000000000472 ) ;
#809 = AXIS2_PLACEMENT_3D ( 'NONE', #986, #1290, #1003 ) ;
#810 = SURFACE_STYLE_FILL_AREA ( #608 ) ;
#811 = PRESENTATION_STYLE_ASSIGNMENT (( #1076 ) ) ;
#812 = ORIENTED_EDGE ( 'NONE', *, *, #656, .F. ) ;
#813 = CARTESIAN_POINT ( 'NONE',  ( -1.149999999999999911, -0.9000000000000000222, 1.209999966620999956 ) ) ;
#814 = SURFACE_SIDE_STYLE ('',( #810 ) ) ;
#815 = PRODUCT ( 'FTC2520', 'FTC2520', '', ( #1234 ) ) ;
#816 = FILL_AREA_STYLE ('',( #619 ) ) ;
#817 = VERTEX_POINT ( 'NONE', #1287 ) ;
#818 = LINE ( 'NONE', #712, #1029 ) ;
#819 = CARTESIAN_POINT ( 'NONE',  ( 0.000000000000000000, 0.000000000000000000, 1.209999966620999956 ) ) ;
#820 = MECHANICAL_DESIGN_GEOMETRIC_PRESENTATION_REPRESENTATION (  '', ( #475 ), #332 ) ;
#821 = STYLED_ITEM ( 'NONE', ( #129 ), #770 ) ;
#822 = SURFACE_STYLE_USAGE ( .BOTH. , #740 ) ;
#823 = COLOUR_RGB ( '',1.000000000000000000, 1.000000000000000000, 1.000000000000000000 ) ;
#824 = EDGE_CURVE ( 'NONE', #269, #50, #272, .T. ) ;
#825 = UNCERTAINTY_MEASURE_WITH_UNIT (LENGTH_MEASURE( 1.000000000000000082E-05 ), #934, 'distance_accuracy_value', 'NONE');
#826 = CARTESIAN_POINT ( 'NONE',  ( 1.149999999999999911, 1.000000000000000000, 1.159999966620999912 ) ) ;
#827 = ORIENTED_EDGE ( 'NONE', *, *, #701, .F. ) ;
#828 =( NAMED_UNIT ( * ) SI_UNIT ( $, .STERADIAN. ) SOLID_ANGLE_UNIT ( ) );
#829 = FILL_AREA_STYLE_COLOUR ( '', #550 ) ;
#830 = ORIENTED_EDGE ( 'NONE', *, *, #622, .T. ) ;
#831 = DIRECTION ( 'NONE',  ( 0.000000000000000000, 0.000000000000000000, -1.000000000000000000 ) ) ;
#832 = FILL_AREA_STYLE ('',( #829 ) ) ;
#833 = EDGE_LOOP ( 'NONE', ( #428, #288, #471, #624 ) ) ;
#834 = UNCERTAINTY_MEASURE_WITH_UNIT (LENGTH_MEASURE( 1.000000000000000082E-05 ), #749, 'distance_accuracy_value', 'NONE');
#835 = SURFACE_STYLE_USAGE ( .BOTH. , #439 ) ;
#836 = EDGE_CURVE ( 'NONE', #1242, #674, #173, .T. ) ;
#837 = MECHANICAL_DESIGN_GEOMETRIC_PRESENTATION_REPRESENTATION (  '', ( #1016 ), #1180 ) ;
#838 =( GEOMETRIC_REPRESENTATION_CONTEXT ( 3 ) GLOBAL_UNCERTAINTY_ASSIGNED_CONTEXT ( ( #51 ) ) GLOBAL_UNIT_ASSIGNED_CONTEXT ( ( #491, #1199, #875 ) ) REPRESENTATION_CONTEXT ( 'NONE', 'WORKASPACE' ) );
#839 = FILL_AREA_STYLE_COLOUR ( '', #276 ) ;
#840 =( GEOMETRIC_REPRESENTATION_CONTEXT ( 3 ) GLOBAL_UNCERTAINTY_ASSIGNED_CONTEXT ( ( #394 ) ) GLOBAL_UNIT_ASSIGNED_CONTEXT ( ( #379, #1075, #885 ) ) REPRESENTATION_CONTEXT ( 'NONE', 'WORKASPACE' ) );
#841 = CARTESIAN_POINT ( 'NONE',  ( 1.149999999999999911, -0.9000000000000000222, 1.209999966620999956 ) ) ;
#842 = STYLED_ITEM ( 'NONE', ( #741 ), #98 ) ;
#843 = MECHANICAL_DESIGN_GEOMETRIC_PRESENTATION_REPRESENTATION (  '', ( #278 ), #516 ) ;
#844 = DIRECTION ( 'NONE',  ( 1.000000000000000000, 0.000000000000000000, 0.000000000000000000 ) ) ;
#845 = CIRCLE ( 'NONE', #739, 0.1000000000000000472 ) ;
#846 = EDGE_CURVE ( 'NONE', #1071, #1128, #781, .T. ) ;
#847 = PRESENTATION_STYLE_ASSIGNMENT (( #495 ) ) ;
#848 = DIRECTION ( 'NONE',  ( 1.000000000000000000, 0.000000000000000000, 0.000000000000000000 ) ) ;
#849 = DIRECTION ( 'NONE',  ( 1.000000000000000000, 0.000000000000000000, 0.000000000000000000 ) ) ;
#850 = CARTESIAN_POINT ( 'NONE',  ( -1.250000000000000000, -0.9000000000000000222, 1.209999966620999956 ) ) ;
#851 = DIRECTION ( 'NONE',  ( 0.000000000000000000, 0.000000000000000000, 1.000000000000000000 ) ) ;
#852 = DIRECTION ( 'NONE',  ( 0.000000000000000000, 1.000000000000000000, 0.000000000000000000 ) ) ;
#853 = SURFACE_STYLE_FILL_AREA ( #267 ) ;
#854 = LINE ( 'NONE', #948, #123 ) ;
#855 = EDGE_LOOP ( 'NONE', ( #620, #368, #860, #293 ) ) ;
#856 = EDGE_CURVE ( 'NONE', #11, #3, #687, .T. ) ;
#857 = LINE ( 'NONE', #34, #942 ) ;
#858 = LINE ( 'NONE', #482, #196 ) ;
#859 =( GEOMETRIC_REPRESENTATION_CONTEXT ( 3 ) GLOBAL_UNCERTAINTY_ASSIGNED_CONTEXT ( ( #1114 ) ) GLOBAL_UNIT_ASSIGNED_CONTEXT ( ( #481, #461, #158 ) ) REPRESENTATION_CONTEXT ( 'NONE', 'WORKASPACE' ) );
#860 = ORIENTED_EDGE ( 'NONE', *, *, #424, .T. ) ;
#861 = VECTOR ( 'NONE', #994, 1000.000000000000000 ) ;
#862 = PRESENTATION_STYLE_ASSIGNMENT (( #162 ) ) ;
#863 = CARTESIAN_POINT ( 'NONE',  ( -1.149999999999999911, 1.000000000000000000, 1.159999966620999912 ) ) ;
#864 = VECTOR ( 'NONE', #577, 1000.000000000000000 ) ;
#865 = DIRECTION ( 'NONE',  ( 0.000000000000000000, 0.000000000000000000, -1.000000000000000000 ) ) ;
#866 = FACE_OUTER_BOUND ( 'NONE', #1315, .T. ) ;
#867 = SURFACE_SIDE_STYLE ('',( #1060 ) ) ;
#868 = ORIENTED_EDGE ( 'NONE', *, *, #39, .T. ) ;
#869 = ORIENTED_EDGE ( 'NONE', *, *, #532, .T. ) ;
#870 = FILL_AREA_STYLE ('',( #265 ) ) ;
#871 = DIRECTION ( 'NONE',  ( 1.000000000000000000, 0.000000000000000000, 0.000000000000000000 ) ) ;
#872 = FILL_AREA_STYLE ('',( #46 ) ) ;
#873 = FILL_AREA_STYLE ('',( #1291 ) ) ;
#874 =( LENGTH_UNIT ( ) NAMED_UNIT ( * ) SI_UNIT ( .MILLI., .METRE. ) );
#875 =( NAMED_UNIT ( * ) SI_UNIT ( $, .STERADIAN. ) SOLID_ANGLE_UNIT ( ) );
#876 = ORIENTED_EDGE ( 'NONE', *, *, #932, .F. ) ;
#877 = ORIENTED_EDGE ( 'NONE', *, *, #610, .F. ) ;
#878 = LINE ( 'NONE', #378, #649 ) ;
#879 =( NAMED_UNIT ( * ) SI_UNIT ( $, .STERADIAN. ) SOLID_ANGLE_UNIT ( ) );
#880 = EDGE_CURVE ( 'NONE', #311, #889, #584, .T. ) ;
#881 = SURFACE_STYLE_FILL_AREA ( #771 ) ;
#882 = CARTESIAN_POINT ( 'NONE',  ( -1.149999999999999911, -0.9000000000000000222, 1.159999966620999912 ) ) ;
#883 = SURFACE_SIDE_STYLE ('',( #79 ) ) ;
#884 = EDGE_LOOP ( 'NONE', ( #377, #327, #289, #1087 ) ) ;
#885 =( NAMED_UNIT ( * ) SI_UNIT ( $, .STERADIAN. ) SOLID_ANGLE_UNIT ( ) );
#886 = MECHANICAL_DESIGN_GEOMETRIC_PRESENTATION_REPRESENTATION (  '', ( #55 ), #1184 ) ;
#887 = MECHANICAL_DESIGN_GEOMETRIC_PRESENTATION_REPRESENTATION (  '', ( #143 ), #304 ) ;
#888 = VECTOR ( 'NONE', #340, 1000.000000000000000 ) ;
#889 = VERTEX_POINT ( 'NONE', #977 ) ;
#890 =( LENGTH_UNIT ( ) NAMED_UNIT ( * ) SI_UNIT ( .MILLI., .METRE. ) );
#891 = SURFACE_SIDE_STYLE ('',( #666 ) ) ;
#892 = ORIENTED_EDGE ( 'NONE', *, *, #805, .T. ) ;
#893 = EDGE_CURVE ( 'NONE', #918, #121, #585, .T. ) ;
#894 = EDGE_LOOP ( 'NONE', ( #1186, #24, #892, #519 ) ) ;
#895 = SURFACE_STYLE_FILL_AREA ( #399 ) ;
#896 = ORIENTED_EDGE ( 'NONE', *, *, #631, .T. ) ;
#897 =( NAMED_UNIT ( * ) SI_UNIT ( $, .STERADIAN. ) SOLID_ANGLE_UNIT ( ) );
#898 = VERTEX_POINT ( 'NONE', #65 ) ;
#899 = CARTESIAN_POINT ( 'NONE',  ( -1.250000000000000000, 0.9000000000000000222, 1.159999966620999912 ) ) ;
#900 = EDGE_CURVE ( 'NONE', #189, #483, #991, .T. ) ;
#901 = ORIENTED_EDGE ( 'NONE', *, *, #900, .F. ) ;
#902 = DIRECTION ( 'NONE',  ( 1.000000000000000000, 0.000000000000000000, 0.000000000000000000 ) ) ;
#903 = VECTOR ( 'NONE', #797, 1000.000000000000000 ) ;
#904 = VECTOR ( 'NONE', #136, 1000.000000000000000 ) ;
#905 = VECTOR ( 'NONE', #1205, 1000.000000000000000 ) ;
#906 = FILL_AREA_STYLE_COLOUR ( '', #67 ) ;
#907 = STYLED_ITEM ( 'NONE', ( #954 ), #132 ) ;
#908 = ORIENTED_EDGE ( 'NONE', *, *, #1010, .F. ) ;
#909 = SURFACE_SIDE_STYLE ('',( #637 ) ) ;
#910 = LINE ( 'NONE', #1111, #925 ) ;
#911 = UNCERTAINTY_MEASURE_WITH_UNIT (LENGTH_MEASURE( 1.000000000000000082E-05 ), #270, 'distance_accuracy_value', 'NONE');
#912 = ORIENTED_EDGE ( 'NONE', *, *, #1074, .T. ) ;
#913 = DIRECTION ( 'NONE',  ( -1.000000000000000000, 0.000000000000000000, 0.000000000000000000 ) ) ;
#914 = PRESENTATION_STYLE_ASSIGNMENT (( #308 ) ) ;
#915 = ADVANCED_FACE ( 'NONE', ( #768 ), #326, .F. ) ;
#916 = DIRECTION ( 'NONE',  ( 0.000000000000000000, 0.000000000000000000, 1.000000000000000000 ) ) ;
#917 = PRESENTATION_STYLE_ASSIGNMENT (( #236 ) ) ;
#918 = VERTEX_POINT ( 'NONE', #427 ) ;
#919 = DIRECTION ( 'NONE',  ( 0.000000000000000000, 0.000000000000000000, -1.000000000000000000 ) ) ;
#920 =( NAMED_UNIT ( * ) PLANE_ANGLE_UNIT ( ) SI_UNIT ( $, .RADIAN. ) );
#921 = COLOUR_RGB ( '',1.000000000000000000, 1.000000000000000000, 1.000000000000000000 ) ;
#922 = CARTESIAN_POINT ( 'NONE',  ( -1.250000000000000000, 0.9000000000000000222, 1.209999966620999956 ) ) ;
#923 = VECTOR ( 'NONE', #1168, 1000.000000000000000 ) ;
#924 = UNCERTAINTY_MEASURE_WITH_UNIT (LENGTH_MEASURE( 1.000000000000000082E-05 ), #599, 'distance_accuracy_value', 'NONE');
#925 = VECTOR ( 'NONE', #1008, 1000.000000000000000 ) ;
#926 = VERTEX_POINT ( 'NONE', #2 ) ;
#927 = FILL_AREA_STYLE ('',( #1027 ) ) ;
#928 = LINE ( 'NONE', #437, #888 ) ;
#929 = ORIENTED_EDGE ( 'NONE', *, *, #790, .F. ) ;
#930 = FILL_AREA_STYLE_COLOUR ( '', #680 ) ;
#931 = PLANE ( 'NONE',  #678 ) ;
#932 = EDGE_CURVE ( 'NONE', #983, #788, #808, .T. ) ;
#933 = DIRECTION ( 'NONE',  ( 0.000000000000000000, 0.000000000000000000, -1.000000000000000000 ) ) ;
#934 =( LENGTH_UNIT ( ) NAMED_UNIT ( * ) SI_UNIT ( .MILLI., .METRE. ) );
#935 = UNCERTAINTY_MEASURE_WITH_UNIT (LENGTH_MEASURE( 1.000000000000000082E-05 ), #546, 'distance_accuracy_value', 'NONE');
#936 =( LENGTH_UNIT ( ) NAMED_UNIT ( * ) SI_UNIT ( .MILLI., .METRE. ) );
#937 = DIRECTION ( 'NONE',  ( 4.336808689942000480E-16, -1.000000000000000000, 0.000000000000000000 ) ) ;
#938 = EDGE_CURVE ( 'NONE', #11, #401, #1140, .T. ) ;
#939 = CARTESIAN_POINT ( 'NONE',  ( 1.149999999999999911, -0.9000000000000000222, 1.159999966620999912 ) ) ;
#940 = VECTOR ( 'NONE', #271, 1000.000000000000000 ) ;
#941 = MECHANICAL_DESIGN_GEOMETRIC_PRESENTATION_REPRESENTATION (  '', ( #251 ), #774 ) ;
#942 = VECTOR ( 'NONE', #642, 1000.000000000000000 ) ;
#943 = AXIS2_PLACEMENT_3D ( 'NONE', #373, #776, #1167 ) ;
#944 = LINE ( 'NONE', #113, #1118 ) ;
#945 = CARTESIAN_POINT ( 'NONE',  ( 0.6500000000000000222, -1.000000000000000000, 1.159999966620999912 ) ) ;
#946 = LINE ( 'NONE', #1266, #904 ) ;
#947 = COLOUR_RGB ( '',0.000000000000000000, 0.000000000000000000, 0.000000000000000000 ) ;
#948 = CARTESIAN_POINT ( 'NONE',  ( -0.6500000000000000222, -1.000000000000000000, 3.248061268403999780 ) ) ;
#949 = AXIS2_PLACEMENT_3D ( 'NONE', #12, #318, #216 ) ;
#950 = CARTESIAN_POINT ( 'NONE',  ( -1.149999999999999911, -0.9000000000000000222, 1.159999966620999912 ) ) ;
#951 = LINE ( 'NONE', #448, #597 ) ;
#952 = CARTESIAN_POINT ( 'NONE',  ( -0.6500000000000000222, 3.523657060578000344E-17, 0.009999966621399000721 ) ) ;
#953 = LINE ( 'NONE', #658, #514 ) ;
#954 = PRESENTATION_STYLE_ASSIGNMENT (( #1033 ) ) ;
#955 = LINE ( 'NONE', #60, #549 ) ;
#956 = DIRECTION ( 'NONE',  ( 1.000000000000000000, 0.000000000000000000, 0.000000000000000000 ) ) ;
#957 = ORIENTED_EDGE ( 'NONE', *, *, #742, .T. ) ;
#958 = CARTESIAN_POINT ( 'NONE',  ( -1.149999999999999911, 1.000000000000000000, -3.337860099427999893E-08 ) ) ;
#959 =( LENGTH_UNIT ( ) NAMED_UNIT ( * ) SI_UNIT ( .MILLI., .METRE. ) );
#960 = CARTESIAN_POINT ( 'NONE',  ( -1.250000000000000000, 0.9000000000000000222, 3.248061268403999780 ) ) ;
#961 = CARTESIAN_POINT ( 'NONE',  ( -1.149999999999999911, -0.9000000000000000222, -3.337860099427999893E-08 ) ) ;
#962 = CARTESIAN_POINT ( 'NONE',  ( 1.250000000000000000, 0.9000000000000000222, 1.159999966620999912 ) ) ;
#963 = DIRECTION ( 'NONE',  ( 1.000000000000000000, 0.000000000000000000, 0.000000000000000000 ) ) ;
#964 = ORIENTED_EDGE ( 'NONE', *, *, #300, .F. ) ;
#965 = SURFACE_SIDE_STYLE ('',( #1164 ) ) ;
#966 = SURFACE_STYLE_FILL_AREA ( #569 ) ;
#967 = CARTESIAN_POINT ( 'NONE',  ( -1.149999999999999911, -0.9000000000000000222, 3.248061268403999780 ) ) ;
#968 = AXIS2_PLACEMENT_3D ( 'NONE', #950, #44, #37 ) ;
#969 = DIRECTION ( 'NONE',  ( 0.000000000000000000, 0.000000000000000000, -1.000000000000000000 ) ) ;
#970 = CARTESIAN_POINT ( 'NONE',  ( 1.250000000000000000, -0.9000000000000000222, 1.159999966620999912 ) ) ;
#971 = CLOSED_SHELL ( 'NONE', ( #770, #400, #556, #1005, #1, #1136, #234, #406, #1154, #706, #98, #798, #646, #1173, #563, #203, #352, #1052 ) ) ;
#972 = CARTESIAN_POINT ( 'NONE',  ( 0.6500000000000000222, -1.000000000000000000, -3.337860099427999893E-08 ) ) ;
#973 = ORIENTED_EDGE ( 'NONE', *, *, #242, .T. ) ;
#974 = VERTEX_POINT ( 'NONE', #1121 ) ;
#975 = COLOUR_RGB ( '',1.000000000000000000, 1.000000000000000000, 1.000000000000000000 ) ;
#976 = DIRECTION ( 'NONE',  ( 0.000000000000000000, 0.000000000000000000, 1.000000000000000000 ) ) ;
#977 = CARTESIAN_POINT ( 'NONE',  ( 1.250000000000000000, 0.9000000000000000222, -3.337860099427999893E-08 ) ) ;
#978 =( GEOMETRIC_REPRESENTATION_CONTEXT ( 3 ) GLOBAL_UNCERTAINTY_ASSIGNED_CONTEXT ( ( #214 ) ) GLOBAL_UNIT_ASSIGNED_CONTEXT ( ( #1123, #726, #828 ) ) REPRESENTATION_CONTEXT ( 'NONE', 'WORKASPACE' ) );
#979 = DIRECTION ( 'NONE',  ( 0.000000000000000000, 0.000000000000000000, -1.000000000000000000 ) ) ;
#980 =( NAMED_UNIT ( * ) PLANE_ANGLE_UNIT ( ) SI_UNIT ( $, .RADIAN. ) );
#981 =( NAMED_UNIT ( * ) SI_UNIT ( $, .STERADIAN. ) SOLID_ANGLE_UNIT ( ) );
#982 = CARTESIAN_POINT ( 'NONE',  ( -1.149999999999999911, -0.9000000000000000222, 1.159999966620999912 ) ) ;
#983 = VERTEX_POINT ( 'NONE', #826 ) ;
#984 = CARTESIAN_POINT ( 'NONE',  ( -0.6500000000000000222, 1.000000000000000000, 1.159999966620999912 ) ) ;
#985 = ADVANCED_FACE ( 'NONE', ( #419 ), #534, .F. ) ;
#986 = CARTESIAN_POINT ( 'NONE',  ( 1.149999999999999911, -0.9000000000000000222, 3.248061268403999780 ) ) ;
#987 = DIRECTION ( 'NONE',  ( 1.000000000000000000, 0.000000000000000000, 0.000000000000000000 ) ) ;
#988 = PLANE ( 'NONE',  #596 ) ;
#989 = EDGE_LOOP ( 'NONE', ( #794, #17, #1194, #707 ) ) ;
#990 = DIRECTION ( 'NONE',  ( 0.000000000000000000, 0.000000000000000000, -1.000000000000000000 ) ) ;
#991 = LINE ( 'NONE', #188, #762 ) ;
#992 = DIRECTION ( 'NONE',  ( -4.336808689942000480E-16, -1.000000000000000000, 0.000000000000000000 ) ) ;
#993 = VERTEX_POINT ( 'NONE', #1032 ) ;
#994 = DIRECTION ( 'NONE',  ( 0.000000000000000000, 0.000000000000000000, -1.000000000000000000 ) ) ;
#995 = ORIENTED_EDGE ( 'NONE', *, *, #66, .T. ) ;
#996 =( GEOMETRIC_REPRESENTATION_CONTEXT ( 3 ) GLOBAL_UNCERTAINTY_ASSIGNED_CONTEXT ( ( #1057 ) ) GLOBAL_UNIT_ASSIGNED_CONTEXT ( ( #190, #1084, #879 ) ) REPRESENTATION_CONTEXT ( 'NONE', 'WORKASPACE' ) );
#997 = CARTESIAN_POINT ( 'NONE',  ( 0.6500000000000000222, -1.000000000000000000, 3.248061268403999780 ) ) ;
#998 = MECHANICAL_DESIGN_GEOMETRIC_PRESENTATION_REPRESENTATION (  '', ( #1068 ), #1157 ) ;
#999 = MECHANICAL_DESIGN_GEOMETRIC_PRESENTATION_REPRESENTATION (  '', ( #355 ), #531 ) ;
#1000 = CIRCLE ( 'NONE', #104, 0.1000000000000000472 ) ;
#1001 = VERTEX_POINT ( 'NONE', #16 ) ;
#1002 = CARTESIAN_POINT ( 'NONE',  ( -1.149999999999999911, 1.000000000000000000, 3.248061268403999780 ) ) ;
#1003 = DIRECTION ( 'NONE',  ( -1.000000000000000000, 0.000000000000000000, 0.000000000000000000 ) ) ;
#1004 = ORIENTED_EDGE ( 'NONE', *, *, #191, .F. ) ;
#1005 = ADVANCED_FACE ( 'NONE', ( #1035 ), #128, .F. ) ;
#1006 = VERTEX_POINT ( 'NONE', #958 ) ;
#1007 = VERTEX_POINT ( 'NONE', #668 ) ;
#1008 = DIRECTION ( 'NONE',  ( 0.000000000000000000, 0.000000000000000000, -1.000000000000000000 ) ) ;
#1009 = APPLICATION_CONTEXT ( 'automotive_design' ) ;
#1010 = EDGE_CURVE ( 'NONE', #1070, #1001, #155, .T. ) ;
#1011 = STYLED_ITEM ( 'NONE', ( #721 ), #7 ) ;
#1012 = STYLED_ITEM ( 'NONE', ( #266 ), #1154 ) ;
#1013 = ORIENTED_EDGE ( 'NONE', *, *, #1024, .F. ) ;
#1014 =( GEOMETRIC_REPRESENTATION_CONTEXT ( 3 ) GLOBAL_UNCERTAINTY_ASSIGNED_CONTEXT ( ( #527 ) ) GLOBAL_UNIT_ASSIGNED_CONTEXT ( ( #256, #1059, #981 ) ) REPRESENTATION_CONTEXT ( 'NONE', 'WORKASPACE' ) );
#1015 = COLOUR_RGB ( '',0.000000000000000000, 0.000000000000000000, 0.000000000000000000 ) ;
#1016 = STYLED_ITEM ( 'NONE', ( #334 ), #1005 ) ;
#1017 = ORIENTED_EDGE ( 'NONE', *, *, #938, .F. ) ;
#1018 = DIRECTION ( 'NONE',  ( 1.000000000000000000, -5.421010862427999184E-17, 0.000000000000000000 ) ) ;
#1019 = EDGE_CURVE ( 'NONE', #788, #50, #767, .T. ) ;
#1020 = CARTESIAN_POINT ( 'NONE',  ( 0.6500000000000000222, -0.9899999999999999911, 1.159999966620999912 ) ) ;
#1021 = ORIENTED_EDGE ( 'NONE', *, *, #625, .T. ) ;
#1022 = DIRECTION ( 'NONE',  ( 0.000000000000000000, 0.000000000000000000, -1.000000000000000000 ) ) ;
#1023 = FILL_AREA_STYLE ('',( #906 ) ) ;
#1024 = EDGE_CURVE ( 'NONE', #311, #184, #472, .T. ) ;
#1025 =( NAMED_UNIT ( * ) PLANE_ANGLE_UNIT ( ) SI_UNIT ( $, .RADIAN. ) );
#1026 = EDGE_LOOP ( 'NONE', ( #387, #154, #299, #147 ) ) ;
#1027 = FILL_AREA_STYLE_COLOUR ( '', #106 ) ;
#1028 = AXIS2_PLACEMENT_3D ( 'NONE', #882, #665, #1264 ) ;
#1029 = VECTOR ( 'NONE', #919, 1000.000000000000000 ) ;
#1030 = MECHANICAL_DESIGN_GEOMETRIC_PRESENTATION_REPRESENTATION (  '', ( #449 ), #29 ) ;
#1031 = EDGE_CURVE ( 'NONE', #1198, #817, #751, .T. ) ;
#1032 = CARTESIAN_POINT ( 'NONE',  ( 1.149999999999999911, 1.000000000000000000, 1.159999966620999912 ) ) ;
#1033 = SURFACE_STYLE_USAGE ( .BOTH. , #558 ) ;
#1034 = EDGE_CURVE ( 'NONE', #1122, #1176, #74, .T. ) ;
#1035 = FACE_OUTER_BOUND ( 'NONE', #1026, .T. ) ;
#1036 = DIRECTION ( 'NONE',  ( -1.000000000000000000, 0.000000000000000000, 0.000000000000000000 ) ) ;
#1037 = LINE ( 'NONE', #6, #144 ) ;
#1038 = PLANE ( 'NONE',  #124 ) ;
#1039 = LINE ( 'NONE', #454, #757 ) ;
#1040 = FILL_AREA_STYLE_COLOUR ( '', #1100 ) ;
#1041 = FILL_AREA_STYLE_COLOUR ( '', #407 ) ;
#1042 = MECHANICAL_DESIGN_GEOMETRIC_PRESENTATION_REPRESENTATION (  '', ( #780 ), #227 ) ;
#1043 = COLOUR_RGB ( '',0.000000000000000000, 0.000000000000000000, 0.000000000000000000 ) ;
#1044 = CIRCLE ( 'NONE', #782, 0.1000000000000000472 ) ;
#1045 = CARTESIAN_POINT ( 'NONE',  ( 1.250000000000000000, -0.9000000000000000222, 3.248061268403999780 ) ) ;
#1046 = DIRECTION ( 'NONE',  ( 0.000000000000000000, 0.000000000000000000, 1.000000000000000000 ) ) ;
#1047 = FACE_OUTER_BOUND ( 'NONE', #93, .T. ) ;
#1048 = ORIENTED_EDGE ( 'NONE', *, *, #316, .F. ) ;
#1049 = CARTESIAN_POINT ( 'NONE',  ( 0.6500000000000000222, 1.000000000000000000, 1.159999966620999912 ) ) ;
#1050 = DIRECTION ( 'NONE',  ( 0.000000000000000000, 0.000000000000000000, -1.000000000000000000 ) ) ;
#1051 = AXIS2_PLACEMENT_3D ( 'NONE', #328, #530, #252 ) ;
#1052 = ADVANCED_FACE ( 'NONE', ( #1271 ), #653, .F. ) ;
#1053 = CARTESIAN_POINT ( 'NONE',  ( -1.149999999999999911, 1.000000000000000000, 1.159999966620999912 ) ) ;
#1054 = PRESENTATION_STYLE_ASSIGNMENT (( #342 ) ) ;
#1055 = LINE ( 'NONE', #850, #88 ) ;
#1056 = VERTEX_POINT ( 'NONE', #1278 ) ;
#1057 = UNCERTAINTY_MEASURE_WITH_UNIT (LENGTH_MEASURE( 1.000000000000000082E-05 ), #190, 'distance_accuracy_value', 'NONE');
#1058 =( NAMED_UNIT ( * ) PLANE_ANGLE_UNIT ( ) SI_UNIT ( $, .RADIAN. ) );
#1059 =( NAMED_UNIT ( * ) PLANE_ANGLE_UNIT ( ) SI_UNIT ( $, .RADIAN. ) );
#1060 = SURFACE_STYLE_FILL_AREA ( #1275 ) ;
#1061 = ORIENTED_EDGE ( 'NONE', *, *, #656, .T. ) ;
#1062 =( NAMED_UNIT ( * ) PLANE_ANGLE_UNIT ( ) SI_UNIT ( $, .RADIAN. ) );
#1063 = DIRECTION ( 'NONE',  ( -1.000000000000000000, 0.000000000000000000, 0.000000000000000000 ) ) ;
#1064 = COLOUR_RGB ( '',0.000000000000000000, 0.000000000000000000, 0.000000000000000000 ) ;
#1065 =( GEOMETRIC_REPRESENTATION_CONTEXT ( 3 ) GLOBAL_UNCERTAINTY_ASSIGNED_CONTEXT ( ( #717 ) ) GLOBAL_UNIT_ASSIGNED_CONTEXT ( ( #365, #710, #76 ) ) REPRESENTATION_CONTEXT ( 'NONE', 'WORKASPACE' ) );
#1066 = DIRECTION ( 'NONE',  ( 0.000000000000000000, 0.000000000000000000, -1.000000000000000000 ) ) ;
#1067 = CARTESIAN_POINT ( 'NONE',  ( 1.149999999999999911, -0.9000000000000000222, 1.209999966620999956 ) ) ;
#1068 = STYLED_ITEM ( 'NONE', ( #375 ), #400 ) ;
#1069 = VECTOR ( 'NONE', #42, 1000.000000000000000 ) ;
#1070 = VERTEX_POINT ( 'NONE', #984 ) ;
#1071 = VERTEX_POINT ( 'NONE', #494 ) ;
#1072 = COLOUR_RGB ( '',1.000000000000000000, 1.000000000000000000, 1.000000000000000000 ) ;
#1073 = CARTESIAN_POINT ( 'NONE',  ( -1.149999999999999911, 0.9899999999999999911, -4.363452412097999833 ) ) ;
#1074 = EDGE_CURVE ( 'NONE', #1110, #993, #878, .T. ) ;
#1075 =( NAMED_UNIT ( * ) PLANE_ANGLE_UNIT ( ) SI_UNIT ( $, .RADIAN. ) );
#1076 = SURFACE_STYLE_USAGE ( .BOTH. , #282 ) ;
#1077 = FILL_AREA_STYLE_COLOUR ( '', #823 ) ;
#1078 =( NAMED_UNIT ( * ) PLANE_ANGLE_UNIT ( ) SI_UNIT ( $, .RADIAN. ) );
#1079 = FILL_AREA_STYLE_COLOUR ( '', #409 ) ;
#1080 =( LENGTH_UNIT ( ) NAMED_UNIT ( * ) SI_UNIT ( .MILLI., .METRE. ) );
#1081 = DIRECTION ( 'NONE',  ( 0.000000000000000000, 1.000000000000000000, 0.000000000000000000 ) ) ;
#1082 = PRODUCT_DEFINITION ( 'ๆ', '', #1190, #618 ) ;
#1083 = UNCERTAINTY_MEASURE_WITH_UNIT (LENGTH_MEASURE( 1.000000000000000082E-05 ), #1210, 'distance_accuracy_value', 'NONE');
#1084 =( NAMED_UNIT ( * ) PLANE_ANGLE_UNIT ( ) SI_UNIT ( $, .RADIAN. ) );
#1085 = VERTEX_POINT ( 'NONE', #138 ) ;
#1086 = CYLINDRICAL_SURFACE ( 'NONE', #702, 0.1000000000000000472 ) ;
#1087 = ORIENTED_EDGE ( 'NONE', *, *, #242, .F. ) ;
#1088 = LINE ( 'NONE', #187, #903 ) ;
#1089 = CARTESIAN_POINT ( 'NONE',  ( -0.6500000000000000222, -1.000000000000000000, 1.159999966620999912 ) ) ;
#1090 = ORIENTED_EDGE ( 'NONE', *, *, #856, .F. ) ;
#1091 = FILL_AREA_STYLE ('',( #1077 ) ) ;
#1092 = CYLINDRICAL_SURFACE ( 'NONE', #226, 0.1000000000000000472 ) ;
#1093 = ORIENTED_EDGE ( 'NONE', *, *, #742, .F. ) ;
#1094 = FACE_OUTER_BOUND ( 'NONE', #438, .T. ) ;
#1095 = ORIENTED_EDGE ( 'NONE', *, *, #1233, .T. ) ;
#1096 = FACE_OUTER_BOUND ( 'NONE', #331, .T. ) ;
#1097 = MECHANICAL_DESIGN_GEOMETRIC_PRESENTATION_REPRESENTATION (  '', ( #27 ), #859 ) ;
#1098 = MECHANICAL_DESIGN_GEOMETRIC_PRESENTATION_REPRESENTATION (  '', ( #140 ), #1065 ) ;
#1099 = PRESENTATION_LAYER_ASSIGNMENT (  '', '', ( #354 ) ) ;
#1100 = COLOUR_RGB ( '',1.000000000000000000, 1.000000000000000000, 1.000000000000000000 ) ;
#1101 = PRESENTATION_LAYER_ASSIGNMENT (  '', '', ( #842 ) ) ;
#1102 = AXIS2_PLACEMENT_3D ( 'NONE', #746, #15, #423 ) ;
#1103 = ORIENTED_EDGE ( 'NONE', *, *, #1239, .F. ) ;
#1104 = PRESENTATION_LAYER_ASSIGNMENT (  '', '', ( #1270 ) ) ;
#1105 = EDGE_CURVE ( 'NONE', #1128, #11, #1289, .T. ) ;
#1106 = SURFACE_SIDE_STYLE ('',( #1182 ) ) ;
#1107 = VECTOR ( 'NONE', #117, 1000.000000000000000 ) ;
#1108 = FILL_AREA_STYLE_COLOUR ( '', #921 ) ;
#1109 = CARTESIAN_POINT ( 'NONE',  ( 1.149999999999999911, 0.9000000000000000222, 3.248061268403999780 ) ) ;
#1110 = VERTEX_POINT ( 'NONE', #1049 ) ;
#1111 = CARTESIAN_POINT ( 'NONE',  ( -1.149999999999999911, 1.000000000000000000, 3.248061268403999780 ) ) ;
#1112 = EDGE_CURVE ( 'NONE', #1006, #1001, #1256, .T. ) ;
#1113 = COLOUR_RGB ( '',1.000000000000000000, 1.000000000000000000, 1.000000000000000000 ) ;
#1114 = UNCERTAINTY_MEASURE_WITH_UNIT (LENGTH_MEASURE( 1.000000000000000082E-05 ), #481, 'distance_accuracy_value', 'NONE');
#1115 = ORIENTED_EDGE ( 'NONE', *, *, #672, .T. ) ;
#1116 = DIRECTION ( 'NONE',  ( 0.000000000000000000, 0.000000000000000000, 1.000000000000000000 ) ) ;
#1117 = PRESENTATION_LAYER_ASSIGNMENT (  '', '', ( #27 ) ) ;
#1118 = VECTOR ( 'NONE', #538, 1000.000000000000000 ) ;
#1119 = CIRCLE ( 'NONE', #1102, 0.1000000000000000472 ) ;
#1120 = CARTESIAN_POINT ( 'NONE',  ( -0.6500000000000000222, -0.9899999999999999911, 0.009999966621399000721 ) ) ;
#1121 = CARTESIAN_POINT ( 'NONE',  ( -1.149999999999999911, -1.000000000000000000, 1.159999966620999912 ) ) ;
#1122 = VERTEX_POINT ( 'NONE', #90 ) ;
#1123 =( LENGTH_UNIT ( ) NAMED_UNIT ( * ) SI_UNIT ( .MILLI., .METRE. ) );
#1124 = ADVANCED_FACE ( 'NONE', ( #1096 ), #1304, .T. ) ;
#1125 = DIRECTION ( 'NONE',  ( 0.000000000000000000, 0.000000000000000000, -1.000000000000000000 ) ) ;
#1126 = UNCERTAINTY_MEASURE_WITH_UNIT (LENGTH_MEASURE( 1.000000000000000082E-05 ), #647, 'distance_accuracy_value', 'NONE');
#1127 =( NAMED_UNIT ( * ) PLANE_ANGLE_UNIT ( ) SI_UNIT ( $, .RADIAN. ) );
#1128 = VERTEX_POINT ( 'NONE', #592 ) ;
#1129 = EDGE_CURVE ( 'NONE', #258, #788, #1088, .T. ) ;
#1130 = CARTESIAN_POINT ( 'NONE',  ( -1.250000000000000000, 1.000000000000000000, 1.209999966620999956 ) ) ;
#1131 = ORIENTED_EDGE ( 'NONE', *, *, #610, .T. ) ;
#1132 = CARTESIAN_POINT ( 'NONE',  ( -0.6500000000000000222, -1.000000000000000000, 3.248061268403999780 ) ) ;
#1133 = DIRECTION ( 'NONE',  ( -5.421010862427999184E-17, -1.000000000000000000, 0.000000000000000000 ) ) ;
#1134 = CIRCLE ( 'NONE', #714, 0.1000000000000000472 ) ;
#1135 = VECTOR ( 'NONE', #791, 1000.000000000000000 ) ;
#1136 = ADVANCED_FACE ( 'NONE', ( #81 ), #605, .T. ) ;
#1137 = CARTESIAN_POINT ( 'NONE',  ( -1.149999999999999911, 1.000000000000000000, 1.209999966620999956 ) ) ;
#1138 = ORIENTED_EDGE ( 'NONE', *, *, #1185, .T. ) ;
#1139 = STYLED_ITEM ( 'NONE', ( #914 ), #1218 ) ;
#1140 = LINE ( 'NONE', #540, #1226 ) ;
#1141 = SURFACE_STYLE_FILL_AREA ( #54 ) ;
#1142 = CARTESIAN_POINT ( 'NONE',  ( 1.149999999999999911, -1.000000000000000000, 1.159999966620999912 ) ) ;
#1143 = FILL_AREA_STYLE ('',( #735 ) ) ;
#1144 = CARTESIAN_POINT ( 'NONE',  ( -0.6500000000000000222, -1.000000000000000000, -3.337860099427999893E-08 ) ) ;
#1145 = DIRECTION ( 'NONE',  ( 0.000000000000000000, 0.000000000000000000, 1.000000000000000000 ) ) ;
#1146 = FACE_OUTER_BOUND ( 'NONE', #650, .T. ) ;
#1147 = FILL_AREA_STYLE ('',( #839 ) ) ;
#1148 = DIRECTION ( 'NONE',  ( -0.000000000000000000, 1.000000000000000000, 0.000000000000000000 ) ) ;
#1149 = CARTESIAN_POINT ( 'NONE',  ( 1.149999999999999911, 0.9000000000000000222, -3.337860099427999893E-08 ) ) ;
#1150 = ORIENTED_EDGE ( 'NONE', *, *, #142, .T. ) ;
#1151 = UNCERTAINTY_MEASURE_WITH_UNIT (LENGTH_MEASURE( 1.000000000000000082E-05 ), #874, 'distance_accuracy_value', 'NONE');
#1152 = FILL_AREA_STYLE ('',( #1041 ) ) ;
#1153 =( NAMED_UNIT ( * ) SI_UNIT ( $, .STERADIAN. ) SOLID_ANGLE_UNIT ( ) );
#1154 = ADVANCED_FACE ( 'NONE', ( #415 ), #784, .T. ) ;
#1155 = CARTESIAN_POINT ( 'NONE',  ( 1.149999999999999911, 1.000000000000000000, 1.209999966620999956 ) ) ;
#1156 = COLOUR_RGB ( '',0.000000000000000000, 0.000000000000000000, 0.000000000000000000 ) ;
#1157 =( GEOMETRIC_REPRESENTATION_CONTEXT ( 3 ) GLOBAL_UNCERTAINTY_ASSIGNED_CONTEXT ( ( #743 ) ) GLOBAL_UNIT_ASSIGNED_CONTEXT ( ( #178, #795, #1302 ) ) REPRESENTATION_CONTEXT ( 'NONE', 'WORKASPACE' ) );
#1158 = PRESENTATION_LAYER_ASSIGNMENT (  '', '', ( #143 ) ) ;
#1159 = FACE_OUTER_BOUND ( 'NONE', #1222, .T. ) ;
#1160 = CARTESIAN_POINT ( 'NONE',  ( -1.149999999999999911, 0.9899999999999999911, 0.009999966621399000721 ) ) ;
#1161 =( GEOMETRIC_REPRESENTATION_CONTEXT ( 3 ) GLOBAL_UNCERTAINTY_ASSIGNED_CONTEXT ( ( #285 ) ) GLOBAL_UNIT_ASSIGNED_CONTEXT ( ( #553, #466, #1153 ) ) REPRESENTATION_CONTEXT ( 'NONE', 'WORKASPACE' ) );
#1162 = ORIENTED_EDGE ( 'NONE', *, *, #1305, .T. ) ;
#1163 = PRESENTATION_LAYER_ASSIGNMENT (  '', '', ( #429 ) ) ;
#1164 = SURFACE_STYLE_FILL_AREA ( #1152 ) ;
#1165 = DIRECTION ( 'NONE',  ( -5.421010862427999184E-17, -1.000000000000000000, 0.000000000000000000 ) ) ;
#1166 = ADVANCED_FACE ( 'NONE', ( #175 ), #1214, .F. ) ;
#1167 = DIRECTION ( 'NONE',  ( -1.204669080538999940E-16, -1.000000000000000000, 0.000000000000000000 ) ) ;
#1168 = DIRECTION ( 'NONE',  ( 0.000000000000000000, 0.000000000000000000, -1.000000000000000000 ) ) ;
#1169 = SURFACE_SIDE_STYLE ('',( #1232 ) ) ;
#1170 =( NAMED_UNIT ( * ) SI_UNIT ( $, .STERADIAN. ) SOLID_ANGLE_UNIT ( ) );
#1171 = ORIENTED_EDGE ( 'NONE', *, *, #1261, .T. ) ;
#1172 = FILL_AREA_STYLE_COLOUR ( '', #1113 ) ;
#1173 = ADVANCED_FACE ( 'NONE', ( #371 ), #212, .T. ) ;
#1174 = CARTESIAN_POINT ( 'NONE',  ( -1.149999999999999911, 0.9000000000000000222, 1.159999966620999912 ) ) ;
#1175 =( LENGTH_UNIT ( ) NAMED_UNIT ( * ) SI_UNIT ( .MILLI., .METRE. ) );
#1176 = VERTEX_POINT ( 'NONE', #1020 ) ;
#1177 = SURFACE_STYLE_USAGE ( .BOTH. , #297 ) ;
#1178 =( NAMED_UNIT ( * ) SI_UNIT ( $, .STERADIAN. ) SOLID_ANGLE_UNIT ( ) );
#1179 = SURFACE_SIDE_STYLE ('',( #75 ) ) ;
#1180 =( GEOMETRIC_REPRESENTATION_CONTEXT ( 3 ) GLOBAL_UNCERTAINTY_ASSIGNED_CONTEXT ( ( #627 ) ) GLOBAL_UNIT_ASSIGNED_CONTEXT ( ( #936, #1062, #1178 ) ) REPRESENTATION_CONTEXT ( 'NONE', 'WORKASPACE' ) );
#1181 =( NAMED_UNIT ( * ) SI_UNIT ( $, .STERADIAN. ) SOLID_ANGLE_UNIT ( ) );
#1182 = SURFACE_STYLE_FILL_AREA ( #777 ) ;
#1183 = PRESENTATION_STYLE_ASSIGNMENT (( #97 ) ) ;
#1184 =( GEOMETRIC_REPRESENTATION_CONTEXT ( 3 ) GLOBAL_UNCERTAINTY_ASSIGNED_CONTEXT ( ( #1151 ) ) GLOBAL_UNIT_ASSIGNED_CONTEXT ( ( #874, #785, #1300 ) ) REPRESENTATION_CONTEXT ( 'NONE', 'WORKASPACE' ) );
#1185 = EDGE_CURVE ( 'NONE', #974, #1056, #112, .T. ) ;
#1186 = ORIENTED_EDGE ( 'NONE', *, *, #160, .F. ) ;
#1187 = ORIENTED_EDGE ( 'NONE', *, *, #1105, .F. ) ;
#1188 =( NAMED_UNIT ( * ) SI_UNIT ( $, .STERADIAN. ) SOLID_ANGLE_UNIT ( ) );
#1189 = CARTESIAN_POINT ( 'NONE',  ( -1.250000000000000000, -0.9000000000000000222, 3.248061268403999780 ) ) ;
#1190 = PRODUCT_DEFINITION_FORMATION_WITH_SPECIFIED_SOURCE ( 'ไป', '', #815, .NOT_KNOWN. ) ;
#1191 = FILL_AREA_STYLE ('',( #94 ) ) ;
#1192 = SURFACE_STYLE_FILL_AREA ( #873 ) ;
#1193 = ORIENTED_EDGE ( 'NONE', *, *, #1034, .F. ) ;
#1194 = ORIENTED_EDGE ( 'NONE', *, *, #893, .T. ) ;
#1195 = DIRECTION ( 'NONE',  ( -1.000000000000000000, -4.336808689942000480E-16, 0.000000000000000000 ) ) ;
#1196 = ORIENTED_EDGE ( 'NONE', *, *, #695, .T. ) ;
#1197 = DIRECTION ( 'NONE',  ( -1.000000000000000000, 4.336808689942000480E-16, 0.000000000000000000 ) ) ;
#1198 = VERTEX_POINT ( 'NONE', #609 ) ;
#1199 =( NAMED_UNIT ( * ) PLANE_ANGLE_UNIT ( ) SI_UNIT ( $, .RADIAN. ) );
#1200 = ORIENTED_EDGE ( 'NONE', *, *, #142, .F. ) ;
#1201 = ORIENTED_EDGE ( 'NONE', *, *, #790, .T. ) ;
#1202 = EDGE_CURVE ( 'NONE', #673, #1198, #1273, .T. ) ;
#1203 = DIRECTION ( 'NONE',  ( 0.000000000000000000, 0.000000000000000000, 1.000000000000000000 ) ) ;
#1204 = PRESENTATION_STYLE_ASSIGNMENT (( #403 ) ) ;
#1205 = DIRECTION ( 'NONE',  ( -1.204669080538999940E-16, -1.000000000000000000, 0.000000000000000000 ) ) ;
#1206 = PRESENTATION_LAYER_ASSIGNMENT (  '', '', ( #353 ) ) ;
#1207 = VECTOR ( 'NONE', #359, 1000.000000000000000 ) ;
#1208 = VECTOR ( 'NONE', #291, 1000.000000000000000 ) ;
#1209 = VECTOR ( 'NONE', #384, 1000.000000000000000 ) ;
#1210 =( LENGTH_UNIT ( ) NAMED_UNIT ( * ) SI_UNIT ( .MILLI., .METRE. ) );
#1211 = VERTEX_POINT ( 'NONE', #708 ) ;
#1212 =( NAMED_UNIT ( * ) SI_UNIT ( $, .STERADIAN. ) SOLID_ANGLE_UNIT ( ) );
#1213 = EDGE_CURVE ( 'NONE', #750, #1006, #910, .T. ) ;
#1214 = PLANE ( 'NONE',  #632 ) ;
#1215 = ORIENTED_EDGE ( 'NONE', *, *, #846, .F. ) ;
#1216 =( NAMED_UNIT ( * ) SI_UNIT ( $, .STERADIAN. ) SOLID_ANGLE_UNIT ( ) );
#1217 = CARTESIAN_POINT ( 'NONE',  ( 1.149999999999999911, 1.000000000000000000, 1.209999966620999956 ) ) ;
#1218 = ADVANCED_FACE ( 'NONE', ( #204 ), #417, .T. ) ;
#1219 = VECTOR ( 'NONE', #465, 1000.000000000000000 ) ;
#1220 = UNCERTAINTY_MEASURE_WITH_UNIT (LENGTH_MEASURE( 1.000000000000000082E-05 ), #737, 'distance_accuracy_value', 'NONE');
#1221 = CARTESIAN_POINT ( 'NONE',  ( 1.149999999999999911, 0.9000000000000000222, 1.159999966620999912 ) ) ;
#1222 = EDGE_LOOP ( 'NONE', ( #786, #611, #582, #1307 ) ) ;
#1223 = LINE ( 'NONE', #130, #1228 ) ;
#1224 =( GEOMETRIC_REPRESENTATION_CONTEXT ( 3 ) GLOBAL_UNCERTAINTY_ASSIGNED_CONTEXT ( ( #759 ) ) GLOBAL_UNIT_ASSIGNED_CONTEXT ( ( #511, #1078, #600 ) ) REPRESENTATION_CONTEXT ( 'NONE', 'WORKASPACE' ) );
#1225 = STYLED_ITEM ( 'NONE', ( #1235 ), #646 ) ;
#1226 = VECTOR ( 'NONE', #114, 1000.000000000000000 ) ;
#1227 = LINE ( 'NONE', #319, #638 ) ;
#1228 = VECTOR ( 'NONE', #1116, 1000.000000000000000 ) ;
#1229 = FACE_OUTER_BOUND ( 'NONE', #105, .T. ) ;
#1230 = SURFACE_STYLE_FILL_AREA ( #816 ) ;
#1231 = ORIENTED_EDGE ( 'NONE', *, *, #325, .T. ) ;
#1232 = SURFACE_STYLE_FILL_AREA ( #587 ) ;
#1233 = EDGE_CURVE ( 'NONE', #1242, #983, #510, .T. ) ;
#1234 = PRODUCT_CONTEXT ( 'NONE', #1298, 'mechanical' ) ;
#1235 = PRESENTATION_STYLE_ASSIGNMENT (( #822 ) ) ;
#1236 = CARTESIAN_POINT ( 'NONE',  ( 0.000000000000000000, 0.000000000000000000, 1.159999966620999912 ) ) ;
#1237 = VERTEX_POINT ( 'NONE', #1120 ) ;
#1238 = DIRECTION ( 'NONE',  ( 1.000000000000000000, 0.000000000000000000, 0.000000000000000000 ) ) ;
#1239 = EDGE_CURVE ( 'NONE', #1007, #100, #1227, .T. ) ;
#1240 =( NAMED_UNIT ( * ) SI_UNIT ( $, .STERADIAN. ) SOLID_ANGLE_UNIT ( ) );
#1241 = FACE_OUTER_BOUND ( 'NONE', #884, .T. ) ;
#1242 = VERTEX_POINT ( 'NONE', #1155 ) ;
#1243 = DIRECTION ( 'NONE',  ( 0.000000000000000000, -1.000000000000000000, 0.000000000000000000 ) ) ;
#1244 = VECTOR ( 'NONE', #561, 1000.000000000000000 ) ;
#1245 = APPLICATION_PROTOCOL_DEFINITION ( 'draft international standard', 'automotive_design', 1998, #1298 ) ;
#1246 = PRESENTATION_LAYER_ASSIGNMENT (  '', '', ( #1292 ) ) ;
#1247 = AXIS2_PLACEMENT_3D ( 'NONE', #1130, #1243, #635 ) ;
#1248 = SURFACE_SIDE_STYLE ('',( #432 ) ) ;
#1249 = CARTESIAN_POINT ( 'NONE',  ( -1.250000000000000000, -0.9000000000000000222, 3.248061268403999780 ) ) ;
#1250 = DIRECTION ( 'NONE',  ( 0.000000000000000000, 0.000000000000000000, 1.000000000000000000 ) ) ;
#1251 = CIRCLE ( 'NONE', #1051, 0.1000000000000000472 ) ;
#1252 = SURFACE_STYLE_FILL_AREA ( #21 ) ;
#1253 = DIRECTION ( 'NONE',  ( -1.000000000000000000, 0.000000000000000000, 0.000000000000000000 ) ) ;
#1254 = SURFACE_STYLE_FILL_AREA ( #490 ) ;
#1255 = EDGE_CURVE ( 'NONE', #3, #171, #14, .T. ) ;
#1256 = LINE ( 'NONE', #148, #1244 ) ;
#1257 = CARTESIAN_POINT ( 'NONE',  ( -0.6500000000000000222, -1.000000000000000000, 1.159999966620999912 ) ) ;
#1258 =( NAMED_UNIT ( * ) SI_UNIT ( $, .STERADIAN. ) SOLID_ANGLE_UNIT ( ) );
#1259 = SURFACE_STYLE_USAGE ( .BOTH. , #867 ) ;
#1260 = VERTEX_POINT ( 'NONE', #1142 ) ;
#1261 = EDGE_CURVE ( 'NONE', #1237, #926, #657, .T. ) ;
#1262 = CARTESIAN_POINT ( 'NONE',  ( -1.149999999999999911, 1.000000000000000000, 1.159999966620999912 ) ) ;
#1263 = MECHANICAL_DESIGN_GEOMETRIC_PRESENTATION_REPRESENTATION (  '', ( #302 ), #1014 ) ;
#1264 = DIRECTION ( 'NONE',  ( 0.000000000000000000, -1.000000000000000000, 0.000000000000000000 ) ) ;
#1265 = DIRECTION ( 'NONE',  ( 0.000000000000000000, 0.000000000000000000, -1.000000000000000000 ) ) ;
#1266 = CARTESIAN_POINT ( 'NONE',  ( 0.6500000000000000222, -1.000000000000000000, -3.337860099427999893E-08 ) ) ;
#1267 =( GEOMETRIC_REPRESENTATION_CONTEXT ( 3 ) GLOBAL_UNCERTAINTY_ASSIGNED_CONTEXT ( ( #825 ) ) GLOBAL_UNIT_ASSIGNED_CONTEXT ( ( #934, #1058, #59 ) ) REPRESENTATION_CONTEXT ( 'NONE', 'WORKASPACE' ) );
#1268 =( GEOMETRIC_REPRESENTATION_CONTEXT ( 3 ) GLOBAL_UNCERTAINTY_ASSIGNED_CONTEXT ( ( #551 ) ) GLOBAL_UNIT_ASSIGNED_CONTEXT ( ( #959, #237, #335 ) ) REPRESENTATION_CONTEXT ( 'NONE', 'WORKASPACE' ) );
#1269 = VERTEX_POINT ( 'NONE', #430 ) ;
#1270 = STYLED_ITEM ( 'NONE', ( #84 ), #203 ) ;
#1271 = FACE_OUTER_BOUND ( 'NONE', #1277, .T. ) ;
#1272 = PLANE ( 'NONE',  #61 ) ;
#1273 = CIRCLE ( 'NONE', #484, 0.1000000000000000472 ) ;
#1274 = LINE ( 'NONE', #151, #804 ) ;
#1275 = FILL_AREA_STYLE ('',( #170 ) ) ;
#1276 = ORIENTED_EDGE ( 'NONE', *, *, #118, .T. ) ;
#1277 = EDGE_LOOP ( 'NONE', ( #560, #505, #1231, #691, #420, #697 ) ) ;
#1278 = CARTESIAN_POINT ( 'NONE',  ( 1.149999999999999911, -1.000000000000000000, 1.159999966620999912 ) ) ;
#1279 = DIRECTION ( 'NONE',  ( 0.000000000000000000, 1.000000000000000000, 0.000000000000000000 ) ) ;
#1280 = EDGE_CURVE ( 'NONE', #50, #1242, #1251, .T. ) ;
#1281 = PRODUCT_DEFINITION_SHAPE ( 'NONE', 'NONE',  #1082 ) ;
#1282 = PLANE ( 'NONE',  #943 ) ;
#1283 = CARTESIAN_POINT ( 'NONE',  ( 0.6500000000000000222, -1.000000000000000000, 3.248061268403999780 ) ) ;
#1284 = ORIENTED_EDGE ( 'NONE', *, *, #1129, .F. ) ;
#1285 = ORIENTED_EDGE ( 'NONE', *, *, #1105, .T. ) ;
#1286 = DIRECTION ( 'NONE',  ( 0.000000000000000000, -1.000000000000000000, 0.000000000000000000 ) ) ;
#1287 = CARTESIAN_POINT ( 'NONE',  ( 1.149999999999999911, -1.000000000000000000, 1.209999966620999956 ) ) ;
#1288 = DIRECTION ( 'NONE',  ( -1.000000000000000000, 0.000000000000000000, 0.000000000000000000 ) ) ;
#1289 = CIRCLE ( 'NONE', #968, 0.1000000000000000472 ) ;
#1290 = DIRECTION ( 'NONE',  ( 0.000000000000000000, 0.000000000000000000, -1.000000000000000000 ) ) ;
#1291 = FILL_AREA_STYLE_COLOUR ( '', #651 ) ;
#1292 = STYLED_ITEM ( 'NONE', ( #723 ), #664 ) ;
#1293 = EDGE_LOOP ( 'NONE', ( #1193, #667, #309, #280, #1115, #1048, #512, #1150 ) ) ;
#1294 = VECTOR ( 'NONE', #844, 1000.000000000000000 ) ;
#1295 = FILL_AREA_STYLE ('',( #499 ) ) ;
#1296 = CARTESIAN_POINT ( 'NONE',  ( 1.250000000000000000, 1.000000000000000000, 1.209999966620999956 ) ) ;
#1297 = ORIENTED_EDGE ( 'NONE', *, *, #1034, .T. ) ;
#1298 = APPLICATION_CONTEXT ( 'automotive_design' ) ;
#1299 = DIRECTION ( 'NONE',  ( -1.000000000000000000, 0.000000000000000000, 0.000000000000000000 ) ) ;
#1300 =( NAMED_UNIT ( * ) SI_UNIT ( $, .STERADIAN. ) SOLID_ANGLE_UNIT ( ) );
#1301 = ORIENTED_EDGE ( 'NONE', *, *, #598, .F. ) ;
#1302 =( NAMED_UNIT ( * ) SI_UNIT ( $, .STERADIAN. ) SOLID_ANGLE_UNIT ( ) );
#1303 = ORIENTED_EDGE ( 'NONE', *, *, #53, .T. ) ;
#1304 = CYLINDRICAL_SURFACE ( 'NONE', #732, 0.1000000000000000472 ) ;
#1305 = EDGE_CURVE ( 'NONE', #258, #1056, #845, .T. ) ;
#1306 = VERTEX_POINT ( 'NONE', #38 ) ;
#1307 = ORIENTED_EDGE ( 'NONE', *, *, #418, .F. ) ;
#1308 = FILL_AREA_STYLE_COLOUR ( '', #56 ) ;
#1309 = PRESENTATION_LAYER_ASSIGNMENT (  '', '', ( #302 ) ) ;
#1310 = VECTOR ( 'NONE', #283, 1000.000000000000000 ) ;
#1311 = CIRCLE ( 'NONE', #356, 0.1000000000000000472 ) ;
#1312 =( GEOMETRIC_REPRESENTATION_CONTEXT ( 3 ) GLOBAL_UNCERTAINTY_ASSIGNED_CONTEXT ( ( #243 ) ) GLOBAL_UNIT_ASSIGNED_CONTEXT ( ( #626, #1025, #233 ) ) REPRESENTATION_CONTEXT ( 'NONE', 'WORKASPACE' ) );
#1313 = EDGE_CURVE ( 'NONE', #898, #393, #174, .T. ) ;
#1314 = MECHANICAL_DESIGN_GEOMETRIC_PRESENTATION_REPRESENTATION (  '', ( #1139 ), #109 ) ;
#1315 = EDGE_LOOP ( 'NONE', ( #772, #1196, #1138, #1303 ) ) ;
#1316 = FILL_AREA_STYLE_COLOUR ( '', #1064 ) ;
ENDSEC;
END-ISO-10303-21;
